<svg width="16" height="16" viewBox="0 0 16 16" fill="none" xmlns="http://www.w3.org/2000/svg">
<path d="M12.168 10.5843C11.6453 10.0683 10.9927 10.0683 10.4733 10.5843C10.0771 10.9772 9.68089 11.3701 9.29135 11.7696C9.1848 11.8795 9.09491 11.9028 8.96506 11.8295C8.70869 11.6897 8.43568 11.5765 8.1893 11.4233C7.04064 10.7009 6.07843 9.77194 5.22609 8.72649C4.80325 8.2071 4.42702 7.65108 4.16399 7.02515C4.11072 6.89863 4.12071 6.81539 4.22392 6.71218C4.62013 6.32929 5.00634 5.93642 5.39589 5.54354C5.93859 4.99751 5.93859 4.35826 5.39256 3.8089C5.08292 3.49593 4.77328 3.18962 4.46364 2.87665C4.14402 2.55703 3.82772 2.23407 3.50476 1.91777C2.98204 1.40837 2.32947 1.40837 1.81007 1.9211C1.41054 2.31398 1.02765 2.71684 0.621461 3.10306C0.245233 3.45931 0.0554549 3.89546 0.0155015 4.40487C-0.0477581 5.2339 0.155338 6.01632 0.441671 6.77877C1.02765 8.35693 1.91995 9.75862 3.00202 11.0438C4.46364 12.7818 6.20828 14.1568 8.24923 15.149C9.16816 15.5951 10.1204 15.9381 11.1558 15.9947C11.8683 16.0346 12.4876 15.8548 12.9837 15.2988C13.3233 14.9193 13.7062 14.573 14.0658 14.2101C14.5985 13.6707 14.6018 13.0182 14.0724 12.4854C13.4398 11.8495 12.8039 11.2169 12.168 10.5843Z" fill="white"/>
<path d="M11.531 7.93077L12.7596 7.72101C12.5665 6.59233 12.0337 5.57019 11.2247 4.7578C10.369 3.90213 9.28695 3.36276 8.09501 3.19629L7.92188 4.43151C8.84413 4.56136 9.68315 4.97754 10.3457 5.6401C10.9716 6.26604 11.3812 7.05845 11.531 7.93077Z" fill="white"/>
<path d="M13.453 2.59031C12.0347 1.17197 10.2401 0.276344 8.25907 0L8.08594 1.23523C9.79728 1.47495 11.3488 2.25071 12.574 3.47262C13.736 4.63459 14.4985 6.10288 14.7748 7.71766L16.0034 7.50791C15.6804 5.63676 14.7981 3.93874 13.453 2.59031Z" fill="white"/>
</svg>
