<svg width="195" height="54" viewBox="0 0 195 54" fill="none" xmlns="http://www.w3.org/2000/svg">
<mask id="mask0" mask-type="alpha" maskUnits="userSpaceOnUse" x="0" y="0" width="54" height="54">
<circle cx="27" cy="27" r="27" fill="#C4C4C4"/>
</mask>
<g mask="url(#mask0)">
<rect y="13.955" width="54" height="26.0899" fill="#508FF7"/>
<path fill-rule="evenodd" clip-rule="evenodd" d="M12.1328 19.1124V16.382H26.3912V19.1124L16.9867 37.3146H13.6497L22.4474 19.1124H12.1328ZM40.0429 16.382H35.4924C35.4924 16.382 30.0317 23.0562 28.2115 26.0899C26.3912 29.1236 26.7553 37.9213 34.2789 37.9213C41.7334 37.9213 41.9607 32.6598 42.0626 30.3008L42.0654 30.236C42.1665 27.9101 40.6497 25.7865 38.5261 24.573C36.4025 23.3595 33.6721 24.2697 33.6721 24.2697C33.3347 24.4384 35.4704 21.8798 37.5511 19.3871L37.5512 19.387L37.5512 19.387C38.4633 18.2942 39.3649 17.2141 40.0429 16.382ZM34.5848 27.3034C32.4067 27.3034 30.641 29.0691 30.641 31.2472C30.641 33.4253 32.4067 35.191 34.5848 35.191C36.7629 35.191 38.5286 33.4253 38.5286 31.2472C38.5286 29.0691 36.7629 27.3034 34.5848 27.3034Z" fill="white"/>
<path d="M12.1328 16.382V15.882H11.6328V16.382H12.1328ZM12.1328 19.1124H11.6328V19.6124H12.1328V19.1124ZM26.3912 16.382H26.8912V15.882H26.3912V16.382ZM26.3912 19.1124L26.8355 19.3419L26.8912 19.2339V19.1124H26.3912ZM16.9867 37.3146V37.8146H17.2912L17.431 37.5441L16.9867 37.3146ZM13.6497 37.3146L13.1995 37.097L12.8527 37.8146H13.6497V37.3146ZM22.4474 19.1124L22.8976 19.3299L23.2444 18.6124H22.4474V19.1124ZM35.4924 16.382V15.882H35.2554L35.1054 16.0654L35.4924 16.382ZM40.0429 16.382L40.4305 16.6979L41.0953 15.882H40.0429V16.382ZM42.0626 30.3008L41.5631 30.2792L41.5631 30.2792L42.0626 30.3008ZM42.0654 30.236L41.5659 30.2142L41.5659 30.2143L42.0654 30.236ZM38.5261 24.573L38.7741 24.1389L38.5261 24.573ZM33.6721 24.2697L33.514 23.7953L33.4803 23.8066L33.4485 23.8224L33.6721 24.2697ZM37.5511 19.3871L37.935 19.7075L37.9392 19.7024L37.5511 19.3871ZM37.5512 19.387L37.166 19.0682L37.1631 19.0717L37.5512 19.387ZM37.5512 19.387L37.1673 19.0666L37.166 19.0682L37.5512 19.387ZM11.6328 16.382V19.1124H12.6328V16.382H11.6328ZM26.3912 15.882H12.1328V16.882H26.3912V15.882ZM26.8912 19.1124V16.382H25.8912V19.1124H26.8912ZM17.431 37.5441L26.8355 19.3419L25.947 18.8828L16.5425 37.0851L17.431 37.5441ZM13.6497 37.8146H16.9867V36.8146H13.6497V37.8146ZM21.9972 18.8948L13.1995 37.097L14.0998 37.5322L22.8976 19.3299L21.9972 18.8948ZM12.1328 19.6124H22.4474V18.6124H12.1328V19.6124ZM35.4924 16.882H40.0429V15.882H35.4924V16.882ZM28.6402 26.3471C29.5323 24.8603 31.3337 22.4566 32.9292 20.4053C33.7235 19.384 34.4613 18.457 35.0006 17.7853C35.2702 17.4495 35.4901 17.1776 35.6425 16.9897C35.7186 16.8958 35.778 16.8229 35.8182 16.7736C35.8383 16.7489 35.8536 16.7301 35.8639 16.7175C35.8691 16.7112 35.8729 16.7065 35.8755 16.7033C35.8768 16.7017 35.8778 16.7005 35.8784 16.6998C35.8787 16.6994 35.879 16.6991 35.8791 16.6989C35.8792 16.6988 35.8793 16.6987 35.8793 16.6987C35.8793 16.6987 35.8793 16.6986 35.4924 16.382C35.1054 16.0654 35.1054 16.0654 35.1053 16.0655C35.1053 16.0656 35.1052 16.0656 35.1051 16.0658C35.1049 16.066 35.1047 16.0663 35.1043 16.0667C35.1036 16.0675 35.1026 16.0688 35.1013 16.0704C35.0986 16.0737 35.0946 16.0786 35.0894 16.085C35.0789 16.0979 35.0633 16.1169 35.043 16.1419C35.0023 16.1917 34.9426 16.2652 34.8659 16.3597C34.7125 16.5487 34.4916 16.8219 34.2208 17.1592C33.6793 17.8337 32.9382 18.7649 32.1398 19.7913C30.5499 21.8355 28.7109 24.2857 27.7827 25.8326L28.6402 26.3471ZM34.2789 37.4213C32.5018 37.4213 31.1835 36.9044 30.2179 36.1127C29.2465 35.3161 28.5987 34.2137 28.2186 32.9944C27.8382 31.7744 27.7322 30.4557 27.8319 29.2599C27.9321 28.0574 28.2366 27.0198 28.6402 26.3471L27.7827 25.8326C27.2762 26.6768 26.9437 27.8766 26.8353 29.1769C26.7264 30.4839 26.8403 31.9335 27.2639 33.2921C27.6877 34.6515 28.4278 35.9381 29.5838 36.8859C30.7456 37.8386 32.2942 38.4213 34.2789 38.4213V37.4213ZM41.5631 30.2792C41.5115 31.4715 41.4262 33.2476 40.5034 34.7317C39.6116 36.1656 37.8712 37.4213 34.2789 37.4213V38.4213C38.141 38.4213 40.2416 37.0463 41.3525 35.2597C42.4324 33.5232 42.5117 31.4891 42.5621 30.3224L41.5631 30.2792ZM41.5659 30.2143L41.5631 30.2792L42.5621 30.3224L42.5649 30.2576L41.5659 30.2143ZM38.278 25.0072C40.2906 26.1572 41.6566 28.1281 41.5659 30.2142L42.5649 30.2577C42.6765 27.6921 41.0088 25.4158 38.7741 24.1389L38.278 25.0072ZM33.6721 24.2697C33.8303 24.744 33.8301 24.744 33.83 24.7441C33.83 24.7441 33.8298 24.7441 33.8298 24.7442C33.8297 24.7442 33.8296 24.7442 33.8296 24.7442C33.8295 24.7442 33.8296 24.7442 33.8299 24.7441C33.8304 24.744 33.8315 24.7436 33.8333 24.743C33.8369 24.7418 33.843 24.7399 33.8516 24.7372C33.8686 24.7319 33.8954 24.7239 33.931 24.7137C34.0022 24.6933 34.1086 24.6648 34.2438 24.6337C34.5148 24.5715 34.8979 24.5003 35.3426 24.4647C36.242 24.3927 37.3397 24.471 38.278 25.0072L38.7741 24.1389C37.5889 23.4616 36.2596 23.3881 35.2629 23.4679C34.7596 23.5081 34.3274 23.5886 34.0201 23.6591C33.8661 23.6944 33.7426 23.7275 33.6562 23.7522C33.613 23.7645 33.579 23.7748 33.5551 23.7822C33.5431 23.7859 33.5336 23.789 33.5267 23.7912C33.5233 23.7923 33.5205 23.7932 33.5184 23.7939C33.5173 23.7942 33.5164 23.7945 33.5157 23.7948C33.5153 23.7949 33.515 23.795 33.5147 23.7951C33.5146 23.7951 33.5144 23.7952 33.5143 23.7952C33.5142 23.7953 33.514 23.7953 33.6721 24.2697ZM37.1673 19.0667C36.1279 20.3118 35.0708 21.5782 34.3159 22.5121C33.9398 22.9775 33.6323 23.3682 33.4387 23.6346C33.3473 23.7605 33.2618 23.8848 33.2119 23.9819C33.1986 24.0079 33.18 24.0466 33.1651 24.0921C33.1577 24.1148 33.1155 24.2367 33.1507 24.3852C33.1726 24.4778 33.2285 24.5942 33.3467 24.6801C33.4595 24.7622 33.5765 24.778 33.6504 24.7776C33.7772 24.7769 33.872 24.7287 33.8957 24.7169L33.4485 23.8224C33.4511 23.8211 33.5298 23.7782 33.645 23.7776C33.713 23.7772 33.8254 23.7918 33.9348 23.8713C34.0495 23.9547 34.103 24.0672 34.1238 24.1548C34.1566 24.2933 34.1165 24.4 34.1156 24.4029C34.1072 24.4285 34.0995 24.4425 34.1013 24.4391C34.1117 24.4189 34.1539 24.3516 34.2478 24.2223C34.4248 23.9786 34.718 23.6055 35.0937 23.1407C35.8424 22.2144 36.8936 20.955 37.935 19.7075L37.1673 19.0667ZM37.1631 19.0717L37.1631 19.0718L37.9392 19.7024L37.9392 19.7023L37.1631 19.0717ZM37.166 19.0682L37.166 19.0682L37.9364 19.7058L37.9364 19.7057L37.166 19.0682ZM39.6553 16.0662C38.9796 16.8955 38.0802 17.973 37.1674 19.0666L37.935 19.7074C38.8465 18.6155 39.7502 17.5328 40.4305 16.6979L39.6553 16.0662ZM31.141 31.2472C31.141 29.3452 32.6828 27.8034 34.5848 27.8034V26.8034C32.1305 26.8034 30.141 28.7929 30.141 31.2472H31.141ZM34.5848 34.691C32.6828 34.691 31.141 33.1492 31.141 31.2472H30.141C30.141 33.7014 32.1305 35.691 34.5848 35.691V34.691ZM38.0286 31.2472C38.0286 33.1492 36.4868 34.691 34.5848 34.691V35.691C37.039 35.691 39.0286 33.7014 39.0286 31.2472H38.0286ZM34.5848 27.8034C36.4868 27.8034 38.0286 29.3452 38.0286 31.2472H39.0286C39.0286 28.7929 37.039 26.8034 34.5848 26.8034V27.8034Z" fill="#508FF7"/>
<circle cx="27" cy="27" r="25.5" stroke="#508FF7" stroke-width="3"/>
</g>
<path d="M73.312 20.354L72.394 23H69.928L74.68 10.4H76.984L81.736 23H79.27L78.352 20.354H73.312ZM73.924 18.446H77.74L75.832 12.848L73.924 18.446ZM82.9679 13.856H87.8999C89.8799 13.856 90.8699 14.594 90.8699 16.07C90.8699 16.694 90.6899 17.186 90.3299 17.546C89.9699 17.894 89.5619 18.11 89.1059 18.194V18.23C90.4979 18.53 91.1939 19.316 91.1939 20.588C91.1939 21.452 90.8819 22.07 90.2579 22.442C89.6339 22.814 88.8359 23 87.8639 23H82.9679V13.856ZM85.1279 15.332V17.528H86.9819C87.5939 17.528 88.0259 17.414 88.2779 17.186C88.5299 16.958 88.6559 16.688 88.6559 16.376C88.6559 15.68 88.1759 15.332 87.2159 15.332H85.1279ZM85.1279 19.004V21.524H87.1799C88.3679 21.524 88.9619 21.122 88.9619 20.318C88.9619 19.442 88.3439 19.004 87.1079 19.004H85.1279ZM95.3738 15.332H92.2418V13.856H100.666V15.332H97.5338V23H95.3738V15.332ZM104.061 13.856C104.637 13.616 105.297 13.496 106.041 13.496C106.785 13.496 107.445 13.616 108.021 13.856C108.597 14.084 109.053 14.372 109.389 14.72C109.725 15.068 110.001 15.476 110.217 15.944C110.433 16.412 110.577 16.844 110.649 17.24C110.721 17.636 110.757 18.032 110.757 18.428C110.757 18.824 110.721 19.22 110.649 19.616C110.577 20.012 110.433 20.444 110.217 20.912C110.001 21.38 109.725 21.788 109.389 22.136C109.053 22.484 108.597 22.772 108.021 23C107.445 23.24 106.785 23.36 106.041 23.36C105.297 23.36 104.637 23.24 104.061 23C103.485 22.772 103.029 22.484 102.693 22.136C102.357 21.788 102.081 21.386 101.865 20.93C101.649 20.462 101.505 20.03 101.433 19.634C101.361 19.226 101.325 18.824 101.325 18.428C101.325 18.032 101.361 17.636 101.433 17.24C101.505 16.844 101.649 16.412 101.865 15.944C102.081 15.476 102.357 15.068 102.693 14.72C103.029 14.372 103.485 14.084 104.061 13.856ZM106.761 15.08C106.533 15.008 106.293 14.972 106.041 14.972C105.789 14.972 105.549 15.008 105.321 15.08C105.093 15.152 104.835 15.296 104.547 15.512C104.271 15.728 104.049 16.088 103.881 16.592C103.713 17.084 103.629 17.696 103.629 18.428C103.629 19.16 103.713 19.778 103.881 20.282C104.049 20.774 104.271 21.128 104.547 21.344C104.835 21.56 105.093 21.704 105.321 21.776C105.549 21.848 105.789 21.884 106.041 21.884C106.293 21.884 106.533 21.848 106.761 21.776C106.989 21.704 107.241 21.56 107.517 21.344C107.805 21.128 108.033 20.774 108.201 20.282C108.369 19.778 108.453 19.16 108.453 18.428C108.453 17.696 108.369 17.084 108.201 16.592C108.033 16.088 107.805 15.728 107.517 15.512C107.241 15.296 106.989 15.152 106.761 15.08ZM114.993 21.524H118.413V13.856H120.573V21.524H123.993V13.856H126.153V23H112.833V13.856H114.993V21.524ZM130.901 17.672L134.375 13.856H136.859L132.791 18.122L137.057 23H134.573L130.901 18.572V23H128.741V13.856H130.901V17.672ZM140.5 13.856C141.076 13.616 141.736 13.496 142.48 13.496C143.224 13.496 143.884 13.616 144.46 13.856C145.036 14.084 145.492 14.372 145.828 14.72C146.164 15.068 146.44 15.476 146.656 15.944C146.872 16.412 147.016 16.844 147.088 17.24C147.16 17.636 147.196 18.032 147.196 18.428C147.196 18.824 147.16 19.22 147.088 19.616C147.016 20.012 146.872 20.444 146.656 20.912C146.44 21.38 146.164 21.788 145.828 22.136C145.492 22.484 145.036 22.772 144.46 23C143.884 23.24 143.224 23.36 142.48 23.36C141.736 23.36 141.076 23.24 140.5 23C139.924 22.772 139.468 22.484 139.132 22.136C138.796 21.788 138.52 21.386 138.304 20.93C138.088 20.462 137.944 20.03 137.872 19.634C137.8 19.226 137.764 18.824 137.764 18.428C137.764 18.032 137.8 17.636 137.872 17.24C137.944 16.844 138.088 16.412 138.304 15.944C138.52 15.476 138.796 15.068 139.132 14.72C139.468 14.372 139.924 14.084 140.5 13.856ZM143.2 15.08C142.972 15.008 142.732 14.972 142.48 14.972C142.228 14.972 141.988 15.008 141.76 15.08C141.532 15.152 141.274 15.296 140.986 15.512C140.71 15.728 140.488 16.088 140.32 16.592C140.152 17.084 140.068 17.696 140.068 18.428C140.068 19.16 140.152 19.778 140.32 20.282C140.488 20.774 140.71 21.128 140.986 21.344C141.274 21.56 141.532 21.704 141.76 21.776C141.988 21.848 142.228 21.884 142.48 21.884C142.732 21.884 142.972 21.848 143.2 21.776C143.428 21.704 143.68 21.56 143.956 21.344C144.244 21.128 144.472 20.774 144.64 20.282C144.808 19.778 144.892 19.16 144.892 18.428C144.892 17.696 144.808 17.084 144.64 16.592C144.472 16.088 144.244 15.728 143.956 15.512C143.68 15.296 143.428 15.152 143.2 15.08ZM148.211 23V21.524C148.631 21.596 148.979 21.578 149.255 21.47C149.543 21.35 149.759 21.14 149.903 20.84C150.047 20.54 150.149 20.222 150.209 19.886C150.269 19.55 150.305 19.136 150.317 18.644V16.844V13.856H157.319V23H155.159V15.332H152.333V17.042C152.333 17.846 152.315 18.5 152.279 19.004C152.255 19.496 152.165 20.066 152.009 20.714C151.865 21.362 151.655 21.854 151.379 22.19C151.103 22.526 150.695 22.784 150.155 22.964C149.627 23.144 148.979 23.156 148.211 23ZM161.563 16.682H159.511C159.487 15.77 159.823 15.014 160.519 14.414C161.215 13.802 162.271 13.496 163.687 13.496C164.383 13.496 164.989 13.58 165.505 13.748C166.021 13.904 166.411 14.096 166.675 14.324C166.939 14.54 167.143 14.81 167.287 15.134C167.443 15.458 167.539 15.74 167.575 15.98C167.611 16.208 167.629 16.46 167.629 16.736V20.39C167.629 20.87 167.671 21.182 167.755 21.326C167.839 21.47 168.061 21.53 168.421 21.506V23C168.049 23.036 167.731 23.054 167.467 23.054C166.423 23.054 165.829 22.658 165.685 21.866C164.977 22.766 163.963 23.216 162.643 23.216C162.043 23.216 161.521 23.144 161.077 23C160.633 22.868 160.297 22.706 160.069 22.514C159.853 22.322 159.679 22.094 159.547 21.83C159.427 21.554 159.349 21.326 159.313 21.146C159.289 20.966 159.277 20.774 159.277 20.57C159.277 20.126 159.361 19.736 159.529 19.4C159.709 19.052 159.925 18.788 160.177 18.608C160.441 18.428 160.669 18.296 160.861 18.212C161.053 18.116 161.227 18.05 161.383 18.014C161.587 17.954 161.803 17.906 162.031 17.87C162.259 17.834 162.517 17.798 162.805 17.762C163.093 17.726 163.327 17.696 163.507 17.672C163.603 17.648 163.747 17.63 163.939 17.618C164.143 17.594 164.293 17.57 164.389 17.546C164.641 17.51 164.809 17.486 164.893 17.474C164.977 17.462 165.079 17.426 165.199 17.366C165.319 17.294 165.391 17.198 165.415 17.078C165.451 16.946 165.469 16.772 165.469 16.556C165.469 15.5 164.875 14.972 163.687 14.972C162.943 14.972 162.397 15.14 162.049 15.476C161.701 15.8 161.539 16.202 161.563 16.682ZM165.469 18.932V18.608C165.253 18.764 164.737 18.89 163.921 18.986C163.537 19.034 163.255 19.076 163.075 19.112C162.907 19.136 162.697 19.184 162.445 19.256C162.205 19.328 162.031 19.412 161.923 19.508C161.815 19.604 161.719 19.736 161.635 19.904C161.551 20.072 161.509 20.27 161.509 20.498C161.509 20.87 161.623 21.17 161.851 21.398C162.091 21.626 162.451 21.74 162.931 21.74C163.243 21.74 163.531 21.704 163.795 21.632C164.059 21.56 164.323 21.428 164.587 21.236C164.863 21.044 165.079 20.756 165.235 20.372C165.391 19.976 165.469 19.496 165.469 18.932ZM173.741 12.308V10.4H183.461V11.984C181.961 13.532 180.785 15.326 179.933 17.366C179.513 18.314 179.213 19.19 179.033 19.994C178.853 20.798 178.709 21.8 178.601 23H176.189C176.405 21.26 176.897 19.49 177.665 17.69C178.541 15.71 179.771 13.916 181.355 12.308H173.741ZM193.984 13.262H191.77C191.566 12.374 190.9 11.93 189.772 11.93C188.044 11.93 187.126 13.148 187.018 15.584H187.054C187.606 14.828 188.554 14.45 189.898 14.45C191.194 14.45 192.214 14.828 192.958 15.584C193.702 16.34 194.074 17.414 194.074 18.806C194.074 20.234 193.654 21.356 192.814 22.172C191.986 22.976 190.852 23.378 189.412 23.378C188.728 23.378 188.122 23.288 187.594 23.108C187.066 22.928 186.64 22.676 186.316 22.352C185.992 22.016 185.716 21.662 185.488 21.29C185.272 20.906 185.11 20.474 185.002 19.994C184.906 19.502 184.84 19.064 184.804 18.68C184.768 18.284 184.75 17.858 184.75 17.402C184.75 16.166 184.858 15.086 185.074 14.162C185.29 13.238 185.56 12.518 185.884 12.002C186.208 11.486 186.604 11.072 187.072 10.76C187.552 10.448 187.996 10.25 188.404 10.166C188.824 10.07 189.28 10.022 189.772 10.022C191.044 10.022 192.028 10.334 192.724 10.958C193.432 11.582 193.852 12.35 193.984 13.262ZM187.09 18.914C187.09 19.226 187.12 19.52 187.18 19.796C187.252 20.06 187.366 20.33 187.522 20.606C187.678 20.87 187.918 21.08 188.242 21.236C188.566 21.392 188.956 21.47 189.412 21.47C190.192 21.47 190.774 21.236 191.158 20.768C191.542 20.288 191.734 19.67 191.734 18.914C191.734 18.158 191.542 17.546 191.158 17.078C190.774 16.598 190.192 16.358 189.412 16.358C188.548 16.358 187.942 16.616 187.594 17.132C187.258 17.636 187.09 18.23 187.09 18.914Z" fill="#293851"/>
<path d="M76.174 41.508H77.098C77.014 42.3573 76.706 43.048 76.174 43.58C75.8847 43.8693 75.5767 44.056 75.25 44.14C74.9327 44.2333 74.5547 44.28 74.116 44.28C73.1267 44.28 72.3613 44.0187 71.82 43.496C71.1013 42.8053 70.742 41.7647 70.742 40.374C70.742 39.1327 71.0453 38.1853 71.652 37.532C72.1933 36.916 72.996 36.608 74.06 36.608C74.9933 36.608 75.7167 36.8553 76.23 37.35C76.6687 37.7887 76.9347 38.3487 77.028 39.03H76.104C76.0573 38.5913 75.894 38.218 75.614 37.91C75.2593 37.5087 74.7647 37.308 74.13 37.308C73.4673 37.308 72.926 37.518 72.506 37.938C72.0113 38.4327 71.764 39.2353 71.764 40.346C71.764 41.5313 72.0487 42.4087 72.618 42.978C73.0193 43.3793 73.5233 43.58 74.13 43.58C74.7367 43.58 75.208 43.4027 75.544 43.048C75.9173 42.6467 76.1273 42.1333 76.174 41.508ZM83.9703 41.942H84.8943C84.7729 42.5207 84.5163 43.0247 84.1243 43.454C83.5923 44.0047 82.8363 44.28 81.8563 44.28C80.8296 44.28 80.0269 44.0047 79.4483 43.454C78.7483 42.7727 78.3983 41.76 78.3983 40.416C78.3983 39.128 78.7249 38.1573 79.3783 37.504C79.9756 36.9067 80.7783 36.608 81.7863 36.608C82.7569 36.608 83.5129 36.888 84.0543 37.448C84.4089 37.812 84.6423 38.2413 84.7543 38.736C84.8756 39.2307 84.9503 39.8607 84.9783 40.626H79.4062C79.4436 41.634 79.6956 42.3853 80.1623 42.88C80.5823 43.3467 81.1609 43.58 81.8983 43.58C82.5049 43.58 82.9949 43.4027 83.3683 43.048C83.6203 42.824 83.8209 42.4553 83.9703 41.942ZM81.7722 37.308C81.0443 37.308 80.4749 37.5367 80.0643 37.994C79.6256 38.498 79.4062 39.142 79.4062 39.926H83.9563C83.9563 39.5993 83.8956 39.2307 83.7743 38.82C83.6529 38.4093 83.4849 38.0967 83.2703 37.882C82.9063 37.4993 82.4069 37.308 81.7722 37.308ZM88.2847 37.588H85.8067V36.888H91.7147V37.588H89.2507V44H88.2847V37.588ZM92.899 36.888H93.865V39.758H95.797C96.6276 39.758 97.225 39.8653 97.589 40.08C98.205 40.444 98.513 41.032 98.513 41.844C98.513 42.488 98.3263 42.9967 97.953 43.37C97.533 43.79 96.903 44 96.063 44H92.899V36.888ZM93.865 40.458V43.3H95.741C96.2636 43.3 96.6603 43.2113 96.931 43.034C97.323 42.7913 97.519 42.3993 97.519 41.858C97.519 41.41 97.3976 41.074 97.155 40.85C96.8936 40.5887 96.455 40.458 95.839 40.458H93.865ZM104.21 38.932H103.272C103.272 38.148 103.58 37.5367 104.196 37.098C104.663 36.7713 105.33 36.608 106.198 36.608C107.15 36.608 107.845 36.8273 108.284 37.266C108.685 37.6673 108.877 38.2227 108.858 38.932L108.774 42.474C108.774 42.81 108.821 43.0293 108.914 43.132C109.073 43.3187 109.287 43.3747 109.558 43.3V44C109.446 44.0373 109.273 44.056 109.04 44.056C108.667 44.056 108.391 43.9673 108.214 43.79C107.99 43.566 107.887 43.258 107.906 42.866C107.663 43.2673 107.355 43.5707 106.982 43.776C106.525 44.0373 105.969 44.168 105.316 44.168C104.541 44.168 103.958 43.9767 103.566 43.594C103.174 43.23 102.978 42.7307 102.978 42.096C102.978 41.5453 103.151 41.0973 103.496 40.752C103.888 40.36 104.639 40.1033 105.75 39.982L106.212 39.926C106.287 39.9167 106.436 39.9027 106.66 39.884C106.884 39.856 107.052 39.8327 107.164 39.814C107.444 39.7673 107.631 39.6973 107.724 39.604C107.836 39.4827 107.892 39.254 107.892 38.918C107.892 38.3767 107.747 37.9707 107.458 37.7C107.159 37.4387 106.711 37.308 106.114 37.308C105.433 37.308 104.947 37.4527 104.658 37.742C104.378 38.022 104.229 38.4187 104.21 38.932ZM107.836 40.962L107.864 40.234C107.743 40.346 107.556 40.4253 107.304 40.472C107.005 40.528 106.585 40.5793 106.044 40.626L105.764 40.654C105.055 40.738 104.574 40.9013 104.322 41.144C104.098 41.368 103.986 41.69 103.986 42.11C103.986 42.502 104.107 42.8193 104.35 43.062C104.593 43.3327 104.966 43.468 105.47 43.468C106.086 43.468 106.595 43.3047 106.996 42.978C107.509 42.558 107.789 41.886 107.836 40.962ZM111.219 36.888H114.341C114.78 36.888 115.125 36.9207 115.377 36.986C115.639 37.042 115.881 37.182 116.105 37.406C116.413 37.714 116.567 38.106 116.567 38.582C116.567 39.0953 116.399 39.5107 116.063 39.828C115.858 40.024 115.611 40.1593 115.321 40.234V40.262C115.788 40.3927 116.138 40.5747 116.371 40.808C116.679 41.116 116.833 41.536 116.833 42.068C116.833 42.628 116.661 43.0807 116.315 43.426C115.923 43.8087 115.251 44 114.299 44H111.219V36.888ZM112.185 37.588V39.926H114.047C114.626 39.926 115.041 39.7907 115.293 39.52C115.489 39.3147 115.587 39.0347 115.587 38.68C115.587 38.3813 115.499 38.1387 115.321 37.952C115.088 37.7093 114.687 37.588 114.117 37.588H112.185ZM112.185 40.626V43.3H114.117C114.771 43.3 115.223 43.174 115.475 42.922C115.718 42.6793 115.839 42.3573 115.839 41.956C115.839 41.5827 115.727 41.284 115.503 41.06C115.233 40.7707 114.757 40.626 114.075 40.626H112.185ZM120.167 37.588H117.689V36.888H123.597V37.588H121.133V44H120.167V37.588ZM127.546 36.608C128.508 36.608 129.282 36.8833 129.87 37.434C130.589 38.1153 130.948 39.1187 130.948 40.444C130.948 41.7787 130.57 42.796 129.814 43.496C129.245 44.0187 128.494 44.28 127.56 44.28C126.571 44.28 125.806 44.0187 125.264 43.496C124.956 43.2347 124.69 42.8473 124.466 42.334C124.252 41.8207 124.144 41.1907 124.144 40.444C124.144 39.156 124.504 38.1527 125.222 37.434C125.773 36.8833 126.548 36.608 127.546 36.608ZM127.546 37.294C126.884 37.294 126.356 37.49 125.964 37.882C125.423 38.4233 125.152 39.2727 125.152 40.43C125.152 41.6247 125.442 42.4927 126.02 43.034C126.422 43.398 126.93 43.58 127.546 43.58C128.181 43.58 128.685 43.4027 129.058 43.048C129.637 42.516 129.926 41.6433 129.926 40.43C129.926 39.3193 129.679 38.4933 129.184 37.952C128.764 37.5133 128.218 37.294 127.546 37.294ZM133.745 43.3H136.896V36.888H137.862V43.3H141.012V36.888H141.978V44H132.794V36.888H133.745V43.3ZM145.162 40.08L148.396 36.888H149.544L146.114 40.192L149.754 44H148.55L145.162 40.374V44H144.196V36.888H145.162V40.08ZM153.455 36.608C154.416 36.608 155.191 36.8833 155.779 37.434C156.497 38.1153 156.857 39.1187 156.857 40.444C156.857 41.7787 156.479 42.796 155.723 43.496C155.153 44.0187 154.402 44.28 153.469 44.28C152.479 44.28 151.714 44.0187 151.173 43.496C150.865 43.2347 150.599 42.8473 150.375 42.334C150.16 41.8207 150.053 41.1907 150.053 40.444C150.053 39.156 150.412 38.1527 151.131 37.434C151.681 36.8833 152.456 36.608 153.455 36.608ZM153.455 37.294C152.792 37.294 152.265 37.49 151.873 37.882C151.331 38.4233 151.061 39.2727 151.061 40.43C151.061 41.6247 151.35 42.4927 151.929 43.034C152.33 43.398 152.839 43.58 153.455 43.58C154.089 43.58 154.593 43.4027 154.967 43.048C155.545 42.516 155.835 41.6433 155.835 40.43C155.835 39.3193 155.587 38.4933 155.093 37.952C154.673 37.5133 154.127 37.294 153.455 37.294ZM157.68 44V43.272C158.09 43.3747 158.445 43.2813 158.744 42.992C159.08 42.656 159.285 42.11 159.36 41.354C159.406 40.99 159.43 40.444 159.43 39.716V39.38V36.888H164.05V44H163.084V37.588H160.34V39.366C160.34 40.0007 160.307 40.6773 160.242 41.396C160.13 42.2173 159.966 42.8007 159.752 43.146C159.668 43.286 159.574 43.4073 159.472 43.51C159.005 43.9673 158.408 44.1307 157.68 44Z" fill="#4E4E4E"/>
</svg>
