<svg width="32" height="32" viewBox="0 0 32 32" fill="none" xmlns="http://www.w3.org/2000/svg">
<rect width="32" height="32" rx="16" fill="#4F729A"/>
<g clip-path="url(#clip0)">
<path d="M20.8525 16.6298C20.6148 16.3296 20.6828 16.1961 20.8525 15.9277C20.8556 15.9247 22.8178 13.2132 23.02 12.2937L23.0212 12.2931C23.1217 11.958 23.0212 11.7117 22.5354 11.7117H20.9279C20.5187 11.7117 20.33 11.9231 20.2289 12.1596C20.2289 12.1596 19.4104 14.1187 18.2526 15.3886C17.8789 15.7556 17.7062 15.8732 17.5022 15.8732C17.4017 15.8732 17.2455 15.7556 17.2455 15.4205V12.2931C17.2455 11.8912 17.1309 11.7117 16.7921 11.7117H14.2645C14.0078 11.7117 13.8553 11.8992 13.8553 12.0738C13.8553 12.4548 14.4342 12.5424 14.4942 13.6145V15.9406C14.4942 16.4503 14.4017 16.544 14.1965 16.544C13.65 16.544 12.3237 14.5769 11.5378 12.3256C11.3791 11.8888 11.2241 11.7123 10.8118 11.7123H9.2037C8.74485 11.7123 8.65234 11.9237 8.65234 12.1602C8.65234 12.578 9.19879 14.6553 11.1935 17.3998C12.5228 19.2732 14.395 20.2883 16.098 20.2883C17.1217 20.2883 17.2467 20.0629 17.2467 19.6751C17.2467 17.885 17.1542 17.716 17.6669 17.716C17.9046 17.716 18.3139 17.8336 19.2695 18.7372C20.3618 19.8086 20.5413 20.2883 21.1527 20.2883H22.7602C23.2184 20.2883 23.4506 20.0629 23.3171 19.6181C23.0114 18.6827 20.9457 16.7584 20.8525 16.6298Z" fill="white"/>
</g>
<defs>
<clipPath id="clip0">
<rect width="14.7027" height="14.7027" fill="white" transform="translate(8.65234 8.64868)"/>
</clipPath>
</defs>
</svg>
