<svg width="32" height="32" viewBox="0 0 32 32" fill="none" xmlns="http://www.w3.org/2000/svg">
<rect width="32" height="32" rx="16" fill="url(#paint0_linear)"/>
<path d="M19.2975 8.64868H12.7097C10.4725 8.64868 8.65234 10.4689 8.65234 12.7061V19.2939C8.65234 21.5312 10.4725 23.3513 12.7097 23.3513H19.2975C21.5349 23.3513 23.355 21.5311 23.355 19.2939V12.7061C23.3551 10.4689 21.5349 8.64868 19.2975 8.64868ZM22.0506 19.2939C22.0506 20.8119 20.8156 22.0468 19.2976 22.0468H12.7097C11.1917 22.0469 9.95683 20.8119 9.95683 19.2939V12.7061C9.95683 11.1882 11.1917 9.95317 12.7097 9.95317H19.2975C20.8155 9.95317 22.0505 11.1882 22.0505 12.7061V19.2939H22.0506Z" fill="white"/>
<path d="M16.0033 12.2115C13.9143 12.2115 12.2148 13.911 12.2148 16C12.2148 18.089 13.9143 19.7884 16.0033 19.7884C18.0923 19.7884 19.7918 18.089 19.7918 16C19.7918 13.911 18.0923 12.2115 16.0033 12.2115ZM16.0033 18.4838C14.6337 18.4838 13.5193 17.3696 13.5193 16C13.5193 14.6302 14.6336 13.5159 16.0033 13.5159C17.3731 13.5159 18.4873 14.6302 18.4873 16C18.4873 17.3696 17.373 18.4838 16.0033 18.4838Z" fill="white"/>
<path d="M19.9527 11.1057C19.7014 11.1057 19.4545 11.2075 19.277 11.3857C19.0986 11.5632 18.9961 11.8101 18.9961 12.0623C18.9961 12.3138 19.0987 12.5607 19.277 12.7389C19.4544 12.9163 19.7014 13.019 19.9527 13.019C20.2049 13.019 20.451 12.9163 20.6293 12.7389C20.8076 12.5607 20.9093 12.3137 20.9093 12.0623C20.9093 11.8101 20.8076 11.5632 20.6293 11.3857C20.4519 11.2075 20.2049 11.1057 19.9527 11.1057Z" fill="white"/>
<defs>
<linearGradient id="paint0_linear" x1="0" y1="32" x2="28.5" y2="5" gradientUnits="userSpaceOnUse">
<stop stop-color="#F4BA64"/>
<stop offset="0.5532" stop-color="#D73A53"/>
<stop offset="1" stop-color="#5C45C7"/>
</linearGradient>
</defs>
</svg>
