<svg width="52" height="52" viewBox="0 0 52 52" fill="none" xmlns="http://www.w3.org/2000/svg">
<mask id="mask0" mask-type="alpha" maskUnits="userSpaceOnUse" x="0" y="0" width="52" height="52">
<circle cx="26" cy="26" r="26" fill="#6CDB6A"/>
</mask>
<g mask="url(#mask0)">
<circle cx="26" cy="26" r="26" fill="#BDDEFA"/>
<path d="M29.3679 37.9862C12.7416 37.9862 11.9294 49.8014 13.6016 55L71.6479 52.8732C81.3942 43.2322 67.5868 37.9862 59.4648 37.9862C45.8484 24.517 29.3679 37.9862 29.3679 37.9862Z" fill="url(#paint0_linear)"/>
<path d="M36.7954 12.616C29.8927 12.616 29.5555 17.7438 30.2498 20L54.3484 19.077C58.3948 14.8928 54.3484 11.2486 49.2905 12.616C43.0912 4.47998 36.7954 12.616 36.7954 12.616Z" fill="url(#paint1_linear)"/>
<circle cx="19.5" cy="23.5" r="11.5" fill="url(#paint2_radial)"/>
</g>
<path d="M31.8841 19.9932L34 22.1091L24.1021 32.0071L18 25.9051L20.1159 23.7891L24.1021 27.7752L31.8841 19.9932Z" fill="white"/>
<defs>
<linearGradient id="paint0_linear" x1="44.4151" y1="41.5308" x2="44.0089" y2="55.0003" gradientUnits="userSpaceOnUse">
<stop stop-color="#F0F7FD"/>
<stop offset="1" stop-color="#F0F7FD" stop-opacity="0"/>
</linearGradient>
<linearGradient id="paint1_linear" x1="43.0424" y1="14.1543" x2="42.8581" y2="19.9996" gradientUnits="userSpaceOnUse">
<stop stop-color="#F0F7FD"/>
<stop offset="1" stop-color="#F0F7FD" stop-opacity="0"/>
</linearGradient>
<radialGradient id="paint2_radial" cx="0" cy="0" r="1" gradientUnits="userSpaceOnUse" gradientTransform="translate(18.5 24) rotate(84.8056) scale(11.0454)">
<stop stop-color="#FFAC7A"/>
<stop offset="1" stop-color="#FFD3A0"/>
</radialGradient>
</defs>
</svg>
