<svg width="38" height="38" viewBox="0 0 38 38" fill="none" xmlns="http://www.w3.org/2000/svg">
<g clip-path="url(#clip0)">
<path d="M15.3042 20.8626C15.2579 20.5155 14.9362 20.271 14.5916 20.3204C14.2451 20.3666 14.0026 20.6859 14.0494 21.0329C14.7189 25.9722 12.9365 30.9621 9.28245 34.3805C9.02719 34.6193 9.0139 35.0203 9.25328 35.2761C9.37746 35.4091 9.54588 35.4762 9.71563 35.4762C9.87084 35.4762 10.026 35.4199 10.1482 35.3052C14.1014 31.6069 16.0288 26.2078 15.3042 20.8626Z" fill="white"/>
<path d="M6.12857 21.6024C6.12226 21.5726 6.11402 21.5441 6.10385 21.5156C5.97588 20.8581 5.89802 20.1899 5.87011 19.5274C5.85616 19.1778 5.55725 18.9086 5.21135 18.9206C4.86175 18.9345 4.59001 19.2297 4.60455 19.5793C4.63625 20.3382 4.72873 21.1033 4.87941 21.8545C4.88513 21.8837 4.89337 21.9122 4.90346 21.94C5.31646 24.15 4.51199 26.4175 2.79047 27.8756C2.52377 28.1024 2.49022 28.502 2.71639 28.7687C2.84243 28.9169 3.02042 28.9929 3.20027 28.9929C3.34531 28.9929 3.49035 28.9435 3.60948 28.8422C5.7054 27.0667 6.67071 24.2924 6.12857 21.6024Z" fill="white"/>
<path d="M9.68499 26.6468C9.35877 26.5201 8.99142 26.6816 8.86472 27.0078C8.1857 28.7566 7.06021 30.3084 5.61094 31.4954C5.34046 31.7165 5.3006 32.1162 5.52224 32.3866C5.64768 32.5393 5.82946 32.6184 6.0125 32.6184C6.15376 32.6184 6.29627 32.5716 6.41407 32.4752C8.03116 31.1501 9.28714 29.4184 10.046 27.4663C10.1727 27.1408 10.0105 26.7734 9.68499 26.6468Z" fill="white"/>
<path d="M3.803 8.69438C3.91575 8.7767 4.04624 8.81663 4.17606 8.81663C4.37113 8.81663 4.56367 8.72667 4.68785 8.55632C7.30507 4.97068 11.144 2.51305 15.498 1.63518C19.3611 0.855431 23.2691 1.35965 26.7978 3.09201C27.1126 3.24722 27.4921 3.11606 27.6453 2.80253C27.7999 2.48841 27.6701 2.10896 27.3559 1.95502C23.5751 0.0985473 19.3878 -0.441077 15.2479 0.393077C10.5822 1.33367 6.46898 3.96736 3.66494 7.80953C3.45844 8.09203 3.5205 8.48855 3.803 8.69438Z" fill="white"/>
<path d="M1.63595 22.51C1.63276 22.4948 1.62266 22.4834 1.61821 22.4682C0.829629 18.5108 1.38135 14.5254 3.21689 10.9398C3.37648 10.6288 3.25363 10.2469 2.94203 10.0872C2.63043 9.92699 2.24913 10.0512 2.08947 10.3628C0.115128 14.2182 -0.475192 18.5057 0.383085 22.7609C0.388132 22.7844 0.401419 22.8034 0.408396 22.8255C0.459686 23.0757 0.514168 23.3233 0.574366 23.5691C0.64592 23.8579 0.904375 24.0504 1.1894 24.0504C1.23943 24.0504 1.29013 24.0447 1.34142 24.0327C1.68093 23.9485 1.88869 23.6052 1.80504 23.2656C1.74358 23.0168 1.68657 22.7647 1.63595 22.51Z" fill="white"/>
<path d="M16.1509 4.8883C10.2825 6.07147 5.82784 10.6465 4.80233 16.5434C4.7428 16.888 4.97335 17.2161 5.31791 17.2763C5.66692 17.3358 5.99054 17.1046 6.05074 16.7607C6.98562 11.3819 11.0489 7.20973 16.4017 6.12974C23.5034 4.70014 30.4441 9.31062 31.875 16.411C31.8788 16.4313 31.8838 16.4503 31.8895 16.4693C32.0042 17.0438 32.103 17.6126 32.1834 18.1611C32.2296 18.4759 32.5001 18.702 32.8092 18.702C32.8402 18.702 32.8712 18.7001 32.9023 18.695C33.2481 18.6443 33.4875 18.3226 33.4368 17.9767C33.3507 17.3884 33.2436 16.7777 33.1201 16.1614C33.1157 16.1411 33.1106 16.1202 33.1043 16.1006C31.5082 8.34925 23.9157 3.32325 16.1509 4.8883Z" fill="white"/>
<path d="M24.1297 17.973C23.8535 16.603 23.0605 15.4223 21.8963 14.6489C20.7321 13.8749 19.3361 13.6026 17.9667 13.8774C15.91 14.2923 14.305 15.8866 13.8768 17.9394C13.8052 18.2821 14.025 18.6177 14.3671 18.6893C14.711 18.7603 15.0454 18.5411 15.117 18.1984C15.4413 16.6422 16.658 15.4337 18.2168 15.1195C19.2556 14.9111 20.3127 15.1175 21.195 15.7035C22.0564 16.2761 22.6494 17.1426 22.8717 18.1497C22.8742 18.175 22.8774 18.2004 22.8824 18.2257C23.2035 19.8149 23.3682 21.437 23.3727 23.0464C23.374 23.396 23.6571 23.6786 24.0061 23.6786H24.0073C24.3576 23.6779 24.6407 23.3935 24.6394 23.0439C24.635 21.3781 24.4672 19.6996 24.1403 18.0547C24.1385 18.0275 24.1347 18.0003 24.1297 17.973Z" fill="white"/>
<path d="M19.6222 18.8819C19.5532 18.5392 19.2194 18.3189 18.8761 18.386C18.5334 18.455 18.3111 18.7894 18.3801 19.1321C19.6266 25.3147 17.9506 31.5808 13.7823 36.325C13.5517 36.5878 13.5777 36.9881 13.8399 37.2193C13.9602 37.3245 14.1097 37.3764 14.2579 37.3764C14.434 37.3764 14.6088 37.3042 14.7342 37.1617C19.1656 32.1174 20.9473 25.4553 19.6222 18.8819Z" fill="white"/>
<path d="M37.6209 15.2526C37.6171 15.2336 37.6045 15.219 37.5987 15.2C36.6233 10.4299 33.894 6.2634 29.9074 3.46567C29.6211 3.26362 29.2253 3.33391 29.0251 3.6202C28.8243 3.90649 28.8933 4.30175 29.1796 4.50253C32.9142 7.12353 35.4673 11.0309 36.3693 15.5046C36.3725 15.5217 36.3826 15.5351 36.3871 15.5515C36.6379 16.8119 36.7532 18.0945 36.7291 19.3651C36.7228 19.7147 37.0008 20.0036 37.3505 20.0105H37.3631C37.7071 20.0105 37.9895 19.7343 37.9959 19.3892C38.0218 18.0098 37.8958 16.6188 37.6209 15.2526Z" fill="white"/>
<path d="M28.6235 17.0672C28.1054 14.4957 26.6168 12.2807 24.4323 10.8296C22.2477 9.37786 19.6293 8.86541 17.0583 9.38291C11.7517 10.4527 8.30415 15.6415 9.37456 20.9481C9.38213 20.9854 9.39289 21.0209 9.40626 21.0551C9.60956 22.1135 9.65454 23.1865 9.53994 24.2468C9.5026 24.5945 9.75401 24.9068 10.1024 24.9448C10.4425 24.979 10.7624 24.7307 10.7998 24.3823C10.9315 23.156 10.8733 21.9158 10.6268 20.6953C10.6193 20.6585 10.6085 20.623 10.5951 20.5895C9.73114 16.005 12.7227 11.5496 17.3085 10.6249C19.5476 10.1733 21.829 10.6205 23.7312 11.8848C25.6225 13.1414 26.9146 15.0556 27.3738 17.2781C27.3757 17.2914 27.3776 17.3054 27.3801 17.3186C28.0844 20.808 28.1504 24.3449 27.5764 27.8292C27.52 28.175 27.7538 28.5006 28.099 28.5576C28.1338 28.5626 28.168 28.5658 28.2022 28.5658C28.5069 28.5658 28.7755 28.3454 28.8268 28.035C29.4228 24.412 29.3569 20.7364 28.6305 17.109C28.6285 17.0952 28.6267 17.0812 28.6235 17.0672Z" fill="white"/>
<path d="M33.0762 20.3273C32.7271 20.3495 32.4618 20.6504 32.4839 20.9994C32.7126 24.6307 32.3534 28.2562 31.416 31.7747C31.3261 32.1123 31.5268 32.4594 31.8651 32.5493C31.9196 32.5639 31.9746 32.5715 32.0285 32.5715C32.3085 32.5715 32.5644 32.384 32.6404 32.1003C33.6133 28.4494 33.9857 24.6876 33.7482 20.9196C33.7267 20.5706 33.4334 20.3052 33.0762 20.3273Z" fill="white"/>
<path d="M27.7465 30.1779C27.4064 30.0861 27.0611 30.2875 26.9712 30.6257C26.4886 32.4265 25.8304 34.1892 25.0133 35.8652C24.86 36.18 24.9911 36.5588 25.3053 36.7121C25.3953 36.7558 25.489 36.776 25.5828 36.776C25.8171 36.776 26.0426 36.6456 26.1522 36.4201C27.0047 34.6712 27.6913 32.8319 28.1942 30.9532C28.2855 30.6156 28.0847 30.2679 27.7465 30.1779Z" fill="white"/>
<path d="M23.9131 25.3268C23.5679 25.2875 23.2513 25.5365 23.212 25.8841C22.7597 29.8448 21.3245 33.6882 19.0601 36.9977C18.8625 37.2859 18.936 37.6798 19.2248 37.8775C19.3344 37.9528 19.4585 37.9883 19.5821 37.9883C19.7841 37.9883 19.983 37.8921 20.1053 37.7128C22.4862 34.2335 23.9956 30.1931 24.4707 26.0279C24.5099 25.6802 24.2602 25.366 23.9131 25.3268Z" fill="white"/>
</g>
<defs>
<clipPath id="clip0">
<rect width="38" height="38" fill="white"/>
</clipPath>
</defs>
</svg>
