<svg width="44" height="43" viewBox="0 0 44 43" fill="none" xmlns="http://www.w3.org/2000/svg">
<g clip-path="url(#clip0)">
<path d="M1.93359 34.3999V40.1333C1.93359 41.7164 3.21702 42.9998 4.80023 42.9998H39.2002C40.7834 42.9998 42.0669 41.7164 42.0669 40.1333V34.3999H1.93359Z" fill="#B5DBFF"/>
<path d="M40.0814 34.3999V40.1333C40.0814 41.7164 38.798 42.9998 37.2148 42.9998H39.2048C40.788 42.9998 42.0714 41.7164 42.0714 40.1333V34.3999H40.0814Z" fill="#97D0FF"/>
<path d="M2 11V41.6001C2 43.4778 3.27916 45 4.85703 45H39.1429C40.7208 45 42 43.4778 42 41.6001V11H2Z" fill="#EDF5FF"/>
<path d="M40.0737 11.4666V37.2666C40.0737 38.8497 38.7902 40.1331 37.207 40.1331H39.197C40.7802 40.1331 42.0636 38.8497 42.0636 37.2666V11.4666H40.0737Z" fill="#D5E8FE"/>
<path d="M42.0668 12.9V5.73325C42.0668 4.15004 40.7834 2.8667 39.2001 2.8667H4.80015C3.21693 2.8667 1.93359 4.15013 1.93359 5.73325V12.9H42.0668Z" fill="#508FF7"/>
<path d="M10.5354 6.38251H9.10202C8.74366 6.38251 8.45312 6.09198 8.45312 5.73361C8.45312 5.37525 8.74366 5.08472 9.10202 5.08472H10.5354C10.8937 5.08472 11.1843 5.37525 11.1843 5.73361C11.1843 6.09198 10.8937 6.38251 10.5354 6.38251Z" fill="#3170D6"/>
<path d="M14.8322 6.38251H13.3989C13.0405 6.38251 12.75 6.09198 12.75 5.73361C12.75 5.37525 13.0405 5.08472 13.3989 5.08472H14.8322C15.1905 5.08472 15.4811 5.37525 15.4811 5.73361C15.4811 6.09198 15.1906 6.38251 14.8322 6.38251Z" fill="#3170D6"/>
<path d="M30.6056 6.38251H29.1723C28.814 6.38251 28.5234 6.09198 28.5234 5.73361C28.5234 5.37525 28.814 5.08472 29.1723 5.08472H30.6056C30.964 5.08472 31.2545 5.37525 31.2545 5.73361C31.2545 6.09198 30.964 6.38251 30.6056 6.38251Z" fill="#3170D6"/>
<path d="M34.9026 6.38251H33.4692C33.1108 6.38251 32.8203 6.09198 32.8203 5.73361C32.8203 5.37525 33.1108 5.08472 33.4692 5.08472H34.9026C35.2609 5.08472 35.5514 5.37525 35.5514 5.73361C35.5514 6.09198 35.2609 6.38251 34.9026 6.38251Z" fill="#3170D6"/>
<path d="M10.5352 5.73336C10.5352 6.52492 11.177 7.16672 11.9686 7.16672C12.7603 7.16672 13.402 6.52501 13.402 5.73336V1.43336C13.4019 0.641712 12.7602 0 11.9685 0C11.1769 0 10.5352 0.641712 10.5352 1.43336V5.73336H10.5352Z" fill="#596C76"/>
<path d="M30.6055 5.73336C30.6055 6.52492 31.2472 7.16672 32.0388 7.16672C32.8305 7.16672 33.4722 6.52501 33.4722 5.73336V1.43336C33.4722 0.641712 32.8305 0 32.0388 0C31.2472 0 30.6055 0.641712 30.6055 1.43336V5.73336Z" fill="#596C76"/>
<path d="M39.197 2.86646H37.207C38.7902 2.86646 40.0737 4.14988 40.0737 5.73301V12.8998H42.0636V5.7331C42.0636 4.14988 40.7802 2.86646 39.197 2.86646Z" fill="#3170D6"/>
<path d="M1.93359 9.38428H42.0669V10.6821H1.93359V9.38428Z" fill="#3170D6"/>
<path d="M26.97 27.3019C27.405 24.5645 25.5386 21.9928 22.8012 21.5578C20.0638 21.1229 17.4921 22.9893 17.0571 25.7267C16.6222 28.464 18.4886 31.0357 21.226 31.4707C23.9634 31.9057 26.5351 30.0393 26.97 27.3019Z" fill="#FDBF00"/>
<path d="M22.0004 19.2826C21.6421 19.2826 21.3516 18.992 21.3516 18.6337V15.7671C21.3516 15.4087 21.6421 15.1182 22.0004 15.1182C22.3589 15.1182 22.6493 15.4087 22.6493 15.7671V18.6337C22.6493 18.992 22.3589 19.2826 22.0004 19.2826Z" fill="#FFD34E"/>
<path d="M22.0004 37.9157C21.6421 37.9157 21.3516 37.6251 21.3516 37.2668V34.4001C21.3516 34.0418 21.6421 33.7512 22.0004 33.7512C22.3589 33.7512 22.6493 34.0418 22.6493 34.4001V37.2668C22.6493 37.6252 22.3589 37.9157 22.0004 37.9157Z" fill="#FFD34E"/>
<path d="M29.6057 34.767C29.4397 34.767 29.2736 34.7036 29.1468 34.5769L27.1197 32.5498C26.8663 32.2964 26.8663 31.8855 27.1197 31.6322C27.3732 31.3788 27.784 31.3788 28.0375 31.6322L30.0645 33.6593C30.3179 33.9127 30.3179 34.3236 30.0645 34.5769C29.9378 34.7036 29.7717 34.767 29.6057 34.767Z" fill="#FFD34E"/>
<path d="M14.1171 27.1654H11.2505C10.8921 27.1654 10.6016 26.8749 10.6016 26.5166C10.6016 26.1582 10.8921 25.8677 11.2505 25.8677H14.1171C14.4755 25.8677 14.766 26.1582 14.766 26.5166C14.766 26.875 14.4755 27.1654 14.1171 27.1654Z" fill="#FFD34E"/>
<path d="M32.7461 27.1654H29.8794C29.5209 27.1654 29.2305 26.8749 29.2305 26.5166C29.2305 26.1582 29.5209 25.8677 29.8794 25.8677H32.7461C33.1045 25.8677 33.395 26.1582 33.395 26.5166C33.395 26.875 33.1045 27.1654 32.7461 27.1654Z" fill="#FFD34E"/>
<path d="M16.4298 21.5909C16.2638 21.5909 16.0977 21.5276 15.971 21.4009L13.944 19.3738C13.6906 19.1204 13.6906 18.7095 13.944 18.4562C14.1974 18.2028 14.6083 18.2028 14.8616 18.4562L16.8886 20.4832C17.1421 20.7367 17.1421 21.1475 16.8886 21.4009C16.762 21.5276 16.5959 21.5909 16.4298 21.5909Z" fill="#FFD34E"/>
<path d="M14.4028 34.767C14.2367 34.767 14.0706 34.7036 13.944 34.5769C13.6906 34.3235 13.6906 33.9126 13.944 33.6593L15.971 31.6322C16.2244 31.3788 16.6353 31.3788 16.8886 31.6322C17.1421 31.8856 17.1421 32.2965 16.8886 32.5498L14.8616 34.5769C14.7349 34.7036 14.5688 34.767 14.4028 34.767Z" fill="#FFD34E"/>
<path d="M27.5708 21.5909C27.4048 21.5909 27.2387 21.5276 27.1119 21.4009C26.8585 21.1474 26.8585 20.7366 27.1119 20.4832L29.139 18.4562C29.3925 18.2028 29.8033 18.2028 30.0567 18.4562C30.3101 18.7096 30.3101 19.1205 30.0567 19.3738L28.0296 21.4009C27.903 21.5276 27.7369 21.5909 27.5708 21.5909Z" fill="#FFD34E"/>
<path d="M26.97 27.3019C27.405 24.5645 25.5386 21.9928 22.8012 21.5578C20.0638 21.1229 17.4921 22.9893 17.0571 25.7267C16.6222 28.464 18.4886 31.0357 21.226 31.4707C23.9634 31.9057 26.5351 30.0393 26.97 27.3019Z" fill="#FFD34E"/>
<path d="M22.0028 21.5C21.6621 21.5 21.3294 21.5343 21.0078 21.5991C23.3018 22.0607 25.0295 24.0868 25.0295 26.5166C25.0295 28.9466 23.3018 30.9726 21.0078 31.4343C21.3294 31.499 21.6621 31.5334 22.0028 31.5334C24.7734 31.5334 27.0194 29.2873 27.0194 26.5167C27.0194 23.746 24.7734 21.5 22.0028 21.5Z" fill="#F8CC44"/>
</g>
<defs>
<clipPath id="clip0">
<rect width="43" height="43" fill="white" transform="translate(0.5)"/>
</clipPath>
</defs>
</svg>
