<svg width="39" height="34" viewBox="0 0 39 34" fill="none" xmlns="http://www.w3.org/2000/svg">
<path d="M34.6017 3.87536C33.7291 3.00241 32.6931 2.30992 31.5529 1.83746C30.4127 1.365 29.1905 1.12183 27.9563 1.12183C26.722 1.12183 25.4999 1.365 24.3596 1.83746C23.2194 2.30992 22.1834 3.00241 21.3108 3.87536L19.5 5.68619L17.6892 3.87536C15.9267 2.11289 13.5363 1.12274 11.0438 1.12274C8.55124 1.12274 6.16082 2.11289 4.39834 3.87536C2.63587 5.63784 1.64572 8.02826 1.64572 10.5208C1.64572 13.0133 2.63587 15.4037 4.39834 17.1662L6.20918 18.977L19.5 32.2679L32.7908 18.977L34.6017 17.1662C35.4746 16.2937 36.1671 15.2577 36.6396 14.1174C37.112 12.9772 37.3552 11.755 37.3552 10.5208C37.3552 9.28653 37.112 8.06437 36.6396 6.92413C36.1671 5.78389 35.4746 4.7479 34.6017 3.87536V3.87536Z" stroke="#9B9B9B" stroke-width="2" stroke-linecap="round" stroke-linejoin="round"/>
</svg>
