<svg width="79" height="79" viewBox="0 0 79 79" fill="none" xmlns="http://www.w3.org/2000/svg">
<circle cx="39.5" cy="39.5" r="39.5" fill="#2E5BA5"/>
<path d="M54.6017 26.8754C53.7291 26.0024 52.6931 25.3099 51.5529 24.8375C50.4127 24.365 49.1905 24.1218 47.9563 24.1218C46.722 24.1218 45.4999 24.365 44.3596 24.8375C43.2194 25.3099 42.1834 26.0024 41.3108 26.8754L39.5 28.6862L37.6892 26.8754C35.9267 25.1129 33.5363 24.1227 31.0438 24.1227C28.5512 24.1227 26.1608 25.1129 24.3983 26.8754C22.6359 28.6378 21.6457 31.0283 21.6457 33.5208C21.6457 36.0133 22.6359 38.4037 24.3983 40.1662L26.2092 41.977L39.5 55.2679L52.7908 41.977L54.6017 40.1662C55.4746 39.2937 56.1671 38.2577 56.6396 37.1174C57.112 35.9772 57.3552 34.755 57.3552 33.5208C57.3552 32.2865 57.112 31.0644 56.6396 29.9241C56.1671 28.7839 55.4746 27.7479 54.6017 26.8754V26.8754Z" stroke="white" stroke-width="2" stroke-linecap="round" stroke-linejoin="round"/>
</svg>
