<svg width="237" height="64" viewBox="0 0 237 64" fill="none" xmlns="http://www.w3.org/2000/svg">
<rect x="0.5" y="0.5" width="236" height="63" fill="white" stroke="#B3B3B3"/>
<path d="M101.26 27.6H102.46V34.956H107.008V36H101.26V27.6ZM112.025 36.096C111.177 36.096 110.413 35.912 109.733 35.544C109.053 35.168 108.517 34.652 108.125 33.996C107.741 33.34 107.549 32.608 107.549 31.8C107.549 30.992 107.741 30.26 108.125 29.604C108.517 28.948 109.053 28.436 109.733 28.068C110.413 27.692 111.177 27.504 112.025 27.504C112.865 27.504 113.625 27.692 114.305 28.068C114.985 28.436 115.517 28.948 115.901 29.604C116.285 30.252 116.477 30.984 116.477 31.8C116.477 32.616 116.285 33.352 115.901 34.008C115.517 34.656 114.985 35.168 114.305 35.544C113.625 35.912 112.865 36.096 112.025 36.096ZM112.025 35.028C112.641 35.028 113.193 34.888 113.681 34.608C114.177 34.328 114.565 33.944 114.845 33.456C115.133 32.96 115.277 32.408 115.277 31.8C115.277 31.192 115.133 30.644 114.845 30.156C114.565 29.66 114.177 29.272 113.681 28.992C113.193 28.712 112.641 28.572 112.025 28.572C111.409 28.572 110.849 28.712 110.345 28.992C109.849 29.272 109.457 29.66 109.169 30.156C108.889 30.644 108.749 31.192 108.749 31.8C108.749 32.408 108.889 32.96 109.169 33.456C109.457 33.944 109.849 34.328 110.345 34.608C110.849 34.888 111.409 35.028 112.025 35.028ZM124.131 31.752H125.283V35.028C124.867 35.372 124.383 35.636 123.831 35.82C123.279 36.004 122.703 36.096 122.103 36.096C121.255 36.096 120.491 35.912 119.811 35.544C119.131 35.168 118.595 34.656 118.203 34.008C117.819 33.352 117.627 32.616 117.627 31.8C117.627 30.984 117.819 30.248 118.203 29.592C118.595 28.936 119.131 28.424 119.811 28.056C120.499 27.688 121.271 27.504 122.127 27.504C122.799 27.504 123.407 27.616 123.951 27.84C124.503 28.056 124.971 28.376 125.355 28.8L124.611 29.544C123.939 28.896 123.127 28.572 122.175 28.572C121.535 28.572 120.959 28.712 120.447 28.992C119.943 29.264 119.547 29.648 119.259 30.144C118.971 30.632 118.827 31.184 118.827 31.8C118.827 32.408 118.971 32.96 119.259 33.456C119.547 33.944 119.943 34.328 120.447 34.608C120.959 34.888 121.531 35.028 122.163 35.028C122.915 35.028 123.571 34.848 124.131 34.488V31.752ZM131.372 36.096C130.524 36.096 129.76 35.912 129.08 35.544C128.4 35.168 127.864 34.652 127.472 33.996C127.088 33.34 126.896 32.608 126.896 31.8C126.896 30.992 127.088 30.26 127.472 29.604C127.864 28.948 128.4 28.436 129.08 28.068C129.76 27.692 130.524 27.504 131.372 27.504C132.212 27.504 132.972 27.692 133.652 28.068C134.332 28.436 134.864 28.948 135.248 29.604C135.632 30.252 135.824 30.984 135.824 31.8C135.824 32.616 135.632 33.352 135.248 34.008C134.864 34.656 134.332 35.168 133.652 35.544C132.972 35.912 132.212 36.096 131.372 36.096ZM131.372 35.028C131.988 35.028 132.54 34.888 133.028 34.608C133.524 34.328 133.912 33.944 134.192 33.456C134.48 32.96 134.624 32.408 134.624 31.8C134.624 31.192 134.48 30.644 134.192 30.156C133.912 29.66 133.524 29.272 133.028 28.992C132.54 28.712 131.988 28.572 131.372 28.572C130.756 28.572 130.196 28.712 129.692 28.992C129.196 29.272 128.804 29.66 128.516 30.156C128.236 30.644 128.096 31.192 128.096 31.8C128.096 32.408 128.236 32.96 128.516 33.456C128.804 33.944 129.196 34.328 129.692 34.608C130.196 34.888 130.756 35.028 131.372 35.028Z" fill="#1F1F1F"/>
</svg>
