<svg width="10" height="10" viewBox="0 0 10 10" fill="none" xmlns="http://www.w3.org/2000/svg">
<path d="M10 7.46005V8.96005C10.0006 9.0993 9.97204 9.23713 9.91625 9.36472C9.86047 9.49231 9.77865 9.60684 9.67604 9.70098C9.57343 9.79512 9.45228 9.86679 9.32037 9.9114C9.18846 9.95601 9.04868 9.97258 8.91 9.96005C7.37141 9.79287 5.8935 9.26712 4.595 8.42505C3.38691 7.65738 2.36267 6.63313 1.595 5.42505C0.749986 4.12065 0.224119 2.63555 0.0599971 1.09005C0.0475023 0.951782 0.0639345 0.812429 0.108247 0.680861C0.15256 0.549293 0.223782 0.428393 0.31738 0.325859C0.410978 0.223325 0.524899 0.141403 0.651893 0.0853095C0.778886 0.0292158 0.916167 0.000179216 1.055 4.84762e-05H2.555C2.79765 -0.00233975 3.03289 0.0835878 3.21688 0.241815C3.40086 0.400042 3.52104 0.619772 3.555 0.860048C3.61831 1.34008 3.73572 1.81141 3.905 2.26505C3.97227 2.44401 3.98683 2.63851 3.94695 2.82549C3.90707 3.01247 3.81443 3.1841 3.68 3.32005L3.045 3.95505C3.75677 5.20682 4.79322 6.24327 6.045 6.95505L6.68 6.32005C6.81594 6.18562 6.98757 6.09297 7.17456 6.05309C7.36154 6.01322 7.55604 6.02778 7.735 6.09505C8.18863 6.26432 8.65996 6.38174 9.14 6.44505C9.38288 6.47931 9.6047 6.60165 9.76326 6.78879C9.92183 6.97594 10.0061 7.21484 10 7.46005Z" fill="white"/>
</svg>
