<svg width="11" height="11" viewBox="0 0 11 11" fill="none" xmlns="http://www.w3.org/2000/svg">
<path d="M5.49957 0C2.46219 0 0 2.46219 0 5.49957C0 7.82654 1.44744 9.8114 3.48896 10.615C3.47994 10.427 3.48123 9.45384 4.15859 6.54823C4.24916 5.57898 4.12339 5.23515 4.12339 4.83251C4.12339 3.91864 4.59814 3.7259 4.87544 3.7259C5.27078 3.7259 5.81679 3.877 5.81679 4.51401C5.81679 5.24374 5.22185 5.43561 5.22185 5.43561C5.22185 5.43561 5.17892 5.62234 5.12956 6.14087C5.08019 6.66027 5.28795 7.22259 6.13529 7.22259C7.49387 7.22259 7.70335 5.33688 7.70335 4.81792C7.70335 4.10107 7.17794 2.64591 5.54679 2.64591C3.37134 2.64591 2.99703 4.59471 2.99703 5.11453C2.99703 5.33688 3.05842 5.72922 3.10048 5.89706C3.51128 5.96359 3.46878 6.52591 3.29322 6.68559C3.09791 6.86116 2.09432 7.0702 2.09432 4.86728C2.09432 2.76953 3.96414 1.68868 5.60517 1.68868C7.16721 1.68868 8.86877 2.76653 8.86877 4.84282C8.86877 6.69632 7.53637 8.15578 6.13701 8.15578C5.29654 8.15578 4.85097 7.4634 4.85097 7.4634C4.85097 8.11157 3.66066 10.339 3.50827 10.6218C4.1264 10.8626 4.79646 10.9996 5.5 10.9996C8.53738 10.9996 11 8.53738 11 5.49957C11 2.46176 8.53695 0 5.49957 0Z" fill="#575050"/>
</svg>
