<svg width="15" height="12" viewBox="0 0 15 12" fill="none" xmlns="http://www.w3.org/2000/svg">
<path d="M14.1538 1.36142C13.6275 1.59231 13.0667 1.74535 12.4819 1.81965C13.0835 1.4605 13.5426 0.896115 13.7584 0.215846C13.1976 0.550231 12.5783 0.786423 11.9184 0.918231C11.3859 0.351192 10.6269 0 9.79888 0C8.19242 0 6.89912 1.30392 6.89912 2.90242C6.89912 3.13242 6.91858 3.35358 6.96635 3.56412C4.554 3.44646 2.41942 2.29027 0.985461 0.529C0.735115 0.963346 0.588269 1.4605 0.588269 1.99569C0.588269 3.00062 1.10577 3.89142 1.87715 4.40715C1.41096 4.39831 0.953615 4.26296 0.566154 4.04977C0.566154 4.05862 0.566154 4.07012 0.566154 4.08161C0.566154 5.49169 1.57196 6.66292 2.89092 6.93273C2.65473 6.99731 2.39731 7.02827 2.13015 7.02827C1.94438 7.02827 1.75685 7.01765 1.58081 6.97873C1.95677 8.12785 3.02362 8.97265 4.29215 9.00008C3.30492 9.77235 2.05142 10.2377 0.694423 10.2377C0.456462 10.2377 0.228231 10.227 0 10.1978C1.28535 11.0267 2.80865 11.5 4.45138 11.5C9.79092 11.5 12.7102 7.07692 12.7102 3.243C12.7102 3.11473 12.7057 2.99088 12.6995 2.86792C13.2754 2.45923 13.7593 1.94881 14.1538 1.36142Z" fill="#575050"/>
</svg>
