<svg width="8" height="8" viewBox="0 0 8 8" fill="none" xmlns="http://www.w3.org/2000/svg">
<path fill-rule="evenodd" clip-rule="evenodd" d="M4 3.5C4.39782 3.5 4.77936 3.34196 5.06066 3.06066C5.34196 2.77936 5.5 2.39782 5.5 2C5.5 1.60218 5.34196 1.22064 5.06066 0.93934C4.77936 0.658035 4.39782 0.5 4 0.5C3.60218 0.5 3.22064 0.658035 2.93934 0.93934C2.65804 1.22064 2.5 1.60218 2.5 2C2.5 2.39782 2.65804 2.77936 2.93934 3.06066C3.22064 3.34196 3.60218 3.5 4 3.5ZM0.5 8C0.5 7.54037 0.59053 7.08525 0.766422 6.66061C0.942313 6.23597 1.20012 5.85013 1.52513 5.52513C1.85013 5.20012 2.23597 4.94231 2.66061 4.76642C3.08525 4.59053 3.54037 4.5 4 4.5C4.45963 4.5 4.91475 4.59053 5.33939 4.76642C5.76403 4.94231 6.14987 5.20012 6.47487 5.52513C6.79988 5.85013 7.05769 6.23597 7.23358 6.66061C7.40947 7.08525 7.5 7.54037 7.5 8H0.5Z" fill="#252525"/>
</svg>
