<svg width="40" height="40" viewBox="0 0 40 40" fill="none" xmlns="http://www.w3.org/2000/svg">
<circle cx="20" cy="20" r="20" fill="white"/>
<g clip-path="url(#clip0)">
<path d="M28.999 12.2506C28.4699 13.2194 27.8208 14.0453 27.0517 14.7283C27.0593 14.9114 27.0631 15.1184 27.0631 15.3493C27.0631 16.6321 26.9112 17.9165 26.6073 19.2023C26.3035 20.4883 25.8393 21.7191 25.2149 22.8949C24.5905 24.0706 23.8467 25.1123 22.9836 26.0198C22.1204 26.9272 21.0829 27.6508 19.8709 28.1905C18.659 28.7302 17.3601 29 15.9742 29C13.8114 29 11.8197 28.2812 9.99902 26.8437C10.3222 26.8879 10.6321 26.9101 10.9288 26.9101C12.7357 26.9101 14.3495 26.2249 15.7702 24.8547C14.9278 24.8357 14.1733 24.5164 13.5068 23.8969C12.8403 23.2774 12.3816 22.4858 12.1307 21.5222C12.3787 21.5803 12.6234 21.6094 12.8649 21.6094C13.2125 21.6094 13.5545 21.5536 13.891 21.4419C12.9919 21.2203 12.2461 20.669 11.6534 19.7882C11.0608 18.9073 10.7645 17.8907 10.7645 16.7382V16.6788C11.3163 17.055 11.905 17.2551 12.5304 17.2791C11.9978 16.842 11.5755 16.272 11.2636 15.5691C10.9516 14.8662 10.7956 14.1056 10.7956 13.2872C10.7956 12.424 10.9713 11.6203 11.3227 10.8759C12.3004 12.3529 13.4851 13.5334 14.8768 14.4174C16.2685 15.3013 17.7616 15.7922 19.356 15.8901C19.288 15.5413 19.2539 15.1772 19.2538 14.7979C19.2538 13.4737 19.6344 12.343 20.3958 11.4058C21.1571 10.4686 22.0757 10 23.1514 10C24.2776 10 25.2262 10.5048 25.9973 11.5145C26.8782 11.2997 27.7031 10.9112 28.4719 10.3489C28.1757 11.4964 27.605 12.3815 26.7597 13.0045C27.5366 12.8908 28.283 12.6395 28.999 12.2506H28.999Z" fill="black"/>
</g>
<defs>
<clipPath id="clip0">
<rect width="19" height="19" fill="white" transform="translate(10 10)"/>
</clipPath>
</defs>
</svg>
