<?xml version="1.0" encoding="utf-8"?>
<!-- Generator: Adobe Illustrator 25.0.1, SVG Export Plug-In . SVG Version: 6.00 Build 0)  -->
<svg version="1.1" id="Layer_2" xmlns="http://www.w3.org/2000/svg" xmlns:xlink="http://www.w3.org/1999/xlink" x="0px" y="0px"
	 viewBox="0 0 57.26 19.37" style="enable-background:new 0 0 57.26 19.37;" xml:space="preserve">
<style type="text/css">
	.st0{fill-rule:evenodd;clip-rule:evenodd;}
</style>
<path class="st0" d="M54.2,15.32c0.17,0,0.32-0.01,0.32-0.21c0-0.16-0.15-0.19-0.28-0.19h-0.27v0.4H54.2L54.2,15.32z M53.97,16.06
	h-0.2v-1.3h0.5c0.31,0,0.46,0.11,0.46,0.37c0,0.23-0.15,0.33-0.34,0.36l0.37,0.58h-0.22l-0.35-0.57h-0.22V16.06L53.97,16.06z
	 M54.2,16.35c-0.52,0-0.92-0.4-0.92-0.95c0-0.54,0.4-0.94,0.92-0.94c0.51,0,0.92,0.4,0.92,0.94C55.12,15.95,54.72,16.35,54.2,16.35
	L54.2,16.35z M53.05,15.4c0-0.65,0.53-1.13,1.15-1.13c0.62,0,1.15,0.48,1.15,1.13c0,0.66-0.53,1.14-1.15,1.14
	C53.58,16.54,53.05,16.06,53.05,15.4z"/>
<path class="st0" d="M52.52,7.53c-1.35,1.53-2.95,4.92-2.95,4.92s-0.36,1.63,0.9,1.8c0,0,1.41,0.36,2.45-0.76
	c1.04-1.13,2.16-2.61,2.65-3.42l-0.45-0.14c-1.89,2.39-2.84,3.6-3.57,3.6c-0.58,0,3.25-6,3.25-6H52.52z"/>
<path class="st0" d="M20.49,9.04c-1.35,1.53-2.07,3.41-2.07,3.41s-0.63,1.55,0.9,1.8c3,0.48,3.69-2.34,3.69-2.34l-0.45-0.27
	c-0.45,1.21-1.46,1.89-2.16,1.88c-0.58,0,3.42-5.48,3.42-5.48s0.2-0.69-0.57-0.6c-0.76,0.09-1.22,0.19-1.8,0
	c0,0-0.94-0.63-1.93,0.63c-0.99,1.26-3.91,5.58-5.49,5.58l-0.41,0.72c0,0,1.22,0.59,2.74-1.17c0,0,3.17-4.07,3.78-4.32
	C20.14,8.89,20.63,8.7,20.49,9.04z"/>
<path class="st0" d="M28.24,8.76c0,0,0.53-0.83-0.22-0.76c0,0-2,0.26-3.42,3.51C24.59,11.5,27.38,10.55,28.24,8.76L28.24,8.76z
	 M24.37,12.31c0,0-0.27,1.03,0.58,1.13c0,0,1.75,0.31,3.87-1.8l0.27,0.27c0,0-1.48,2.38-4.54,2.34c0,0-2.47,0-2.2-2.21
	c0.27-2.2,3.19-3.96,3.19-3.96s2.52-1.5,3.78-0.32c0,0,0.61,0.76-0.49,2.03C28.82,9.79,27.74,11.32,24.37,12.31z"/>
<path class="st0" d="M41.7,10.33c-0.22,0.17-0.65,0.06-0.81-0.23c-0.16-0.29-0.06-0.65,0.23-0.81c1.52-0.88,1.16-1.19,1.16-1.19
	c-0.06-0.08-0.2-0.13-0.46-0.1c0,0-2.92,0.85-3.64,4.32c0,0-0.27,1.03,0.59,1.13c0,0,1.75,0.31,3.87-1.8l0.27,0.27
	c0,0-1.49,2.38-4.54,2.34c0,0-2.47,0-2.2-2.21c0.27-2.2,3.19-3.96,3.19-3.96c0,0,2.71-1.55,3.73-0.32
	C43.07,7.76,43.84,8.71,41.7,10.33z"/>
<path class="st0" d="M46.97,8.45c0,0,2.55-2.14,3.6-0.18c0.26,0.49-0.49,1.62-0.49,1.62s-2.79,3.68-2.2,3.68
	c0.73,0,1.71-0.68,2.16-1.89l0.45,0.27c0,0-0.79,2.72-3.68,2.33c-1.4-0.19-0.9-1.8-0.9-1.8s0.72-1.89,2.07-3.41
	c0,0,0.37-0.4,0.12-0.56c0,0-1.11-0.05-2.55,2.2c-1.22,1.9-2.23,3.44-2.23,3.44h-2.56l7.87-12.1h2.47
	C51.08,2.05,48.93,5.41,46.97,8.45z"/>
<path class="st0" d="M29.65,14.16h-2.42l4.13-6.64h2.52l-0.63,0.9c0,0,2.72-2.05,3.64-0.18c0.3,0.61-0.49,1.62-0.49,1.62
	c0,0-2.83,3.68-2.25,3.68c0.73,0,1.71-0.67,2.16-1.88l0.45,0.27c0,0-0.65,2.69-3.68,2.33c-1.57-0.18-0.9-1.79-0.9-1.79
	c0,0,0.72-1.88,2.07-3.41c0,0,0.44-0.45,0.12-0.56c0,0-0.95-0.14-2.39,2.11L29.65,14.16z"/>
<path class="st0" d="M14.57,11.41c-2.78,5.64-6.68,6.62-6.68,6.62c0,0-3.24,1.61-5.21-0.36c-1.98-1.97-0.63-3.68-0.63-3.68
	c0.39-0.54,1.8-0.81,2.34,0.27c0.54,1.08-0.81,1.35-0.81,1.35s-0.45,2.24,1.62,2.34c1.87,0.08,4.04-2.06,6.37-6.53l-0.71-0.01
	l0.31-0.65l0.75-0.01c0.13-0.25,0.26-0.53,0.39-0.79c2.61-5.48,7.19-5.3,7.19-5.3c-2.88,1.69-4.22,4.81-4.68,6.09l1.62,0l-0.31,0.65
	L14.57,11.41z"/>
<path class="st0" d="M24.42,0.97c0,0-0.99,4.04-6.47,2.69C12.47,2.32,6.72,2.77,5.01,7.97c0,0-1.14,3.39,1.89,3.77
	c0,0,2.56,0.77,4.76-6.01c0,0,0,7.99-5.12,7.99c0,0-3.41,0.09-2.7-4.48c0.72-4.58,5.85-8.26,10.52-8.26c0,0,2.16,0.19,5.03,0.72
	C21.52,2.08,23.17,2.08,24.42,0.97z"/>
<path class="st0" d="M55.84,5.1c-0.27,0.55-0.89,0.8-1.38,0.56c-0.49-0.24-0.67-0.88-0.4-1.43l0.35-0.73
	c0.27-0.55,0.89-0.8,1.38-0.56c0.49,0.24,0.67,0.88,0.4,1.43L55.84,5.1z"/>
</svg>
