<svg width="67" height="67" viewBox="0 0 67 67" fill="none" xmlns="http://www.w3.org/2000/svg">
<circle cx="33.5" cy="33.5" r="33.5" fill="white" fill-opacity="0.66"/>
<path fill-rule="evenodd" clip-rule="evenodd" d="M34.0006 21.6565C37.2272 17.8798 43.2039 16.3398 48.0439 19.6398C50.6106 21.3998 52.2239 24.3698 52.3339 27.4865C52.5722 34.5998 46.2839 40.3015 36.6589 49.0281L36.4572 49.2115C35.0639 50.4948 32.9189 50.4948 31.5256 49.2298L31.3422 49.0648L31.2315 48.9642C21.6689 40.276 15.4115 34.5908 15.6672 27.5048C15.7772 24.3698 17.3906 21.3998 19.9572 19.6398C24.7972 16.3215 30.7739 17.8798 34.0006 21.6565ZM34.0006 46.5165L34.1839 46.3331C42.9106 38.4315 48.6672 33.2065 48.6672 27.9081C48.6672 24.2415 45.9172 21.4915 42.2506 21.4915C39.4272 21.4915 36.6772 23.3065 35.7239 25.8181H32.2956C31.3239 23.3065 28.5739 21.4915 25.7506 21.4915C22.0839 21.4915 19.3339 24.2415 19.3339 27.9081C19.3339 33.2065 25.0906 38.4315 33.8172 46.3331L34.0006 46.5165Z" fill="black"/>
</svg>
