<?xml version="1.0" standalone="no"?>
<!DOCTYPE svg PUBLIC "-//W3C//DTD SVG 1.1//EN" "http://www.w3.org/Graphics/SVG/1.1/DTD/svg11.dtd" >
<svg>
<metadata>
Created by FontForge 20090914 at Mon Feb  1 20:25:52 2021
 By www-data
Copyright 2012 The Scada Project Authors (lemonad@jovanny.ru)
</metadata>
<defs>
<font id="Scada-Regular" horiz-adv-x="510" >
  <font-face 
    font-family="Scada"
    font-weight="400"
    font-stretch="normal"
    units-per-em="1000"
    panose-1="0 0 5 0 0 0 0 0 0 0"
    ascent="800"
    descent="-200"
    x-height="499.999"
    cap-height="700"
    bbox="-370 -275.002 1265 929.999"
    underline-thickness="50"
    underline-position="-50"
    unicode-range="U+000D-U+F8FF"
  />
<missing-glyph horiz-adv-x="270" 
 />
    <glyph glyph-name=".notdef" horiz-adv-x="270" 
 />
    <glyph glyph-name="NULL" horiz-adv-x="0" 
 />
    <glyph glyph-name="NULL" horiz-adv-x="0" 
 />
    <glyph glyph-name="nonmarkingreturn" unicode="&#xd;" horiz-adv-x="290" 
 />
    <glyph glyph-name="space" unicode=" " horiz-adv-x="290" 
 />
    <glyph glyph-name="exclam" unicode="!" horiz-adv-x="290" 
d="M105 180l-20 520h120l-20 -520h-80zM102 7c-11.333 11.333 -17 25.666 -17 42.999s5.66699 31.666 17 42.999s25.666 17 42.999 17s31.666 -5.66699 42.999 -17s17 -25.666 17 -42.999s-5.66699 -31.666 -17 -42.999s-25.666 -17 -42.999 -17s-31.666 5.66699 -42.999 17
z" />
    <glyph glyph-name="quotedbl" unicode="&#x22;" horiz-adv-x="340" 
d="M60 460l-20 240h105l-20 -240h-65zM215 460l-20 240h105l-20 -240h-65z" />
    <glyph glyph-name="numbersign" unicode="#" horiz-adv-x="660" 
d="M80 0l41 180h-101v70h117l46 200h-103v70h119l41 180h100l-41 -180h140l41 180h100l-41 -180h101v-70h-117l-46 -200h103v-70h-119l-41 -180h-100l41 180h-140l-41 -180h-100zM237 250h140l46 200h-140z" />
    <glyph glyph-name="dollar" unicode="$" horiz-adv-x="495" 
d="M190 -7c-43.333 4 -82.667 14.0039 -118 30.0039c-11.333 5.33301 -25.333 12.666 -42 21.999l35 60h10c9.33301 -6.66699 23 -14.334 41 -23.001c36 -14.667 72.333 -22 109 -22c44.667 0 79.167 10.833 103.5 32.5s36.5 50.834 36.5 87.501
c0 23.333 -6.33301 43.166 -19 59.499s-28.334 29.833 -47.001 40.5s-44.334 23.667 -77.001 39c-39.333 17.333 -71 33.5 -95 48.5s-44.5 35 -61.5 60s-25.5 55.833 -25.5 92.5c0 46 13 85.167 39 117.5s63 54.166 111 65.499v67h105v-62c41.333 -4 80 -14 116 -30
c14 -6.66699 27 -14.334 39 -23.001l-35 -60h-10c-8.66699 7.33301 -20.667 14.666 -36 21.999c-33.333 15.333 -68 23 -104 23c-36.667 0 -66.667 -10.667 -90 -32s-35 -47.333 -35 -78c0 -23.333 6.33301 -43.166 19 -59.499s28.334 -29.833 47.001 -40.5
s44.334 -23.667 77.001 -39c39.333 -17.333 71 -33.5 95 -48.5s44.5 -35 61.5 -60s25.5 -55.833 25.5 -92.5c0 -52.667 -14.5 -96 -43.5 -130s-71.167 -55.667 -126.5 -65v-65h-105v63z" />
    <glyph glyph-name="percent" unicode="%" horiz-adv-x="800" 
d="M73.5 397c-29 31.333 -43.5 75.666 -43.5 132.999s14.5 101.666 43.5 132.999s67.833 47 116.5 47s87.5 -15.667 116.5 -47s43.5 -75.666 43.5 -132.999s-14.5 -101.666 -43.5 -132.999s-67.833 -47 -116.5 -47s-87.5 15.667 -116.5 47zM110 0l470 700h110l-470 -700
h-110zM260 530c0 80 -23.333 120 -70 120s-70 -40 -70 -120s23.333 -120 70 -120s70 40 70 120zM493.5 37c-29 31.333 -43.5 75.666 -43.5 132.999s14.5 101.666 43.5 132.999s67.833 47 116.5 47s87.5 -15.667 116.5 -47s43.5 -75.666 43.5 -132.999
s-14.5 -101.666 -43.5 -132.999s-67.833 -47 -116.5 -47s-87.5 15.667 -116.5 47zM680 170c0 80 -23.333 120 -70 120s-70 -40 -70 -120s23.333 -120 70 -120s70 40 70 120z" />
    <glyph glyph-name="ampersand" unicode="&#x26;" horiz-adv-x="615" 
d="M128.5 14.5c-31.667 16.333 -55.999 38.834 -72.999 67.501s-25.5 61.334 -25.5 98.001c0 41.333 12.667 77.166 38 107.499s61 61.166 107 92.499c-16 15.333 -30.333 32.333 -43 51c-28 41.333 -42 81 -42 119c0 48.667 15.5 87.5 46.5 116.5s73.833 43.5 128.5 43.5
c34 0 63.833 -6.5 89.5 -19.5s45.5 -31 59.5 -54s21 -48.5 21 -76.5c0 -45.333 -22.667 -90.666 -68 -135.999c-20.667 -20.667 -43 -38.667 -67 -54l150 -180c13.333 31.333 20 74.666 20 129.999h90c0 -71.333 -18.333 -136.333 -55 -195l105 -125h-120l-50 60
c-58 -46.667 -124.667 -70 -200 -70c-42.667 0 -79.834 8.16699 -111.501 24.5zM292.001 471.001c28.667 31.333 42.999 60.999 42.999 88.999c0 27.333 -6.5 48.333 -19.5 63s-29.833 22 -50.5 22c-23.333 0 -41.666 -8 -54.999 -24s-20 -39.667 -20 -71
c0 -21.333 10 -47.333 30 -78c8 -11.333 18 -23.666 30 -36.999c16 11.333 30 23.333 42 36zM395 110l-170 205c-30.667 -22.667 -54.167 -44.5 -70.5 -65.5s-24.5 -44.167 -24.5 -69.5c0 -36 11.833 -65 35.5 -87s55.167 -33 94.5 -33c56.667 0 101.667 16.667 135 50z" />
    <glyph glyph-name="quotesingle" unicode="'" horiz-adv-x="185" 
d="M60 460l-20 240h105l-20 -240h-65z" />
    <glyph glyph-name="parenleft" unicode="(" horiz-adv-x="285" 
d="M104 29.5c-32.667 79.667 -49 163.165 -49 250.498s16.333 170.833 49 250.5s79.667 147.834 141 204.501l40 -40c-42.667 -61.333 -75 -125.333 -97 -192s-33 -141 -33 -223s11 -156.333 33 -223s54.333 -130.667 97 -192l-40 -40
c-61.333 56.667 -108.333 124.834 -141 204.501z" />
    <glyph glyph-name="parenright" unicode=")" horiz-adv-x="285" 
d="M0 -135c42.667 61.333 75 125.335 97 192.002s33 141 33 223s-11 156.333 -33 223s-54.333 130.667 -97 192l40 40c61.333 -56.667 108.333 -124.834 141 -204.501s49 -163.167 49 -250.5s-16.333 -170.833 -49 -250.5s-79.667 -147.834 -141 -204.501z" />
    <glyph glyph-name="asterisk" unicode="*" horiz-adv-x="410" 
d="M170 340v120l-105 -60l-35 60l105 60l-105 60l35 60l105 -60v120h70v-120l105 60l35 -60l-105 -60l105 -60l-35 -60l-105 60v-120h-70z" />
    <glyph glyph-name="plus" unicode="+" horiz-adv-x="470" 
d="M195 125v165h-165v80h165v165h80v-165h165v-80h-165v-165h-80z" />
    <glyph glyph-name="comma" unicode="," horiz-adv-x="200" 
d="M40 -95c8.66699 7.33301 17.667 16.0029 27 26.0029c18.667 20 28 39.667 28 59c-15.333 0 -28.333 5.66699 -39 17s-16 25.666 -16 42.999s5.33301 31.666 16 42.999s23.667 17 39 17c20 0 35.833 -6.16699 47.5 -18.5s17.5 -29.5 17.5 -51.5
c0 -48.667 -15 -91.334 -45 -128.001c-13.333 -17.333 -28.333 -31.333 -45 -42z" />
    <glyph glyph-name="hyphen" unicode="-" horiz-adv-x="440" 
d="M30 290v80h380v-80h-380z" />
    <glyph glyph-name="period" unicode="." horiz-adv-x="200" 
d="M57 7c-11.333 11.333 -17 25.666 -17 42.999s5.66699 31.666 17 42.999s25.666 17 42.999 17s31.666 -5.66699 42.999 -17s17 -25.666 17 -42.999s-5.66699 -31.666 -17 -42.999s-25.666 -17 -42.999 -17s-31.666 5.66699 -42.999 17z" />
    <glyph glyph-name="slash" unicode="/" horiz-adv-x="410" 
d="M0 0l310 700h100l-310 -700h-100z" />
    <glyph glyph-name="zero" unicode="0" horiz-adv-x="580" 
d="M118 77c-42 58 -63 149 -63 273s21 215 63 273s99.333 87 172 87s130 -29 172 -87s63 -149 63 -273s-21 -215 -63 -273s-99.333 -87 -172 -87s-130 29 -172 87zM389 125c24 43.333 36 118.333 36 225s-12 181.667 -36 225s-57 65 -99 65s-75 -21.667 -99 -65
s-36 -118.333 -36 -225s12 -181.667 36 -225s57 -65 99 -65s75 21.667 99 65z" />
    <glyph glyph-name="one" unicode="1" horiz-adv-x="390" 
d="M50 0v70h110v520l-100 -65l-40 55l150 120h90v-630h110v-70h-320z" />
    <glyph glyph-name="two" unicode="2" horiz-adv-x="500" 
d="M30 70c0 32 7.83203 62.166 23.499 90.499s35 54 58 77s53.167 50.167 90.5 81.5c34.667 29.333 62 53.833 82 73.5s36.833 41.167 50.5 64.5s20.5 47.666 20.5 72.999c0 31.333 -12.167 57.5 -36.5 78.5s-57.166 31.5 -98.499 31.5c-36 0 -70.667 -7.66699 -104 -23
c-15.333 -7.33301 -27.333 -14.666 -36 -21.999h-10l-35 60c12 9.33301 28.333 18.333 49 27c40 18.667 88.667 28 146 28c46.667 0 87 -8.16699 121 -24.5s59.833 -38.833 77.5 -67.5s26.5 -61.334 26.5 -98.001c0 -34 -8.5 -66.167 -25.5 -96.5
s-37.833 -57.666 -62.5 -81.999s-56.667 -53.5 -96 -87.5c-48 -41.333 -83.5 -75.166 -106.5 -101.499s-34.5 -53.833 -34.5 -82.5h325v-70h-425v70z" />
    <glyph glyph-name="three" unicode="3" horiz-adv-x="500" 
d="M64 17c-21.333 8.66699 -37.666 17.999 -48.999 27.999l35 60h10c8.66699 -7.33301 20.667 -15 36 -23c32 -14.667 66.667 -22 104 -22c54.667 0 95 11.833 121 35.5s39 58.5 39 104.5s-13 80.833 -39 104.5s-66.333 35.5 -121 35.5h-105v70l225 220h-290v70h410v-70
l-225 -220c80.667 0 141.667 -18.5 183 -55.5s62 -88.5 62 -154.5c0 -67.333 -20.667 -119.166 -62 -155.499s-104 -54.5 -188 -54.5c-58.667 0 -107.334 9 -146.001 27z" />
    <glyph glyph-name="four" unicode="4" horiz-adv-x="540" 
d="M340 0v170h-330v70l330 460h100v-460h80v-70h-80v-170h-100zM340 240l-0.000976562 260.001c0 16 1.33301 30.667 4 44l4 26h-4c-2 -3.33301 -4.16699 -7.33301 -6.5 -12s-4.83301 -9.33398 -7.5 -14.001c-11.333 -21.333 -19.666 -36 -24.999 -44l-185 -260h220z" />
    <glyph glyph-name="five" unicode="5" horiz-adv-x="505" 
d="M74 17c-21.333 8.66699 -37.665 18 -48.998 28l35 60h10c8.66699 -7.33301 20.667 -15 36 -23c32 -14.667 66.667 -22 104 -22c103.333 0 155 50 155 150s-51.667 150 -155 150h-120l-30 30v310h379v-70h-279v-200h65c79.333 0 139.166 -18.833 179.499 -56.5
s60.5 -92.167 60.5 -163.5s-20.333 -125.833 -61 -163.5s-102 -56.5 -184 -56.5c-58.667 0 -107.334 9 -146.001 27z" />
    <glyph glyph-name="six" unicode="6" horiz-adv-x="535" 
d="M112.5 50c-38.333 40 -57.5029 100.001 -57.5029 180.001v180c0 101.333 20.5 176.666 61.5 225.999s98.833 74 173.5 74c50 0 94.333 -9.33301 133 -28c18.667 -8.66699 34.334 -17.667 47.001 -27l-35 -60h-10c-9.33301 7.33301 -20.666 14.666 -33.999 21.999
c-32 15.333 -62.333 23 -91 23c-96.667 0 -145 -76.667 -145 -230c10.667 7.33301 22.334 14 35.001 20c28 13.333 59.667 20 95 20c66 0 117.5 -19.167 154.5 -57.5s55.5 -92.5 55.5 -162.5c0 -79.333 -18.5 -139.166 -55.5 -179.499s-89.833 -60.5 -158.5 -60.5
c-74 0 -130.167 20 -168.5 60zM363.497 102.001c21 28 31.501 70.668 31.501 128.001c0 49.333 -11.5 86.666 -34.5 111.999s-54.833 38 -95.5 38c-30.667 0 -57.667 -6.66699 -81 -20c-10.667 -6 -20.334 -12.667 -29.001 -20v-110c0 -58 11 -100.833 33 -128.5
s52.667 -41.5 92 -41.5c34.667 0 62.5 14 83.5 42z" />
    <glyph glyph-name="seven" unicode="7" horiz-adv-x="440" 
d="M140 90c0 106.667 17.5 208.168 52.5 304.501s77.5 174.833 127.5 235.5h-320v70h430v-70c-52 -62.667 -96.667 -141.834 -134 -237.501s-56 -196.5 -56 -302.5v-90h-100v90z" />
    <glyph glyph-name="eight" unicode="8" horiz-adv-x="560" 
d="M153.5 16c-36.333 17.333 -64.3359 40.501 -84.0029 69.501s-29.5 60.5 -29.5 94.5c0 35.333 7.16699 65.666 21.5 90.999s32.833 46 55.5 62c22 16.667 48 29 78 37c-24.667 8 -45.667 19.333 -63 34c-41.333 33.333 -62 77 -62 131c0 32 8.5 61.333 25.5 88
s41.333 47.834 73 63.501s68.834 23.5 111.501 23.5s79.834 -7.83301 111.501 -23.5s56 -36.834 73 -63.501s25.5 -56 25.5 -88c0 -53.333 -21 -97 -63 -131c-17.333 -14 -38 -25.333 -62 -34c28.667 -8 54.334 -20.333 77.001 -37c52 -38 78 -89 78 -153
c0 -34 -9.83301 -65.5 -29.5 -94.5s-47.667 -52.167 -84 -69.5s-78.5 -26 -126.5 -26s-90.167 8.66699 -126.5 26zM359.497 456.501c20.333 20.333 30.5 46.5 30.5 78.5c0 28 -11 52.5 -33 73.5s-47.667 31.5 -77 31.5c-30 0 -55.833 -10.5 -77.5 -31.5
s-32.5 -45.5 -32.5 -73.5c0 -32 10 -58.167 30 -78.5s46.667 -35.833 80 -46.5c32.667 10.667 59.167 26.167 79.5 46.5zM383.497 92.501c24.333 21.667 36.5 50.834 36.5 87.501s-12.5 66.667 -37.5 90s-59.167 43.333 -102.5 60c-43.333 -16.667 -77.5 -36.667 -102.5 -60
s-37.5 -53.333 -37.5 -90s12.167 -65.834 36.5 -87.501s58.833 -32.5 103.5 -32.5s79.167 10.833 103.5 32.5z" />
    <glyph glyph-name="nine" unicode="9" horiz-adv-x="535" 
d="M112 17c-19.333 8.66699 -35 18.001 -47 28.001l35 60h10c8.66699 -8 20 -15.667 34 -23c30.667 -14.667 61 -22 91 -22c96.667 0 145 76.667 145 230c-14.667 -9.33301 -26.334 -16 -35.001 -20c-28 -13.333 -59.667 -20 -95 -20c-66 0 -117.5 19.167 -154.5 57.5
s-55.5 92.5 -55.5 162.5c0 79.333 18.5 139.166 55.5 179.499s89.833 60.5 158.5 60.5c74 0 130.167 -20 168.5 -60s57.5 -100 57.5 -180v-180c0 -102 -20.5 -177.5 -61.5 -226.5s-98.833 -73.5 -173.5 -73.5c-51.333 0 -95.666 9 -132.999 27zM351 340.001
c10.667 6 20.333 12.666 29 19.999v110c0 58 -11 100.833 -33 128.5s-52.667 41.5 -92 41.5c-34.667 0 -62.5 -14 -83.5 -42s-31.5 -70.667 -31.5 -128c0 -49.333 11.5 -86.666 34.5 -111.999s54.833 -38 95.5 -38c30.667 0 57.667 6.66699 81 20z" />
    <glyph glyph-name="colon" unicode=":" horiz-adv-x="200" 
d="M57 407c-11.333 11.333 -17 25.666 -17 42.999s5.66699 31.666 17 42.999s25.666 17 42.999 17s31.666 -5.66699 42.999 -17s17 -25.666 17 -42.999s-5.66699 -31.666 -17 -42.999s-25.666 -17 -42.999 -17s-31.666 5.66699 -42.999 17zM57 7
c-11.333 11.333 -17 25.666 -17 42.999s5.66699 31.666 17 42.999s25.666 17 42.999 17s31.666 -5.66699 42.999 -17s17 -25.666 17 -42.999s-5.66699 -31.666 -17 -42.999s-25.666 -17 -42.999 -17s-31.666 5.66699 -42.999 17z" />
    <glyph glyph-name="semicolon" unicode=";" horiz-adv-x="200" 
d="M57 407c-11.333 11.333 -17 25.666 -17 42.999s5.66699 31.666 17 42.999s25.666 17 42.999 17s31.666 -5.66699 42.999 -17s17 -25.666 17 -42.999s-5.66699 -31.666 -17 -42.999s-25.666 -17 -42.999 -17s-31.666 5.66699 -42.999 17zM40 -95
c8.66699 7.33301 17.667 16.0029 27 26.0029c18.667 20 28 39.667 28 59c-15.333 0 -28.333 5.66699 -39 17s-16 25.666 -16 42.999s5.33301 31.666 16 42.999s23.667 17 39 17c20 0 35.833 -6.16699 47.5 -18.5s17.5 -29.5 17.5 -51.5c0 -48.667 -15 -91.334 -45 -128.001
c-13.333 -17.333 -28.333 -31.333 -45 -42z" />
    <glyph glyph-name="less" unicode="&#x3c;" horiz-adv-x="470" 
d="M430 0l-390 215v70l390 215v-95l-280 -155l280 -155v-95z" />
    <glyph glyph-name="equal" unicode="=" horiz-adv-x="470" 
d="M35 380v80h400v-80h-400zM35 200v80h400v-80h-400z" />
    <glyph glyph-name="greater" unicode="&#x3e;" horiz-adv-x="445" 
d="M35 0v95l280 155l-280 155v95l390 -215v-70z" />
    <glyph glyph-name="question" unicode="?" horiz-adv-x="460" 
d="M136 220c0 27.333 4.49902 51.333 13.499 72s20.167 38 33.5 52s30.666 30 51.999 48c28.667 24 50 45.5 64 64.5s21 43.5 21 73.5c0 31.333 -12.167 57.5 -36.5 78.5s-57.166 31.5 -98.499 31.5c-36 0 -70.667 -7.66699 -104 -23
c-15.333 -7.33301 -27.333 -14.666 -36 -21.999h-10l-35 60c12 9.33301 28.333 18.333 49 27c40 18.667 88.667 28 146 28c46.667 0 87 -8.16699 121 -24.5s59.833 -38.833 77.5 -67.5s26.5 -61.334 26.5 -98.001c0 -28 -5 -52.5 -15 -73.5s-22.167 -38.5 -36.5 -52.5
s-32.833 -29.667 -55.5 -47c-29.333 -22 -51.166 -41.833 -65.499 -59.5s-21.5 -40.167 -21.5 -67.5v-40h-90v40zM137.999 7c-11.333 11.333 -17 25.666 -17 42.999s5.66699 31.666 17 42.999s25.666 17 42.999 17s31.666 -5.66699 42.999 -17s17 -25.666 17 -42.999
s-5.66699 -31.666 -17 -42.999s-25.666 -17 -42.999 -17s-31.666 5.66699 -42.999 17z" />
    <glyph glyph-name="at" unicode="@" horiz-adv-x="930" 
d="M247.5 -65c-62.333 36.667 -111.669 86.9971 -148.002 150.997s-54.5 135.333 -54.5 214s18.333 150 55 214s87 114.333 151 151s135.333 55 214 55s150 -18.333 214 -55s114.333 -87 151 -151s55 -135.333 55 -214c0 -53.333 -7.83301 -98.333 -23.5 -135
s-37.167 -64.167 -64.5 -82.5s-58 -27.5 -92 -27.5c-44.667 0 -79.667 9 -105 27c-12.667 8 -22.667 17.333 -30 28h-5c-11.333 -11.333 -23 -20.666 -35 -27.999c-27.333 -18 -59 -27 -95 -27c-52.667 0 -95 20.333 -127 61s-48 100.334 -48 179.001s16 138.334 48 179.001
s74.333 61 127 61c33.333 0 65.666 -11 96.999 -33c12.667 -8.66699 23.667 -19.334 33 -32.001h5l10 55h70v-385c4 -4 8.33301 -7.33301 13 -10c10.667 -6.66699 21.334 -10 32.001 -10c16 0 31.667 6 47 18s28 31.333 38 58s15 61.334 15 104.001
c0 69.333 -14.333 130.5 -43 183.5s-68 94 -118 123s-106.333 43.5 -169 43.5s-119 -14.5 -169 -43.5s-89.333 -70 -118 -123s-43 -114.167 -43 -183.5s14.333 -130.5 43 -183.5s68 -94 118 -123s106.333 -43.5 169 -43.5c40.667 0 79.667 7.33301 117 22
c18 8 32.333 15.667 43 23h10l35 -60c-13.333 -10 -31.666 -19.333 -54.999 -28c-43.333 -18 -96.666 -27 -159.999 -27c-76 0 -145.167 18.333 -207.5 55zM523.997 151.997c12 9.33301 20.668 17.002 26.001 23.002v230c-7.33301 8.66699 -16 17.667 -26 27
c-20 18.667 -41.333 28 -64 28c-30 0 -54.167 -13.333 -72.5 -40s-27.5 -68.334 -27.5 -125.001s9.16699 -98.334 27.5 -125.001s42.5 -40 72.5 -40c21.333 0 42.666 7.33301 63.999 22z" />
    <glyph glyph-name="A" unicode="A" horiz-adv-x="570" 
d="M15 0l205 700h130l205 -700h-100l-55 180h-230l-55 -180h-100zM380 250l-79.998 274.999c-2.66699 7.33301 -4.83398 15.833 -6.50098 25.5s-2.83398 16.834 -3.50098 21.501l-3 23h-4l-3 -24c-4.66699 -22.667 -8 -38 -10 -46l-80 -275h190z" />
    <glyph glyph-name="B" unicode="B" horiz-adv-x="575" 
d="M90 700h190c70 0 124.167 -16.167 162.5 -48.5s57.5 -74.5 57.5 -126.5c0 -53.333 -19.333 -95.333 -58 -126c-18 -13.333 -37 -23 -57 -29c24.667 -6 48 -16.667 70 -32c46.667 -36 70 -85.333 70 -148c0 -59.333 -20.167 -105.833 -60.5 -139.5
s-101.833 -50.5 -184.5 -50.5h-190v700zM280 400c38 0 67.5 10.167 88.5 30.5s31.5 48.5 31.5 84.5s-10.5 64.167 -31.5 84.5s-50.5 30.5 -88.5 30.5h-90v-230h90zM280 70c96.667 0 145 43.333 145 130s-48.333 130 -145 130h-90v-260h90z" />
    <glyph glyph-name="C" unicode="C" horiz-adv-x="515" 
d="M122.5 76c-45 57.333 -67.501 148.666 -67.501 273.999c0 124.667 22 215.834 66 273.501s105.333 86.5 184 86.5c47.333 0 90.333 -9.33301 129 -28c18.667 -8.66699 34 -17.667 46 -27l-35 -60h-10c-10 7.33301 -21.333 14.666 -34 21.999
c-29.333 15.333 -58 23 -86 23c-106.667 0 -160 -96.667 -160 -290c0 -104 14.833 -178.333 44.5 -223s71.5 -67 125.5 -67c29.333 0 58 7.33301 86 22c14 8 25.333 15.667 34 23h10l35 -60c-11.333 -9.33301 -26.666 -18.666 -45.999 -27.999
c-37.333 -18 -80.333 -27 -129 -27c-83.333 0 -147.5 28.667 -192.5 86z" />
    <glyph glyph-name="D" unicode="D" horiz-adv-x="585" 
d="M90 700h150c97.333 0 170 -27.667 218 -83s72 -144.333 72 -267s-24 -211.667 -72 -267s-120.667 -83 -218 -83h-150v700zM240 70c63.333 0 110.833 21.333 142.5 64s47.5 114.667 47.5 216s-15.833 173.333 -47.5 216s-79.167 64 -142.5 64h-50v-560h50z" />
    <glyph glyph-name="E" unicode="E" 
d="M90 0v700h390v-70h-290v-230h230v-70h-230v-260h290v-70h-390z" />
    <glyph glyph-name="F" unicode="F" horiz-adv-x="500" 
d="M90 0v700h390v-70h-290v-240h230v-70h-230v-320h-100z" />
    <glyph glyph-name="G" unicode="G" horiz-adv-x="565" 
d="M125.5 79.5c-47 59.667 -70.502 149.834 -70.502 270.501c0 80.667 10.833 148 32.5 202s51.334 93.833 89.001 119.5s80.5 38.5 128.5 38.5c47.333 0 90.333 -9.33301 129 -28c18.667 -8.66699 34 -17.667 46 -27l-35 -60h-10c-10 7.33301 -21.333 14.666 -34 21.999
c-29.333 15.333 -58 23 -86 23c-106.667 0 -160 -96.667 -160 -290c0 -104 14.833 -178.333 44.5 -223s71.5 -67 125.5 -67c12 0 23.5 1.5 34.5 4.5s20 6.16699 27 9.5s11.5 5.33301 13.5 6v230h-115v70h185l30 -30v-305c-13.333 -10.667 -29.666 -20 -48.999 -28
c-38.667 -18 -84 -27 -136 -27c-79.333 0 -142.5 29.833 -189.5 89.5z" />
    <glyph glyph-name="H" unicode="H" horiz-adv-x="630" 
d="M90 0v700h100v-310h250v310h100v-700h-100v320h-250v-320h-100z" />
    <glyph glyph-name="I" unicode="I" horiz-adv-x="280" 
d="M90 0v700h100v-700h-100z" />
    <glyph glyph-name="J" unicode="J" horiz-adv-x="425" 
d="M37 12c-15.333 7.33301 -27.668 15 -37.001 23l30 65h10c8.66699 -7.33301 17.334 -14 26.001 -20c19.333 -13.333 39 -20 59 -20c38.667 0 67.5 10.5 86.5 31.5s28.5 53.833 28.5 98.5v510h100v-510c0 -66 -17.167 -115.833 -51.5 -149.5s-85.5 -50.5 -153.5 -50.5
c-33.333 0 -66 7.33301 -98 22z" />
    <glyph glyph-name="K" unicode="K" horiz-adv-x="555" 
d="M90 0v700h100v-330l225 330h115l-230 -340l240 -360h-115l-235 350v-350h-100z" />
    <glyph glyph-name="L" unicode="L" horiz-adv-x="490" 
d="M90 0v700h100v-630h290v-70h-390z" />
    <glyph glyph-name="M" unicode="M" horiz-adv-x="840" 
d="M90 700h100l210 -425c5.33301 -8.66699 9.66602 -19 12.999 -31c2.66699 -10 4.33398 -16.333 5.00098 -19h4c0.666992 2.66699 2.33398 9 5.00098 19c3.33301 12 7.66602 22.333 12.999 31l210 425h100v-700h-100v440c0 10.667 0.666992 28.667 2 54l2 31h-4l-9 -31
c-2 -5.33301 -5 -13.833 -9 -25.5s-8 -21.167 -12 -28.5l-160 -315h-80l-160 315c-4 7.33301 -8 16.833 -12 28.5s-7 20.167 -9 25.5l-9 31h-4l2 -31c1.33301 -25.333 2 -43.333 2 -54v-440h-100v700z" />
    <glyph glyph-name="N" unicode="N" horiz-adv-x="630" 
d="M90 700h109.999l210 -465c2.66699 -5.33301 4.83398 -10.5 6.50098 -15.5l4.5 -13.5l9 -25l5.5 -17l4.5 -14h4l-2 31c-1.33301 22.667 -2 40.667 -2 54v465h100v-700h-110l-210 465c-6 13.333 -12.667 31.333 -20 54l-4.5 14l-5.5 17h-4l2 -31
c1.33301 -25.333 2 -43.333 2 -54v-465h-100v700z" />
    <glyph glyph-name="O" unicode="O" horiz-adv-x="600" 
d="M120 76.5c-43.333 57.667 -65 148.834 -65 273.501s21.667 215.834 65 273.501s103.333 86.5 180 86.5s136.667 -28.833 180 -86.5s65 -148.834 65 -273.501s-21.667 -215.834 -65 -273.501s-103.333 -86.5 -180 -86.5s-136.667 28.833 -180 86.5zM404 128.5
c27.333 45.667 41 119.5 41 221.5s-13.667 175.833 -41 221.5s-62 68.5 -104 68.5s-76.667 -22.833 -104 -68.5s-41 -119.5 -41 -221.5s13.667 -175.833 41 -221.5s62 -68.5 104 -68.5s76.667 22.833 104 68.5z" />
    <glyph glyph-name="P" unicode="P" horiz-adv-x="565" 
d="M90 700h180c84.667 0 147.5 -19.333 188.5 -58s61.5 -96 61.5 -172s-20.5 -133.333 -61.5 -172s-103.833 -58 -188.5 -58h-80v-240h-100v700zM270 310c50.667 0 88.334 13 113.001 39s37 66.333 37 121s-12.333 95 -37 121s-62.334 39 -113.001 39h-80v-320h80z" />
    <glyph glyph-name="Q" unicode="Q" horiz-adv-x="600" 
d="M291.5 -114.5c-27.667 27 -41.499 63.5 -41.499 109.5c-60.667 10 -108.334 44.167 -143.001 102.5s-52 142.5 -52 252.5c0 124.667 21.667 215.834 65 273.501s103.333 86.5 180 86.5s136.667 -28.833 180 -86.5s65 -148.834 65 -273.501
c0 -110 -17.333 -194.167 -52 -252.5s-82.334 -92.5 -143.001 -102.5c0 -53.333 21.667 -80 65 -80c8.66699 0 17 1.66699 25 5l10 5h10l20 -65c-4 -2 -8 -3.5 -12 -4.5s-7.66699 -2.16699 -11 -3.5c-17.333 -4.66699 -34.666 -7 -51.999 -7c-48 0 -85.833 13.5 -113.5 40.5
zM404.001 128.5c27.333 45.667 41 119.5 41 221.5s-13.667 175.833 -41 221.5s-62 68.5 -104 68.5s-76.667 -22.833 -104 -68.5s-41 -119.5 -41 -221.5s13.667 -175.833 41 -221.5s62 -68.5 104 -68.5s76.667 22.833 104 68.5z" />
    <glyph glyph-name="R" unicode="R" horiz-adv-x="575" 
d="M90 700h170c84 0 146.667 -18.667 188 -56s62 -92 62 -164c0 -106.667 -45.667 -175 -137 -205l167 -275h-115l-155 260h-80v-260h-100v700zM260 330c100 0 150 50 150 150s-50 150 -150 150h-70v-300h70z" />
    <glyph glyph-name="S" unicode="S" horiz-adv-x="505" 
d="M89 17c-22 8.66699 -40.001 18 -54.001 28l35 60h10c9.33301 -6.66699 23 -14.334 41 -23.001c36 -14.667 72.333 -22 109 -22c44.667 0 79.167 10.833 103.5 32.5s36.5 50.834 36.5 87.501c0 23.333 -6.33301 43.166 -19 59.499s-28.334 29.833 -47.001 40.5
s-44.334 23.667 -77.001 39c-39.333 17.333 -71 33.5 -95 48.5s-44.5 35 -61.5 60s-25.5 55.833 -25.5 92.5s8.5 69.334 25.5 98.001s41.333 51.167 73 67.5s68.834 24.5 111.501 24.5c56 0 104.667 -9.33301 146 -28c18 -7.33301 34.333 -16.333 49 -27l-35 -60h-10
c-8.66699 7.33301 -20.667 14.666 -36 21.999c-33.333 15.333 -68 23 -104 23c-34 0 -62.5 -10.833 -85.5 -32.5s-34.5 -47.5 -34.5 -77.5c0 -23.333 6.33301 -43.166 19 -59.499s28.334 -29.833 47.001 -40.5s44.334 -23.667 77.001 -39c39.333 -17.333 71 -33.5 95 -48.5
s44.5 -35 61.5 -60s25.5 -55.833 25.5 -92.5c0 -61.333 -20 -110 -60 -146s-96.667 -54 -170 -54c-58.667 0 -109 9 -151 27z" />
    <glyph glyph-name="T" unicode="T" horiz-adv-x="480" 
d="M190 0v630h-180v70h460v-70h-180v-630h-100z" />
    <glyph glyph-name="U" unicode="U" horiz-adv-x="620" 
d="M143 48.5c-38.667 39 -57.998 96.167 -57.998 171.5v480h100v-480c0 -54 11 -94.167 33 -120.5s52.667 -39.5 92 -39.5s70 13.167 92 39.5s33 66.5 33 120.5v480h100v-480c0 -75.333 -19.333 -132.5 -58 -171.5s-94.334 -58.5 -167.001 -58.5
s-128.334 19.5 -167.001 58.5z" />
    <glyph glyph-name="V" unicode="V" horiz-adv-x="523" 
d="M15 700l90.001 -0.000976562l145 -525c2 -6.66699 3.66699 -14.667 5 -24s2.66602 -16.666 3.99902 -21.999l4 -24h4l3 24c4.66699 22.667 8 38 10 46l145 525h83l-195 -700h-103z" />
    <glyph glyph-name="W" unicode="W" horiz-adv-x="817" 
d="M15 700h90l115 -490c2.66699 -14.667 5.33398 -31.667 8.00098 -51c1.33301 -12 2 -21.667 2 -29h4l3 29l3 21c0.666992 9.33301 2.33398 19.333 5.00098 30l115 490h97l115 -490c1.33301 -5.33301 2.66602 -14 3.99902 -26l4 -25l3 -29h4c0 13.333 0.666992 23 2 29
c1.33301 5.33301 2.66602 14 3.99902 26c1.33301 10.667 2.66602 19 3.99902 25l115 490h90l-165 -700h-101l-115 490c-2 6 -3.66699 14.5 -5 25.5s-2.66602 19.5 -3.99902 25.5l-4 29h-4l-4 -29l-9 -51l-115 -490h-96z" />
    <glyph glyph-name="X" unicode="X" horiz-adv-x="530" 
d="M200 355l-180 345h110l115 -225c6 -14 10 -23.667 12 -29l6 -16h4l6 16c4 12.667 8 22.334 12 29.001l115 225h110l-180 -345l185 -355h-110l-120 235c-3.33301 5.33301 -7.33301 15 -12 29l-6 16h-4l-6 -16c-3.33301 -10.667 -7.33301 -20.334 -12 -29.001l-120 -235
h-110z" />
    <glyph glyph-name="Y" unicode="Y" horiz-adv-x="530" 
d="M215 230l-215.002 470h105l145 -335c6 -16 10.333 -29 13 -39c2.66699 -9.33301 4.33398 -16.333 5.00098 -21h4c0.666992 4.66699 2.33398 11.667 5.00098 21c4.66699 18.667 9 31.667 13 39l150 335h90l-215 -470v-230h-100v230z" />
    <glyph glyph-name="Z" unicode="Z" horiz-adv-x="485" 
d="M25 0v75l310 555h-310v70h430v-75l-310 -555h315v-70h-435z" />
    <glyph glyph-name="bracketleft" unicode="[" horiz-adv-x="310" 
d="M90 -170v900h200v-70h-100v-760h100v-70h-200z" />
    <glyph glyph-name="backslash" unicode="\" horiz-adv-x="410" 
d="M310 0l-310 700h100l310 -700h-100z" />
    <glyph glyph-name="bracketright" unicode="]" horiz-adv-x="310" 
d="M20 -170v70h100v760h-100v70h200v-900h-200z" />
    <glyph glyph-name="asciicircum" unicode="^" horiz-adv-x="430" 
d="M0 440l180 280h70l180 -280h-100l-115 180l-115 -180h-100z" />
    <glyph glyph-name="underscore" unicode="_" horiz-adv-x="380" 
d="M0 -130v80h380v-80h-380z" />
    <glyph glyph-name="grave" unicode="`" horiz-adv-x="175" 
d="M100 550l-90 150h110l45 -150h-65z" />
    <glyph glyph-name="a" unicode="a" 
d="M88.5 31.5c-29 27.667 -43.501 65.502 -43.501 113.502c0 47.333 17.167 84.166 51.5 110.499s88.833 39.5 163.5 39.5h80v25c0 39.333 -9.16699 69.166 -27.5 89.499s-44.166 30.5 -77.499 30.5c-24 0 -50 -7.66699 -78 -23c-14 -8 -24.667 -15.333 -32 -22h-10l-35 60
c13.333 10 28.333 19 45 27c36 18.667 76 28 120 28c38 0 71.667 -8.16699 101 -24.5s52.333 -39 69 -68s25 -61.5 25 -97.5v-320h-70l-10 60h-5c-9.33301 -13.333 -21 -25 -35 -35c-29.333 -23.333 -66 -35 -110 -35c-52 0 -92.5 13.833 -121.5 41.5zM309.999 95.002
c11.333 9.33301 21.333 19.333 30 30v100h-80c-38 0 -66.667 -7.33301 -86 -22s-29 -34 -29 -58c0 -26 7.5 -45.833 22.5 -59.5s37.5 -20.5 67.5 -20.5c24.667 0 49.667 10 75 30z" />
    <glyph glyph-name="b" unicode="b" horiz-adv-x="535" 
d="M195 25c-14 10 -25.668 21.667 -35.001 35h-5l-10 -60h-70v670l30 30h70v-220c8 4.66699 18.667 9.66699 32 15c28.667 10 54.667 15 78 15c60 0 108.333 -22.167 145 -66.5s55 -108.833 55 -193.5c0 -56 -8.16699 -103.5 -24.5 -142.5s-38.166 -68.333 -65.499 -88
s-57.333 -29.5 -90 -29.5c-44 0 -80.667 11.667 -110 35zM355.499 110c19.667 30 29.5 76.666 29.5 139.999c0 66 -10.5 114.167 -31.5 144.5s-48.833 45.5 -83.5 45.5c-22.667 0 -45.334 -3.33301 -68.001 -10c-12 -3.33301 -21 -6.66602 -27 -9.99902v-295
c9.33301 -11.333 19.333 -21.333 30 -30c25.333 -20 50.333 -30 75 -30c30.667 0 55.834 15 75.501 45z" />
    <glyph glyph-name="c" unicode="c" horiz-adv-x="455" 
d="M108 56c-38.667 44 -58.0029 108.667 -58.0029 194s18.833 150 56.5 194s88.834 66 153.501 66c44 0 84 -9.33301 120 -28c17.333 -8 32.333 -17 45 -27l-35 -60h-10c-8.66699 6.66699 -19.667 14 -33 22c-28 15.333 -53.667 23 -77 23
c-37.333 0 -66.666 -15 -87.999 -45s-32 -78.333 -32 -145c0 -67.333 11.167 -115.833 33.5 -145.5s54.5 -44.5 96.5 -44.5c24.667 0 50.334 7.33301 77.001 22c14 8 25 15.667 33 23h10l35 -60c-12 -10 -27 -19.333 -45 -28c-34.667 -18 -74.667 -27 -120 -27
c-69.333 0 -123.333 22 -162 66z" />
    <glyph glyph-name="d" unicode="d" horiz-adv-x="535" 
d="M140 19.5c-27.333 19.667 -49.168 49 -65.501 88s-24.5 86.5 -24.5 142.5c0 84.667 18.333 149.167 55 193.5s85 66.5 145 66.5c22.667 0 48.334 -5 77.001 -15l33 -15v190l30 30h70v-700h-70l-10 60h-5c-9.33301 -13.333 -21 -25 -35 -35
c-29.333 -23.333 -66 -35 -110 -35c-32.667 0 -62.667 9.83301 -90 29.5zM329.998 95c11.333 9.33301 21.333 19.334 30 30.001v295c-6 3.33301 -15 6.66602 -27 9.99902c-22.667 6.66699 -45.334 10 -68.001 10c-34.667 0 -62.5 -15.167 -83.5 -45.5
s-31.5 -78.5 -31.5 -144.5c0 -63.333 9.83301 -110 29.5 -140s44.834 -45 75.501 -45c24.667 0 49.667 10 75 30z" />
    <glyph glyph-name="e" unicode="e" horiz-adv-x="505" 
d="M108 56c-38.667 44 -58.001 108.667 -58.001 194c0 84.667 18.667 149.167 56 193.5s87 66.5 149 66.5s111.667 -22.167 149 -66.5s56 -108.833 56 -193.5v-15l-20 -20h-290c0 -51.333 11.333 -90 34 -116s54.667 -39 96 -39c24.667 0 50.334 7.33301 77.001 22
c14 8 25 15.667 33 23h10l35 -60c-12 -10 -27 -19.333 -45 -28c-34.667 -18 -74.667 -27 -120 -27c-69.333 0 -123.333 22 -162 66zM359.999 285c0 52.667 -9.5 91.667 -28.5 117s-44.5 38 -76.5 38s-57.5 -12.667 -76.5 -38s-28.5 -64.333 -28.5 -117h210z" />
    <glyph glyph-name="f" unicode="f" horiz-adv-x="340" 
d="M85 430h-65.001v70h65v50c0 48 15 86.667 45 116s70 44 120 44c36 0 70.667 -9.33301 104 -28c16 -8.66699 29.667 -17.667 41 -27l-35 -60h-10c-8.66699 7.33301 -18 14.666 -28 21.999c-24 15.333 -44.667 23 -62 23c-23.333 0 -41.666 -7.66699 -54.999 -23
s-20 -37.666 -20 -66.999v-50h135v-70h-135v-430h-100v430z" />
    <glyph glyph-name="g" unicode="g" horiz-adv-x="535" 
d="M125 -183c-18 8.66699 -33 18.002 -45 28.002l35 60h10c6.66699 -6.66699 17.334 -14.334 32.001 -23.001c26.667 -14.667 52.667 -22 78 -22c42.667 0 74.167 10.333 94.5 31s30.5 53.667 30.5 99v30c-10 -6 -21 -11 -33 -15c-24.667 -10 -50.334 -15 -77.001 -15
c-60 0 -108.333 22.167 -145 66.5s-55 108.833 -55 193.5c0 56 8.16699 103.5 24.5 142.5s38.166 68.333 65.499 88s57.333 29.5 90 29.5c40.667 0 77.334 -11.667 110.001 -35c16 -12.667 27.667 -24.334 35 -35.001h5l10 60h70v-510
c0 -60.667 -19.167 -109.167 -57.5 -145.5s-90.833 -54.5 -157.5 -54.5c-45.333 0 -85.333 9 -120 27zM333 70.002c12 3.33301 21 6.66699 27 10v295c-9.33301 11.333 -19.333 21.333 -30 30c-25.333 20 -50.333 30 -75 30c-30.667 0 -55.834 -15 -75.501 -45
s-29.5 -76.667 -29.5 -140c0 -66 10.5 -114.167 31.5 -144.5s48.833 -45.5 83.5 -45.5c22.667 0 45.334 3.33301 68.001 10z" />
    <glyph glyph-name="h" unicode="h" horiz-adv-x="545" 
d="M75 670l30 30h70v-240c10.667 10.667 21.667 19 33 25c32 16.667 64.333 25 97 25c50 0 90.833 -15.833 122.5 -47.5s47.5 -72.5 47.5 -122.5v-340h-100v340c0 28 -8.83301 50.833 -26.5 68.5s-40.5 26.5 -68.5 26.5c-24.667 0 -49.667 -10 -75 -30
c-10.667 -9.33301 -20.667 -19.333 -30 -30v-375h-100v670z" />
    <glyph glyph-name="i" unicode="i" horiz-adv-x="250" 
d="M82 597c-11.333 11.333 -17 25.666 -17 42.999s5.66699 31.666 17 42.999s25.666 17 42.999 17s31.666 -5.66699 42.999 -17s17 -25.666 17 -42.999s-5.66699 -31.666 -17 -42.999s-25.666 -17 -42.999 -17s-31.666 5.66699 -42.999 17zM75 0v500h100v-500h-100z" />
    <glyph glyph-name="j" unicode="j" horiz-adv-x="250" 
d="M82 597c-11.333 11.333 -17 25.666 -17 42.999s5.66699 31.666 17 42.999s25.666 17 42.999 17s31.666 -5.66699 42.999 -17s17 -25.666 17 -42.999s-5.66699 -31.666 -17 -42.999s-25.666 -17 -42.999 -17s-31.666 5.66699 -42.999 17zM-63 -185
c-11.333 4 -20.333 9.00098 -27 15.001l25 65h10c6.66699 -6.66699 12 -11 16 -13c12.667 -8 25.667 -12 39 -12c23.333 0 41.666 7.66699 54.999 23s20 37.666 20 66.999v540h100v-540c0 -48 -15 -86.667 -45 -116s-70 -44 -120 -44c-27.333 0 -51.666 5 -72.999 15z" />
    <glyph glyph-name="k" unicode="k" horiz-adv-x="480" 
d="M75 0v670l30 30h70v-430l170 230h115l-180 -240l190 -260h-115l-180 250v-250h-100z" />
    <glyph glyph-name="l" unicode="l" horiz-adv-x="250" 
d="M75 0v670l30 30h70v-700h-100z" />
    <glyph glyph-name="m" unicode="m" horiz-adv-x="805" 
d="M75 500l70.001 -0.000976562l10 -60h5c9.33301 10.667 21.333 22.334 36 35.001c31.333 23.333 64.333 35 99 35c38.667 0 72.334 -11.667 101.001 -35c13.333 -12 23 -23.667 29 -35c9.33301 10 23 21.667 41 35c37.333 23.333 73.666 35 108.999 35
c30 0 57.167 -7.16699 81.5 -21.5s43.5 -34.5 57.5 -60.5s21 -55.333 21 -88v-340h-100v340c0 27.333 -8.33301 50 -25 68s-36.667 27 -60 27c-20.667 0 -42.667 -8.33301 -66 -25c-7.33301 -4.66699 -17 -13 -29 -25v-385h-100v340c0 27.333 -8.33301 50 -25 68
s-36.667 27 -60 27c-21.333 0 -43.333 -10 -66 -30c-8.66699 -7.33301 -18.334 -17.333 -29.001 -30v-375h-100v500z" />
    <glyph glyph-name="n" unicode="n" horiz-adv-x="545" 
d="M75 500l69.999 -0.000976562l10 -60h5c7.33301 10.667 19 22.334 35 35.001c32.667 23.333 69.334 35 110.001 35c50 0 90.833 -15.833 122.5 -47.5s47.5 -72.5 47.5 -122.5v-340h-100v340c0 28 -8.83301 50.833 -26.5 68.5s-40.5 26.5 -68.5 26.5
c-24.667 0 -49.667 -10 -75 -30c-10.667 -9.33301 -20.667 -19.333 -30 -30v-375h-100v500z" />
    <glyph glyph-name="o" unicode="o" horiz-adv-x="530" 
d="M107 56c-38 44 -57 108.667 -57 194s19 150 57 194s90.667 66 158 66c66.667 0 119.167 -22 157.5 -66s57.5 -108.667 57.5 -194s-19.167 -150 -57.5 -194s-90.833 -66 -157.5 -66c-67.333 0 -120 22 -158 66zM348.5 105.5c21 30.333 31.5 78.5 31.5 144.5
s-10.5 114.167 -31.5 144.5s-48.833 45.5 -83.5 45.5s-62.5 -15.167 -83.5 -45.5s-31.5 -78.5 -31.5 -144.5s10.5 -114.167 31.5 -144.5s48.833 -45.5 83.5 -45.5s62.5 15.167 83.5 45.5z" />
    <glyph glyph-name="p" unicode="p" horiz-adv-x="535" 
d="M75 500l70.001 -0.000976562l10 -60h5c7.33301 10.667 19 22.334 35 35.001c32.667 23.333 69.334 35 110.001 35c32.667 0 62.667 -9.83301 90 -29.5s49.166 -49 65.499 -88s24.5 -86.5 24.5 -142.5c0 -84.667 -18.333 -149.167 -55 -193.5s-85 -66.5 -145 -66.5
c-26.667 0 -52.667 5 -78 15c-12.667 4 -23.334 9 -32.001 15v-190l-30 -30h-70v700zM353.501 105.499c21 30.333 31.5 78.499 31.5 144.499c0 63.333 -9.83301 110 -29.5 140s-44.834 45 -75.501 45c-24.667 0 -49.667 -10 -75 -30
c-10.667 -9.33301 -20.667 -19.333 -30 -30v-295c6.66699 -3.33301 15.667 -6.66602 27 -9.99902c22.667 -6.66699 45.334 -10 68.001 -10c34.667 0 62.5 15.167 83.5 45.5z" />
    <glyph glyph-name="q" unicode="q" horiz-adv-x="535" 
d="M360 -170l0.000976562 190.001c-10 -6 -21 -11 -33 -15c-24.667 -10 -50.334 -15 -77.001 -15c-60 0 -108.333 22.167 -145 66.5s-55 108.833 -55 193.5c0 56 8.16699 103.5 24.5 142.5s38.166 68.333 65.499 88s57.333 29.5 90 29.5
c40.667 0 77.334 -11.667 110.001 -35c16 -12.667 27.667 -24.334 35 -35.001h5l10 60h70v-700h-70zM333.001 70.001c12 3.33301 21 6.66699 27 10v295c-9.33301 11.333 -19.333 21.333 -30 30c-25.333 20 -50.333 30 -75 30c-30.667 0 -55.834 -15 -75.501 -45
s-29.5 -76.667 -29.5 -140c0 -66 10.5 -114.167 31.5 -144.5s48.833 -45.5 83.5 -45.5c22.667 0 45.334 3.33301 68.001 10z" />
    <glyph glyph-name="r" unicode="r" horiz-adv-x="365" 
d="M75 500l70.0039 -0.000976562l10 -60h5c6.66699 10 18 21.667 34 35c31.333 23.333 66.666 35 105.999 35c17.333 0 32.666 -1.66699 45.999 -5l19 -5l-15 -80h-10c-4.66699 0.666992 -11.667 2.33398 -21 5.00098c-14.667 3.33301 -29.334 5 -44.001 5
c-22 0 -45.667 -10 -71 -30c-8.66699 -7.33301 -18.334 -17.333 -29.001 -30v-370h-100v500z" />
    <glyph glyph-name="s" unicode="s" horiz-adv-x="460" 
d="M82 17c-19.333 8.66699 -35.001 18.001 -47.001 28.001l35 60h10c7.33301 -6.66699 19 -14.334 35 -23.001c30.667 -14.667 62.334 -22 95.001 -22c40 0 69.167 6.33301 87.5 19s27.5 29.667 27.5 51c0 22 -9.5 38.667 -28.5 50s-48.5 23.666 -88.5 36.999
c-35.333 12 -63.666 23 -84.999 33s-39.666 24.333 -54.999 43s-23 42.667 -23 72c0 44.667 15.833 80 47.5 106s79.167 39 142.5 39c47.333 0 90.333 -9.33301 129 -28c18.667 -8.66699 34 -17.667 46 -27l-35 -60h-10c-10 7.33301 -21.333 14.666 -34 21.999
c-29.333 15.333 -58 23 -86 23c-33.333 0 -58.333 -6.16699 -75 -18.5s-25 -27.833 -25 -46.5c0 -22 9.5 -38.667 28.5 -50s48.5 -23.666 88.5 -36.999c35.333 -12 63.666 -23 84.999 -33s39.666 -24.333 54.999 -43s23 -42.667 23 -72
c0 -47.333 -16.667 -84.166 -50 -110.499s-85 -39.5 -155 -39.5c-54.667 0 -100.667 9 -138 27z" />
    <glyph glyph-name="t" unicode="t" horiz-adv-x="400" 
d="M140 34c-30 29.333 -45 67.998 -45 115.998v280h-75v60l130 130h45v-120h125v-70h-125v-280c0 -29.333 6.66699 -51.666 20 -66.999s31.666 -23 54.999 -23c20 0 39.667 6.66699 59 20c8.66699 6 17.334 12.667 26.001 20h10l35 -60
c-14.667 -11.333 -28 -19.666 -40 -24.999c-32 -16.667 -65.333 -25 -100 -25c-50 0 -90 14.667 -120 44z" />
    <glyph glyph-name="u" unicode="u" horiz-adv-x="550" 
d="M122.5 37.5c-31.667 31.667 -47.5 72.5 -47.5 122.5v340h100v-340c0 -28 8.83301 -50.833 26.5 -68.5s40.5 -26.5 68.5 -26.5c24.667 0 49.667 10 75 30c10.667 8.66699 20.667 18.667 30 30v375h100v-500h-70l-10 60h-5c-9.33301 -13.333 -21 -25 -35 -35
c-29.333 -23.333 -66 -35 -110 -35c-50 0 -90.833 15.833 -122.5 47.5z" />
    <glyph glyph-name="v" unicode="v" horiz-adv-x="470" 
d="M25 500h89.998l105 -330c2.66699 -7.33301 4.83398 -15.833 6.50098 -25.5l3.5 -20.5l3 -24h4l3 24l3.5 20.5c1.66699 9.66699 3.83398 18.167 6.50098 25.5l105 330h83l-160 -500h-93z" />
    <glyph glyph-name="w" unicode="w" horiz-adv-x="710" 
d="M15 500l95.0049 -0.00195312l80 -305c1.33301 -5.33301 2.66602 -12.5 3.99902 -21.5s2.66602 -16.5 3.99902 -22.5l2 -21h4c0 4.66699 0.666992 11.667 2 21c1.33301 6 2.66602 12.667 3.99902 20s3 15.333 5 24l82 305h100l78 -305
c1.33301 -5.33301 2.66602 -12.5 3.99902 -21.5s2.66602 -16.5 3.99902 -22.5l3 -21h4c0 4.66699 0.666992 11.667 2 21c3.33301 20.667 6 35.334 8 44.001l80 305h95l-130 -500h-100l-85 315c-3.33301 10.667 -6.33301 25.334 -9 44.001l-4 26h-4l-4 -26
c-1.33301 -11.333 -4.33301 -26 -9 -44l-85 -315h-100z" />
    <glyph glyph-name="x" unicode="x" horiz-adv-x="460" 
d="M170 255l-150 244.999h110l80 -140c6 -12 10 -20.667 12 -26l6 -14h4l6 14c4 11.333 8 20 12 26l80 140h110l-150 -245l155 -255h-110l-85 145c-7.33301 12.667 -11.666 21.334 -12.999 26.001c-2.66699 7.33301 -4.33398 12 -5.00098 14h-4
c-0.666992 -2 -2.33398 -6.66699 -5.00098 -14c-1.33301 -4 -5.66602 -12.667 -12.999 -26l-85 -145h-110z" />
    <glyph glyph-name="y" unicode="y" horiz-adv-x="475" 
d="M62 -195c-11.333 4 -20.333 8.99902 -27 14.999l25 65h10c6.66699 -6.66699 12 -11 16 -13c12.667 -8 25.667 -12 39 -12c17.333 0 32.833 6.5 46.5 19.5s23.167 29.833 28.5 50.5l20 70h-30l-171 500h96l110 -330c3.33301 -10 8 -27 14 -51c2 -6 4.33301 -15.667 7 -29
h4c1.33301 10.667 3.33301 20.334 6 29.001l13 51l91 330h100l-160 -570c-12 -42 -32.333 -75.833 -61 -101.5s-63.334 -38.5 -104.001 -38.5c-27.333 0 -51.666 5 -72.999 15z" />
    <glyph glyph-name="z" unicode="z" horiz-adv-x="440" 
d="M35 0v75l255 355h-255v70h365v-75l-255 -355h260v-70h-370z" />
    <glyph glyph-name="braceleft" unicode="{" horiz-adv-x="325" 
d="M159 -131c-29.333 26 -44.001 59.6689 -44.001 101.002v180c0 34.667 -6 59.167 -18 73.5s-31 21.5 -57 21.5v70c26 0 45 7.16699 57 21.5s18 38.833 18 73.5v180c0 41.333 14.667 75 44 101s69.666 39 120.999 39h35v-70h-35c-20 0 -35.833 -6.16699 -47.5 -18.5
s-17.5 -29.5 -17.5 -51.5v-180c0 -50.667 -13.333 -87.334 -40 -110.001c-11.333 -10 -24.666 -16.667 -39.999 -20c14 -2.66699 27.333 -9.33398 40 -20.001c26.667 -25.333 40 -62 40 -110v-180c0 -22 5.83301 -39.167 17.5 -51.5s27.5 -18.5 47.5 -18.5h35v-70h-35
c-51.333 0 -91.666 13 -120.999 39z" />
    <glyph glyph-name="bar" unicode="|" horiz-adv-x="280" 
d="M90 -200v900h100v-900h-100z" />
    <glyph glyph-name="braceright" unicode="}" horiz-adv-x="325" 
d="M10 -100l34.999 -0.00195312c20 0 35.833 6.16699 47.5 18.5s17.5 29.5 17.5 51.5v180c0 48 13.333 84.667 40 110c12.667 10.667 26 17.334 40 20.001c-15.333 3.33301 -28.666 10 -39.999 20c-26.667 22.667 -40 59.334 -40 110.001v180
c0 22 -5.83301 39.167 -17.5 51.5s-27.5 18.5 -47.5 18.5h-35v70h35c51.333 0 91.666 -13 120.999 -39s44 -59.667 44 -101v-180c0 -34.667 6 -59.167 18 -73.5s31 -21.5 57 -21.5v-70c-26 0 -45 -7.16699 -57 -21.5s-18 -38.833 -18 -73.5v-180
c0 -41.333 -14.667 -75 -44 -101s-69.666 -39 -120.999 -39h-35v70z" />
    <glyph glyph-name="asciitilde" unicode="~" horiz-adv-x="490" 
d="M281.5 254c-13.667 6 -30.167 15 -49.5 27c-15.333 10 -28 17.333 -38 22s-21.333 7 -34 7c-13.333 0 -25.333 -4 -36 -12s-19.167 -16.833 -25.5 -26.5s-9.5 -15.167 -9.5 -16.5h-9l-55 50c8.66699 25.333 25.167 47.5 49.5 66.5s52.833 28.5 85.5 28.5
c19.333 0 36 -3 50 -9s30 -15 48 -27c14 -9.33301 26.333 -16.5 37 -21.5s22.334 -7.5 35.001 -7.5c13.333 0 25.333 4 36 12s19.167 16.833 25.5 26.5s9.5 15.167 9.5 16.5h9l55 -50c-8.66699 -25.333 -25.167 -47.5 -49.5 -66.5s-52.833 -28.5 -85.5 -28.5
c-18.667 0 -34.834 3 -48.501 9z" />
    <glyph glyph-name="uni00A0" unicode="&#xa0;" horiz-adv-x="290" 
 />
    <glyph glyph-name="exclamdown" unicode="&#xa1;" horiz-adv-x="290" 
d="M102 407c-11.333 11.333 -17 25.666 -17 42.999s5.66699 31.666 17 42.999s25.666 17 42.999 17s31.666 -5.66699 42.999 -17s17 -25.666 17 -42.999s-5.66699 -31.666 -17 -42.999s-25.666 -17 -42.999 -17s-31.666 5.66699 -42.999 17zM85 -200l20 520h80l20 -520h-120
z" />
    <glyph glyph-name="cent" unicode="&#xa2;" horiz-adv-x="455" 
d="M210 -3c-51.333 12 -90.8369 39 -118.504 81s-41.5 99.333 -41.5 172c0 73.333 14.167 131.5 42.5 174.5s67.5 69.833 117.5 80.5v55h100v-55c30.667 -6 58.667 -16 84 -30c14 -8 24.333 -14.667 31 -20l-35 -60h-10c-8.66699 6.66699 -19.667 14 -33 22
c-28 15.333 -53.667 23 -77 23c-37.333 0 -66.666 -15 -87.999 -45s-32 -78.333 -32 -145c0 -67.333 11.167 -115.833 33.5 -145.5s54.5 -44.5 96.5 -44.5c24.667 0 50.334 7.33301 77.001 22c14 8 25 15.667 33 23h10l35 -60c-15.333 -10.667 -26.666 -18 -33.999 -22
c-31.333 -16 -61.666 -26 -90.999 -30v-63h-100v67z" />
    <glyph glyph-name="sterling" unicode="&#xa3;" horiz-adv-x="475" 
d="M25 70c14 5.33301 26.332 15.333 36.999 30c25.333 33.333 38 83.333 38 150v80h-65v70h65v140c0 31.333 7.66699 60 23 86s36.333 46.5 63 61.5s56.334 22.5 89.001 22.5c48 0 89.333 -9.33301 124 -28c16.667 -8.66699 30.334 -17.667 41.001 -27l-35 -60h-10
c-6.66699 6.66699 -16.334 14 -29.001 22c-26.667 15.333 -53.667 23 -81 23c-23.333 0 -43.333 -9.33301 -60 -28s-25 -42.667 -25 -72v-140h135v-70h-135v-80c0 -60 -11.667 -108.667 -35 -146c-12 -16.667 -23.667 -28 -35 -34h335v-70h-440v70z" />
    <glyph glyph-name="currency" unicode="&#xa4;" horiz-adv-x="575" 
d="M100 170l-80 -0.000976562v60h80v40h-80v60h80v370h180c84 0 146.667 -18.667 188 -56s62 -92 62 -164c0 -67.333 -20.667 -119.166 -62 -155.499s-104 -54.5 -188 -54.5h-80v-40h250v-60h-250v-170h-100v170zM280 329.999c100 0 150 50 150 150s-50 150 -150 150h-80
v-300h80z" />
    <glyph glyph-name="yen" unicode="&#xa5;" horiz-adv-x="530" 
d="M215 180h-150.002v70h141l-25 55h-116v70h84l-149 325h105l140 -305c6 -16 10.333 -29 13 -39c2.66699 -9.33301 4.33398 -16.333 5.00098 -21h4c0.666992 4.66699 2.33398 11.667 5.00098 21c4.66699 18.667 9 31.667 13 39l140 305h105l-149 -325h84v-70h-116l-25 -55
h141v-70h-150v-180h-100v180z" />
    <glyph glyph-name="brokenbar" unicode="&#xa6;" horiz-adv-x="280" 
d="M90 320v380h100v-380h-100zM90 -200v380h100v-380h-100z" />
    <glyph glyph-name="section" unicode="&#xa7;" 
d="M102 -183c-19.333 8.66699 -35.002 18.002 -47.002 28.002l35 60h10c7.33301 -6.66699 19 -14.334 35 -23.001c30.667 -14.667 62.334 -22 95.001 -22c41.333 0 72.5 8.83301 93.5 26.5s31.5 42.167 31.5 73.5c0 19.333 -5.83301 36 -17.5 50s-25.834 25.333 -42.501 34
s-40.667 19.667 -72 33c-38 15.333 -68.833 29.666 -92.5 42.999s-43.834 31.833 -60.501 55.5s-25 53.5 -25 89.5c0 32 6.33301 60.5 19 85.5s31.334 45.167 56.001 60.5c-20.667 14.667 -36.667 31.834 -48 51.501s-17 43.834 -17 72.501c0 54 17.833 96.667 53.5 128
s87.834 47 156.501 47c47.333 0 90.333 -9.33301 129 -28c18.667 -8.66699 34 -17.667 46 -27l-35 -60h-10c-10 7.33301 -21.333 14.666 -34 21.999c-29.333 15.333 -58 23 -86 23c-38.667 0 -68.334 -8.66699 -89.001 -26s-31 -40.333 -31 -69
c0 -19.333 5.66699 -35.833 17 -49.5s25.833 -25.167 43.5 -34.5s41.167 -20 70.5 -32c38.667 -16 69.834 -30.667 93.501 -44s43.834 -31.833 60.501 -55.5s25 -53.5 25 -89.5c0 -68 -24.333 -117.333 -73 -148c20 -14.667 35.5 -31.667 46.5 -51s16.5 -43 16.5 -71
c0 -56.667 -18 -100.834 -54 -132.501s-89.667 -47.5 -161 -47.5c-54.667 0 -100.667 9 -138 27zM352.498 175.502c11.667 16.333 17.5 34.5 17.5 54.5c0 33.333 -14.667 60.5 -44 81.5s-68 38.833 -116 53.5c-20 -7.33301 -35.833 -19.166 -47.5 -35.499
s-17.5 -34.5 -17.5 -54.5c0 -34 14.667 -61.5 44 -82.5s68 -38.5 116 -52.5c20 7.33301 35.833 19.166 47.5 35.499z" />
    <glyph glyph-name="dieresis" unicode="&#xa8;" horiz-adv-x="305" 
d="M25.5 580.5c-10.333 10.333 -15.5 23.5 -15.5 39.5s5.16699 29.167 15.5 39.5s23.5 15.5 39.5 15.5s29.167 -5.16699 39.5 -15.5s15.5 -23.5 15.5 -39.5s-5.16699 -29.167 -15.5 -39.5s-23.5 -15.5 -39.5 -15.5s-29.167 5.16699 -39.5 15.5zM200.5 580.5
c-10.333 10.333 -15.5 23.5 -15.5 39.5s5.16699 29.167 15.5 39.5s23.5 15.5 39.5 15.5s29.167 -5.16699 39.5 -15.5s15.5 -23.5 15.5 -39.5s-5.16699 -29.167 -15.5 -39.5s-23.5 -15.5 -39.5 -15.5s-29.167 5.16699 -39.5 15.5z" />
    <glyph glyph-name="copyright" unicode="&#xa9;" horiz-adv-x="860" 
d="M228 19c-59.333 32.667 -105.5 77.834 -138.5 135.501s-49.5 122.834 -49.5 195.501s16.5 137.834 49.5 195.501s79.167 102.834 138.5 135.501s126.666 49 201.999 49s142.666 -16.333 201.999 -49s105.5 -77.834 138.5 -135.501s49.5 -122.834 49.5 -195.501
s-16.5 -137.834 -49.5 -195.501s-79.167 -102.834 -138.5 -135.501s-126.666 -49 -201.999 -49s-142.666 16.333 -201.999 49zM582.5 80c45.667 26.667 81.667 63.667 108 111s39.5 100.333 39.5 159s-13.167 111.667 -39.5 159s-62.333 84.333 -108 111s-96.5 40 -152.5 40
s-106.833 -13.333 -152.5 -40s-81.667 -63.667 -108 -111s-39.5 -100.333 -39.5 -159s13.167 -111.667 39.5 -159s62.333 -84.333 108 -111s96.5 -40 152.5 -40s106.833 13.333 152.5 40zM301 182c-34 38 -51.001 93.9971 -51.001 167.997
c0 72.667 16.833 128.334 50.5 167.001s78.5 58 134.5 58c35.333 0 70.333 -8.33301 105 -25c12 -5.33301 25.333 -13.666 40 -24.999l-30 -50h-9c-12 8 -21.667 13.667 -29 17c-25.333 12 -47.666 18 -66.999 18c-32 0 -57.5 -13 -76.5 -39s-28.5 -66.333 -28.5 -121
c0 -106.667 38.333 -160 115 -160c20.667 0 43 5.66699 67 17c9.33301 4 19 10 29 18h9l30 -50c-14.667 -11.333 -28 -19.666 -40 -24.999c-32 -16.667 -67 -25 -105 -25c-62 0 -110 19 -144 57z" />
    <glyph glyph-name="ordfeminine" unicode="&#xaa;" horiz-adv-x="360" 
d="M67.5 379.5c-21.667 19.667 -32.5029 44.835 -32.5029 75.502c0 34 12.5 60.833 37.5 80.5s64.167 29.5 117.5 29.5h45v25c0 18 -5.83301 32.5 -17.5 43.5s-27.5 16.5 -47.5 16.5s-38.667 -5 -56 -15c-9.33301 -6.66699 -15.666 -11.667 -18.999 -15h-10l-26 45
c8 7.33301 19 14.666 33 21.999c29.333 15.333 60.333 23 93 23c44.667 0 79.167 -10.833 103.5 -32.5s36.5 -50.834 36.5 -87.501v-230h-69l-6 40h-5c-7.33301 -10.667 -14.666 -19 -21.999 -25c-19.333 -16.667 -41.666 -25 -66.999 -25
c-37.333 0 -66.833 9.83301 -88.5 29.5zM217.997 425.001c6 3.33301 11.667 8.33398 17 15.001v65h-45c-43.333 0 -65 -16.667 -65 -50c0 -12.667 4.5 -23.334 13.5 -32.001s21.167 -13 36.5 -13c14.667 0 29 5 43 15z" />
    <glyph glyph-name="guillemotleft" unicode="&#xab;" horiz-adv-x="475" 
d="M225 0l-215 250l215 250l65 -60l-160 -190l160 -190zM390 35l-185 215l185 215l65 -60l-130 -155l130 -155z" />
    <glyph glyph-name="logicalnot" unicode="&#xac;" horiz-adv-x="460" 
d="M340 240v90h-310v80h400v-170h-90z" />
    <glyph glyph-name="uni00AD" unicode="&#xad;" horiz-adv-x="440" 
d="M30 290v80h380v-80h-380z" />
    <glyph glyph-name="registered" unicode="&#xae;" horiz-adv-x="860" 
d="M228 19c-59.333 32.667 -105.5 77.834 -138.5 135.501s-49.5 122.834 -49.5 195.501s16.5 137.834 49.5 195.501s79.167 102.834 138.5 135.501s126.666 49 201.999 49s142.666 -16.333 201.999 -49s105.5 -77.834 138.5 -135.501s49.5 -122.834 49.5 -195.501
s-16.5 -137.834 -49.5 -195.501s-79.167 -102.834 -138.5 -135.501s-126.666 -49 -201.999 -49s-142.666 16.333 -201.999 49zM582.5 80c45.667 26.667 81.667 63.667 108 111s39.5 100.333 39.5 159s-13.167 111.667 -39.5 159s-62.333 84.333 -108 111s-96.5 40 -152.5 40
s-106.833 -13.333 -152.5 -40s-81.667 -63.667 -108 -111s-39.5 -100.333 -39.5 -159s13.167 -111.667 39.5 -159s62.333 -84.333 108 -111s96.5 -40 152.5 -40s106.833 13.333 152.5 40zM280 565h146c60.667 0 105.834 -12.333 135.501 -37s44.5 -59 44.5 -103
c0 -31.333 -8.33301 -58 -25 -80s-38.334 -37 -65.001 -45l100 -165h-95l-90 150h-61v-150h-90v430zM426 350c32 0 55 6 69 18s21 31 21 57s-7 45 -21 57s-37 18 -69 18h-56v-150h56z" />
    <glyph glyph-name="macron" unicode="&#xaf;" horiz-adv-x="310" 
d="M20 590v70h270v-70h-270z" />
    <glyph glyph-name="degree" unicode="&#xb0;" horiz-adv-x="380" 
d="M67.5 417.5c-31.667 31.667 -47.5 72.5 -47.5 122.5s15.833 90.833 47.5 122.5s72.5 47.5 122.5 47.5s90.833 -15.833 122.5 -47.5s47.5 -72.5 47.5 -122.5s-15.833 -90.833 -47.5 -122.5s-72.5 -47.5 -122.5 -47.5s-90.833 15.833 -122.5 47.5zM247.5 462
c15 18 22.5 44 22.5 78s-7.5 60 -22.5 78s-34.167 27 -57.5 27s-42.5 -9 -57.5 -27s-22.5 -44 -22.5 -78s7.5 -60 22.5 -78s34.167 -27 57.5 -27s42.5 9 57.5 27z" />
    <glyph glyph-name="plusminus" unicode="&#xb1;" horiz-adv-x="490" 
d="M40 95v80h165v135h-165v80h165v165h80v-165h165v-80h-165v-135h165v-80h-410z" />
    <glyph glyph-name="uni00B2" unicode="&#xb2;" horiz-adv-x="330" 
d="M35 400c0 23.333 4.99902 43 14.999 59s22 29 36 39s31.667 20.667 53 32c23.333 12.667 40.166 23.334 50.499 32.001s15.5 19.667 15.5 33c0 36.667 -19 55 -57 55c-19.333 0 -37.666 -5 -54.999 -15c-7.33301 -4.66699 -13.333 -9.66699 -18 -15h-10l-26 45
c8 7.33301 19 14.666 33 21.999c29.333 15.333 60.333 23 93 23c39.333 0 70.833 -10.833 94.5 -32.5s35.5 -49.167 35.5 -82.5c0 -29.333 -9.16699 -52.333 -27.5 -69s-44.166 -33 -77.499 -49c-22.667 -11.333 -39.167 -20.833 -49.5 -28.5s-15.5 -17.167 -15.5 -28.5h170
v-60h-260v40z" />
    <glyph glyph-name="uni00B3" unicode="&#xb3;" horiz-adv-x="321" 
d="M53 372c-14.667 8 -25.666 15.667 -32.999 23l26 45h10c4.66699 -5.33301 11 -10.333 19 -15c15.333 -10 34 -15 56 -15c43.333 0 65 16.667 65 50s-23.333 50 -70 50h-66v50l120 80h-144v60h234v-65l-110 -65c39.333 0 70.166 -10 92.499 -30s33.5 -46.667 33.5 -80
c0 -31.333 -12.333 -57.5 -37 -78.5s-59 -31.5 -103 -31.5c-34 0 -65 7.33301 -93 22z" />
    <glyph glyph-name="acute" unicode="&#xb4;" horiz-adv-x="175" 
d="M10 550l45 150h110l-90 -150h-65z" />
    <glyph glyph-name="uni00B5" unicode="&#xb5;" horiz-adv-x="550" 
d="M75 500h99.999v-340c0 -28 8.83301 -50.833 26.5 -68.5s40.5 -26.5 68.5 -26.5c25.333 0 50.333 8.33301 75 25c9.33301 6 19.333 14.333 30 25v385h100v-500h-70l-10 50h-5c-9.33301 -9.33301 -21.666 -19.333 -36.999 -30c-30.667 -20 -61.667 -30 -93 -30
c-22 0 -42.333 5 -61 15c-8.66699 4 -16.667 9 -24 15v-190l-30 -30h-70v700z" />
    <glyph glyph-name="paragraph" unicode="&#xb6;" horiz-adv-x="565" 
d="M225 290c-36 0 -69.333 9.1709 -100 27.5039s-55 43.166 -73 74.499s-27 65.666 -27 102.999s9 71.666 27 102.999s42.333 56.166 73 74.499s64 27.5 100 27.5h330v-70h-80v-830h-90v830h-70v-830h-90v490z" />
    <glyph glyph-name="periodcentered" unicode="&#xb7;" horiz-adv-x="290" 
d="M102 307c-11.333 11.333 -17 25.666 -17 42.999s5.66699 31.666 17 42.999s25.666 17 42.999 17s31.666 -5.66699 42.999 -17s17 -25.666 17 -42.999s-5.66699 -31.666 -17 -42.999s-25.666 -17 -42.999 -17s-31.666 5.66699 -42.999 17z" />
    <glyph glyph-name="cedilla" unicode="&#xb8;" horiz-adv-x="195" 
d="M31 -180c-9.33301 3.33301 -16.3311 6.66602 -20.998 9.99902l16 40h9c0.666992 -0.666992 3 -2.16699 7 -4.5s9.5 -4.66602 16.5 -6.99902s14.167 -3.5 21.5 -3.5c12 0 21.667 3.33301 29 10s11 15 11 25c0 10.667 -3.83301 19.167 -11.5 25.5s-18.834 9.5 -33.501 9.5
h-40v95h60v-50c27.333 0 49.166 -7.5 65.499 -22.5s24.5 -34.167 24.5 -57.5s-8.5 -42.5 -25.5 -57.5s-40.167 -22.5 -69.5 -22.5c-19.333 0 -39 3.33301 -59 10z" />
    <glyph glyph-name="uni00B9" unicode="&#xb9;" horiz-adv-x="325" 
d="M50 360v60h75v190l-60 -35l-30 45l95 80h85v-280h75v-60h-240z" />
    <glyph glyph-name="ordmasculine" unicode="&#xba;" horiz-adv-x="390" 
d="M78.5 397c-29 31.333 -43.5 75.666 -43.5 132.999s14.5 101.666 43.5 132.999s67.833 47 116.5 47s87.5 -15.667 116.5 -47s43.5 -75.666 43.5 -132.999s-14.5 -101.666 -43.5 -132.999s-67.833 -47 -116.5 -47s-87.5 15.667 -116.5 47zM265 530
c0 80 -23.333 120 -70 120s-70 -40 -70 -120s23.333 -120 70 -120s70 40 70 120z" />
    <glyph glyph-name="guillemotright" unicode="&#xbb;" horiz-adv-x="475" 
d="M250 0l-65 60l160 190l-160 190l65 60l215 -250zM85 35l-65 60l130 155l-130 155l65 60l185 -215z" />
    <glyph glyph-name="onequarter" unicode="&#xbc;" horiz-adv-x="760" 
d="M50 360v60h75v190l-60 -35l-30 45l95 80h85v-280h75v-60h-240zM105 0l470 700h110l-470 -700h-110zM585 0v70h-170v60l170 210h90v-210h50v-60h-50v-70h-90zM585 130v90.002c0 9.33301 1 18.333 3 27l3 16h-4c-1.33301 -6.66699 -3.33301 -12.334 -6 -17.001
c-6.66699 -14.667 -11 -23.334 -13 -26.001l-73 -90h90z" />
    <glyph glyph-name="onehalf" unicode="&#xbd;" horiz-adv-x="750" 
d="M50 360v60h75v190l-60 -35l-30 45l95 80h85v-280h75v-60h-240zM105 0l470 700h110l-470 -700h-110zM455 40c0 23.333 4.99902 43 14.999 59s22 29 36 39s31.667 20.667 53 32c23.333 12.667 40.166 23.334 50.499 32.001s15.5 19.667 15.5 33c0 36.667 -19 55 -57 55
c-19.333 0 -37.666 -5 -54.999 -15c-7.33301 -4.66699 -13.333 -9.66699 -18 -15h-10l-26 45c8 7.33301 19 14.666 33 21.999c29.333 15.333 60.333 23 93 23c39.333 0 70.833 -10.833 94.5 -32.5s35.5 -49.167 35.5 -82.5c0 -29.333 -9.16699 -52.333 -27.5 -69
s-44.166 -33 -77.499 -49c-22.667 -11.333 -39.167 -20.833 -49.5 -28.5s-15.5 -17.167 -15.5 -28.5h170v-60h-260v40z" />
    <glyph glyph-name="threequarters" unicode="&#xbe;" horiz-adv-x="750" 
d="M68 372c-14.667 8 -25.666 15.667 -32.999 23l26 45h10c4.66699 -5.33301 11 -10.333 19 -15c15.333 -10 34 -15 56 -15c43.333 0 65 16.667 65 50s-23.333 50 -70 50h-66v50l120 80h-144v60h234v-65l-110 -65c39.333 0 70.166 -10 92.499 -30s33.5 -46.667 33.5 -80
c0 -31.333 -12.333 -57.5 -37 -78.5s-59 -31.5 -103 -31.5c-34 0 -65 7.33301 -93 22zM95.001 0l470 700h110l-470 -700h-110zM575.001 0v70h-170v60l170 210h90v-210h50v-60h-50v-70h-90zM575.001 130v90.002c0 9.33301 1 18.333 3 27l3 16h-4
c-1.33301 -6.66699 -3.33301 -12.334 -6 -17.001c-6.66699 -14.667 -11 -23.334 -13 -26.001l-73 -90h90z" />
    <glyph glyph-name="questiondown" unicode="&#xbf;" horiz-adv-x="460" 
d="M236 407c-11.333 11.333 -17 25.666 -17 42.999s5.66699 31.666 17 42.999s25.666 17 42.999 17s31.666 -5.66699 42.999 -17s17 -25.666 17 -42.999s-5.66699 -31.666 -17 -42.999s-25.666 -17 -42.999 -17s-31.666 5.66699 -42.999 17zM144 -185.5
c-34 16.333 -59.834 38.832 -77.501 67.499s-26.5 61.334 -26.5 98.001c0 28 5 52.5 15 73.5s22 38.333 36 52s32.333 29.167 55 46.5c29.333 22 51.333 42 66 60s22 40.667 22 68v40h90v-40c0 -27.333 -4.5 -51.333 -13.5 -72s-20.167 -38 -33.5 -52
s-30.666 -30 -51.999 -48c-28.667 -24 -50 -45.5 -64 -64.5s-21 -43.5 -21 -73.5c0 -31.333 12.167 -57.5 36.5 -78.5s57.166 -31.5 98.499 -31.5c37.333 0 72 7.33301 104 22c16 8 28 15.667 36 23h10l35 -60c-13.333 -10.667 -29.666 -20 -48.999 -28
c-39.333 -18 -88 -27 -146 -27c-46.667 0 -87 8.16699 -121 24.5z" />
    <glyph glyph-name="Agrave" unicode="&#xc0;" horiz-adv-x="570" 
d="M15 0l205 700h130l205 -700h-100l-55 180h-230l-55 -180h-100zM380 250l-79.998 274.999c-2.66699 7.33301 -4.83398 15.833 -6.50098 25.5s-2.83398 16.834 -3.50098 21.501l-3 23h-4l-3 -24c-4.66699 -22.667 -8 -38 -10 -46l-80 -275h190zM257.002 749.999l-90 150
h110l45 -150h-65z" />
    <glyph glyph-name="Aacute" unicode="&#xc1;" horiz-adv-x="570" 
d="M15 0l205 700h130l205 -700h-100l-55 180h-230l-55 -180h-100zM380 250l-79.998 274.999c-2.66699 7.33301 -4.83398 15.833 -6.50098 25.5s-2.83398 16.834 -3.50098 21.501l-3 23h-4l-3 -24c-4.66699 -22.667 -8 -38 -10 -46l-80 -275h190zM237.002 749.999l45 150h110
l-90 -150h-65z" />
    <glyph glyph-name="Acircumflex" unicode="&#xc2;" horiz-adv-x="570" 
d="M15 0l205 700h130l205 -700h-100l-55 180h-230l-55 -180h-100zM380 250l-79.998 274.999c-2.66699 7.33301 -4.83398 15.833 -6.50098 25.5s-2.83398 16.834 -3.50098 21.501l-3 23h-4l-3 -24c-4.66699 -22.667 -8 -38 -10 -46l-80 -275h190zM145.002 749.999l105 130h70
l105 -130h-65l-75 65l-75 -65h-65z" />
    <glyph glyph-name="Atilde" unicode="&#xc3;" horiz-adv-x="570" 
d="M15 0l205 700h130l205 -700h-100l-55 180h-230l-55 -180h-100zM380 250l-79.998 274.999c-2.66699 7.33301 -4.83398 15.833 -6.50098 25.5s-2.83398 16.834 -3.50098 21.501l-3 23h-4l-3 -24c-4.66699 -22.667 -8 -38 -10 -46l-80 -275h190zM416.002 834.999
c-18.667 -56.667 -48.665 -85 -89.998 -85c-12.667 0 -23.167 2.33301 -31.5 7s-16.833 11.334 -25.5 20.001c-1.33301 1.33301 -4.16602 3.83301 -8.49902 7.5s-8.5 6.33398 -12.5 8.00098s-8 2.5 -12 2.5c-8.66699 0 -16.334 -3 -23.001 -9s-12 -12.167 -16 -18.5
s-6.33301 -10.5 -7 -12.5h-9l-40 25c9.33301 26.667 20.833 47.5 34.5 62.5s32.167 22.5 55.5 22.5c12.667 0 23.167 -2.33301 31.5 -7s17.166 -11.334 26.499 -20.001c7.33301 -6.66699 13.166 -11.334 17.499 -14.001s9.5 -4 15.5 -4c8.66699 0 16.5 3 23.5 9
s12.5 12.5 16.5 19.5s5.66699 10.833 5 11.5h9z" />
    <glyph glyph-name="Adieresis" unicode="&#xc4;" horiz-adv-x="570" 
d="M15 0l205 700h130l205 -700h-100l-55 180h-230l-55 -180h-100zM380 250l-79.998 274.999c-2.66699 7.33301 -4.83398 15.833 -6.50098 25.5s-2.83398 16.834 -3.50098 21.501l-3 23h-4l-3 -24c-4.66699 -22.667 -8 -38 -10 -46l-80 -275h190zM155.502 770.499
c-10.333 10.333 -15.5 23.5 -15.5 39.5s5.16699 29.167 15.5 39.5s23.5 15.5 39.5 15.5s29.167 -5.16699 39.5 -15.5s15.5 -23.5 15.5 -39.5s-5.16699 -29.167 -15.5 -39.5s-23.5 -15.5 -39.5 -15.5s-29.167 5.16699 -39.5 15.5zM330.502 770.499
c-10.333 10.333 -15.5 23.5 -15.5 39.5s5.16699 29.167 15.5 39.5s23.5 15.5 39.5 15.5s29.167 -5.16699 39.5 -15.5s15.5 -23.5 15.5 -39.5s-5.16699 -29.167 -15.5 -39.5s-23.5 -15.5 -39.5 -15.5s-29.167 5.16699 -39.5 15.5z" />
    <glyph glyph-name="Aring" unicode="&#xc5;" horiz-adv-x="570" 
d="M15 0l205 700h130l205 -700h-100l-55 180h-230l-55 -180h-100zM380 250l-79.998 274.999c-2.66699 7.33301 -4.83398 15.833 -6.50098 25.5s-2.83398 16.834 -3.50098 21.501l-3 23h-4l-3 -24c-4.66699 -22.667 -8 -38 -10 -46l-80 -275h190zM212.502 766.499
c-18.333 17.667 -27.5 40.5 -27.5 68.5s9.16699 50.833 27.5 68.5s42.5 26.5 72.5 26.5s54.167 -8.83301 72.5 -26.5s27.5 -40.5 27.5 -68.5s-9.16699 -50.833 -27.5 -68.5s-42.5 -26.5 -72.5 -26.5s-54.167 8.83301 -72.5 26.5zM313.002 801.499
c8 7.66699 12 18.834 12 33.501s-4 25.834 -12 33.501s-17.333 11.5 -28 11.5s-20 -3.83301 -28 -11.5s-12 -18.834 -12 -33.501s4 -25.834 12 -33.501s17.333 -11.5 28 -11.5s20 3.83301 28 11.5z" />
    <glyph glyph-name="AE" unicode="&#xc6;" horiz-adv-x="815" 
d="M-20 0l295 700h510v-70h-290v-230h230v-70h-230v-260h290v-70h-390v200h-230l-85 -200h-100zM195 270h200v360h-50z" />
    <glyph glyph-name="Ccedilla" unicode="&#xc7;" horiz-adv-x="515" 
d="M315 -10l0.000976562 -20c27.333 0 49.166 -7.5 65.499 -22.5s24.5 -34.167 24.5 -57.5s-8.5 -42.5 -25.5 -57.5s-40.167 -22.5 -69.5 -22.5c-19.333 0 -39 3.33301 -59 10c-9.33301 3.33301 -16.333 6.66602 -21 9.99902l16 40h9c0.666992 -0.666992 3 -2.16699 7 -4.5
s9.5 -4.66602 16.5 -6.99902s14.167 -3.5 21.5 -3.5c12 0 21.667 3.33301 29 10s11 15 11 25c0 10.667 -3.83301 19.167 -11.5 25.5s-18.834 9.5 -33.501 9.5h-40v70c-64.667 12.667 -114.167 47.667 -148.5 105s-51.5 140.666 -51.5 249.999
c0 124.667 22 215.834 66 273.501s105.333 86.5 184 86.5c47.333 0 90.333 -9.33301 129 -28c18.667 -8.66699 34 -17.667 46 -27l-35 -60h-10c-10 7.33301 -21.333 14.666 -34 21.999c-29.333 15.333 -58 23 -86 23c-106.667 0 -160 -96.667 -160 -290
c0 -104 14.833 -178.333 44.5 -223s71.5 -67 125.5 -67c29.333 0 58 7.33301 86 22c14 8 25.333 15.667 34 23h10l35 -60c-11.333 -9.33301 -26.666 -18.666 -45.999 -27.999c-37.333 -18 -80.333 -27 -129 -27z" />
    <glyph glyph-name="Egrave" unicode="&#xc8;" 
d="M90 0v700h390v-70h-290v-230h230v-70h-230v-260h290v-70h-390zM270 750l-90 150h110l45 -150h-65z" />
    <glyph glyph-name="Eacute" unicode="&#xc9;" 
d="M90 0v700h390v-70h-290v-230h230v-70h-230v-260h290v-70h-390zM230 750l45 150h110l-90 -150h-65z" />
    <glyph glyph-name="Ecircumflex" unicode="&#xca;" 
d="M90 0v700h390v-70h-290v-230h230v-70h-230v-260h290v-70h-390zM147 760l105 130h70l105 -130h-65l-75 65l-75 -65h-65z" />
    <glyph glyph-name="Edieresis" unicode="&#xcb;" 
d="M90 0v700h390v-70h-290v-230h230v-70h-230v-260h290v-70h-390zM157.5 780.5c-10.333 10.333 -15.5 23.5 -15.5 39.5s5.16699 29.167 15.5 39.5s23.5 15.5 39.5 15.5s29.167 -5.16699 39.5 -15.5s15.5 -23.5 15.5 -39.5s-5.16699 -29.167 -15.5 -39.5
s-23.5 -15.5 -39.5 -15.5s-29.167 5.16699 -39.5 15.5zM332.5 780.5c-10.333 10.333 -15.5 23.5 -15.5 39.5s5.16699 29.167 15.5 39.5s23.5 15.5 39.5 15.5s29.167 -5.16699 39.5 -15.5s15.5 -23.5 15.5 -39.5s-5.16699 -29.167 -15.5 -39.5s-23.5 -15.5 -39.5 -15.5
s-29.167 5.16699 -39.5 15.5z" />
    <glyph glyph-name="Igrave" unicode="&#xcc;" horiz-adv-x="278" 
d="M90 0v700h100v-700h-100zM110 750l-90 150h110l45 -150h-65z" />
    <glyph glyph-name="Iacute" unicode="&#xcd;" horiz-adv-x="277" 
d="M90 0v700h100v-700h-100zM102 750l45 150h110l-90 -150h-65z" />
    <glyph glyph-name="Icircumflex" unicode="&#xce;" horiz-adv-x="270" 
d="M90 0v700h100v-700h-100zM-4 760l105 130h70l105 -130h-65l-75 65l-75 -65h-65z" />
    <glyph glyph-name="Idieresis" unicode="&#xcf;" horiz-adv-x="260" 
d="M90 0v700h100v-700h-100zM1.5 780.5c-10.333 10.333 -15.5 23.5 -15.5 39.5s5.16699 29.167 15.5 39.5s23.5 15.5 39.5 15.5s29.167 -5.16699 39.5 -15.5s15.5 -23.5 15.5 -39.5s-5.16699 -29.167 -15.5 -39.5s-23.5 -15.5 -39.5 -15.5s-29.167 5.16699 -39.5 15.5z
M176.5 780.5c-10.333 10.333 -15.5 23.5 -15.5 39.5s5.16699 29.167 15.5 39.5s23.5 15.5 39.5 15.5s29.167 -5.16699 39.5 -15.5s15.5 -23.5 15.5 -39.5s-5.16699 -29.167 -15.5 -39.5s-23.5 -15.5 -39.5 -15.5s-29.167 5.16699 -39.5 15.5z" />
    <glyph glyph-name="Eth" unicode="&#xd0;" horiz-adv-x="585" 
d="M90 320h-55v80h55v300h150c97.333 0 170 -27.667 218 -83s72 -144.333 72 -267s-24 -211.667 -72 -267s-120.667 -83 -218 -83h-150v320zM240 70c63.333 0 110.833 21.333 142.5 64s47.5 114.667 47.5 216s-15.833 173.333 -47.5 216s-79.167 64 -142.5 64h-50v-230h115
v-80h-115v-250h50z" />
    <glyph glyph-name="Ntilde" unicode="&#xd1;" horiz-adv-x="630" 
d="M90 700h109.999l210 -465c2.66699 -5.33301 4.83398 -10.5 6.50098 -15.5l4.5 -13.5l9 -25l5.5 -17l4.5 -14h4l-2 31c-1.33301 22.667 -2 40.667 -2 54v465h100v-700h-110l-210 465c-6 13.333 -12.667 31.333 -20 54l-4.5 14l-5.5 17h-4l2 -31
c1.33301 -25.333 2 -43.333 2 -54v-465h-100v700zM445.999 835c-18.667 -56.667 -48.665 -85 -89.998 -85c-12.667 0 -23.167 2.33301 -31.5 7s-16.833 11.334 -25.5 20.001c-1.33301 1.33301 -4.16602 3.83301 -8.49902 7.5s-8.5 6.33398 -12.5 8.00098s-8 2.5 -12 2.5
c-8.66699 0 -16.334 -3 -23.001 -9s-12 -12.167 -16 -18.5s-6.33301 -10.5 -7 -12.5h-9l-40 25c9.33301 26.667 20.833 47.5 34.5 62.5s32.167 22.5 55.5 22.5c12.667 0 23.167 -2.33301 31.5 -7s17.166 -11.334 26.499 -20.001
c7.33301 -6.66699 13.166 -11.334 17.499 -14.001s9.5 -4 15.5 -4c8.66699 0 16.5 3 23.5 9s12.5 12.5 16.5 19.5s5.66699 10.833 5 11.5h9z" />
    <glyph glyph-name="Ograve" unicode="&#xd2;" horiz-adv-x="600" 
d="M120 76.5c-43.333 57.667 -65 148.834 -65 273.501s21.667 215.834 65 273.501s103.333 86.5 180 86.5s136.667 -28.833 180 -86.5s65 -148.834 65 -273.501s-21.667 -215.834 -65 -273.501s-103.333 -86.5 -180 -86.5s-136.667 28.833 -180 86.5zM404 128.5
c27.333 45.667 41 119.5 41 221.5s-13.667 175.833 -41 221.5s-62 68.5 -104 68.5s-76.667 -22.833 -104 -68.5s-41 -119.5 -41 -221.5s13.667 -175.833 41 -221.5s62 -68.5 104 -68.5s76.667 22.833 104 68.5zM282 750l-90 150h110l45 -150h-65z" />
    <glyph glyph-name="Oacute" unicode="&#xd3;" horiz-adv-x="600" 
d="M120 76.5c-43.333 57.667 -65 148.834 -65 273.501s21.667 215.834 65 273.501s103.333 86.5 180 86.5s136.667 -28.833 180 -86.5s65 -148.834 65 -273.501s-21.667 -215.834 -65 -273.501s-103.333 -86.5 -180 -86.5s-136.667 28.833 -180 86.5zM404 128.5
c27.333 45.667 41 119.5 41 221.5s-13.667 175.833 -41 221.5s-62 68.5 -104 68.5s-76.667 -22.833 -104 -68.5s-41 -119.5 -41 -221.5s13.667 -175.833 41 -221.5s62 -68.5 104 -68.5s76.667 22.833 104 68.5zM252 750l45 150h110l-90 -150h-65z" />
    <glyph glyph-name="Ocircumflex" unicode="&#xd4;" horiz-adv-x="600" 
d="M120 76.5c-43.333 57.667 -65 148.834 -65 273.501s21.667 215.834 65 273.501s103.333 86.5 180 86.5s136.667 -28.833 180 -86.5s65 -148.834 65 -273.501s-21.667 -215.834 -65 -273.501s-103.333 -86.5 -180 -86.5s-136.667 28.833 -180 86.5zM404 128.5
c27.333 45.667 41 119.5 41 221.5s-13.667 175.833 -41 221.5s-62 68.5 -104 68.5s-76.667 -22.833 -104 -68.5s-41 -119.5 -41 -221.5s13.667 -175.833 41 -221.5s62 -68.5 104 -68.5s76.667 22.833 104 68.5zM160 760l105 130h70l105 -130h-65l-75 65l-75 -65h-65z" />
    <glyph glyph-name="Otilde" unicode="&#xd5;" horiz-adv-x="600" 
d="M120 76.5c-43.333 57.667 -65 148.834 -65 273.501s21.667 215.834 65 273.501s103.333 86.5 180 86.5s136.667 -28.833 180 -86.5s65 -148.834 65 -273.501s-21.667 -215.834 -65 -273.501s-103.333 -86.5 -180 -86.5s-136.667 28.833 -180 86.5zM404 128.5
c27.333 45.667 41 119.5 41 221.5s-13.667 175.833 -41 221.5s-62 68.5 -104 68.5s-76.667 -22.833 -104 -68.5s-41 -119.5 -41 -221.5s13.667 -175.833 41 -221.5s62 -68.5 104 -68.5s76.667 22.833 104 68.5zM431 845c-18.667 -56.667 -48.665 -85 -89.998 -85
c-12.667 0 -23.167 2.33301 -31.5 7s-16.833 11.334 -25.5 20.001c-1.33301 1.33301 -4.16602 3.83301 -8.49902 7.5s-8.5 6.33398 -12.5 8.00098s-8 2.5 -12 2.5c-8.66699 0 -16.334 -3 -23.001 -9s-12 -12.167 -16 -18.5s-6.33301 -10.5 -7 -12.5h-9l-40 25
c9.33301 26.667 20.833 47.5 34.5 62.5s32.167 22.5 55.5 22.5c12.667 0 23.167 -2.33301 31.5 -7s17.166 -11.334 26.499 -20.001c7.33301 -6.66699 13.166 -11.334 17.499 -14.001s9.5 -4 15.5 -4c8.66699 0 16.5 3 23.5 9s12.5 12.5 16.5 19.5s5.66699 10.833 5 11.5h9z
" />
    <glyph glyph-name="Odieresis" unicode="&#xd6;" horiz-adv-x="600" 
d="M120 76.5c-43.333 57.667 -65 148.834 -65 273.501s21.667 215.834 65 273.501s103.333 86.5 180 86.5s136.667 -28.833 180 -86.5s65 -148.834 65 -273.501s-21.667 -215.834 -65 -273.501s-103.333 -86.5 -180 -86.5s-136.667 28.833 -180 86.5zM404 128.5
c27.333 45.667 41 119.5 41 221.5s-13.667 175.833 -41 221.5s-62 68.5 -104 68.5s-76.667 -22.833 -104 -68.5s-41 -119.5 -41 -221.5s13.667 -175.833 41 -221.5s62 -68.5 104 -68.5s76.667 22.833 104 68.5zM170.5 780.5c-10.333 10.333 -15.5 23.5 -15.5 39.5
s5.16699 29.167 15.5 39.5s23.5 15.5 39.5 15.5s29.167 -5.16699 39.5 -15.5s15.5 -23.5 15.5 -39.5s-5.16699 -29.167 -15.5 -39.5s-23.5 -15.5 -39.5 -15.5s-29.167 5.16699 -39.5 15.5zM345.5 780.5c-10.333 10.333 -15.5 23.5 -15.5 39.5s5.16699 29.167 15.5 39.5
s23.5 15.5 39.5 15.5s29.167 -5.16699 39.5 -15.5s15.5 -23.5 15.5 -39.5s-5.16699 -29.167 -15.5 -39.5s-23.5 -15.5 -39.5 -15.5s-29.167 5.16699 -39.5 15.5z" />
    <glyph glyph-name="multiply" unicode="&#xd7;" horiz-adv-x="437" 
d="M102 157l-57 56l117 117l-117 117l57 56l117 -116l116 116l57 -56l-117 -117l117 -117l-57 -56l-116 116z" />
    <glyph glyph-name="Oslash" unicode="&#xd8;" horiz-adv-x="600" 
d="M160 35l-20 -35h-80l51 89c-37.333 61.333 -56 148.333 -56 261c0 124.667 21.667 215.834 65 273.501s103.333 86.5 180 86.5c55.333 0 102 -15 140 -45l20 35h80l-51 -90c37.333 -59.333 56 -146 56 -260c0 -124.667 -21.667 -215.834 -65 -273.501
s-103.333 -86.5 -180 -86.5c-55.333 0 -102 15 -140 45zM395 586c-24.667 36 -56.333 54 -95 54c-42 0 -76.667 -22.833 -104 -68.5s-41 -119.5 -41 -221.5c0 -64 5.33301 -116 16 -156zM404.001 128.5c27.333 45.667 40.999 119.499 40.999 221.499
c0 64.667 -5.33301 116.334 -16 155.001l-224 -392c24.667 -35.333 56.334 -53 95.001 -53c42 0 76.667 22.833 104 68.5z" />
    <glyph glyph-name="Ugrave" unicode="&#xd9;" horiz-adv-x="620" 
d="M143 48.5c-38.667 39 -57.998 96.167 -57.998 171.5v480h100v-480c0 -54 11 -94.167 33 -120.5s52.667 -39.5 92 -39.5s70 13.167 92 39.5s33 66.5 33 120.5v480h100v-480c0 -75.333 -19.333 -132.5 -58 -171.5s-94.334 -58.5 -167.001 -58.5
s-128.334 19.5 -167.001 58.5zM292.002 730l-90 150h110l45 -150h-65z" />
    <glyph glyph-name="Uacute" unicode="&#xda;" horiz-adv-x="620" 
d="M143 48.5c-38.667 39 -57.998 96.167 -57.998 171.5v480h100v-480c0 -54 11 -94.167 33 -120.5s52.667 -39.5 92 -39.5s70 13.167 92 39.5s33 66.5 33 120.5v480h100v-480c0 -75.333 -19.333 -132.5 -58 -171.5s-94.334 -58.5 -167.001 -58.5
s-128.334 19.5 -167.001 58.5zM272.002 730l45 150h110l-90 -150h-65z" />
    <glyph glyph-name="Ucircumflex" unicode="&#xdb;" horiz-adv-x="620" 
d="M143 48.5c-38.667 39 -57.998 96.167 -57.998 171.5v480h100v-480c0 -54 11 -94.167 33 -120.5s52.667 -39.5 92 -39.5s70 13.167 92 39.5s33 66.5 33 120.5v480h100v-480c0 -75.333 -19.333 -132.5 -58 -171.5s-94.334 -58.5 -167.001 -58.5
s-128.334 19.5 -167.001 58.5zM170.002 760l105 130h70l105 -130h-65l-75 65l-75 -65h-65z" />
    <glyph glyph-name="Udieresis" unicode="&#xdc;" horiz-adv-x="620" 
d="M143 48.5c-38.667 39 -57.998 96.167 -57.998 171.5v480h100v-480c0 -54 11 -94.167 33 -120.5s52.667 -39.5 92 -39.5s70 13.167 92 39.5s33 66.5 33 120.5v480h100v-480c0 -75.333 -19.333 -132.5 -58 -171.5s-94.334 -58.5 -167.001 -58.5
s-128.334 19.5 -167.001 58.5zM180.502 780.5c-10.333 10.333 -15.5 23.5 -15.5 39.5s5.16699 29.167 15.5 39.5s23.5 15.5 39.5 15.5s29.167 -5.16699 39.5 -15.5s15.5 -23.5 15.5 -39.5s-5.16699 -29.167 -15.5 -39.5s-23.5 -15.5 -39.5 -15.5s-29.167 5.16699 -39.5 15.5
zM355.502 780.5c-10.333 10.333 -15.5 23.5 -15.5 39.5s5.16699 29.167 15.5 39.5s23.5 15.5 39.5 15.5s29.167 -5.16699 39.5 -15.5s15.5 -23.5 15.5 -39.5s-5.16699 -29.167 -15.5 -39.5s-23.5 -15.5 -39.5 -15.5s-29.167 5.16699 -39.5 15.5z" />
    <glyph glyph-name="Yacute" unicode="&#xdd;" horiz-adv-x="530" 
d="M215 230l-215.002 470h105l145 -335c6 -16 10.333 -29 13 -39c2.66699 -9.33301 4.33398 -16.333 5.00098 -21h4c0.666992 4.66699 2.33398 11.667 5.00098 21c4.66699 18.667 9 31.667 13 39l150 335h90l-215 -470v-230h-100v230zM226.998 730l45 150h110l-90 -150h-65z
" />
    <glyph glyph-name="Thorn" unicode="&#xde;" horiz-adv-x="615" 
d="M90 720h100v-80h90c93.333 0 165 -25 215 -75s75 -121.667 75 -215s-25 -165 -75 -215s-121.667 -75 -215 -75h-90v-80h-100v740zM280 130c59.333 0 105.833 18.833 139.5 56.5s50.5 92.167 50.5 163.5s-16.833 125.833 -50.5 163.5s-80.167 56.5 -139.5 56.5h-90v-440
h90z" />
    <glyph glyph-name="germandbls" unicode="&#xdf;" horiz-adv-x="620" 
d="M309 5c-11.333 4 -21.0039 8.99707 -29.0039 14.9971l25 65h10c6.66699 -6.66699 12.334 -11 17.001 -13c12.667 -8 28.667 -12 48 -12c32.667 0 58.334 9.5 77.001 28.5s28 46.167 28 81.5c0 24 -6.5 44.5 -19.5 61.5s-32.833 36.5 -59.5 58.5
c-21.333 18 -38.166 33.5 -50.499 46.5s-23 29 -32 48s-13.5 40.833 -13.5 65.5c0 11.333 1.16699 21 3.5 29s6.16602 18.333 11.499 31c10 21.333 15 41.333 15 60c0 20 -6.33301 36.667 -19 50s-28 20 -46 20c-23.333 0 -41.666 -7.66699 -54.999 -23
s-20 -37.666 -20 -66.999v-550h-100v420h-65v70h65v60c0 48 15 86.667 45 116s70 44 120 44c56 0 99.167 -13 129.5 -39s45.5 -59.667 45.5 -101c0 -14 -1.66699 -25.5 -5 -34.5s-8.66602 -19.5 -15.999 -31.5c-6 -9.33301 -10.667 -18 -14 -26s-5 -17.333 -5 -28
c0 -21.333 6.5 -39.666 19.5 -54.999s33.167 -33.333 60.5 -54c22.667 -17.333 41 -32.5 55 -45.5s25.833 -29.167 35.5 -48.5s14.5 -41.666 14.5 -66.999c0 -58 -17.5 -104.167 -52.5 -138.5s-82.5 -51.5 -142.5 -51.5c-30 0 -57 5 -81 15z" />
    <glyph glyph-name="agrave" unicode="&#xe0;" 
d="M88.5 31.5c-29 27.667 -43.501 65.502 -43.501 113.502c0 47.333 17.167 84.166 51.5 110.499s88.833 39.5 163.5 39.5h80v25c0 39.333 -9.16699 69.166 -27.5 89.499s-44.166 30.5 -77.499 30.5c-24 0 -50 -7.66699 -78 -23c-14 -8 -24.667 -15.333 -32 -22h-10l-35 60
c13.333 10 28.333 19 45 27c36 18.667 76 28 120 28c38 0 71.667 -8.16699 101 -24.5s52.333 -39 69 -68s25 -61.5 25 -97.5v-320h-70l-10 60h-5c-9.33301 -13.333 -21 -25 -35 -35c-29.333 -23.333 -66 -35 -110 -35c-52 0 -92.5 13.833 -121.5 41.5zM309.999 95.002
c11.333 9.33301 21.333 19.333 30 30v100h-80c-38 0 -66.667 -7.33301 -86 -22s-29 -34 -29 -58c0 -26 7.5 -45.833 22.5 -59.5s37.5 -20.5 67.5 -20.5c24.667 0 49.667 10 75 30zM226.999 550.002l-90 150h110l45 -150h-65z" />
    <glyph glyph-name="aacute" unicode="&#xe1;" 
d="M88.5 31.5c-29 27.667 -43.501 65.502 -43.501 113.502c0 47.333 17.167 84.166 51.5 110.499s88.833 39.5 163.5 39.5h80v25c0 39.333 -9.16699 69.166 -27.5 89.499s-44.166 30.5 -77.499 30.5c-24 0 -50 -7.66699 -78 -23c-14 -8 -24.667 -15.333 -32 -22h-10l-35 60
c13.333 10 28.333 19 45 27c36 18.667 76 28 120 28c38 0 71.667 -8.16699 101 -24.5s52.333 -39 69 -68s25 -61.5 25 -97.5v-320h-70l-10 60h-5c-9.33301 -13.333 -21 -25 -35 -35c-29.333 -23.333 -66 -35 -110 -35c-52 0 -92.5 13.833 -121.5 41.5zM309.999 95.002
c11.333 9.33301 21.333 19.333 30 30v100h-80c-38 0 -66.667 -7.33301 -86 -22s-29 -34 -29 -58c0 -26 7.5 -45.833 22.5 -59.5s37.5 -20.5 67.5 -20.5c24.667 0 49.667 10 75 30zM206.999 550.002l45 150h110l-90 -150h-65z" />
    <glyph glyph-name="acircumflex" unicode="&#xe2;" 
d="M88.5 31.5c-29 27.667 -43.501 65.502 -43.501 113.502c0 47.333 17.167 84.166 51.5 110.499s88.833 39.5 163.5 39.5h80v25c0 39.333 -9.16699 69.166 -27.5 89.499s-44.166 30.5 -77.499 30.5c-24 0 -50 -7.66699 -78 -23c-14 -8 -24.667 -15.333 -32 -22h-10l-35 60
c13.333 10 28.333 19 45 27c36 18.667 76 28 120 28c38 0 71.667 -8.16699 101 -24.5s52.333 -39 69 -68s25 -61.5 25 -97.5v-320h-70l-10 60h-5c-9.33301 -13.333 -21 -25 -35 -35c-29.333 -23.333 -66 -35 -110 -35c-52 0 -92.5 13.833 -121.5 41.5zM309.999 95.002
c11.333 9.33301 21.333 19.333 30 30v100h-80c-38 0 -66.667 -7.33301 -86 -22s-29 -34 -29 -58c0 -26 7.5 -45.833 22.5 -59.5s37.5 -20.5 67.5 -20.5c24.667 0 49.667 10 75 30zM114.999 560.002l105 130h70l105 -130h-65l-75 65l-75 -65h-65z" />
    <glyph glyph-name="atilde" unicode="&#xe3;" 
d="M88.5 31.5c-29 27.667 -43.501 65.502 -43.501 113.502c0 47.333 17.167 84.166 51.5 110.499s88.833 39.5 163.5 39.5h80v25c0 39.333 -9.16699 69.166 -27.5 89.499s-44.166 30.5 -77.499 30.5c-24 0 -50 -7.66699 -78 -23c-14 -8 -24.667 -15.333 -32 -22h-10l-35 60
c13.333 10 28.333 19 45 27c36 18.667 76 28 120 28c38 0 71.667 -8.16699 101 -24.5s52.333 -39 69 -68s25 -61.5 25 -97.5v-320h-70l-10 60h-5c-9.33301 -13.333 -21 -25 -35 -35c-29.333 -23.333 -66 -35 -110 -35c-52 0 -92.5 13.833 -121.5 41.5zM309.999 95.002
c11.333 9.33301 21.333 19.333 30 30v100h-80c-38 0 -66.667 -7.33301 -86 -22s-29 -34 -29 -58c0 -26 7.5 -45.833 22.5 -59.5s37.5 -20.5 67.5 -20.5c24.667 0 49.667 10 75 30zM385.999 646.002c-18.667 -56.667 -48.665 -85 -89.998 -85
c-12.667 0 -23.167 2.33301 -31.5 7s-16.833 11.334 -25.5 20.001c-1.33301 1.33301 -4.16602 3.83301 -8.49902 7.5s-8.5 6.33398 -12.5 8.00098s-8 2.5 -12 2.5c-8.66699 0 -16.334 -3 -23.001 -9s-12 -12.167 -16 -18.5s-6.33301 -10.5 -7 -12.5h-9l-40 25
c9.33301 26.667 20.833 47.5 34.5 62.5s32.167 22.5 55.5 22.5c12.667 0 23.167 -2.33301 31.5 -7s17.166 -11.334 26.499 -20.001c7.33301 -6.66699 13.166 -11.334 17.499 -14.001s9.5 -4 15.5 -4c8.66699 0 16.5 3 23.5 9s12.5 12.5 16.5 19.5s5.66699 10.833 5 11.5h9z
" />
    <glyph glyph-name="adieresis" unicode="&#xe4;" 
d="M88.5 31.5c-29 27.667 -43.501 65.502 -43.501 113.502c0 47.333 17.167 84.166 51.5 110.499s88.833 39.5 163.5 39.5h80v25c0 39.333 -9.16699 69.166 -27.5 89.499s-44.166 30.5 -77.499 30.5c-24 0 -50 -7.66699 -78 -23c-14 -8 -24.667 -15.333 -32 -22h-10l-35 60
c13.333 10 28.333 19 45 27c36 18.667 76 28 120 28c38 0 71.667 -8.16699 101 -24.5s52.333 -39 69 -68s25 -61.5 25 -97.5v-320h-70l-10 60h-5c-9.33301 -13.333 -21 -25 -35 -35c-29.333 -23.333 -66 -35 -110 -35c-52 0 -92.5 13.833 -121.5 41.5zM309.999 95.002
c11.333 9.33301 21.333 19.333 30 30v100h-80c-38 0 -66.667 -7.33301 -86 -22s-29 -34 -29 -58c0 -26 7.5 -45.833 22.5 -59.5s37.5 -20.5 67.5 -20.5c24.667 0 49.667 10 75 30zM125.499 580.502c-10.333 10.333 -15.5 23.5 -15.5 39.5s5.16699 29.167 15.5 39.5
s23.5 15.5 39.5 15.5s29.167 -5.16699 39.5 -15.5s15.5 -23.5 15.5 -39.5s-5.16699 -29.167 -15.5 -39.5s-23.5 -15.5 -39.5 -15.5s-29.167 5.16699 -39.5 15.5zM300.499 580.502c-10.333 10.333 -15.5 23.5 -15.5 39.5s5.16699 29.167 15.5 39.5s23.5 15.5 39.5 15.5
s29.167 -5.16699 39.5 -15.5s15.5 -23.5 15.5 -39.5s-5.16699 -29.167 -15.5 -39.5s-23.5 -15.5 -39.5 -15.5s-29.167 5.16699 -39.5 15.5z" />
    <glyph glyph-name="aring" unicode="&#xe5;" 
d="M88.5 31.5c-29 27.667 -43.501 65.502 -43.501 113.502c0 47.333 17.167 84.166 51.5 110.499s88.833 39.5 163.5 39.5h80v25c0 39.333 -9.16699 69.166 -27.5 89.499s-44.166 30.5 -77.499 30.5c-24 0 -50 -7.66699 -78 -23c-14 -8 -24.667 -15.333 -32 -22h-10l-35 60
c13.333 10 28.333 19 45 27c36 18.667 76 28 120 28c38 0 71.667 -8.16699 101 -24.5s52.333 -39 69 -68s25 -61.5 25 -97.5v-320h-70l-10 60h-5c-9.33301 -13.333 -21 -25 -35 -35c-29.333 -23.333 -66 -35 -110 -35c-52 0 -92.5 13.833 -121.5 41.5zM309.999 95.002
c11.333 9.33301 21.333 19.333 30 30v100h-80c-38 0 -66.667 -7.33301 -86 -22s-29 -34 -29 -58c0 -26 7.5 -45.833 22.5 -59.5s37.5 -20.5 67.5 -20.5c24.667 0 49.667 10 75 30zM182.499 586.502c-18.333 17.667 -27.5 40.5 -27.5 68.5s9.16699 50.833 27.5 68.5
s42.5 26.5 72.5 26.5s54.167 -8.83301 72.5 -26.5s27.5 -40.5 27.5 -68.5s-9.16699 -50.833 -27.5 -68.5s-42.5 -26.5 -72.5 -26.5s-54.167 8.83301 -72.5 26.5zM282.999 621.502c8 7.66699 12 18.834 12 33.501s-4 25.834 -12 33.501s-17.333 11.5 -28 11.5
s-20 -3.83301 -28 -11.5s-12 -18.834 -12 -33.501s4 -25.834 12 -33.501s17.333 -11.5 28 -11.5s20 3.83301 28 11.5z" />
    <glyph glyph-name="ae" unicode="&#xe6;" horiz-adv-x="785" 
d="M88.5 31.5c-29 27.667 -43.5039 65.501 -43.5039 113.501c0 47.333 17.167 84.166 51.5 110.499s88.833 39.5 163.5 39.5h80v25c0 39.333 -9.16699 69.166 -27.5 89.499s-44.166 30.5 -77.499 30.5c-24 0 -50 -7.66699 -78 -23c-14 -8 -24.667 -15.333 -32 -22h-10
l-35 60c13.333 10 28.333 19 45 27c36 18.667 76 28 120 28c36.667 0 67.5 -6.66699 92.5 -20s44.167 -31.666 57.5 -54.999c18 23.333 39.333 41.666 64 54.999s51.667 20 81 20c60 0 108.333 -22.167 145 -66.5s55 -108.833 55 -193.5v-15l-20 -20h-280
c0 -50.667 10.833 -89.167 32.5 -115.5s50.834 -39.5 87.501 -39.5c24.667 0 50.334 7.33301 77.001 22c14 8 25 15.667 33 23h10l35 -60c-12 -10 -27 -19.333 -45 -28c-34.667 -18 -74.667 -27 -120 -27c-33.333 0 -64.166 6.66699 -92.499 20s-51.833 33.333 -70.5 60
c-12.667 -13.333 -28.334 -26.666 -47.001 -39.999c-41.333 -26.667 -84.666 -40 -129.999 -40c-52 0 -92.5 13.833 -121.5 41.5zM639.996 285.001c0 52 -9.33301 90.833 -28 116.5s-42.667 38.5 -72 38.5s-53.333 -12.833 -72 -38.5s-28 -64.5 -28 -116.5h200z
M309.996 95.001c11.333 9.33301 21.333 19.333 30 30v100h-80c-38 0 -66.667 -7.33301 -86 -22s-29 -34 -29 -58c0 -26 7.5 -45.833 22.5 -59.5s37.5 -20.5 67.5 -20.5c24.667 0 49.667 10 75 30z" />
    <glyph glyph-name="ccedilla" unicode="&#xe7;" horiz-adv-x="455" 
d="M277 -10l-0.000976562 -20c27.333 0 49.166 -7.5 65.499 -22.5s24.5 -34.167 24.5 -57.5s-8.5 -42.5 -25.5 -57.5s-40.167 -22.5 -69.5 -22.5c-19.333 0 -39 3.33301 -59 10c-9.33301 3.33301 -16.333 6.66602 -21 9.99902l16 40h9c0.666992 -0.666992 3 -2.16699 7 -4.5
s9.5 -4.66602 16.5 -6.99902s14.167 -3.5 21.5 -3.5c12 0 21.667 3.33301 29 10s11 15 11 25c0 10.667 -3.83301 19.167 -11.5 25.5s-18.834 9.5 -33.501 9.5h-40v70c-53.333 10 -94.5 36.5 -123.5 79.5s-43.5 101.5 -43.5 175.5c0 85.333 18.833 150 56.5 194
s88.834 66 153.501 66c44 0 84 -9.33301 120 -28c17.333 -8 32.333 -17 45 -27l-35 -60h-10c-8.66699 6.66699 -19.667 14 -33 22c-28 15.333 -53.667 23 -77 23c-37.333 0 -66.666 -15 -87.999 -45s-32 -78.333 -32 -145c0 -67.333 11.167 -115.833 33.5 -145.5
s54.5 -44.5 96.5 -44.5c24.667 0 50.334 7.33301 77.001 22c14 8 25 15.667 33 23h10l35 -60c-12 -10 -27 -19.333 -45 -28c-34 -17.333 -71.667 -26.333 -113 -27z" />
    <glyph glyph-name="egrave" unicode="&#xe8;" horiz-adv-x="505" 
d="M108 56c-38.667 44 -58.001 108.667 -58.001 194c0 84.667 18.667 149.167 56 193.5s87 66.5 149 66.5s111.667 -22.167 149 -66.5s56 -108.833 56 -193.5v-15l-20 -20h-290c0 -51.333 11.333 -90 34 -116s54.667 -39 96 -39c24.667 0 50.334 7.33301 77.001 22
c14 8 25 15.667 33 23h10l35 -60c-12 -10 -27 -19.333 -45 -28c-34.667 -18 -74.667 -27 -120 -27c-69.333 0 -123.333 22 -162 66zM359.999 285c0 52.667 -9.5 91.667 -28.5 117s-44.5 38 -76.5 38s-57.5 -12.667 -76.5 -38s-28.5 -64.333 -28.5 -117h210zM224.999 550
l-90 150h110l45 -150h-65z" />
    <glyph glyph-name="eacute" unicode="&#xe9;" horiz-adv-x="505" 
d="M108 56c-38.667 44 -58.001 108.667 -58.001 194c0 84.667 18.667 149.167 56 193.5s87 66.5 149 66.5s111.667 -22.167 149 -66.5s56 -108.833 56 -193.5v-15l-20 -20h-290c0 -51.333 11.333 -90 34 -116s54.667 -39 96 -39c24.667 0 50.334 7.33301 77.001 22
c14 8 25 15.667 33 23h10l35 -60c-12 -10 -27 -19.333 -45 -28c-34.667 -18 -74.667 -27 -120 -27c-69.333 0 -123.333 22 -162 66zM359.999 285c0 52.667 -9.5 91.667 -28.5 117s-44.5 38 -76.5 38s-57.5 -12.667 -76.5 -38s-28.5 -64.333 -28.5 -117h210zM214.999 550
l45 150h110l-90 -150h-65z" />
    <glyph glyph-name="ecircumflex" unicode="&#xea;" horiz-adv-x="505" 
d="M108 56c-38.667 44 -58.001 108.667 -58.001 194c0 84.667 18.667 149.167 56 193.5s87 66.5 149 66.5s111.667 -22.167 149 -66.5s56 -108.833 56 -193.5v-15l-20 -20h-290c0 -51.333 11.333 -90 34 -116s54.667 -39 96 -39c24.667 0 50.334 7.33301 77.001 22
c14 8 25 15.667 33 23h10l35 -60c-12 -10 -27 -19.333 -45 -28c-34.667 -18 -74.667 -27 -120 -27c-69.333 0 -123.333 22 -162 66zM359.999 285c0 52.667 -9.5 91.667 -28.5 117s-44.5 38 -76.5 38s-57.5 -12.667 -76.5 -38s-28.5 -64.333 -28.5 -117h210zM111.999 560
l105 130h70l105 -130h-65l-75 65l-75 -65h-65z" />
    <glyph glyph-name="edieresis" unicode="&#xeb;" horiz-adv-x="505" 
d="M108 56c-38.667 44 -58.001 108.667 -58.001 194c0 84.667 18.667 149.167 56 193.5s87 66.5 149 66.5s111.667 -22.167 149 -66.5s56 -108.833 56 -193.5v-15l-20 -20h-290c0 -51.333 11.333 -90 34 -116s54.667 -39 96 -39c24.667 0 50.334 7.33301 77.001 22
c14 8 25 15.667 33 23h10l35 -60c-12 -10 -27 -19.333 -45 -28c-34.667 -18 -74.667 -27 -120 -27c-69.333 0 -123.333 22 -162 66zM359.999 285c0 52.667 -9.5 91.667 -28.5 117s-44.5 38 -76.5 38s-57.5 -12.667 -76.5 -38s-28.5 -64.333 -28.5 -117h210zM122.499 580.5
c-10.333 10.333 -15.5 23.5 -15.5 39.5s5.16699 29.167 15.5 39.5s23.5 15.5 39.5 15.5s29.167 -5.16699 39.5 -15.5s15.5 -23.5 15.5 -39.5s-5.16699 -29.167 -15.5 -39.5s-23.5 -15.5 -39.5 -15.5s-29.167 5.16699 -39.5 15.5zM297.499 580.5
c-10.333 10.333 -15.5 23.5 -15.5 39.5s5.16699 29.167 15.5 39.5s23.5 15.5 39.5 15.5s29.167 -5.16699 39.5 -15.5s15.5 -23.5 15.5 -39.5s-5.16699 -29.167 -15.5 -39.5s-23.5 -15.5 -39.5 -15.5s-29.167 5.16699 -39.5 15.5z" />
    <glyph glyph-name="igrave" unicode="&#xec;" horiz-adv-x="258" 
d="M105 550l-90 150h110l45 -150h-65zM83 0v500h100v-500h-100z" />
    <glyph glyph-name="iacute" unicode="&#xed;" horiz-adv-x="257" 
d="M87 550l45 150h110l-90 -150h-65zM75 0v500h100v-500h-100z" />
    <glyph glyph-name="icircumflex" unicode="&#xee;" horiz-adv-x="260" 
d="M-10 560l105 130h70l105 -130h-65l-75 65l-75 -65h-65zM80 0v500h100v-500h-100z" />
    <glyph glyph-name="idieresis" unicode="&#xef;" horiz-adv-x="260" 
d="M0.5 580.5c-10.333 10.333 -15.5 23.5 -15.5 39.5s5.16699 29.167 15.5 39.5s23.5 15.5 39.5 15.5s29.167 -5.16699 39.5 -15.5s15.5 -23.5 15.5 -39.5s-5.16699 -29.167 -15.5 -39.5s-23.5 -15.5 -39.5 -15.5s-29.167 5.16699 -39.5 15.5zM175.5 580.5
c-10.333 10.333 -15.5 23.5 -15.5 39.5s5.16699 29.167 15.5 39.5s23.5 15.5 39.5 15.5s29.167 -5.16699 39.5 -15.5s15.5 -23.5 15.5 -39.5s-5.16699 -29.167 -15.5 -39.5s-23.5 -15.5 -39.5 -15.5s-29.167 5.16699 -39.5 15.5zM80 0v500h100v-500h-100z" />
    <glyph glyph-name="eth" unicode="&#xf0;" horiz-adv-x="515" 
d="M97.5 52c-38.333 41.333 -57.5039 98.998 -57.5039 172.998c0 48.667 8.33301 90.667 25 126s39 62.333 67 81s59 28 93 28c36.667 0 67 -5.5 91 -16.5s43.667 -28.833 59 -53.5c0 38.667 -6 71.834 -18 99.501s-31 50.167 -57 67.5l-30 -63l-63 30l30 63
c-13.333 4 -30.666 8.33301 -51.999 13l-55 10l10 70l60 -10c26.667 -4.66699 49.334 -10 68.001 -16l28 59l64 -29l-28 -59c42.667 -26 74.667 -63.167 96 -111.5s32 -111.166 32 -188.499v-100c0 -74 -19.167 -131.667 -57.5 -173s-89.166 -62 -152.499 -62
s-114.166 20.667 -152.499 62zM328.996 101.498c20.667 27.667 31 68.834 31 123.501c0 52 -10.333 91.667 -31 119s-47 41 -79 41s-58.333 -13.667 -79 -41s-31 -67 -31 -119c0 -54.667 10.333 -95.834 31 -123.501s47 -41.5 79 -41.5s58.333 13.833 79 41.5z" />
    <glyph glyph-name="ntilde" unicode="&#xf1;" horiz-adv-x="545" 
d="M75 500l69.999 -0.000976562l10 -60h5c7.33301 10.667 19 22.334 35 35.001c32.667 23.333 69.334 35 110.001 35c50 0 90.833 -15.833 122.5 -47.5s47.5 -72.5 47.5 -122.5v-340h-100v340c0 28 -8.83301 50.833 -26.5 68.5s-40.5 26.5 -68.5 26.5
c-24.667 0 -49.667 -10 -75 -30c-10.667 -9.33301 -20.667 -19.333 -30 -30v-375h-100v500zM412.999 655.999c-18.667 -56.667 -48.665 -85 -89.998 -85c-12.667 0 -23.167 2.33301 -31.5 7s-16.833 11.334 -25.5 20.001c-1.33301 1.33301 -4.16602 3.83301 -8.49902 7.5
s-8.5 6.33398 -12.5 8.00098s-8 2.5 -12 2.5c-8.66699 0 -16.334 -3 -23.001 -9s-12 -12.167 -16 -18.5s-6.33301 -10.5 -7 -12.5h-9l-40 25c9.33301 26.667 20.833 47.5 34.5 62.5s32.167 22.5 55.5 22.5c12.667 0 23.167 -2.33301 31.5 -7s17.166 -11.334 26.499 -20.001
c7.33301 -6.66699 13.166 -11.334 17.499 -14.001s9.5 -4 15.5 -4c8.66699 0 16.5 3 23.5 9s12.5 12.5 16.5 19.5s5.66699 10.833 5 11.5h9z" />
    <glyph glyph-name="ograve" unicode="&#xf2;" horiz-adv-x="530" 
d="M107 56c-38 44 -57 108.667 -57 194s19 150 57 194s90.667 66 158 66c66.667 0 119.167 -22 157.5 -66s57.5 -108.667 57.5 -194s-19.167 -150 -57.5 -194s-90.833 -66 -157.5 -66c-67.333 0 -120 22 -158 66zM348.5 105.5c21 30.333 31.5 78.5 31.5 144.5
s-10.5 114.167 -31.5 144.5s-48.833 45.5 -83.5 45.5s-62.5 -15.167 -83.5 -45.5s-31.5 -78.5 -31.5 -144.5s10.5 -114.167 31.5 -144.5s48.833 -45.5 83.5 -45.5s62.5 15.167 83.5 45.5zM237 550l-90 150h110l45 -150h-65z" />
    <glyph glyph-name="oacute" unicode="&#xf3;" horiz-adv-x="530" 
d="M107 56c-38 44 -57 108.667 -57 194s19 150 57 194s90.667 66 158 66c66.667 0 119.167 -22 157.5 -66s57.5 -108.667 57.5 -194s-19.167 -150 -57.5 -194s-90.833 -66 -157.5 -66c-67.333 0 -120 22 -158 66zM348.5 105.5c21 30.333 31.5 78.5 31.5 144.5
s-10.5 114.167 -31.5 144.5s-48.833 45.5 -83.5 45.5s-62.5 -15.167 -83.5 -45.5s-31.5 -78.5 -31.5 -144.5s10.5 -114.167 31.5 -144.5s48.833 -45.5 83.5 -45.5s62.5 15.167 83.5 45.5zM227 550l45 150h110l-90 -150h-65z" />
    <glyph glyph-name="ocircumflex" unicode="&#xf4;" horiz-adv-x="530" 
d="M107 56c-38 44 -57 108.667 -57 194s19 150 57 194s90.667 66 158 66c66.667 0 119.167 -22 157.5 -66s57.5 -108.667 57.5 -194s-19.167 -150 -57.5 -194s-90.833 -66 -157.5 -66c-67.333 0 -120 22 -158 66zM348.5 105.5c21 30.333 31.5 78.5 31.5 144.5
s-10.5 114.167 -31.5 144.5s-48.833 45.5 -83.5 45.5s-62.5 -15.167 -83.5 -45.5s-31.5 -78.5 -31.5 -144.5s10.5 -114.167 31.5 -144.5s48.833 -45.5 83.5 -45.5s62.5 15.167 83.5 45.5zM125 560l105 130h70l105 -130h-65l-75 65l-75 -65h-65z" />
    <glyph glyph-name="otilde" unicode="&#xf5;" horiz-adv-x="530" 
d="M107 56c-38 44 -57 108.667 -57 194s19 150 57 194s90.667 66 158 66c66.667 0 119.167 -22 157.5 -66s57.5 -108.667 57.5 -194s-19.167 -150 -57.5 -194s-90.833 -66 -157.5 -66c-67.333 0 -120 22 -158 66zM348.5 105.5c21 30.333 31.5 78.5 31.5 144.5
s-10.5 114.167 -31.5 144.5s-48.833 45.5 -83.5 45.5s-62.5 -15.167 -83.5 -45.5s-31.5 -78.5 -31.5 -144.5s10.5 -114.167 31.5 -144.5s48.833 -45.5 83.5 -45.5s62.5 15.167 83.5 45.5zM396 646c-18.667 -56.667 -48.665 -85 -89.998 -85
c-12.667 0 -23.167 2.33301 -31.5 7s-16.833 11.334 -25.5 20.001c-1.33301 1.33301 -4.16602 3.83301 -8.49902 7.5s-8.5 6.33398 -12.5 8.00098s-8 2.5 -12 2.5c-8.66699 0 -16.334 -3 -23.001 -9s-12 -12.167 -16 -18.5s-6.33301 -10.5 -7 -12.5h-9l-40 25
c9.33301 26.667 20.833 47.5 34.5 62.5s32.167 22.5 55.5 22.5c12.667 0 23.167 -2.33301 31.5 -7s17.166 -11.334 26.499 -20.001c7.33301 -6.66699 13.166 -11.334 17.499 -14.001s9.5 -4 15.5 -4c8.66699 0 16.5 3 23.5 9s12.5 12.5 16.5 19.5s5.66699 10.833 5 11.5h9z
" />
    <glyph glyph-name="odieresis" unicode="&#xf6;" horiz-adv-x="530" 
d="M107 56c-38 44 -57 108.667 -57 194s19 150 57 194s90.667 66 158 66c66.667 0 119.167 -22 157.5 -66s57.5 -108.667 57.5 -194s-19.167 -150 -57.5 -194s-90.833 -66 -157.5 -66c-67.333 0 -120 22 -158 66zM348.5 105.5c21 30.333 31.5 78.5 31.5 144.5
s-10.5 114.167 -31.5 144.5s-48.833 45.5 -83.5 45.5s-62.5 -15.167 -83.5 -45.5s-31.5 -78.5 -31.5 -144.5s10.5 -114.167 31.5 -144.5s48.833 -45.5 83.5 -45.5s62.5 15.167 83.5 45.5zM135.5 580.5c-10.333 10.333 -15.5 23.5 -15.5 39.5s5.16699 29.167 15.5 39.5
s23.5 15.5 39.5 15.5s29.167 -5.16699 39.5 -15.5s15.5 -23.5 15.5 -39.5s-5.16699 -29.167 -15.5 -39.5s-23.5 -15.5 -39.5 -15.5s-29.167 5.16699 -39.5 15.5zM310.5 580.5c-10.333 10.333 -15.5 23.5 -15.5 39.5s5.16699 29.167 15.5 39.5s23.5 15.5 39.5 15.5
s29.167 -5.16699 39.5 -15.5s15.5 -23.5 15.5 -39.5s-5.16699 -29.167 -15.5 -39.5s-23.5 -15.5 -39.5 -15.5s-29.167 5.16699 -39.5 15.5z" />
    <glyph glyph-name="divide" unicode="&#xf7;" horiz-adv-x="470" 
d="M192 457c-11.333 11.333 -17 25.666 -17 42.999s5.66699 31.666 17 42.999s25.666 17 42.999 17s31.666 -5.66699 42.999 -17s17 -25.666 17 -42.999s-5.66699 -31.666 -17 -42.999s-25.666 -17 -42.999 -17s-31.666 5.66699 -42.999 17zM30 290v80h410v-80h-410z
M192 117c-11.333 11.333 -17 25.666 -17 42.999s5.66699 31.666 17 42.999s25.666 17 42.999 17s31.666 -5.66699 42.999 -17s17 -25.666 17 -42.999s-5.66699 -31.666 -17 -42.999s-25.666 -17 -42.999 -17s-31.666 5.66699 -42.999 17z" />
    <glyph glyph-name="oslash" unicode="&#xf8;" horiz-adv-x="530" 
d="M152 18l-12 -18.001h-80l41 63c-34 44 -51 106.333 -51 187c0 85.333 19 150 57 194s90.667 66 158 66c44.667 0 82.334 -9.33301 113.001 -28l12 18h80l-42 -63c34.667 -45.333 52 -107.666 52 -186.999c0 -85.333 -19.167 -150 -57.5 -194s-90.833 -66 -157.5 -66
c-42.667 0 -80.334 9.33301 -113.001 28zM333 413.999c-18.667 17.333 -41.333 26 -68 26c-34.667 0 -62.5 -15.167 -83.5 -45.5s-31.5 -78.5 -31.5 -144.5c0 -36.667 3.66699 -69 11 -97zM348.501 105.499c21 30.333 31.5 78.5 31.5 144.5c0 36.667 -3.66699 69 -11 97
l-173 -261c17.333 -17.333 40.333 -26 69 -26c34.667 0 62.5 15.167 83.5 45.5z" />
    <glyph glyph-name="ugrave" unicode="&#xf9;" horiz-adv-x="550" 
d="M122.5 37.5c-31.667 31.667 -47.5 72.5 -47.5 122.5v340h100v-340c0 -28 8.83301 -50.833 26.5 -68.5s40.5 -26.5 68.5 -26.5c24.667 0 49.667 10 75 30c10.667 8.66699 20.667 18.667 30 30v375h100v-500h-70l-10 60h-5c-9.33301 -13.333 -21 -25 -35 -35
c-29.333 -23.333 -66 -35 -110 -35c-50 0 -90.833 15.833 -122.5 47.5zM257 541l-90 150h110l45 -150h-65z" />
    <glyph glyph-name="uacute" unicode="&#xfa;" horiz-adv-x="550" 
d="M122.5 37.5c-31.667 31.667 -47.5 72.5 -47.5 122.5v340h100v-340c0 -28 8.83301 -50.833 26.5 -68.5s40.5 -26.5 68.5 -26.5c24.667 0 49.667 10 75 30c10.667 8.66699 20.667 18.667 30 30v375h100v-500h-70l-10 60h-5c-9.33301 -13.333 -21 -25 -35 -35
c-29.333 -23.333 -66 -35 -110 -35c-50 0 -90.833 15.833 -122.5 47.5zM237 541l45 150h110l-90 -150h-65z" />
    <glyph glyph-name="ucircumflex" unicode="&#xfb;" horiz-adv-x="550" 
d="M122.5 37.5c-31.667 31.667 -47.5 72.5 -47.5 122.5v340h100v-340c0 -28 8.83301 -50.833 26.5 -68.5s40.5 -26.5 68.5 -26.5c24.667 0 49.667 10 75 30c10.667 8.66699 20.667 18.667 30 30v375h100v-500h-70l-10 60h-5c-9.33301 -13.333 -21 -25 -35 -35
c-29.333 -23.333 -66 -35 -110 -35c-50 0 -90.833 15.833 -122.5 47.5zM135 560l105 130h70l105 -130h-65l-75 65l-75 -65h-65z" />
    <glyph glyph-name="udieresis" unicode="&#xfc;" horiz-adv-x="550" 
d="M122.5 37.5c-31.667 31.667 -47.5 72.5 -47.5 122.5v340h100v-340c0 -28 8.83301 -50.833 26.5 -68.5s40.5 -26.5 68.5 -26.5c24.667 0 49.667 10 75 30c10.667 8.66699 20.667 18.667 30 30v375h100v-500h-70l-10 60h-5c-9.33301 -13.333 -21 -25 -35 -35
c-29.333 -23.333 -66 -35 -110 -35c-50 0 -90.833 15.833 -122.5 47.5zM145.5 580.5c-10.333 10.333 -15.5 23.5 -15.5 39.5s5.16699 29.167 15.5 39.5s23.5 15.5 39.5 15.5s29.167 -5.16699 39.5 -15.5s15.5 -23.5 15.5 -39.5s-5.16699 -29.167 -15.5 -39.5
s-23.5 -15.5 -39.5 -15.5s-29.167 5.16699 -39.5 15.5zM320.5 580.5c-10.333 10.333 -15.5 23.5 -15.5 39.5s5.16699 29.167 15.5 39.5s23.5 15.5 39.5 15.5s29.167 -5.16699 39.5 -15.5s15.5 -23.5 15.5 -39.5s-5.16699 -29.167 -15.5 -39.5s-23.5 -15.5 -39.5 -15.5
s-29.167 5.16699 -39.5 15.5z" />
    <glyph glyph-name="yacute" unicode="&#xfd;" horiz-adv-x="475" 
d="M62 -195c-11.333 4 -20.333 8.99902 -27 14.999l25 65h10c6.66699 -6.66699 12 -11 16 -13c12.667 -8 25.667 -12 39 -12c17.333 0 32.833 6.5 46.5 19.5s23.167 29.833 28.5 50.5l20 70h-30l-171 500h96l110 -330c3.33301 -10 8 -27 14 -51c2 -6 4.33301 -15.667 7 -29
h4c1.33301 10.667 3.33301 20.334 6 29.001l13 51l91 330h100l-160 -570c-12 -42 -32.333 -75.833 -61 -101.5s-63.334 -38.5 -104.001 -38.5c-27.333 0 -51.666 5 -72.999 15zM200 540.999l45 150h110l-90 -150h-65z" />
    <glyph glyph-name="thorn" unicode="&#xfe;" horiz-adv-x="540" 
d="M80 670l30.001 30h70v-220c8 4.66699 18.667 9.66699 32 15c28.667 10 54.667 15 78 15c60 0 108.333 -22.167 145 -66.5s55 -108.833 55 -193.5s-18.333 -149.167 -55 -193.5s-85 -66.5 -145 -66.5c-26.667 0 -52.667 5 -78 15c-12.667 4 -23.334 9 -32.001 15v-220
h-100v870zM358.501 105.5c21 30.333 31.5 78.498 31.5 144.498s-10.5 114.167 -31.5 144.5s-48.833 45.5 -83.5 45.5c-22.667 0 -45.334 -3.33301 -68.001 -10c-12 -3.33301 -21 -6.66602 -27 -9.99902v-340c6.66699 -3.33301 15.667 -6.66602 27 -9.99902
c22.667 -6.66699 45.334 -10 68.001 -10c34.667 0 62.5 15.167 83.5 45.5z" />
    <glyph glyph-name="ydieresis" unicode="&#xff;" horiz-adv-x="475" 
d="M62 -195c-11.333 4 -20.333 8.99902 -27 14.999l25 65h10c6.66699 -6.66699 12 -11 16 -13c12.667 -8 25.667 -12 39 -12c17.333 0 32.833 6.5 46.5 19.5s23.167 29.833 28.5 50.5l20 70h-30l-171 500h96l110 -330c3.33301 -10 8 -27 14 -51c2 -6 4.33301 -15.667 7 -29
h4c1.33301 10.667 3.33301 20.334 6 29.001l13 51l91 330h100l-160 -570c-12 -42 -32.333 -75.833 -61 -101.5s-63.334 -38.5 -104.001 -38.5c-27.333 0 -51.666 5 -72.999 15zM107.5 580.499c-10.333 10.333 -15.5 23.5 -15.5 39.5s5.16699 29.167 15.5 39.5
s23.5 15.5 39.5 15.5s29.167 -5.16699 39.5 -15.5s15.5 -23.5 15.5 -39.5s-5.16699 -29.167 -15.5 -39.5s-23.5 -15.5 -39.5 -15.5s-29.167 5.16699 -39.5 15.5zM282.5 580.499c-10.333 10.333 -15.5 23.5 -15.5 39.5s5.16699 29.167 15.5 39.5s23.5 15.5 39.5 15.5
s29.167 -5.16699 39.5 -15.5s15.5 -23.5 15.5 -39.5s-5.16699 -29.167 -15.5 -39.5s-23.5 -15.5 -39.5 -15.5s-29.167 5.16699 -39.5 15.5z" />
    <glyph glyph-name="Amacron" unicode="&#x100;" horiz-adv-x="570" 
d="M15 0l205 700h130l205 -700h-100l-55 180h-230l-55 -180h-100zM380 250l-79.998 274.999c-2.66699 7.33301 -4.83398 15.833 -6.50098 25.5s-2.83398 16.834 -3.50098 21.501l-3 23h-4l-3 -24c-4.66699 -22.667 -8 -38 -10 -46l-80 -275h190zM150.002 779.999v70h270v-70
h-270z" />
    <glyph glyph-name="amacron" unicode="&#x101;" 
d="M88.5 31.5c-29 27.667 -43.501 65.502 -43.501 113.502c0 47.333 17.167 84.166 51.5 110.499s88.833 39.5 163.5 39.5h80v25c0 39.333 -9.16699 69.166 -27.5 89.499s-44.166 30.5 -77.499 30.5c-24 0 -50 -7.66699 -78 -23c-14 -8 -24.667 -15.333 -32 -22h-10l-35 60
c13.333 10 28.333 19 45 27c36 18.667 76 28 120 28c38 0 71.667 -8.16699 101 -24.5s52.333 -39 69 -68s25 -61.5 25 -97.5v-320h-70l-10 60h-5c-9.33301 -13.333 -21 -25 -35 -35c-29.333 -23.333 -66 -35 -110 -35c-52 0 -92.5 13.833 -121.5 41.5zM309.999 95.002
c11.333 9.33301 21.333 19.333 30 30v100h-80c-38 0 -66.667 -7.33301 -86 -22s-29 -34 -29 -58c0 -26 7.5 -45.833 22.5 -59.5s37.5 -20.5 67.5 -20.5c24.667 0 49.667 10 75 30zM129.999 590.002v70h270v-70h-270z" />
    <glyph glyph-name="Abreve" unicode="&#x102;" horiz-adv-x="570" 
d="M15 0l205 700h130l205 -700h-100l-55 180h-230l-55 -180h-100zM380 250l-79.998 274.999c-2.66699 7.33301 -4.83398 15.833 -6.50098 25.5s-2.83398 16.834 -3.50098 21.501l-3 23h-4l-3 -24c-4.66699 -22.667 -8 -38 -10 -46l-80 -275h190zM173.002 794.499
c-25.333 23 -38.0039 54.833 -38.0039 95.5h90c0 -24.667 4.83301 -42.5 14.5 -53.5s24.834 -16.5 45.501 -16.5s35.834 5.5 45.501 16.5s14.5 28.833 14.5 53.5h90c0 -40.667 -12.667 -72.5 -38 -95.5s-62.666 -34.5 -111.999 -34.5s-86.666 11.5 -111.999 34.5z" />
    <glyph glyph-name="abreve" unicode="&#x103;" 
d="M88.5 31.5c-29 27.667 -43.501 65.502 -43.501 113.502c0 47.333 17.167 84.166 51.5 110.499s88.833 39.5 163.5 39.5h80v25c0 39.333 -9.16699 69.166 -27.5 89.499s-44.166 30.5 -77.499 30.5c-24 0 -50 -7.66699 -78 -23c-14 -8 -24.667 -15.333 -32 -22h-10l-35 60
c13.333 10 28.333 19 45 27c36 18.667 76 28 120 28c38 0 71.667 -8.16699 101 -24.5s52.333 -39 69 -68s25 -61.5 25 -97.5v-320h-70l-10 60h-5c-9.33301 -13.333 -21 -25 -35 -35c-29.333 -23.333 -66 -35 -110 -35c-52 0 -92.5 13.833 -121.5 41.5zM309.999 95.002
c11.333 9.33301 21.333 19.333 30 30v100h-80c-38 0 -66.667 -7.33301 -86 -22s-29 -34 -29 -58c0 -26 7.5 -45.833 22.5 -59.5s37.5 -20.5 67.5 -20.5c24.667 0 49.667 10 75 30zM142.999 585.502c-25.333 23 -38.0039 54.833 -38.0039 95.5h90
c0 -24.667 4.83301 -42.5 14.5 -53.5s24.834 -16.5 45.501 -16.5s35.834 5.5 45.501 16.5s14.5 28.833 14.5 53.5h90c0 -40.667 -12.667 -72.5 -38 -95.5s-62.666 -34.5 -111.999 -34.5s-86.666 11.5 -111.999 34.5z" />
    <glyph glyph-name="Aogonek" unicode="&#x104;" horiz-adv-x="575" 
d="M15 0l205 700h130l205 -700h-100l-55 180h-230l-55 -180h-100zM380 250l-79.998 274.999c-2.66699 7.33301 -4.83398 15.833 -6.50098 25.5s-2.83398 16.834 -3.50098 21.501l-3 23h-4l-3 -24c-4.66699 -22.667 -8 -38 -10 -46l-80 -275h190zM458.002 -135.001
c-15.333 13.333 -23 31.667 -23 55c0 18.667 8.33301 37.667 25 57c6.66699 7.33301 15 15 25 23h70c-9.33301 -5.33301 -17.666 -11.666 -24.999 -18.999c-16.667 -15.333 -25 -30.666 -25 -45.999c0 -10 3.33301 -18.333 10 -25s15 -10 25 -10
c8.66699 0 17.167 1.66699 25.5 5s15.166 6.66602 20.499 9.99902s8.66602 5.66602 9.99902 6.99902h9v-52c-7.33301 -6 -14.333 -10.333 -21 -13c-17.333 -8 -37 -12 -59 -12c-29.333 0 -51.666 6.66699 -66.999 20z" />
    <glyph glyph-name="aogonek" unicode="&#x105;" horiz-adv-x="505" 
d="M495 -78v-51.9971c-7.33301 -6 -14.333 -10.333 -21 -13c-17.333 -8 -37 -12 -59 -12c-29.333 0 -51.666 6.66699 -66.999 20s-23 31.666 -23 54.999c0 18.667 8.33301 37.667 25 57c6.66699 7.33301 15 15 25 23h-5l-10 60h-5c-9.33301 -13.333 -21 -25 -35 -35
c-29.333 -23.333 -66 -35 -110 -35c-52 0 -92.5 13.833 -121.5 41.5s-43.5 65.5 -43.5 113.5c0 47.333 17.167 84.166 51.5 110.499s88.833 39.5 163.5 39.5h80v25c0 39.333 -9.16699 69.166 -27.5 89.499s-44.166 30.5 -77.499 30.5c-24 0 -50 -7.66699 -78 -23
c-14 -8 -24.667 -15.333 -32 -22h-10l-35 60c13.333 10 28.333 19 45 27c36 18.667 76 28 120 28c38 0 71.667 -8.16699 101 -24.5s52.333 -39 69 -68s25 -61.5 25 -97.5v-320h5c-8.66699 -5.33301 -17 -11.666 -25 -18.999c-16.667 -15.333 -25 -30.666 -25 -45.999
c0 -10 3.33301 -18.333 10 -25s15 -10 25 -10c8.66699 0 17.167 1.66699 25.5 5s15.166 6.66602 20.499 9.99902s8.66602 5.66602 9.99902 6.99902h9zM340 225.003h-80c-38 0 -66.667 -7.33301 -86 -22s-29 -34 -29 -58c0 -26 7.5 -45.833 22.5 -59.5s37.5 -20.5 67.5 -20.5
c24.667 0 49.667 10 75 30c11.333 9.33301 21.333 19.333 30 30v100z" />
    <glyph glyph-name="Cacute" unicode="&#x106;" horiz-adv-x="515" 
d="M122.5 76c-45 57.333 -67.501 148.666 -67.501 273.999c0 124.667 22 215.834 66 273.501s105.333 86.5 184 86.5c47.333 0 90.333 -9.33301 129 -28c18.667 -8.66699 34 -17.667 46 -27l-35 -60h-10c-10 7.33301 -21.333 14.666 -34 21.999
c-29.333 15.333 -58 23 -86 23c-106.667 0 -160 -96.667 -160 -290c0 -104 14.833 -178.333 44.5 -223s71.5 -67 125.5 -67c29.333 0 58 7.33301 86 22c14 8 25.333 15.667 34 23h10l35 -60c-11.333 -9.33301 -26.666 -18.666 -45.999 -27.999
c-37.333 -18 -80.333 -27 -129 -27c-83.333 0 -147.5 28.667 -192.5 86zM269.999 750l45 150h110l-90 -150h-65z" />
    <glyph glyph-name="cacute" unicode="&#x107;" horiz-adv-x="455" 
d="M108 56c-38.667 44 -58.0029 108.667 -58.0029 194s18.833 150 56.5 194s88.834 66 153.501 66c44 0 84 -9.33301 120 -28c17.333 -8 32.333 -17 45 -27l-35 -60h-10c-8.66699 6.66699 -19.667 14 -33 22c-28 15.333 -53.667 23 -77 23
c-37.333 0 -66.666 -15 -87.999 -45s-32 -78.333 -32 -145c0 -67.333 11.167 -115.833 33.5 -145.5s54.5 -44.5 96.5 -44.5c24.667 0 50.334 7.33301 77.001 22c14 8 25 15.667 33 23h10l35 -60c-12 -10 -27 -19.333 -45 -28c-34.667 -18 -74.667 -27 -120 -27
c-69.333 0 -123.333 22 -162 66zM211.997 550l45 150h110l-90 -150h-65z" />
    <glyph glyph-name="Ccaron" unicode="&#x10c;" horiz-adv-x="515" 
d="M122.5 76c-45 57.333 -67.501 148.666 -67.501 273.999c0 124.667 22 215.834 66 273.501s105.333 86.5 184 86.5c47.333 0 90.333 -9.33301 129 -28c18.667 -8.66699 34 -17.667 46 -27l-35 -60h-10c-10 7.33301 -21.333 14.666 -34 21.999
c-29.333 15.333 -58 23 -86 23c-106.667 0 -160 -96.667 -160 -290c0 -104 14.833 -178.333 44.5 -223s71.5 -67 125.5 -67c29.333 0 58 7.33301 86 22c14 8 25.333 15.667 34 23h10l35 -60c-11.333 -9.33301 -26.666 -18.666 -45.999 -27.999
c-37.333 -18 -80.333 -27 -129 -27c-83.333 0 -147.5 28.667 -192.5 86zM271.999 760l-105 130h65l75 -65l75 65h65l-105 -130h-70z" />
    <glyph glyph-name="ccaron" unicode="&#x10d;" horiz-adv-x="455" 
d="M108 56c-38.667 44 -58.0029 108.667 -58.0029 194s18.833 150 56.5 194s88.834 66 153.501 66c44 0 84 -9.33301 120 -28c17.333 -8 32.333 -17 45 -27l-35 -60h-10c-8.66699 6.66699 -19.667 14 -33 22c-28 15.333 -53.667 23 -77 23
c-37.333 0 -66.666 -15 -87.999 -45s-32 -78.333 -32 -145c0 -67.333 11.167 -115.833 33.5 -145.5s54.5 -44.5 96.5 -44.5c24.667 0 50.334 7.33301 77.001 22c14 8 25 15.667 33 23h10l35 -60c-12 -10 -27 -19.333 -45 -28c-34.667 -18 -74.667 -27 -120 -27
c-69.333 0 -123.333 22 -162 66zM214.997 560l-105 130h65l75 -65l75 65h65l-105 -130h-70z" />
    <glyph glyph-name="Dcaron" unicode="&#x10e;" horiz-adv-x="585" 
d="M90 700h150c97.333 0 170 -27.667 218 -83s72 -144.333 72 -267s-24 -211.667 -72 -267s-120.667 -83 -218 -83h-150v700zM240 70c63.333 0 110.833 21.333 142.5 64s47.5 114.667 47.5 216s-15.833 173.333 -47.5 216s-79.167 64 -142.5 64h-50v-560h50zM232 760
l-105 130h65l75 -65l75 65h65l-105 -130h-70z" />
    <glyph glyph-name="dcaron" unicode="&#x10f;" horiz-adv-x="645" 
d="M140 19.5c-27.333 19.667 -49.168 49 -65.501 88s-24.5 86.5 -24.5 142.5c0 84.667 18.333 149.167 55 193.5s85 66.5 145 66.5c22.667 0 48.334 -5 77.001 -15l33 -15v190l30 30h70v-700h-70l-10 60h-5c-9.33301 -13.333 -21 -25 -35 -35
c-29.333 -23.333 -66 -35 -110 -35c-32.667 0 -62.667 9.83301 -90 29.5zM524.998 515c12 9.33301 20.333 16.666 25 21.999c16.667 20.667 25 38.334 25 53.001c-12.667 0 -24.167 5.33301 -34.5 16s-15.5 23.667 -15.5 39s5.16699 28.333 15.5 39s21.833 16 34.5 16
c18 0 32.5 -5.83301 43.5 -17.5s16.5 -27.167 16.5 -46.5c0 -44 -13.333 -82.667 -40 -116c-12 -15.333 -25.333 -27.333 -40 -36zM329.998 95c11.333 9.33301 21.333 19.334 30 30.001v295c-6 3.33301 -15 6.66602 -27 9.99902c-22.667 6.66699 -45.334 10 -68.001 10
c-34.667 0 -62.5 -15.167 -83.5 -45.5s-31.5 -78.5 -31.5 -144.5c0 -63.333 9.83301 -110 29.5 -140s44.834 -45 75.501 -45c24.667 0 49.667 10 75 30z" />
    <glyph glyph-name="Dcroat" unicode="&#x110;" horiz-adv-x="585" 
d="M90 320h-55v80h55v300h150c97.333 0 170 -27.667 218 -83s72 -144.333 72 -267s-24 -211.667 -72 -267s-120.667 -83 -218 -83h-150v320zM240 70c63.333 0 110.833 21.333 142.5 64s47.5 114.667 47.5 216s-15.833 173.333 -47.5 216s-79.167 64 -142.5 64h-50v-230h115
v-80h-115v-250h50z" />
    <glyph glyph-name="dcroat" unicode="&#x111;" horiz-adv-x="545" 
d="M140 18c-27.333 18.667 -49.168 46.167 -65.501 82.5s-24.5 79.5 -24.5 129.5c0 50.667 8.5 94 25.5 130s40.667 63.333 71 82s64.833 28 103.5 28c22.667 0 48.334 -5 77.001 -15l33 -15v90h-105v70h105v70l30 30h70v-100h65v-70h-65v-530h-70l-10 60h-5
c-9.33301 -13.333 -21 -25 -35 -35c-29.333 -23.333 -66 -35 -110 -35c-32.667 0 -62.667 9.33301 -90 28zM329.998 95c11.333 9.33301 21.334 19.335 30.001 30.002v255c-6 3.33301 -15 6.66602 -27 9.99902c-22.667 6.66699 -45.334 10 -68.001 10
c-34.667 0 -62.5 -14 -83.5 -42s-31.5 -70.667 -31.5 -128c0 -54.667 10 -95.834 30 -123.501s45 -41.5 75 -41.5c24.667 0 49.667 10 75 30z" />
    <glyph glyph-name="Emacron" unicode="&#x112;" 
d="M90 0v700h390v-70h-290v-230h230v-70h-230v-260h290v-70h-390zM152 790v70h270v-70h-270z" />
    <glyph glyph-name="emacron" unicode="&#x113;" horiz-adv-x="505" 
d="M108 56c-38.667 44 -58.001 108.667 -58.001 194c0 84.667 18.667 149.167 56 193.5s87 66.5 149 66.5s111.667 -22.167 149 -66.5s56 -108.833 56 -193.5v-15l-20 -20h-290c0 -51.333 11.333 -90 34 -116s54.667 -39 96 -39c24.667 0 50.334 7.33301 77.001 22
c14 8 25 15.667 33 23h10l35 -60c-12 -10 -27 -19.333 -45 -28c-34.667 -18 -74.667 -27 -120 -27c-69.333 0 -123.333 22 -162 66zM359.999 285c0 52.667 -9.5 91.667 -28.5 117s-44.5 38 -76.5 38s-57.5 -12.667 -76.5 -38s-28.5 -64.333 -28.5 -117h210zM126.999 590v70
h270v-70h-270z" />
    <glyph glyph-name="Edotaccent" unicode="&#x116;" 
d="M90 0v700h390v-70h-290v-230h230v-70h-230v-260h290v-70h-390zM254 777c-11.333 11.333 -17 25.666 -17 42.999s5.66699 31.666 17 42.999s25.666 17 42.999 17s31.666 -5.66699 42.999 -17s17 -25.666 17 -42.999s-5.66699 -31.666 -17 -42.999s-25.666 -17 -42.999 -17
s-31.666 5.66699 -42.999 17z" />
    <glyph glyph-name="edotaccent" unicode="&#x117;" horiz-adv-x="505" 
d="M108 56c-38.667 44 -58.001 108.667 -58.001 194c0 84.667 18.667 149.167 56 193.5s87 66.5 149 66.5s111.667 -22.167 149 -66.5s56 -108.833 56 -193.5v-15l-20 -20h-290c0 -51.333 11.333 -90 34 -116s54.667 -39 96 -39c24.667 0 50.334 7.33301 77.001 22
c14 8 25 15.667 33 23h10l35 -60c-12 -10 -27 -19.333 -45 -28c-34.667 -18 -74.667 -27 -120 -27c-69.333 0 -123.333 22 -162 66zM359.999 285c0 52.667 -9.5 91.667 -28.5 117s-44.5 38 -76.5 38s-57.5 -12.667 -76.5 -38s-28.5 -64.333 -28.5 -117h210zM208.999 577
c-11.333 11.333 -17 25.666 -17 42.999s5.66699 31.666 17 42.999s25.666 17 42.999 17s31.666 -5.66699 42.999 -17s17 -25.666 17 -42.999s-5.66699 -31.666 -17 -42.999s-25.666 -17 -42.999 -17s-31.666 5.66699 -42.999 17z" />
    <glyph glyph-name="Eogonek" unicode="&#x118;" 
d="M90 0v700h390v-70h-290v-230h230v-70h-230v-260h290v-70h-390zM243 -135c-15.333 13.333 -23 31.667 -23 55c0 18.667 8.33301 37.667 25 57c6.66699 7.33301 15 15 25 23h70c-9.33301 -5.33301 -17.666 -11.666 -24.999 -18.999
c-16.667 -15.333 -25 -30.666 -25 -45.999c0 -10 3.33301 -18.333 10 -25s15 -10 25 -10c8.66699 0 17.167 1.66699 25.5 5s15.166 6.66602 20.499 9.99902s8.66602 5.66602 9.99902 6.99902h9v-52c-7.33301 -6 -14.333 -10.333 -21 -13c-17.333 -8 -37 -12 -59 -12
c-29.333 0 -51.666 6.66699 -66.999 20z" />
    <glyph glyph-name="eogonek" unicode="&#x119;" horiz-adv-x="505" 
d="M404 443.5c37.333 -44.333 56 -108.83 56 -193.497v-15l-20 -20h-290c0 -51.333 11.333 -90 34 -116s54.667 -39 96 -39c24.667 0 50.334 7.33301 77.001 22c14 8 25 15.667 33 23h10l35 -60c-12 -10 -27 -19.333 -45 -28c-29.333 -14.667 -60.333 -23.334 -93 -26.001
c-3.33301 -2 -7.33301 -5.33301 -12 -10c-16.667 -15.333 -25 -30.666 -25 -45.999c0 -10 3.33301 -18.333 10 -25s15 -10 25 -10c8.66699 0 17.167 1.66699 25.5 5s15.166 6.66602 20.499 9.99902s8.66602 5.66602 9.99902 6.99902h9v-52
c-7.33301 -6 -14.333 -10.333 -21 -13c-17.333 -8 -37 -12 -59 -12c-29.333 0 -51.666 6.66699 -66.999 20s-23 31.666 -23 54.999c0 18.667 8.33301 37.667 25 57l16 16c-57.333 8 -101.833 33.667 -133.5 77s-47.5 103.333 -47.5 180c0 84.667 18.667 149.167 56 193.5
s87 66.5 149 66.5s111.667 -22.167 149 -66.5zM360 285.003c0 52.667 -9.5 91.667 -28.5 117s-44.5 38 -76.5 38s-57.5 -12.667 -76.5 -38s-28.5 -64.333 -28.5 -117h210z" />
    <glyph glyph-name="Ecaron" unicode="&#x11a;" 
d="M90 0v700h390v-70h-290v-230h230v-70h-230v-260h290v-70h-390zM262 760l-105 130h65l75 -65l75 65h65l-105 -130h-70z" />
    <glyph glyph-name="ecaron" unicode="&#x11b;" horiz-adv-x="505" 
d="M108 56c-38.667 44 -58.001 108.667 -58.001 194c0 84.667 18.667 149.167 56 193.5s87 66.5 149 66.5s111.667 -22.167 149 -66.5s56 -108.833 56 -193.5v-15l-20 -20h-290c0 -51.333 11.333 -90 34 -116s54.667 -39 96 -39c24.667 0 50.334 7.33301 77.001 22
c14 8 25 15.667 33 23h10l35 -60c-12 -10 -27 -19.333 -45 -28c-34.667 -18 -74.667 -27 -120 -27c-69.333 0 -123.333 22 -162 66zM359.999 285c0 52.667 -9.5 91.667 -28.5 117s-44.5 38 -76.5 38s-57.5 -12.667 -76.5 -38s-28.5 -64.333 -28.5 -117h210zM216.999 560
l-105 130h65l75 -65l75 65h65l-105 -130h-70z" />
    <glyph glyph-name="Gbreve" unicode="&#x11e;" horiz-adv-x="565" 
d="M125.5 79.5c-47 59.667 -70.502 149.834 -70.502 270.501c0 80.667 10.833 148 32.5 202s51.334 93.833 89.001 119.5s80.5 38.5 128.5 38.5c47.333 0 90.333 -9.33301 129 -28c18.667 -8.66699 34 -17.667 46 -27l-35 -60h-10c-10 7.33301 -21.333 14.666 -34 21.999
c-29.333 15.333 -58 23 -86 23c-106.667 0 -160 -96.667 -160 -290c0 -104 14.833 -178.333 44.5 -223s71.5 -67 125.5 -67c12 0 23.5 1.5 34.5 4.5s20 6.16699 27 9.5s11.5 5.33301 13.5 6v230h-115v70h185l30 -30v-305c-13.333 -10.667 -29.666 -20 -48.999 -28
c-38.667 -18 -84 -27 -136 -27c-79.333 0 -142.5 29.833 -189.5 89.5zM184.998 784.5c-25.333 23 -38.0039 54.833 -38.0039 95.5h90c0 -24.667 4.83301 -42.5 14.5 -53.5s24.834 -16.5 45.501 -16.5s35.834 5.5 45.501 16.5s14.5 28.833 14.5 53.5h90
c0 -40.667 -12.667 -72.5 -38 -95.5s-62.666 -34.5 -111.999 -34.5s-86.666 11.5 -111.999 34.5z" />
    <glyph glyph-name="gbreve" unicode="&#x11f;" horiz-adv-x="535" 
d="M125 -183c-18 8.66699 -33 18.002 -45 28.002l35 60h10c6.66699 -6.66699 17.334 -14.334 32.001 -23.001c26.667 -14.667 52.667 -22 78 -22c42.667 0 74.167 10.333 94.5 31s30.5 53.667 30.5 99v30c-10 -6 -21 -11 -33 -15c-24.667 -10 -50.334 -15 -77.001 -15
c-60 0 -108.333 22.167 -145 66.5s-55 108.833 -55 193.5c0 56 8.16699 103.5 24.5 142.5s38.166 68.333 65.499 88s57.333 29.5 90 29.5c40.667 0 77.334 -11.667 110.001 -35c16 -12.667 27.667 -24.334 35 -35.001h5l10 60h70v-510
c0 -60.667 -19.167 -109.167 -57.5 -145.5s-90.833 -54.5 -157.5 -54.5c-45.333 0 -85.333 9 -120 27zM333 70.002c12 3.33301 21 6.66699 27 10v295c-9.33301 11.333 -19.333 21.333 -30 30c-25.333 20 -50.333 30 -75 30c-30.667 0 -55.834 -15 -75.501 -45
s-29.5 -76.667 -29.5 -140c0 -66 10.5 -114.167 31.5 -144.5s48.833 -45.5 83.5 -45.5c22.667 0 45.334 3.33301 68.001 10zM155 594.503c-25.333 23 -38.0039 54.833 -38.0039 95.5h90c0 -24.667 4.83301 -42.5 14.5 -53.5s24.834 -16.5 45.501 -16.5
s35.834 5.5 45.501 16.5s14.5 28.833 14.5 53.5h90c0 -40.667 -12.667 -72.5 -38 -95.5s-62.666 -34.5 -111.999 -34.5s-86.666 11.5 -111.999 34.5z" />
    <glyph glyph-name="Gcommaaccent" unicode="&#x122;" horiz-adv-x="565" 
d="M125.5 79.5c-47 59.667 -70.502 149.834 -70.502 270.501c0 80.667 10.833 148 32.5 202s51.334 93.833 89.001 119.5s80.5 38.5 128.5 38.5c47.333 0 90.333 -9.33301 129 -28c18.667 -8.66699 34 -17.667 46 -27l-35 -60h-10c-10 7.33301 -21.333 14.666 -34 21.999
c-29.333 15.333 -58 23 -86 23c-106.667 0 -160 -96.667 -160 -290c0 -104 14.833 -178.333 44.5 -223s71.5 -67 125.5 -67c12 0 23.5 1.5 34.5 4.5s20 6.16699 27 9.5s11.5 5.33301 13.5 6v230h-115v70h185l30 -30v-305c-13.333 -10.667 -29.666 -20 -48.999 -28
c-38.667 -18 -84 -27 -136 -27c-79.333 0 -142.5 29.833 -189.5 89.5zM251.998 -234c12 9.33301 20.333 16.666 25 21.999c16.667 20.667 25 38.334 25 53.001c-12.667 0 -24.167 5.33301 -34.5 16s-15.5 23.667 -15.5 39s5.16699 28.333 15.5 39s21.833 16 34.5 16
c18 0 32.5 -5.83301 43.5 -17.5s16.5 -27.167 16.5 -46.5c0 -44 -13.333 -82.667 -40 -116c-12 -15.333 -25.333 -27.333 -40 -36z" />
    <glyph glyph-name="gcommaaccent" unicode="&#x123;" horiz-adv-x="535" 
d="M310 755c-12 -9.33301 -20.333 -16.666 -25 -21.999c-16.667 -20.667 -25 -38.334 -25 -53.001c12.667 0 24.167 -5.33301 34.5 -16s15.5 -23.667 15.5 -39s-5.16699 -28.333 -15.5 -39s-21.833 -16 -34.5 -16c-18 0 -32.5 5.83301 -43.5 17.5s-16.5 27.167 -16.5 46.5
c0 44 13.333 82.667 40 116c12 15.333 25.333 27.333 40 36zM125 -183c-18 8.66699 -33 18.002 -45 28.002l35 60h10c6.66699 -6.66699 17.334 -14.334 32.001 -23.001c26.667 -14.667 52.667 -22 78 -22c42.667 0 74.167 10.333 94.5 31s30.5 53.667 30.5 99v30
c-10 -6 -21 -11 -33 -15c-24.667 -10 -50.334 -15 -77.001 -15c-60 0 -108.333 22.167 -145 66.5s-55 108.833 -55 193.5c0 56 8.16699 103.5 24.5 142.5s38.166 68.333 65.499 88s57.333 29.5 90 29.5c40.667 0 77.334 -11.667 110.001 -35
c16 -12.667 27.667 -24.334 35 -35.001h5l10 60h70v-510c0 -60.667 -19.167 -109.167 -57.5 -145.5s-90.833 -54.5 -157.5 -54.5c-45.333 0 -85.333 9 -120 27zM333 70.002c12 3.33301 21 6.66699 27 10v295c-9.33301 11.333 -19.333 21.333 -30 30
c-25.333 20 -50.333 30 -75 30c-30.667 0 -55.834 -15 -75.501 -45s-29.5 -76.667 -29.5 -140c0 -66 10.5 -114.167 31.5 -144.5s48.833 -45.5 83.5 -45.5c22.667 0 45.334 3.33301 68.001 10z" />
    <glyph glyph-name="hbar" unicode="&#x127;" horiz-adv-x="560" 
d="M90 520h-65v70h65v80l30 30h70v-110h135v-70h-135v-120c10.667 10.667 21.667 19 33 25c32 16.667 64.333 25 97 25c50 0 90.833 -15.833 122.5 -47.5s47.5 -72.5 47.5 -122.5v-280h-100v280c0 28 -8.83301 50.833 -26.5 68.5s-40.5 26.5 -68.5 26.5
c-24.667 0 -49.667 -10 -75 -30c-10.667 -8.66699 -20.667 -18.667 -30 -30v-315h-100v520z" />
    <glyph glyph-name="Itilde" unicode="&#x128;" horiz-adv-x="250" 
d="M90 0v700h100v-700h-100zM257 865c-18.667 -56.667 -48.665 -85 -89.998 -85c-12.667 0 -23.167 2.33301 -31.5 7s-16.833 11.334 -25.5 20.001c-1.33301 1.33301 -4.16602 3.83301 -8.49902 7.5s-8.5 6.33398 -12.5 8.00098s-8 2.5 -12 2.5
c-8.66699 0 -16.334 -3 -23.001 -9s-12 -12.167 -16 -18.5s-6.33301 -10.5 -7 -12.5h-9l-40 25c9.33301 26.667 20.833 47.5 34.5 62.5s32.167 22.5 55.5 22.5c12.667 0 23.167 -2.33301 31.5 -7s17.166 -11.334 26.499 -20.001
c7.33301 -6.66699 13.166 -11.334 17.499 -14.001s9.5 -4 15.5 -4c8.66699 0 16.5 3 23.5 9s12.5 12.5 16.5 19.5s5.66699 10.833 5 11.5h9z" />
    <glyph glyph-name="itilde" unicode="&#x129;" horiz-adv-x="240" 
d="M75 0v500h100v-500h-100zM252 665c-18.667 -56.667 -48.665 -85 -89.998 -85c-12.667 0 -23.167 2.33301 -31.5 7s-16.833 11.334 -25.5 20.001c-1.33301 1.33301 -4.16602 3.83301 -8.49902 7.5s-8.5 6.33398 -12.5 8.00098s-8 2.5 -12 2.5
c-8.66699 0 -16.334 -3 -23.001 -9s-12 -12.167 -16 -18.5s-6.33301 -10.5 -7 -12.5h-9l-40 25c9.33301 26.667 20.833 47.5 34.5 62.5s32.167 22.5 55.5 22.5c12.667 0 23.167 -2.33301 31.5 -7s17.166 -11.334 26.499 -20.001
c7.33301 -6.66699 13.166 -11.334 17.499 -14.001s9.5 -4 15.5 -4c8.66699 0 16.5 3 23.5 9s12.5 12.5 16.5 19.5s5.66699 10.833 5 11.5h9z" />
    <glyph glyph-name="Imacron" unicode="&#x12a;" horiz-adv-x="260" 
d="M90 0v700h100v-700h-100zM-4 780v70h270v-70h-270z" />
    <glyph glyph-name="imacron" unicode="&#x12b;" horiz-adv-x="250" 
d="M-10 580v70h270v-70h-270zM75 0v500h100v-500h-100z" />
    <glyph glyph-name="Iogonek" unicode="&#x12e;" horiz-adv-x="270" 
d="M90 0v700h100v-700h-100zM88 -135c-15.333 13.333 -23 31.667 -23 55c0 18.667 8.33301 37.667 25 57c6.66699 7.33301 15 15 25 23h70c-9.33301 -5.33301 -17.666 -11.666 -24.999 -18.999c-16.667 -15.333 -25 -30.666 -25 -45.999c0 -10 3.33301 -18.333 10 -25
s15 -10 25 -10c8.66699 0 17.167 1.66699 25.5 5s15.166 6.66602 20.499 9.99902s8.66602 5.66602 9.99902 6.99902h9v-52c-7.33301 -6 -14.333 -10.333 -21 -13c-17.333 -8 -37 -12 -59 -12c-29.333 0 -51.666 6.66699 -66.999 20z" />
    <glyph glyph-name="iogonek" unicode="&#x12f;" horiz-adv-x="245" 
d="M82 597c-11.333 11.333 -17 25.666 -17 42.999s5.66699 31.666 17 42.999s25.666 17 42.999 17s31.666 -5.66699 42.999 -17s17 -25.666 17 -42.999s-5.66699 -31.666 -17 -42.999s-25.666 -17 -42.999 -17s-31.666 5.66699 -42.999 17zM75 0v500h100v-500h-100zM78 -135
c-15.333 13.333 -23 31.667 -23 55c0 18.667 8.33301 37.667 25 57c6.66699 7.33301 15 15 25 23h70c-9.33301 -5.33301 -17.666 -11.666 -24.999 -18.999c-16.667 -15.333 -25 -30.666 -25 -45.999c0 -10 3.33301 -18.333 10 -25s15 -10 25 -10
c8.66699 0 17.167 1.66699 25.5 5s15.166 6.66602 20.499 9.99902s8.66602 5.66602 9.99902 6.99902h9v-52c-7.33301 -6 -14.333 -10.333 -21 -13c-17.333 -8 -37 -12 -59 -12c-29.333 0 -51.666 6.66699 -66.999 20z" />
    <glyph glyph-name="Idotaccent" unicode="&#x130;" horiz-adv-x="260" 
d="M90 0v700h100v-700h-100zM87 777c-11.333 11.333 -17 25.666 -17 42.999s5.66699 31.666 17 42.999s25.666 17 42.999 17s31.666 -5.66699 42.999 -17s17 -25.666 17 -42.999s-5.66699 -31.666 -17 -42.999s-25.666 -17 -42.999 -17s-31.666 5.66699 -42.999 17z" />
    <glyph glyph-name="dotlessi" unicode="&#x131;" horiz-adv-x="250" 
d="M75 0v500h100v-500h-100z" />
    <glyph glyph-name="ij" unicode="&#x133;" horiz-adv-x="505" 
d="M82 597c-11.333 11.333 -17 25.666 -17 42.999s5.66699 31.666 17 42.999s25.666 17 42.999 17s31.666 -5.66699 42.999 -17s17 -25.666 17 -42.999s-5.66699 -31.666 -17 -42.999s-25.666 -17 -42.999 -17s-31.666 5.66699 -42.999 17zM337 597
c-11.333 11.333 -17 25.666 -17 42.999s5.66699 31.666 17 42.999s25.666 17 42.999 17s31.666 -5.66699 42.999 -17s17 -25.666 17 -42.999s-5.66699 -31.666 -17 -42.999s-25.666 -17 -42.999 -17s-31.666 5.66699 -42.999 17zM192 -185
c-10.667 4 -19.667 9.00098 -27 15.001l25 65h10c6.66699 -6.66699 12 -11 16 -13c12.667 -8 25.667 -12 39 -12c23.333 0 41.666 7.66699 54.999 23s20 37.666 20 66.999v470h-155v-430h-100v500h355v-540c0 -48 -15 -86.667 -45 -116s-70 -44 -120 -44
c-27.333 0 -51.666 5 -72.999 15z" />
    <glyph glyph-name="Jcircumflex" unicode="&#x134;" horiz-adv-x="410" 
d="M37 12c-15.333 7.33301 -27.668 15 -37.001 23l30 65h10c8.66699 -7.33301 17.334 -14 26.001 -20c19.333 -13.333 39 -20 59 -20c38.667 0 67.5 10.5 86.5 31.5s28.5 53.833 28.5 98.5v510h100v-510c0 -66 -17.167 -115.833 -51.5 -149.5s-85.5 -50.5 -153.5 -50.5
c-33.333 0 -66 7.33301 -98 22zM144.998 740l105 130h70l105 -130h-65l-75 65l-75 -65h-65z" />
    <glyph glyph-name="jcircumflex" unicode="&#x135;" horiz-adv-x="268" 
d="M-2 550l105 130h70l105 -130h-65l-75 65l-75 -65h-65zM-43 -185c-11.333 4 -20.333 9.00098 -27 15.001l25 65h10c6.66699 -6.66699 12 -11 16 -13c12.667 -8 25.667 -12 39 -12c23.333 0 41.666 7.66699 54.999 23s20 37.666 20 66.999v540h100v-540
c0 -48 -15 -86.667 -45 -116s-70 -44 -120 -44c-27.333 0 -51.666 5 -72.999 15z" />
    <glyph glyph-name="Kcommaaccent" unicode="&#x136;" horiz-adv-x="555" 
d="M90 0v700h100v-330l225 330h115l-230 -340l240 -360h-115l-235 350v-350h-100zM237 -195c12 9.33301 20.333 16.666 25 21.999c16.667 20.667 25 38.334 25 53.001c-12.667 0 -24.167 5.33301 -34.5 16s-15.5 23.667 -15.5 39s5.16699 28.333 15.5 39s21.833 16 34.5 16
c18 0 32.5 -5.83301 43.5 -17.5s16.5 -27.167 16.5 -46.5c0 -44 -13.333 -82.667 -40 -116c-12 -15.333 -25.333 -27.333 -40 -36z" />
    <glyph glyph-name="kcommaaccent" unicode="&#x137;" horiz-adv-x="480" 
d="M75 0v670l30 30h70v-430l170 230h115l-180 -240l190 -260h-115l-180 250v-250h-100zM197 -195c12 9.33301 20.333 16.666 25 21.999c16.667 20.667 25 38.334 25 53.001c-12.667 0 -24.167 5.33301 -34.5 16s-15.5 23.667 -15.5 39s5.16699 28.333 15.5 39
s21.833 16 34.5 16c18 0 32.5 -5.83301 43.5 -17.5s16.5 -27.167 16.5 -46.5c0 -44 -13.333 -82.667 -40 -116c-12 -15.333 -25.333 -27.333 -40 -36z" />
    <glyph glyph-name="kgreenlandic" unicode="&#x138;" horiz-adv-x="480" 
d="M75 0v470l30 30h70v-230l170 230h115l-180 -240l190 -260h-115l-180 250v-250h-100z" />
    <glyph glyph-name="Lacute" unicode="&#x139;" horiz-adv-x="490" 
d="M90 0v700h100v-630h290v-70h-390zM120 750l45 150h110l-90 -150h-65z" />
    <glyph glyph-name="lacute" unicode="&#x13a;" horiz-adv-x="252" 
d="M75 0v670l30 30h70v-700h-100zM97 750l45 150h110l-90 -150h-65z" />
    <glyph glyph-name="Lcommaaccent" unicode="&#x13b;" horiz-adv-x="490" 
d="M90 0v700h100v-630h290v-70h-390zM232 -234c12 9.33301 20.333 16.666 25 21.999c16.667 20.667 25 38.334 25 53.001c-12.667 0 -24.167 5.33301 -34.5 16s-15.5 23.667 -15.5 39s5.16699 28.333 15.5 39s21.833 16 34.5 16c18 0 32.5 -5.83301 43.5 -17.5
s16.5 -27.167 16.5 -46.5c0 -44 -13.333 -82.667 -40 -116c-12 -15.333 -25.333 -27.333 -40 -36z" />
    <glyph glyph-name="lcommaaccent" unicode="&#x13c;" horiz-adv-x="250" 
d="M75 0v670l30 30h70v-700h-100zM70 -234c12 9.33301 20.333 16.666 25 21.999c16.667 20.667 25 38.334 25 53.001c-12.667 0 -24.167 5.33301 -34.5 16s-15.5 23.667 -15.5 39s5.16699 28.333 15.5 39s21.833 16 34.5 16c18 0 32.5 -5.83301 43.5 -17.5
s16.5 -27.167 16.5 -46.5c0 -44 -13.333 -82.667 -40 -116c-12 -15.333 -25.333 -27.333 -40 -36z" />
    <glyph glyph-name="Lcaron" unicode="&#x13d;" horiz-adv-x="490" 
d="M90 0v700h100v-630h290v-70h-390zM265 515c12 9.33301 20.333 16.666 25 21.999c16.667 20.667 25 38.334 25 53.001c-12.667 0 -24.167 5.33301 -34.5 16s-15.5 23.667 -15.5 39s5.16699 28.333 15.5 39s21.833 16 34.5 16c18 0 32.5 -5.83301 43.5 -17.5
s16.5 -27.167 16.5 -46.5c0 -44 -13.333 -82.667 -40 -116c-12 -15.333 -25.333 -27.333 -40 -36z" />
    <glyph glyph-name="lcaron" unicode="&#x13e;" horiz-adv-x="365" 
d="M75 0v670l30 30h70v-700h-100zM245 515c12 9.33301 20.333 16.666 25 21.999c16.667 20.667 25 38.334 25 53.001c-12.667 0 -24.167 5.33301 -34.5 16s-15.5 23.667 -15.5 39s5.16699 28.333 15.5 39s21.833 16 34.5 16c18 0 32.5 -5.83301 43.5 -17.5
s16.5 -27.167 16.5 -46.5c0 -44 -13.333 -82.667 -40 -116c-12 -15.333 -25.333 -27.333 -40 -36z" />
    <glyph glyph-name="ldot" unicode="&#x140;" horiz-adv-x="360" 
d="M75 0v670l30 30h70v-700h-100zM247 307c-11.333 11.333 -17 25.666 -17 42.999s5.66699 31.666 17 42.999s25.666 17 42.999 17s31.666 -5.66699 42.999 -17s17 -25.666 17 -42.999s-5.66699 -31.666 -17 -42.999s-25.666 -17 -42.999 -17s-31.666 5.66699 -42.999 17z
" />
    <glyph glyph-name="Lslash" unicode="&#x141;" horiz-adv-x="472" 
d="M82 0v270l-67 -50v110l67 50v320h100v-245l113 85v-110l-113 -85v-275h280v-70h-380z" />
    <glyph glyph-name="lslash" unicode="&#x142;" horiz-adv-x="290" 
d="M85 0v269l-60 -49v110l60 49v291l30 30h70v-241l80 71v-110l-80 -71v-349h-100z" />
    <glyph glyph-name="Nacute" unicode="&#x143;" horiz-adv-x="630" 
d="M90 700h109.999l210 -465c2.66699 -5.33301 4.83398 -10.5 6.50098 -15.5l4.5 -13.5l9 -25l5.5 -17l4.5 -14h4l-2 31c-1.33301 22.667 -2 40.667 -2 54v465h100v-700h-110l-210 465c-6 13.333 -12.667 31.333 -20 54l-4.5 14l-5.5 17h-4l2 -31
c1.33301 -25.333 2 -43.333 2 -54v-465h-100v700zM266.999 740l45 150h110l-90 -150h-65z" />
    <glyph glyph-name="nacute" unicode="&#x144;" horiz-adv-x="545" 
d="M75 500l69.999 -0.000976562l10 -60h5c7.33301 10.667 19 22.334 35 35.001c32.667 23.333 69.334 35 110.001 35c50 0 90.833 -15.833 122.5 -47.5s47.5 -72.5 47.5 -122.5v-340h-100v340c0 28 -8.83301 50.833 -26.5 68.5s-40.5 26.5 -68.5 26.5
c-24.667 0 -49.667 -10 -75 -30c-10.667 -9.33301 -20.667 -19.333 -30 -30v-375h-100v500zM234.999 549.999l45 150h110l-90 -150h-65z" />
    <glyph glyph-name="Ncommaaccent" unicode="&#x145;" horiz-adv-x="630" 
d="M90 700h109.999l210 -465c2.66699 -5.33301 4.83398 -10.5 6.50098 -15.5l4.5 -13.5l9 -25l5.5 -17l4.5 -14h4l-2 31c-1.33301 22.667 -2 40.667 -2 54v465h100v-700h-110l-210 465c-6 13.333 -12.667 31.333 -20 54l-4.5 14l-5.5 17h-4l2 -31
c1.33301 -25.333 2 -43.333 2 -54v-465h-100v700zM259.999 -195c12 9.33301 20.333 16.666 25 21.999c16.667 20.667 25 38.334 25 53.001c-12.667 0 -24.167 5.33301 -34.5 16s-15.5 23.667 -15.5 39s5.16699 28.333 15.5 39s21.833 16 34.5 16
c18 0 32.5 -5.83301 43.5 -17.5s16.5 -27.167 16.5 -46.5c0 -44 -13.333 -82.667 -40 -116c-12 -15.333 -25.333 -27.333 -40 -36z" />
    <glyph glyph-name="ncommaaccent" unicode="&#x146;" horiz-adv-x="545" 
d="M75 500l69.999 -0.000976562l10 -60h5c7.33301 10.667 19 22.334 35 35.001c32.667 23.333 69.334 35 110.001 35c50 0 90.833 -15.833 122.5 -47.5s47.5 -72.5 47.5 -122.5v-340h-100v340c0 28 -8.83301 50.833 -26.5 68.5s-40.5 26.5 -68.5 26.5
c-24.667 0 -49.667 -10 -75 -30c-10.667 -9.33301 -20.667 -19.333 -30 -30v-375h-100v500zM221.999 -195.001c12 9.33301 20.333 16.666 25 21.999c16.667 20.667 25 38.334 25 53.001c-12.667 0 -24.167 5.33301 -34.5 16s-15.5 23.667 -15.5 39s5.16699 28.333 15.5 39
s21.833 16 34.5 16c18 0 32.5 -5.83301 43.5 -17.5s16.5 -27.167 16.5 -46.5c0 -44 -13.333 -82.667 -40 -116c-12 -15.333 -25.333 -27.333 -40 -36z" />
    <glyph glyph-name="Ncaron" unicode="&#x147;" horiz-adv-x="630" 
d="M90 700h109.999l210 -465c2.66699 -5.33301 4.83398 -10.5 6.50098 -15.5l4.5 -13.5l9 -25l5.5 -17l4.5 -14h4l-2 31c-1.33301 22.667 -2 40.667 -2 54v465h100v-700h-110l-210 465c-6 13.333 -12.667 31.333 -20 54l-4.5 14l-5.5 17h-4l2 -31
c1.33301 -25.333 2 -43.333 2 -54v-465h-100v700zM279.999 750l-105 130h65l75 -65l75 65h65l-105 -130h-70z" />
    <glyph glyph-name="ncaron" unicode="&#x148;" horiz-adv-x="545" 
d="M75 500l69.999 -0.000976562l10 -60h5c7.33301 10.667 19 22.334 35 35.001c32.667 23.333 69.334 35 110.001 35c50 0 90.833 -15.833 122.5 -47.5s47.5 -72.5 47.5 -122.5v-340h-100v340c0 28 -8.83301 50.833 -26.5 68.5s-40.5 26.5 -68.5 26.5
c-24.667 0 -49.667 -10 -75 -30c-10.667 -9.33301 -20.667 -19.333 -30 -30v-375h-100v500zM236.999 559.999l-105 130h65l75 -65l75 65h65l-105 -130h-70z" />
    <glyph glyph-name="Omacron" unicode="&#x14c;" horiz-adv-x="600" 
d="M120 76.5c-43.333 57.667 -65 148.834 -65 273.501s21.667 215.834 65 273.501s103.333 86.5 180 86.5s136.667 -28.833 180 -86.5s65 -148.834 65 -273.501s-21.667 -215.834 -65 -273.501s-103.333 -86.5 -180 -86.5s-136.667 28.833 -180 86.5zM404 128.5
c27.333 45.667 41 119.5 41 221.5s-13.667 175.833 -41 221.5s-62 68.5 -104 68.5s-76.667 -22.833 -104 -68.5s-41 -119.5 -41 -221.5s13.667 -175.833 41 -221.5s62 -68.5 104 -68.5s76.667 22.833 104 68.5zM165 790v70h270v-70h-270z" />
    <glyph glyph-name="omacron" unicode="&#x14d;" horiz-adv-x="530" 
d="M107 56c-38 44 -57 108.667 -57 194s19 150 57 194s90.667 66 158 66c66.667 0 119.167 -22 157.5 -66s57.5 -108.667 57.5 -194s-19.167 -150 -57.5 -194s-90.833 -66 -157.5 -66c-67.333 0 -120 22 -158 66zM348.5 105.5c21 30.333 31.5 78.5 31.5 144.5
s-10.5 114.167 -31.5 144.5s-48.833 45.5 -83.5 45.5s-62.5 -15.167 -83.5 -45.5s-31.5 -78.5 -31.5 -144.5s10.5 -114.167 31.5 -144.5s48.833 -45.5 83.5 -45.5s62.5 15.167 83.5 45.5zM130 590v70h270v-70h-270z" />
    <glyph glyph-name="Ohungarumlaut" unicode="&#x150;" horiz-adv-x="600" 
d="M120 76.5c-43.333 57.667 -65 148.834 -65 273.501s21.667 215.834 65 273.501s103.333 86.5 180 86.5s136.667 -28.833 180 -86.5s65 -148.834 65 -273.501s-21.667 -215.834 -65 -273.501s-103.333 -86.5 -180 -86.5s-136.667 28.833 -180 86.5zM404 128.5
c27.333 45.667 41 119.5 41 221.5s-13.667 175.833 -41 221.5s-62 68.5 -104 68.5s-76.667 -22.833 -104 -68.5s-41 -119.5 -41 -221.5s13.667 -175.833 41 -221.5s62 -68.5 104 -68.5s76.667 22.833 104 68.5zM202 750l45 150h95l-85 -150h-55zM337 750l45 150h95l-85 -150
h-55z" />
    <glyph glyph-name="ohungarumlaut" unicode="&#x151;" horiz-adv-x="530" 
d="M107 56c-38 44 -57 108.667 -57 194s19 150 57 194s90.667 66 158 66c66.667 0 119.167 -22 157.5 -66s57.5 -108.667 57.5 -194s-19.167 -150 -57.5 -194s-90.833 -66 -157.5 -66c-67.333 0 -120 22 -158 66zM348.5 105.5c21 30.333 31.5 78.5 31.5 144.5
s-10.5 114.167 -31.5 144.5s-48.833 45.5 -83.5 45.5s-62.5 -15.167 -83.5 -45.5s-31.5 -78.5 -31.5 -144.5s10.5 -114.167 31.5 -144.5s48.833 -45.5 83.5 -45.5s62.5 15.167 83.5 45.5zM157 550l45 150h95l-85 -150h-55zM292 550l45 150h95l-85 -150h-55z" />
    <glyph glyph-name="OE" unicode="&#x152;" horiz-adv-x="815" 
d="M127 83c-48 55.333 -72 144.333 -72 267s24 211.667 72 267s120.667 83 218 83h440v-70h-290v-230h230v-70h-230v-260h290v-70h-440c-97.333 0 -170 27.667 -218 83zM395 70v560h-50c-63.333 0 -110.833 -21.333 -142.5 -64s-47.5 -114.667 -47.5 -216
s15.833 -173.333 47.5 -216s79.167 -64 142.5 -64h50z" />
    <glyph glyph-name="oe" unicode="&#x153;" horiz-adv-x="820" 
d="M106.5 56c-37.667 44 -56.5 108.667 -56.5 194s18.833 150 56.5 194s88.834 66 153.501 66c65.333 0 118.666 -26.667 159.999 -80c41.333 53.333 93 80 155 80c60 0 108.333 -22.167 145 -66.5s55 -108.833 55 -193.5v-15l-20 -20h-280
c0 -50.667 10.833 -89.167 32.5 -115.5s50.834 -39.5 87.501 -39.5c24.667 0 50.334 7.33301 77.001 22c14 8 25 15.667 33 23h10l35 -60c-12 -10 -27 -19.333 -45 -28c-34.667 -18 -74.667 -27 -120 -27c-33.333 0 -64.333 6.66699 -93 20s-52.334 33.333 -71.001 60
c-18 -27.333 -39.833 -47.5 -65.5 -60.5s-57.5 -19.5 -95.5 -19.5c-64.667 0 -115.834 22 -153.501 66zM338 103c20 28.667 30.667 73.999 32 135.999v21c-1.33301 62.667 -12 108.334 -32 137.001s-46 43 -78 43c-33.333 0 -60 -15.167 -80 -45.5s-30 -78.5 -30 -144.5
s10 -114.167 30 -144.5s46.667 -45.5 80 -45.5c32 0 58 14.333 78 43zM675 284.999c0 52 -9.33301 90.833 -28 116.5s-42.667 38.5 -72 38.5s-53.333 -12.833 -72 -38.5s-28 -64.5 -28 -116.5h200z" />
    <glyph glyph-name="Racute" unicode="&#x154;" horiz-adv-x="575" 
d="M90 700h170c84 0 146.667 -18.667 188 -56s62 -92 62 -164c0 -106.667 -45.667 -175 -137 -205l167 -275h-115l-155 260h-80v-260h-100v700zM260 330c100 0 150 50 150 150s-50 150 -150 150h-70v-300h70zM235 750l45 150h110l-90 -150h-65z" />
    <glyph glyph-name="racute" unicode="&#x155;" horiz-adv-x="365" 
d="M75 500l70.0039 -0.000976562l10 -60h5c6.66699 10 18 21.667 34 35c31.333 23.333 66.666 35 105.999 35c17.333 0 32.666 -1.66699 45.999 -5l19 -5l-15 -80h-10c-4.66699 0.666992 -11.667 2.33398 -21 5.00098c-14.667 3.33301 -29.334 5 -44.001 5
c-22 0 -45.667 -10 -71 -30c-8.66699 -7.33301 -18.334 -17.333 -29.001 -30v-370h-100v500zM172.004 549.999l45 150h110l-90 -150h-65z" />
    <glyph glyph-name="Rcommaaccent" unicode="&#x156;" horiz-adv-x="575" 
d="M90 700h170c84 0 146.667 -18.667 188 -56s62 -92 62 -164c0 -106.667 -45.667 -175 -137 -205l167 -275h-115l-155 260h-80v-260h-100v700zM260 330c100 0 150 50 150 150s-50 150 -150 150h-70v-300h70zM237 -195c12 9.33301 20.333 16.666 25 21.999
c16.667 20.667 25 38.334 25 53.001c-12.667 0 -24.167 5.33301 -34.5 16s-15.5 23.667 -15.5 39s5.16699 28.333 15.5 39s21.833 16 34.5 16c18 0 32.5 -5.83301 43.5 -17.5s16.5 -27.167 16.5 -46.5c0 -44 -13.333 -82.667 -40 -116c-12 -15.333 -25.333 -27.333 -40 -36z
" />
    <glyph glyph-name="rcommaaccent" unicode="&#x157;" horiz-adv-x="365" 
d="M75 500l70.0039 -0.000976562l10 -60h5c6.66699 10 18 21.667 34 35c31.333 23.333 66.666 35 105.999 35c17.333 0 32.666 -1.66699 45.999 -5l19 -5l-15 -80h-10c-4.66699 0.666992 -11.667 2.33398 -21 5.00098c-14.667 3.33301 -29.334 5 -44.001 5
c-22 0 -45.667 -10 -71 -30c-8.66699 -7.33301 -18.334 -17.333 -29.001 -30v-370h-100v500zM70.0039 -234.001c12 9.33301 20.333 16.666 25 21.999c16.667 20.667 25 38.334 25 53.001c-12.667 0 -24.167 5.33301 -34.5 16s-15.5 23.667 -15.5 39s5.16699 28.333 15.5 39
s21.833 16 34.5 16c18 0 32.5 -5.83301 43.5 -17.5s16.5 -27.167 16.5 -46.5c0 -44 -13.333 -82.667 -40 -116c-12 -15.333 -25.333 -27.333 -40 -36z" />
    <glyph glyph-name="Rcaron" unicode="&#x158;" horiz-adv-x="575" 
d="M90 700h170c84 0 146.667 -18.667 188 -56s62 -92 62 -164c0 -106.667 -45.667 -175 -137 -205l167 -275h-115l-155 260h-80v-260h-100v700zM260 330c100 0 150 50 150 150s-50 150 -150 150h-70v-300h70zM237 760l-105 130h65l75 -65l75 65h65l-105 -130h-70z" />
    <glyph glyph-name="rcaron" unicode="&#x159;" horiz-adv-x="380" 
d="M75 500l70.0039 -0.000976562l10 -60h5c6.66699 10 18 21.667 34 35c31.333 23.333 66.666 35 105.999 35c17.333 0 32.666 -1.66699 45.999 -5l19 -5l-15 -80h-10c-4.66699 0.666992 -11.667 2.33398 -21 5.00098c-14.667 3.33301 -29.334 5 -44.001 5
c-22 0 -45.667 -10 -71 -30c-8.66699 -7.33301 -18.334 -17.333 -29.001 -30v-370h-100v500zM195.004 559.999l-105 130h65l75 -65l75 65h65l-105 -130h-70z" />
    <glyph glyph-name="Sacute" unicode="&#x15a;" horiz-adv-x="505" 
d="M89 17c-22 8.66699 -40.001 18 -54.001 28l35 60h10c9.33301 -6.66699 23 -14.334 41 -23.001c36 -14.667 72.333 -22 109 -22c44.667 0 79.167 10.833 103.5 32.5s36.5 50.834 36.5 87.501c0 23.333 -6.33301 43.166 -19 59.499s-28.334 29.833 -47.001 40.5
s-44.334 23.667 -77.001 39c-39.333 17.333 -71 33.5 -95 48.5s-44.5 35 -61.5 60s-25.5 55.833 -25.5 92.5s8.5 69.334 25.5 98.001s41.333 51.167 73 67.5s68.834 24.5 111.501 24.5c56 0 104.667 -9.33301 146 -28c18 -7.33301 34.333 -16.333 49 -27l-35 -60h-10
c-8.66699 7.33301 -20.667 14.666 -36 21.999c-33.333 15.333 -68 23 -104 23c-34 0 -62.5 -10.833 -85.5 -32.5s-34.5 -47.5 -34.5 -77.5c0 -23.333 6.33301 -43.166 19 -59.499s28.334 -29.833 47.001 -40.5s44.334 -23.667 77.001 -39c39.333 -17.333 71 -33.5 95 -48.5
s44.5 -35 61.5 -60s25.5 -55.833 25.5 -92.5c0 -61.333 -20 -110 -60 -146s-96.667 -54 -170 -54c-58.667 0 -109 9 -151 27zM214.999 750l45 150h110l-90 -150h-65z" />
    <glyph glyph-name="sacute" unicode="&#x15b;" horiz-adv-x="460" 
d="M82 17c-19.333 8.66699 -35.001 18.001 -47.001 28.001l35 60h10c7.33301 -6.66699 19 -14.334 35 -23.001c30.667 -14.667 62.334 -22 95.001 -22c40 0 69.167 6.33301 87.5 19s27.5 29.667 27.5 51c0 22 -9.5 38.667 -28.5 50s-48.5 23.666 -88.5 36.999
c-35.333 12 -63.666 23 -84.999 33s-39.666 24.333 -54.999 43s-23 42.667 -23 72c0 44.667 15.833 80 47.5 106s79.167 39 142.5 39c47.333 0 90.333 -9.33301 129 -28c18.667 -8.66699 34 -17.667 46 -27l-35 -60h-10c-10 7.33301 -21.333 14.666 -34 21.999
c-29.333 15.333 -58 23 -86 23c-33.333 0 -58.333 -6.16699 -75 -18.5s-25 -27.833 -25 -46.5c0 -22 9.5 -38.667 28.5 -50s48.5 -23.666 88.5 -36.999c35.333 -12 63.666 -23 84.999 -33s39.666 -24.333 54.999 -43s23 -42.667 23 -72
c0 -47.333 -16.667 -84.166 -50 -110.499s-85 -39.5 -155 -39.5c-54.667 0 -100.667 9 -138 27zM181.999 550.001l45 150h110l-90 -150h-65z" />
    <glyph glyph-name="Scedilla" unicode="&#x15e;" horiz-adv-x="505" 
d="M415.5 48.5c-36.333 -35.667 -88.166 -55.166 -155.499 -58.499v-20c27.333 0 49.166 -7.5 65.499 -22.5s24.5 -34.167 24.5 -57.5s-8.5 -42.5 -25.5 -57.5s-40.167 -22.5 -69.5 -22.5c-19.333 0 -39 3.33301 -59 10c-9.33301 3.33301 -16.333 6.66602 -21 9.99902l16 40
h9c0.666992 -0.666992 3 -2.16699 7 -4.5s9.5 -4.66602 16.5 -6.99902s14.167 -3.5 21.5 -3.5c12 0 21.667 3.33301 29 10s11 15 11 25c0 10.667 -3.83301 19.167 -11.5 25.5s-18.834 9.5 -33.501 9.5h-40v67c-42.667 2.66699 -79.667 11 -111 25c-22 8.66699 -40 18 -54 28
l35 60h10c9.33301 -6.66699 23 -14.334 41 -23.001c36 -14.667 72.333 -22 109 -22c44.667 0 79.167 10.833 103.5 32.5s36.5 50.834 36.5 87.501c0 23.333 -6.33301 43.166 -19 59.499s-28.334 29.833 -47.001 40.5s-44.334 23.667 -77.001 39
c-39.333 17.333 -71 33.5 -95 48.5s-44.5 35 -61.5 60s-25.5 55.833 -25.5 92.5s8.5 69.334 25.5 98.001s41.333 51.167 73 67.5s68.834 24.5 111.501 24.5c56 0 104.667 -9.33301 146 -28c18 -7.33301 34.333 -16.333 49 -27l-35 -60h-10
c-8.66699 7.33301 -20.667 14.666 -36 21.999c-33.333 15.333 -68 23 -104 23c-34 0 -62.5 -10.833 -85.5 -32.5s-34.5 -47.5 -34.5 -77.5c0 -23.333 6.33301 -43.166 19 -59.499s28.334 -29.833 47.001 -40.5s44.334 -23.667 77.001 -39c39.333 -17.333 71 -33.5 95 -48.5
s44.5 -35 61.5 -60s25.5 -55.833 25.5 -92.5c0 -58.667 -18.167 -105.834 -54.5 -141.501z" />
    <glyph glyph-name="scedilla" unicode="&#x15f;" horiz-adv-x="460" 
d="M381.5 35c-29 -26 -73.832 -40.665 -134.499 -43.998v-21c27.333 0 49.166 -7.5 65.499 -22.5s24.5 -34.167 24.5 -57.5s-8.5 -42.5 -25.5 -57.5s-40.167 -22.5 -69.5 -22.5c-19.333 0 -39 3.33301 -59 10c-9.33301 3.33301 -16.333 6.66602 -21 9.99902l16 40h9
c0.666992 -0.666992 3 -2.16699 7 -4.5s9.5 -4.66602 16.5 -6.99902s14.167 -3.5 21.5 -3.5c12 0 21.667 3.33301 29 10s11 15 11 25c0 10.667 -3.83301 19.167 -11.5 25.5s-18.834 9.5 -33.501 9.5h-40v66c-42 4 -77 12.667 -105 26c-19.333 8.66699 -35 18 -47 28l35 60
h10c7.33301 -6.66699 19 -14.334 35 -23.001c30.667 -14.667 62.334 -22 95.001 -22c40 0 69.167 6.33301 87.5 19s27.5 29.667 27.5 51c0 22 -9.5 38.667 -28.5 50s-48.5 23.666 -88.5 36.999c-35.333 12 -63.666 23 -84.999 33s-39.666 24.333 -54.999 43
s-23 42.667 -23 72c0 44.667 15.833 80 47.5 106s79.167 39 142.5 39c47.333 0 90.333 -9.33301 129 -28c18.667 -8.66699 34 -17.667 46 -27l-35 -60h-10c-10 7.33301 -21.333 14.666 -34 21.999c-29.333 15.333 -58 23 -86 23c-33.333 0 -58.333 -6.16699 -75 -18.5
s-25 -27.833 -25 -46.5c0 -22 9.5 -38.667 28.5 -50s48.5 -23.666 88.5 -36.999c35.333 -12 63.666 -23 84.999 -33s39.666 -24.333 54.999 -43s23 -42.667 23 -72c0 -44 -14.5 -79 -43.5 -105z" />
    <glyph glyph-name="Scaron" unicode="&#x160;" horiz-adv-x="505" 
d="M89 17c-22 8.66699 -40.001 18 -54.001 28l35 60h10c9.33301 -6.66699 23 -14.334 41 -23.001c36 -14.667 72.333 -22 109 -22c44.667 0 79.167 10.833 103.5 32.5s36.5 50.834 36.5 87.501c0 23.333 -6.33301 43.166 -19 59.499s-28.334 29.833 -47.001 40.5
s-44.334 23.667 -77.001 39c-39.333 17.333 -71 33.5 -95 48.5s-44.5 35 -61.5 60s-25.5 55.833 -25.5 92.5s8.5 69.334 25.5 98.001s41.333 51.167 73 67.5s68.834 24.5 111.501 24.5c56 0 104.667 -9.33301 146 -28c18 -7.33301 34.333 -16.333 49 -27l-35 -60h-10
c-8.66699 7.33301 -20.667 14.666 -36 21.999c-33.333 15.333 -68 23 -104 23c-34 0 -62.5 -10.833 -85.5 -32.5s-34.5 -47.5 -34.5 -77.5c0 -23.333 6.33301 -43.166 19 -59.499s28.334 -29.833 47.001 -40.5s44.334 -23.667 77.001 -39c39.333 -17.333 71 -33.5 95 -48.5
s44.5 -35 61.5 -60s25.5 -55.833 25.5 -92.5c0 -61.333 -20 -110 -60 -146s-96.667 -54 -170 -54c-58.667 0 -109 9 -151 27zM216.999 760l-105 130h65l75 -65l75 65h65l-105 -130h-70z" />
    <glyph glyph-name="scaron" unicode="&#x161;" horiz-adv-x="460" 
d="M82 17c-19.333 8.66699 -35.001 18.001 -47.001 28.001l35 60h10c7.33301 -6.66699 19 -14.334 35 -23.001c30.667 -14.667 62.334 -22 95.001 -22c40 0 69.167 6.33301 87.5 19s27.5 29.667 27.5 51c0 22 -9.5 38.667 -28.5 50s-48.5 23.666 -88.5 36.999
c-35.333 12 -63.666 23 -84.999 33s-39.666 24.333 -54.999 43s-23 42.667 -23 72c0 44.667 15.833 80 47.5 106s79.167 39 142.5 39c47.333 0 90.333 -9.33301 129 -28c18.667 -8.66699 34 -17.667 46 -27l-35 -60h-10c-10 7.33301 -21.333 14.666 -34 21.999
c-29.333 15.333 -58 23 -86 23c-33.333 0 -58.333 -6.16699 -75 -18.5s-25 -27.833 -25 -46.5c0 -22 9.5 -38.667 28.5 -50s48.5 -23.666 88.5 -36.999c35.333 -12 63.666 -23 84.999 -33s39.666 -24.333 54.999 -43s23 -42.667 23 -72
c0 -47.333 -16.667 -84.166 -50 -110.499s-85 -39.5 -155 -39.5c-54.667 0 -100.667 9 -138 27zM194.999 560.001l-105 130h65l75 -65l75 65h65l-105 -130h-70z" />
    <glyph glyph-name="Tcaron" unicode="&#x164;" horiz-adv-x="480" 
d="M190 0v630h-180v70h460v-70h-180v-630h-100zM205 760l-105 130h65l75 -65l75 65h65l-105 -130h-70z" />
    <glyph glyph-name="tcaron" unicode="&#x165;" horiz-adv-x="480" 
d="M140 34c-30 29.333 -45 67.998 -45 115.998v280h-75v60l130 130h45v-120h125v-70h-125v-280c0 -29.333 6.66699 -51.666 20 -66.999s31.666 -23 54.999 -23c20 0 39.667 6.66699 59 20c8.66699 6 17.334 12.667 26.001 20h10l35 -60
c-14.667 -11.333 -28 -19.666 -40 -24.999c-32 -16.667 -65.333 -25 -100 -25c-50 0 -90 14.667 -120 44zM360 434.998c12 9.33301 20.333 16.666 25 21.999c16.667 20.667 25 38.334 25 53.001c-12.667 0 -24.167 5.33301 -34.5 16s-15.5 23.667 -15.5 39
s5.16699 28.333 15.5 39s21.833 16 34.5 16c18 0 32.5 -5.83301 43.5 -17.5s16.5 -27.167 16.5 -46.5c0 -44 -13.333 -82.667 -40 -116c-12 -15.333 -25.333 -27.333 -40 -36z" />
    <glyph glyph-name="Umacron" unicode="&#x16a;" horiz-adv-x="620" 
d="M143 48.5c-38.667 39 -57.998 96.167 -57.998 171.5v480h100v-480c0 -54 11 -94.167 33 -120.5s52.667 -39.5 92 -39.5s70 13.167 92 39.5s33 66.5 33 120.5v480h100v-480c0 -75.333 -19.333 -132.5 -58 -171.5s-94.334 -58.5 -167.001 -58.5
s-128.334 19.5 -167.001 58.5zM175.002 780v70h270v-70h-270z" />
    <glyph glyph-name="umacron" unicode="&#x16b;" horiz-adv-x="550" 
d="M122.5 37.5c-31.667 31.667 -47.5 72.5 -47.5 122.5v340h100v-340c0 -28 8.83301 -50.833 26.5 -68.5s40.5 -26.5 68.5 -26.5c24.667 0 49.667 10 75 30c10.667 8.66699 20.667 18.667 30 30v375h100v-500h-70l-10 60h-5c-9.33301 -13.333 -21 -25 -35 -35
c-29.333 -23.333 -66 -35 -110 -35c-50 0 -90.833 15.833 -122.5 47.5zM140 581v70h270v-70h-270z" />
    <glyph glyph-name="Uring" unicode="&#x16e;" horiz-adv-x="620" 
d="M143 48.5c-38.667 39 -57.998 96.167 -57.998 171.5v480h100v-480c0 -54 11 -94.167 33 -120.5s52.667 -39.5 92 -39.5s70 13.167 92 39.5s33 66.5 33 120.5v480h100v-480c0 -75.333 -19.333 -132.5 -58 -171.5s-94.334 -58.5 -167.001 -58.5
s-128.334 19.5 -167.001 58.5zM237.502 756.5c-18.333 17.667 -27.5 40.5 -27.5 68.5s9.16699 50.833 27.5 68.5s42.5 26.5 72.5 26.5s54.167 -8.83301 72.5 -26.5s27.5 -40.5 27.5 -68.5s-9.16699 -50.833 -27.5 -68.5s-42.5 -26.5 -72.5 -26.5s-54.167 8.83301 -72.5 26.5
zM338.002 791.5c8 7.66699 12 18.834 12 33.501s-4 25.834 -12 33.501s-17.333 11.5 -28 11.5s-20 -3.83301 -28 -11.5s-12 -18.834 -12 -33.501s4 -25.834 12 -33.501s17.333 -11.5 28 -11.5s20 3.83301 28 11.5z" />
    <glyph glyph-name="uring" unicode="&#x16f;" horiz-adv-x="550" 
d="M122.5 37.5c-31.667 31.667 -47.5 72.5 -47.5 122.5v340h100v-340c0 -28 8.83301 -50.833 26.5 -68.5s40.5 -26.5 68.5 -26.5c24.667 0 49.667 10 75 30c10.667 8.66699 20.667 18.667 30 30v375h100v-500h-70l-10 60h-5c-9.33301 -13.333 -21 -25 -35 -35
c-29.333 -23.333 -66 -35 -110 -35c-50 0 -90.833 15.833 -122.5 47.5zM202.5 576.5c-18.333 17.667 -27.5 40.5 -27.5 68.5s9.16699 50.833 27.5 68.5s42.5 26.5 72.5 26.5s54.167 -8.83301 72.5 -26.5s27.5 -40.5 27.5 -68.5s-9.16699 -50.833 -27.5 -68.5
s-42.5 -26.5 -72.5 -26.5s-54.167 8.83301 -72.5 26.5zM303 611.5c8 7.66699 12 18.834 12 33.501s-4 25.834 -12 33.501s-17.333 11.5 -28 11.5s-20 -3.83301 -28 -11.5s-12 -18.834 -12 -33.501s4 -25.834 12 -33.501s17.333 -11.5 28 -11.5s20 3.83301 28 11.5z" />
    <glyph glyph-name="Uhungarumlaut" unicode="&#x170;" horiz-adv-x="620" 
d="M143 48.5c-38.667 39 -57.998 96.167 -57.998 171.5v480h100v-480c0 -54 11 -94.167 33 -120.5s52.667 -39.5 92 -39.5s70 13.167 92 39.5s33 66.5 33 120.5v480h100v-480c0 -75.333 -19.333 -132.5 -58 -171.5s-94.334 -58.5 -167.001 -58.5
s-128.334 19.5 -167.001 58.5zM212.002 740l45 150h95l-85 -150h-55zM347.002 740l45 150h95l-85 -150h-55z" />
    <glyph glyph-name="uhungarumlaut" unicode="&#x171;" horiz-adv-x="550" 
d="M122.5 37.5c-31.667 31.667 -47.5 72.5 -47.5 122.5v340h100v-340c0 -28 8.83301 -50.833 26.5 -68.5s40.5 -26.5 68.5 -26.5c24.667 0 49.667 10 75 30c10.667 8.66699 20.667 18.667 30 30v375h100v-500h-70l-10 60h-5c-9.33301 -13.333 -21 -25 -35 -35
c-29.333 -23.333 -66 -35 -110 -35c-50 0 -90.833 15.833 -122.5 47.5zM177 541l45 150h95l-85 -150h-55zM312 541l45 150h95l-85 -150h-55z" />
    <glyph glyph-name="Uogonek" unicode="&#x172;" horiz-adv-x="620" 
d="M535 700l0.000976562 -479.999c0 -70 -16.5 -124.333 -49.5 -163s-80.833 -60.667 -143.5 -66c-5.33301 -4 -9.33301 -7.33301 -12 -10c-16.667 -15.333 -25 -30.666 -25 -45.999c0 -10 3.33301 -18.333 10 -25s15 -10 25 -10c8.66699 0 17.167 1.66699 25.5 5
s15.166 6.66602 20.499 9.99902s8.66602 5.66602 9.99902 6.99902h9v-52c-7.33301 -6 -14.333 -10.333 -21 -13c-17.333 -8 -37 -12 -59 -12c-29.333 0 -51.666 6.66699 -66.999 20s-23 31.666 -23 54.999c0 18.667 8.33301 37.667 25 57c4 4.66699 9 9.66699 15 15
c-62 6 -109.167 28.333 -141.5 67s-48.5 92.334 -48.5 161.001v480h100v-480c0 -54 11 -94.167 33 -120.5s52.667 -39.5 92 -39.5s70 13.167 92 39.5s33 66.5 33 120.5v480h100z" />
    <glyph glyph-name="uogonek" unicode="&#x173;" horiz-adv-x="545" 
d="M530 -78l0.000976562 -51.998c-7.33301 -6 -14.333 -10.333 -21 -13c-17.333 -8 -37 -12 -59 -12c-29.333 0 -51.666 6.66699 -66.999 20s-23 31.666 -23 54.999c0 18.667 8.33301 37.667 25 57c6.66699 7.33301 15 15 25 23h-5l-10 60h-5
c-9.33301 -13.333 -21 -25 -35 -35c-29.333 -23.333 -66 -35 -110 -35c-50 0 -90.833 15.833 -122.5 47.5s-47.5 72.5 -47.5 122.5v340h100v-340c0 -28 8.83301 -50.833 26.5 -68.5s40.5 -26.5 68.5 -26.5c24.667 0 49.667 10 75 30c10.667 8.66699 20.667 18.667 30 30v375
h100v-500h5c-8.66699 -4.66699 -17 -11 -25 -19c-16.667 -15.333 -25 -30.666 -25 -45.999c0 -10 3.33301 -18.333 10 -25s15 -10 25 -10c8.66699 0 17.167 1.66699 25.5 5s15.166 6.66602 20.499 9.99902s8.66602 5.66602 9.99902 6.99902h9z" />
    <glyph glyph-name="Ydieresis" unicode="&#x178;" horiz-adv-x="530" 
d="M215 230l-215.002 470h105l145 -335c6 -16 10.333 -29 13 -39c2.66699 -9.33301 4.33398 -16.333 5.00098 -21h4c0.666992 4.66699 2.33398 11.667 5.00098 21c4.66699 18.667 9 31.667 13 39l150 335h90l-215 -470v-230h-100v230zM135.498 780.5
c-10.333 10.333 -15.5 23.5 -15.5 39.5s5.16699 29.167 15.5 39.5s23.5 15.5 39.5 15.5s29.167 -5.16699 39.5 -15.5s15.5 -23.5 15.5 -39.5s-5.16699 -29.167 -15.5 -39.5s-23.5 -15.5 -39.5 -15.5s-29.167 5.16699 -39.5 15.5zM310.498 780.5
c-10.333 10.333 -15.5 23.5 -15.5 39.5s5.16699 29.167 15.5 39.5s23.5 15.5 39.5 15.5s29.167 -5.16699 39.5 -15.5s15.5 -23.5 15.5 -39.5s-5.16699 -29.167 -15.5 -39.5s-23.5 -15.5 -39.5 -15.5s-29.167 5.16699 -39.5 15.5z" />
    <glyph glyph-name="Zacute" unicode="&#x179;" horiz-adv-x="485" 
d="M25 0v75l310 555h-310v70h430v-75l-310 -555h315v-70h-435zM195 750l45 150h110l-90 -150h-65z" />
    <glyph glyph-name="zacute" unicode="&#x17a;" horiz-adv-x="440" 
d="M35 0v75l255 355h-255v70h365v-75l-255 -355h260v-70h-370zM172 550l45 150h110l-90 -150h-65z" />
    <glyph glyph-name="Zdotaccent" unicode="&#x17b;" horiz-adv-x="485" 
d="M25 0v75l310 555h-310v70h430v-75l-310 -555h315v-70h-435zM199 777c-11.333 11.333 -17 25.666 -17 42.999s5.66699 31.666 17 42.999s25.666 17 42.999 17s31.666 -5.66699 42.999 -17s17 -25.666 17 -42.999s-5.66699 -31.666 -17 -42.999s-25.666 -17 -42.999 -17
s-31.666 5.66699 -42.999 17z" />
    <glyph glyph-name="zdotaccent" unicode="&#x17c;" horiz-adv-x="440" 
d="M35 0v75l255 355h-255v70h365v-75l-255 -355h260v-70h-370zM177 577c-11.333 11.333 -17 25.666 -17 42.999s5.66699 31.666 17 42.999s25.666 17 42.999 17s31.666 -5.66699 42.999 -17s17 -25.666 17 -42.999s-5.66699 -31.666 -17 -42.999s-25.666 -17 -42.999 -17
s-31.666 5.66699 -42.999 17z" />
    <glyph glyph-name="Zcaron" unicode="&#x17d;" horiz-adv-x="485" 
d="M25 0v75l310 555h-310v70h430v-75l-310 -555h315v-70h-435zM207 760l-105 130h65l75 -65l75 65h65l-105 -130h-70z" />
    <glyph glyph-name="zcaron" unicode="&#x17e;" horiz-adv-x="440" 
d="M35 0v75l255 355h-255v70h365v-75l-255 -355h260v-70h-370zM185 560l-105 130h65l75 -65l75 65h65l-105 -130h-70z" />
    <glyph glyph-name="florin" unicode="&#x192;" horiz-adv-x="391" 
d="M-64 -185c-10.667 4 -19.3359 9.00098 -26.0029 15.001l31 65h10c6.66699 -6.66699 11.667 -11 15 -13c10 -8 22 -12 36 -12c24 0 43 7.66699 57 23s22.333 37.666 25 66.999l43 470h-65l6 70h65l4 50c4 49.333 21.667 88.333 53 117s73.333 43 126 43
c38 0 72 -9.33301 102 -28c14.667 -8.66699 27.334 -17.667 38.001 -27l-41 -60h-10c-5.33301 5.33301 -14 12.666 -26 21.999c-22 15.333 -41.667 23 -59 23c-23.333 0 -42.5 -7.66699 -57.5 -23s-23.5 -37.666 -25.5 -66.999l-4 -50h135l-6 -70h-135l-43 -470
c-4.66699 -48.667 -22.667 -87.5 -54 -116.5s-72.666 -43.5 -123.999 -43.5c-25.333 0 -48.666 5 -69.999 15z" />
    <glyph glyph-name="Scommaaccent" unicode="&#x218;" horiz-adv-x="505" 
d="M89 17c-22 8.66699 -40.001 18 -54.001 28l35 60h10c9.33301 -6.66699 23 -14.334 41 -23.001c36 -14.667 72.333 -22 109 -22c44.667 0 79.167 10.833 103.5 32.5s36.5 50.834 36.5 87.501c0 23.333 -6.33301 43.166 -19 59.499s-28.334 29.833 -47.001 40.5
s-44.334 23.667 -77.001 39c-39.333 17.333 -71 33.5 -95 48.5s-44.5 35 -61.5 60s-25.5 55.833 -25.5 92.5s8.5 69.334 25.5 98.001s41.333 51.167 73 67.5s68.834 24.5 111.501 24.5c56 0 104.667 -9.33301 146 -28c18 -7.33301 34.333 -16.333 49 -27l-35 -60h-10
c-8.66699 7.33301 -20.667 14.666 -36 21.999c-33.333 15.333 -68 23 -104 23c-34 0 -62.5 -10.833 -85.5 -32.5s-34.5 -47.5 -34.5 -77.5c0 -23.333 6.33301 -43.166 19 -59.499s28.334 -29.833 47.001 -40.5s44.334 -23.667 77.001 -39c39.333 -17.333 71 -33.5 95 -48.5
s44.5 -35 61.5 -60s25.5 -55.833 25.5 -92.5c0 -61.333 -20 -110 -60 -146s-96.667 -54 -170 -54c-58.667 0 -109 9 -151 27zM204.999 -239c12 9.33301 20.333 16.666 25 21.999c16.667 20.667 25 38.334 25 53.001c-12.667 0 -24.167 5.33301 -34.5 16
s-15.5 23.667 -15.5 39s5.16699 28.333 15.5 39s21.833 16 34.5 16c18 0 32.5 -5.83301 43.5 -17.5s16.5 -27.167 16.5 -46.5c0 -44 -13.333 -82.667 -40 -116c-12 -15.333 -25.333 -27.333 -40 -36z" />
    <glyph glyph-name="scommaaccent" unicode="&#x219;" horiz-adv-x="460" 
d="M82 17c-19.333 8.66699 -35.001 18.001 -47.001 28.001l35 60h10c7.33301 -6.66699 19 -14.334 35 -23.001c30.667 -14.667 62.334 -22 95.001 -22c40 0 69.167 6.33301 87.5 19s27.5 29.667 27.5 51c0 22 -9.5 38.667 -28.5 50s-48.5 23.666 -88.5 36.999
c-35.333 12 -63.666 23 -84.999 33s-39.666 24.333 -54.999 43s-23 42.667 -23 72c0 44.667 15.833 80 47.5 106s79.167 39 142.5 39c47.333 0 90.333 -9.33301 129 -28c18.667 -8.66699 34 -17.667 46 -27l-35 -60h-10c-10 7.33301 -21.333 14.666 -34 21.999
c-29.333 15.333 -58 23 -86 23c-33.333 0 -58.333 -6.16699 -75 -18.5s-25 -27.833 -25 -46.5c0 -22 9.5 -38.667 28.5 -50s48.5 -23.666 88.5 -36.999c35.333 -12 63.666 -23 84.999 -33s39.666 -24.333 54.999 -43s23 -42.667 23 -72
c0 -47.333 -16.667 -84.166 -50 -110.499s-85 -39.5 -155 -39.5c-54.667 0 -100.667 9 -138 27zM184.999 -238.999c12 9.33301 20.333 16.666 25 21.999c16.667 20.667 25 38.334 25 53.001c-12.667 0 -24.167 5.33301 -34.5 16s-15.5 23.667 -15.5 39
s5.16699 28.333 15.5 39s21.833 16 34.5 16c18 0 32.5 -5.83301 43.5 -17.5s16.5 -27.167 16.5 -46.5c0 -44 -13.333 -82.667 -40 -116c-12 -15.333 -25.333 -27.333 -40 -36z" />
    <glyph glyph-name="uni021A" unicode="&#x21a;" horiz-adv-x="480" 
d="M190 0v630h-180v70h460v-70h-180v-630h-100zM185 -244c12 9.33301 20.333 16.666 25 21.999c16.667 20.667 25 38.334 25 53.001c-12.667 0 -24.167 5.33301 -34.5 16s-15.5 23.667 -15.5 39s5.16699 28.333 15.5 39s21.833 16 34.5 16c18 0 32.5 -5.83301 43.5 -17.5
s16.5 -27.167 16.5 -46.5c0 -44 -13.333 -82.667 -40 -116c-12 -15.333 -25.333 -27.333 -40 -36z" />
    <glyph glyph-name="uni021B" unicode="&#x21b;" horiz-adv-x="400" 
d="M140 34c-30 29.333 -45 67.998 -45 115.998v280h-75v60l130 130h45v-120h125v-70h-125v-280c0 -29.333 6.66699 -51.666 20 -66.999s31.666 -23 54.999 -23c20 0 39.667 6.66699 59 20c8.66699 6 17.334 12.667 26.001 20h10l35 -60
c-14.667 -11.333 -28 -19.666 -40 -24.999c-32 -16.667 -65.333 -25 -100 -25c-50 0 -90 14.667 -120 44zM190 -244.002c12 9.33301 20.333 16.666 25 21.999c16.667 20.667 25 38.334 25 53.001c-12.667 0 -24.167 5.33301 -34.5 16s-15.5 23.667 -15.5 39
s5.16699 28.333 15.5 39s21.833 16 34.5 16c18 0 32.5 -5.83301 43.5 -17.5s16.5 -27.167 16.5 -46.5c0 -44 -13.333 -82.667 -40 -116c-12 -15.333 -25.333 -27.333 -40 -36z" />
    <glyph glyph-name="uni02BC" unicode="&#x2bc;" horiz-adv-x="90" 
d="M-20 565c12 9.33301 20.333 16.666 25 21.999c16.667 20.667 25 38.334 25 53.001c-12.667 0 -24.167 5.33301 -34.5 16s-15.5 23.667 -15.5 39s5.16699 28.333 15.5 39s21.833 16 34.5 16c18 0 32.5 -5.83301 43.5 -17.5s16.5 -27.167 16.5 -46.5
c0 -44 -13.333 -82.667 -40 -116c-12 -15.333 -25.333 -27.333 -40 -36z" />
    <glyph glyph-name="circumflex" unicode="&#x2c6;" horiz-adv-x="320" 
d="M20 560l105 130h70l105 -130h-65l-75 65l-75 -65h-65z" />
    <glyph glyph-name="caron" unicode="&#x2c7;" horiz-adv-x="320" 
d="M125 560l-105 130h65l75 -65l75 65h65l-105 -130h-70z" />
    <glyph glyph-name="breve" unicode="&#x2d8;" horiz-adv-x="320" 
d="M48 594.5c-25.333 23 -38.0039 54.833 -38.0039 95.5h90c0 -24.667 4.83301 -42.5 14.5 -53.5s24.834 -16.5 45.501 -16.5s35.834 5.5 45.501 16.5s14.5 28.833 14.5 53.5h90c0 -40.667 -12.667 -72.5 -38 -95.5s-62.666 -34.5 -111.999 -34.5
s-86.666 11.5 -111.999 34.5z" />
    <glyph glyph-name="dotaccent" unicode="&#x2d9;" horiz-adv-x="140" 
d="M27 577c-11.333 11.333 -17 25.666 -17 42.999s5.66699 31.666 17 42.999s25.666 17 42.999 17s31.666 -5.66699 42.999 -17s17 -25.666 17 -42.999s-5.66699 -31.666 -17 -42.999s-25.666 -17 -42.999 -17s-31.666 5.66699 -42.999 17z" />
    <glyph glyph-name="ring" unicode="&#x2da;" horiz-adv-x="220" 
d="M37.5 566.5c-18.333 17.667 -27.5 40.5 -27.5 68.5s9.16699 50.833 27.5 68.5s42.5 26.5 72.5 26.5s54.167 -8.83301 72.5 -26.5s27.5 -40.5 27.5 -68.5s-9.16699 -50.833 -27.5 -68.5s-42.5 -26.5 -72.5 -26.5s-54.167 8.83301 -72.5 26.5zM138 601.5
c8 7.66699 12 18.834 12 33.501s-4 25.834 -12 33.501s-17.333 11.5 -28 11.5s-20 -3.83301 -28 -11.5s-12 -18.834 -12 -33.501s4 -25.834 12 -33.501s17.333 -11.5 28 -11.5s20 3.83301 28 11.5z" />
    <glyph glyph-name="ogonek" unicode="&#x2db;" horiz-adv-x="190" 
d="M33 -135c-15.333 13.333 -23 31.667 -23 55c0 18.667 8.33301 37.667 25 57c6.66699 7.33301 15 15 25 23h70c-9.33301 -5.33301 -17.666 -11.666 -24.999 -18.999c-16.667 -15.333 -25 -30.666 -25 -45.999c0 -10 3.33301 -18.333 10 -25s15 -10 25 -10
c8.66699 0 17.167 1.66699 25.5 5s15.166 6.66602 20.499 9.99902s8.66602 5.66602 9.99902 6.99902h9v-52c-7.33301 -6 -14.333 -10.333 -21 -13c-17.333 -8 -37 -12 -59 -12c-29.333 0 -51.666 6.66699 -66.999 20z" />
    <glyph glyph-name="tilde" unicode="&#x2dc;" horiz-adv-x="295" 
d="M285 665c-18.667 -56.667 -48.665 -85 -89.998 -85c-12.667 0 -23.167 2.33301 -31.5 7s-16.833 11.334 -25.5 20.001c-1.33301 1.33301 -4.16602 3.83301 -8.49902 7.5s-8.5 6.33398 -12.5 8.00098s-8 2.5 -12 2.5c-8.66699 0 -16.334 -3 -23.001 -9
s-12 -12.167 -16 -18.5s-6.33301 -10.5 -7 -12.5h-9l-40 25c9.33301 26.667 20.833 47.5 34.5 62.5s32.167 22.5 55.5 22.5c12.667 0 23.167 -2.33301 31.5 -7s17.166 -11.334 26.499 -20.001c7.33301 -6.66699 13.166 -11.334 17.499 -14.001s9.5 -4 15.5 -4
c8.66699 0 16.5 3 23.5 9s12.5 12.5 16.5 19.5s5.66699 10.833 5 11.5h9z" />
    <glyph glyph-name="hungarumlaut" unicode="&#x2dd;" horiz-adv-x="295" 
d="M10 550l45 150h95l-85 -150h-55zM145 550l45 150h95l-85 -150h-55z" />
    <glyph glyph-name="gravecomb" unicode="&#x300;" horiz-adv-x="0" 
d="M-75 550l-90 150h110l45 -150h-65z" />
    <glyph glyph-name="acutecomb" unicode="&#x301;" horiz-adv-x="0" 
d="M-165 550l45 150h110l-90 -150h-65z" />
    <glyph glyph-name="uni0302" unicode="&#x302;" horiz-adv-x="0" 
d="M-300 560l105 130h70l105 -130h-65l-75 65l-75 -65h-65z" />
    <glyph glyph-name="tildecomb" unicode="&#x303;" horiz-adv-x="0" 
d="M-10 665c-18.667 -56.667 -48.665 -85 -89.998 -85c-12.667 0 -23.167 2.33301 -31.5 7s-16.833 11.334 -25.5 20.001c-1.33301 1.33301 -4.16602 3.83301 -8.49902 7.5s-8.5 6.33398 -12.5 8.00098s-8 2.5 -12 2.5c-8.66699 0 -16.334 -3 -23.001 -9
s-12 -12.167 -16 -18.5s-6.33301 -10.5 -7 -12.5h-9l-40 25c9.33301 26.667 20.833 47.5 34.5 62.5s32.167 22.5 55.5 22.5c12.667 0 23.167 -2.33301 31.5 -7s17.166 -11.334 26.499 -20.001c7.33301 -6.66699 13.166 -11.334 17.499 -14.001s9.5 -4 15.5 -4
c8.66699 0 16.5 3 23.5 9s12.5 12.5 16.5 19.5s5.66699 10.833 5 11.5h9z" />
    <glyph glyph-name="uni0304" unicode="&#x304;" horiz-adv-x="0" 
d="M-290 590v70h270v-70h-270z" />
    <glyph glyph-name="uni0306" unicode="&#x306;" horiz-adv-x="0" 
d="M-272 594.5c-25.333 23 -38.0039 54.833 -38.0039 95.5h90c0 -24.667 4.83301 -42.5 14.5 -53.5s24.834 -16.5 45.501 -16.5s35.834 5.5 45.501 16.5s14.5 28.833 14.5 53.5h90c0 -40.667 -12.667 -72.5 -38 -95.5s-62.666 -34.5 -111.999 -34.5
s-86.666 11.5 -111.999 34.5z" />
    <glyph glyph-name="uni0307" unicode="&#x307;" horiz-adv-x="0" 
d="M-113 577c-11.333 11.333 -17 25.666 -17 42.999s5.66699 31.666 17 42.999s25.666 17 42.999 17s31.666 -5.66699 42.999 -17s17 -25.666 17 -42.999s-5.66699 -31.666 -17 -42.999s-25.666 -17 -42.999 -17s-31.666 5.66699 -42.999 17z" />
    <glyph glyph-name="uni0308" unicode="&#x308;" horiz-adv-x="0" 
d="M-279.5 580.5c-10.333 10.333 -15.5 23.5 -15.5 39.5s5.16699 29.167 15.5 39.5s23.5 15.5 39.5 15.5s29.167 -5.16699 39.5 -15.5s15.5 -23.5 15.5 -39.5s-5.16699 -29.167 -15.5 -39.5s-23.5 -15.5 -39.5 -15.5s-29.167 5.16699 -39.5 15.5zM-104.5 580.5
c-10.333 10.333 -15.5 23.5 -15.5 39.5s5.16699 29.167 15.5 39.5s23.5 15.5 39.5 15.5s29.167 -5.16699 39.5 -15.5s15.5 -23.5 15.5 -39.5s-5.16699 -29.167 -15.5 -39.5s-23.5 -15.5 -39.5 -15.5s-29.167 5.16699 -39.5 15.5z" />
    <glyph glyph-name="uni030A" unicode="&#x30a;" horiz-adv-x="0" 
d="M-182.5 566.5c-18.333 17.667 -27.5 40.5 -27.5 68.5s9.16699 50.833 27.5 68.5s42.5 26.5 72.5 26.5s54.167 -8.83301 72.5 -26.5s27.5 -40.5 27.5 -68.5s-9.16699 -50.833 -27.5 -68.5s-42.5 -26.5 -72.5 -26.5s-54.167 8.83301 -72.5 26.5zM-82 601.5
c8 7.66699 12 18.834 12 33.501s-4 25.834 -12 33.501s-17.333 11.5 -28 11.5s-20 -3.83301 -28 -11.5s-12 -18.834 -12 -33.501s4 -25.834 12 -33.501s17.333 -11.5 28 -11.5s20 3.83301 28 11.5z" />
    <glyph glyph-name="uni030B" unicode="&#x30b;" horiz-adv-x="0" 
d="M-285 550l45 150h95l-85 -150h-55zM-150 550l45 150h95l-85 -150h-55z" />
    <glyph glyph-name="uni030C" unicode="&#x30c;" horiz-adv-x="0" 
d="M-195 560l-105 130h65l75 -65l75 65h65l-105 -130h-70z" />
    <glyph glyph-name="uni0326" unicode="&#x326;" horiz-adv-x="0" 
d="M-120 -205c12 9.33301 20.333 16.666 25 21.999c16.667 20.667 25 38.334 25 53.001c-12.667 0 -24.167 5.33301 -34.5 16s-15.5 23.667 -15.5 39s5.16699 28.333 15.5 39s21.833 16 34.5 16c18 0 32.5 -5.83301 43.5 -17.5s16.5 -27.167 16.5 -46.5
c0 -44 -13.333 -82.667 -40 -116c-12 -15.333 -25.333 -27.333 -40 -36z" />
    <glyph glyph-name="uni0327" unicode="&#x327;" horiz-adv-x="0" 
d="M-164 -180c-9.33301 3.33301 -16.3311 6.66602 -20.998 9.99902l16 40h9c0.666992 -0.666992 3 -2.16699 7 -4.5s9.5 -4.66602 16.5 -6.99902s14.167 -3.5 21.5 -3.5c12 0 21.667 3.33301 29 10s11 15 11 25c0 10.667 -3.83301 19.167 -11.5 25.5
s-18.834 9.5 -33.501 9.5h-40v95h60v-50c27.333 0 49.166 -7.5 65.499 -22.5s24.5 -34.167 24.5 -57.5s-8.5 -42.5 -25.5 -57.5s-40.167 -22.5 -69.5 -22.5c-19.333 0 -39 3.33301 -59 10z" />
    <glyph glyph-name="uni0328" unicode="&#x328;" horiz-adv-x="0" 
d="M-157 -135c-15.333 13.333 -23 31.667 -23 55c0 18.667 8.33301 37.667 25 57c6.66699 7.33301 15 15 25 23h70c-9.33301 -5.33301 -17.666 -11.666 -24.999 -18.999c-16.667 -15.333 -25 -30.666 -25 -45.999c0 -10 3.33301 -18.333 10 -25s15 -10 25 -10
c8.66699 0 17.167 1.66699 25.5 5s15.166 6.66602 20.499 9.99902s8.66602 5.66602 9.99902 6.99902h9v-52c-7.33301 -6 -14.333 -10.333 -21 -13c-17.333 -8 -37 -12 -59 -12c-29.333 0 -51.666 6.66699 -66.999 20z" />
    <glyph glyph-name="uni0335" unicode="&#x335;" horiz-adv-x="0" 
d="M-370 300v70h280v-70h-280z" />
    <glyph glyph-name="uni0400" unicode="&#x400;" 
d="M90 0v700h390v-70h-290v-230h230v-70h-230v-260h290v-70h-390zM259 750l-90 150h110l45 -150h-65z" />
    <glyph glyph-name="uni0401" unicode="&#x401;" 
d="M90 0v700h390v-70h-290v-230h230v-70h-230v-260h290v-70h-390zM169.5 780.5c-10.333 10.333 -15.5 23.5 -15.5 39.5s5.16699 29.167 15.5 39.5s23.5 15.5 39.5 15.5s29.167 -5.16699 39.5 -15.5s15.5 -23.5 15.5 -39.5s-5.16699 -29.167 -15.5 -39.5
s-23.5 -15.5 -39.5 -15.5s-29.167 5.16699 -39.5 15.5zM344.5 780.5c-10.333 10.333 -15.5 23.5 -15.5 39.5s5.16699 29.167 15.5 39.5s23.5 15.5 39.5 15.5s29.167 -5.16699 39.5 -15.5s15.5 -23.5 15.5 -39.5s-5.16699 -29.167 -15.5 -39.5s-23.5 -15.5 -39.5 -15.5
s-29.167 5.16699 -39.5 15.5z" />
    <glyph glyph-name="uni0402" unicode="&#x402;" horiz-adv-x="640" 
d="M376 -23l-12.498 4.00195l-13.5 4l10 65h10c6.66699 -2.66699 11.667 -4.33398 15 -5.00098c11.333 -3.33301 21.333 -5 30 -5c23.333 0 41.666 7.66699 54.999 23s20 37.666 20 66.999v125c0 38 -12 68.333 -36 91s-57 34 -99 34c-26.667 0 -54 -2.66699 -82 -8l-33 -7
v-365h-100v630h-140v70h420v-70h-180v-195l40 7c33.333 5.33301 66.666 8 99.999 8c64.667 0 115.834 -18 153.501 -54s56.5 -83 56.5 -141v-125c0 -48 -14.333 -86.667 -43 -116s-66 -44 -112 -44c-20.667 0 -40.334 2.33301 -59.001 7z" />
    <glyph glyph-name="uni0403" unicode="&#x403;" horiz-adv-x="490" 
d="M90 0v700h390v-70h-290v-630h-100zM275 750l45 150h110l-90 -150h-65z" />
    <glyph glyph-name="uni0404" unicode="&#x404;" horiz-adv-x="515" 
d="M122.5 76c-45 57.333 -67.502 148.666 -67.502 273.999c0 124.667 22 215.834 66 273.501s105.333 86.5 184 86.5c47.333 0 90.333 -9.33301 129 -28c18.667 -8.66699 34 -17.667 46 -27l-35 -60h-10c-10 7.33301 -21.333 14.666 -34 21.999
c-29.333 15.333 -58 23 -86 23c-98.667 0 -151.667 -83.333 -159 -250h234v-70h-235c2.66699 -92.667 18.834 -159.167 48.501 -199.5s70.167 -60.5 121.5 -60.5c29.333 0 58 7.33301 86 22c14 8 25.333 15.667 34 23h10l35 -60
c-11.333 -9.33301 -26.666 -18.666 -45.999 -27.999c-37.333 -18 -80.333 -27 -129 -27c-83.333 0 -147.5 28.667 -192.5 86z" />
    <glyph glyph-name="uni0405" unicode="&#x405;" horiz-adv-x="505" 
d="M89 17c-22 8.66699 -40.001 18 -54.001 28l35 60h10c9.33301 -6.66699 23 -14.334 41 -23.001c36 -14.667 72.333 -22 109 -22c44.667 0 79.167 10.833 103.5 32.5s36.5 50.834 36.5 87.501c0 23.333 -6.33301 43.166 -19 59.499s-28.334 29.833 -47.001 40.5
s-44.334 23.667 -77.001 39c-39.333 17.333 -71 33.5 -95 48.5s-44.5 35 -61.5 60s-25.5 55.833 -25.5 92.5s8.5 69.334 25.5 98.001s41.333 51.167 73 67.5s68.834 24.5 111.501 24.5c56 0 104.667 -9.33301 146 -28c18 -7.33301 34.333 -16.333 49 -27l-35 -60h-10
c-8.66699 7.33301 -20.667 14.666 -36 21.999c-33.333 15.333 -68 23 -104 23c-34 0 -62.5 -10.833 -85.5 -32.5s-34.5 -47.5 -34.5 -77.5c0 -23.333 6.33301 -43.166 19 -59.499s28.334 -29.833 47.001 -40.5s44.334 -23.667 77.001 -39c39.333 -17.333 71 -33.5 95 -48.5
s44.5 -35 61.5 -60s25.5 -55.833 25.5 -92.5c0 -61.333 -20 -110 -60 -146s-96.667 -54 -170 -54c-58.667 0 -109 9 -151 27z" />
    <glyph glyph-name="uni0406" unicode="&#x406;" horiz-adv-x="280" 
d="M90 0v700h100v-700h-100z" />
    <glyph glyph-name="uni0407" unicode="&#x407;" horiz-adv-x="280" 
d="M90 0v700h100v-700h-100zM12.5 780.5c-10.333 10.333 -15.5 23.5 -15.5 39.5s5.16699 29.167 15.5 39.5s23.5 15.5 39.5 15.5s29.167 -5.16699 39.5 -15.5s15.5 -23.5 15.5 -39.5s-5.16699 -29.167 -15.5 -39.5s-23.5 -15.5 -39.5 -15.5s-29.167 5.16699 -39.5 15.5z
M187.5 780.5c-10.333 10.333 -15.5 23.5 -15.5 39.5s5.16699 29.167 15.5 39.5s23.5 15.5 39.5 15.5s29.167 -5.16699 39.5 -15.5s15.5 -23.5 15.5 -39.5s-5.16699 -29.167 -15.5 -39.5s-23.5 -15.5 -39.5 -15.5s-29.167 5.16699 -39.5 15.5z" />
    <glyph glyph-name="uni0408" unicode="&#x408;" horiz-adv-x="425" 
d="M37 12c-15.333 7.33301 -27.668 15 -37.001 23l30 65h10c8.66699 -7.33301 17.334 -14 26.001 -20c19.333 -13.333 39 -20 59 -20c38.667 0 67.5 10.5 86.5 31.5s28.5 53.833 28.5 98.5v510h100v-510c0 -66 -17.167 -115.833 -51.5 -149.5s-85.5 -50.5 -153.5 -50.5
c-33.333 0 -66 7.33301 -98 22z" />
    <glyph glyph-name="uni0409" unicode="&#x409;" horiz-adv-x="881" 
d="M26 -5c-4 0.666992 -9.33398 2.33301 -16.001 5l5 65h10l6 -3c6.66699 -1.33301 11.334 -2 14.001 -2c14 0 26.167 8 36.5 24s16.5 41.333 18.5 76l30 540h381v-260h90c82 0 143.333 -18.833 184 -56.5s61 -92.167 61 -163.5s-20.333 -125.833 -61 -163.5
s-102 -56.5 -184 -56.5h-191v630h-185l-25 -470c-3.33301 -56.667 -16.833 -99.167 -40.5 -127.5s-55.167 -42.5 -94.5 -42.5c-14 0 -27 1.66699 -39 5zM600.999 69.999c96.667 0 145 50 145 150s-48.333 150 -145 150h-90v-300h90z" />
    <glyph glyph-name="uni040A" unicode="&#x40a;" horiz-adv-x="900" 
d="M90 700l100 0.000976562v-280h240v280h100v-280h90c80.667 0 141.667 -18.5 183 -55.5s62 -88.5 62 -154.5c0 -66.667 -20.5 -118.334 -61.5 -155.001s-102.167 -55 -183.5 -55h-190v350h-240v-350h-100v700zM620 70.001c48 0 84.167 11.833 108.5 35.5
s36.5 58.5 36.5 104.5s-12.167 80.833 -36.5 104.5s-60.5 35.5 -108.5 35.5h-90v-280h90z" />
    <glyph glyph-name="uni040B" unicode="&#x40b;" horiz-adv-x="650" 
d="M140 630h-140v70h420v-70h-180v-195l40 7c33.333 5.33301 66.666 8 99.999 8c64.667 0 115.834 -18 153.501 -54s56.5 -83 56.5 -141v-255h-100v255c0 38 -12 68.333 -36 91s-57 34 -99 34c-26.667 0 -54 -2.66699 -82 -8l-33 -7v-365h-100v630z" />
    <glyph glyph-name="uni040C" unicode="&#x40c;" horiz-adv-x="585" 
d="M424 16.5c-19.333 17.667 -32.334 42.168 -39.001 73.501l-35 160c-12 50 -42 75 -90 75h-70v-325h-100v700h100v-305h60c27.333 0 49 6.66699 65 20s26 31.666 30 54.999l25 140c6 30.667 18.833 55 38.5 73s45.167 27 76.5 27c18 0 33 -1.66699 45 -5l15 -5l-10 -65h-5
l-6 2c-8 2 -12.667 3 -14 3c-22 0 -35.333 -15 -40 -45l-25 -140c-6 -34 -24.333 -59 -55 -75c-12.667 -6.66699 -27.667 -11.667 -45 -15c16 -4 31 -10 45 -18c30.667 -19.333 50.667 -46.666 60 -81.999l35 -160c7.33301 -30 20.666 -45 39.999 -45
c2.66699 0 7.33398 0.666992 14.001 2l6 3h5l10 -65c-4.66699 -2.66699 -9.66699 -4.33398 -15 -5.00098c-12 -3.33301 -27 -5 -45 -5c-31.333 0 -56.666 8.83301 -75.999 26.5zM262.999 750.001l45 150h110l-90 -150h-65z" />
    <glyph glyph-name="uni040D" unicode="&#x40d;" horiz-adv-x="630" 
d="M90 700h100.001v-445c0 -13.333 -0.666992 -31.333 -2 -54l-2 -31h4l9 31l4 10.5l4 10.5c5.33301 16 9.66602 27 12.999 33l220 445h100v-700h-100v445c0 10.667 0.666992 28.667 2 54l2 31h-4l-9 -31c-10.667 -28.667 -17.667 -46.667 -21 -54l-220 -445h-100v700z
M277.001 750l-90 150h110l45 -150h-65z" />
    <glyph glyph-name="uni040E" unicode="&#x40e;" horiz-adv-x="536" 
d="M89 0c-10.667 4 -19.998 9 -27.998 15l25 65h10c6.66699 -6.66699 12.334 -11 17.001 -13c12.667 -8 27 -12 43 -12c19.333 0 36.666 6.5 51.999 19.5s26.333 29.833 33 50.5l20 60h-45l-206 515h105l146 -365c6 -16 11 -31.667 15 -47l7 -28h4
c1.33301 10 3.33301 19.333 6 28l13 47l120 365h100l-185 -575c-12.667 -39.333 -34.834 -72.5 -66.501 -99.5s-67.834 -40.5 -108.501 -40.5c-27.333 0 -53 5 -77 15zM156.002 784.5c-25.333 23 -38.0039 54.833 -38.0039 95.5h90c0 -24.667 4.83301 -42.5 14.5 -53.5
s24.834 -16.5 45.501 -16.5s35.834 5.5 45.501 16.5s14.5 28.833 14.5 53.5h90c0 -40.667 -12.667 -72.5 -38 -95.5s-62.666 -34.5 -111.999 -34.5s-86.666 11.5 -111.999 34.5z" />
    <glyph glyph-name="uni040F" unicode="&#x40f;" horiz-adv-x="630" 
d="M275 -150l-10 150h-175v700h100v-630h250v630h100v-700h-175l-10 -150h-80z" />
    <glyph glyph-name="uni0410" unicode="&#x410;" horiz-adv-x="570" 
d="M15 0l205 700h130l205 -700h-100l-55 180h-230l-55 -180h-100zM380 250l-79.998 274.999c-2.66699 7.33301 -4.83398 15.833 -6.50098 25.5s-2.83398 16.834 -3.50098 21.501l-3 23h-4l-3 -24c-4.66699 -22.667 -8 -38 -10 -46l-80 -275h190z" />
    <glyph glyph-name="uni0411" unicode="&#x411;" horiz-adv-x="570" 
d="M90 700l390 0.000976562v-70h-290v-210h90c80.667 0 141.667 -18.5 183 -55.5s62 -88.5 62 -154.5c0 -66.667 -20.5 -118.334 -61.5 -155.001s-102.167 -55 -183.5 -55h-190v700zM280 70.001c48 0 84.167 11.833 108.5 35.5s36.5 58.5 36.5 104.5
s-12.167 80.833 -36.5 104.5s-60.5 35.5 -108.5 35.5h-90v-280h90z" />
    <glyph glyph-name="uni0412" unicode="&#x412;" horiz-adv-x="575" 
d="M90 700h190c70 0 124.167 -16.167 162.5 -48.5s57.5 -74.5 57.5 -126.5c0 -53.333 -19.333 -95.333 -58 -126c-18 -13.333 -37 -23 -57 -29c24.667 -6 48 -16.667 70 -32c46.667 -36 70 -85.333 70 -148c0 -59.333 -20.167 -105.833 -60.5 -139.5
s-101.833 -50.5 -184.5 -50.5h-190v700zM280 400c38 0 67.5 10.167 88.5 30.5s31.5 48.5 31.5 84.5s-10.5 64.167 -31.5 84.5s-50.5 30.5 -88.5 30.5h-90v-230h90zM280 70c96.667 0 145 43.333 145 130s-48.333 130 -145 130h-90v-260h90z" />
    <glyph glyph-name="uni0413" unicode="&#x413;" horiz-adv-x="490" 
d="M90 0v700h390v-70h-290v-630h-100z" />
    <glyph glyph-name="uni0414" unicode="&#x414;" horiz-adv-x="620" 
d="M10 70h50c10 12 18.333 26.333 25 43c16.667 37.333 26.667 83 30 137l25 450h375v-630h65v-220h-80l-15 150h-375l-15 -150h-85v220zM415 70v560h-180l-20 -380c-3.33301 -54 -13.333 -99.667 -30 -137c-6.66699 -16.667 -15 -31 -25 -43h255z" />
    <glyph glyph-name="uni0415" unicode="&#x415;" 
d="M90 0v700h390v-70h-290v-230h230v-70h-230v-260h290v-70h-390z" />
    <glyph glyph-name="uni0416" unicode="&#x416;" horiz-adv-x="860" 
d="M40 -5c-4.66699 0.666992 -9.66992 2.33203 -15.0029 4.99902l10 65h5l6 -3c6.66699 -1.33301 11.334 -2 14.001 -2c20 0 33.333 15 40 45l35 160c7.33301 34 27.333 61.333 60 82c14 8 29 14 45 18c-17.333 3.33301 -32.333 8.33301 -45 15c-30.667 16 -49 41 -55 75
l-25 140c-4.66699 30 -18 45 -40 45c-1.33301 0 -6 -1 -14 -3l-6 -2h-5l-10 65l15 5c12 3.33301 27 5 45 5c32 0 57.833 -9 77.5 -27s32.167 -42.333 37.5 -73l25 -140c4 -23.333 14 -41.666 30 -54.999s37.667 -20 65 -20h45v305h100v-305h45c27.333 0 49 6.66699 65 20
s26 31.666 30 54.999l25 140c6 30.667 18.833 55 38.5 73s45.167 27 76.5 27c18 0 33 -1.66699 45 -5l15 -5l-10 -65h-5l-6 2c-8 2 -12.667 3 -14 3c-22 0 -35.333 -15 -40 -45l-25 -140c-6 -34 -24.333 -59 -55 -75c-13.333 -6.66699 -28.333 -11.667 -45 -15
c16 -4 31 -10 45 -18c30.667 -19.333 50.667 -46.666 60 -81.999l35 -160c7.33301 -30 20.666 -45 39.999 -45c6.66699 0 13.334 1.66699 20.001 5h5l10 -65c-18 -6.66699 -38 -10 -60 -10c-31.333 0 -56.666 8.83301 -75.999 26.5s-32.333 42.167 -39 73.5l-35 160
c-12 50 -42 75 -90 75h-55v-325h-100v325h-55c-48 0 -78 -25 -90 -75l-35 -160c-6.66699 -31.333 -19.667 -55.833 -39 -73.5s-44.666 -26.5 -75.999 -26.5c-18 0 -33 1.66699 -45 5z" />
    <glyph glyph-name="uni0417" unicode="&#x417;" horiz-adv-x="520" 
d="M69 17c-21.333 8.66699 -37.665 17.999 -48.998 27.999l35 60h10c8.66699 -7.33301 20.667 -15 36 -23c32 -14.667 66.667 -22 104 -22c110 0 165 45 165 135c0 43.333 -12.333 76.666 -37 99.999s-60.667 35 -108 35h-90v70h90c39.333 0 70.833 11 94.5 33
s35.5 51 35.5 87c0 36.667 -12.167 65.834 -36.5 87.501s-58.833 32.5 -103.5 32.5c-31.333 0 -63 -7.66699 -95 -23c-15.333 -8 -27 -15.333 -35 -22h-10l-35 60c12.667 9.33301 28.334 18.333 47.001 27c38.667 18.667 84.667 28 138 28c48 0 89.333 -7.83301 124 -23.5
s61 -37.167 79 -64.5s27 -58 27 -92c0 -53.333 -21 -96.333 -63 -129c-17.333 -13.333 -38 -23.666 -62 -30.999c25.333 -6.66699 48.666 -17.667 69.999 -33c46.667 -37.333 70 -88 70 -152c0 -60 -21.333 -107.5 -64 -142.5s-106.334 -52.5 -191.001 -52.5
c-58.667 0 -107.334 9 -146.001 27z" />
    <glyph glyph-name="uni0418" unicode="&#x418;" horiz-adv-x="630" 
d="M90 700h100.001v-445c0 -13.333 -0.666992 -31.333 -2 -54l-2 -31h4l9 31l4 10.5l4 10.5c5.33301 16 9.66602 27 12.999 33l220 445h100v-700h-100v445c0 10.667 0.666992 28.667 2 54l2 31h-4l-9 -31c-10.667 -28.667 -17.667 -46.667 -21 -54l-220 -445h-100v700z" />
    <glyph glyph-name="uni0419" unicode="&#x419;" horiz-adv-x="630" 
d="M90 700h100.001v-445c0 -13.333 -0.666992 -31.333 -2 -54l-2 -31h4l9 31l4 10.5l4 10.5c5.33301 16 9.66602 27 12.999 33l220 445h100v-700h-100v445c0 10.667 0.666992 28.667 2 54l2 31h-4l-9 -31c-10.667 -28.667 -17.667 -46.667 -21 -54l-220 -445h-100v700z
M203.001 784.5c-25.333 23 -38.0039 54.833 -38.0039 95.5h90c0 -24.667 4.83301 -42.5 14.5 -53.5s24.834 -16.5 45.501 -16.5s35.834 5.5 45.501 16.5s14.5 28.833 14.5 53.5h90c0 -40.667 -12.667 -72.5 -38 -95.5s-62.666 -34.5 -111.999 -34.5
s-86.666 11.5 -111.999 34.5z" />
    <glyph glyph-name="uni041A" unicode="&#x41a;" horiz-adv-x="585" 
d="M424 16.5c-19.333 17.667 -32.334 42.168 -39.001 73.501l-35 160c-12 50 -42 75 -90 75h-70v-325h-100v700h100v-305h60c27.333 0 49 6.66699 65 20s26 31.666 30 54.999l25 140c6 30.667 18.833 55 38.5 73s45.167 27 76.5 27c18 0 33 -1.66699 45 -5l15 -5l-10 -65h-5
l-6 2c-8 2 -12.667 3 -14 3c-22 0 -35.333 -15 -40 -45l-25 -140c-6 -34 -24.333 -59 -55 -75c-12.667 -6.66699 -27.667 -11.667 -45 -15c16 -4 31 -10 45 -18c30.667 -19.333 50.667 -46.666 60 -81.999l35 -160c7.33301 -30 20.666 -45 39.999 -45
c2.66699 0 7.33398 0.666992 14.001 2l6 3h5l10 -65c-4.66699 -2.66699 -9.66699 -4.33398 -15 -5.00098c-12 -3.33301 -27 -5 -45 -5c-31.333 0 -56.666 8.83301 -75.999 26.5z" />
    <glyph glyph-name="uni041B" unicode="&#x41b;" horiz-adv-x="610" 
d="M26 -5c-4 0.666992 -9.33398 2.33301 -16.001 5l5 65h10l6 -3c6.66699 -1.33301 11.334 -2 14.001 -2c14 0 26.167 8 36.5 24s16.5 41.333 18.5 76l30 540h390v-700h-100v630h-195l-25 -470c-3.33301 -56.667 -16.833 -99.167 -40.5 -127.5s-55.167 -42.5 -94.5 -42.5
c-14 0 -27 1.66699 -39 5z" />
    <glyph glyph-name="uni041C" unicode="&#x41c;" horiz-adv-x="840" 
d="M90 700h100l210 -425c5.33301 -8.66699 9.66602 -19 12.999 -31c2.66699 -10 4.33398 -16.333 5.00098 -19h4c0.666992 2.66699 2.33398 9 5.00098 19c3.33301 12 7.66602 22.333 12.999 31l210 425h100v-700h-100v440c0 10.667 0.666992 28.667 2 54l2 31h-4l-9 -31
c-2 -5.33301 -5 -13.833 -9 -25.5s-8 -21.167 -12 -28.5l-160 -315h-80l-160 315c-4 7.33301 -8 16.833 -12 28.5s-7 20.167 -9 25.5l-9 31h-4l2 -31c1.33301 -25.333 2 -43.333 2 -54v-440h-100v700z" />
    <glyph glyph-name="uni041D" unicode="&#x41d;" horiz-adv-x="630" 
d="M90 0v700h100v-310h250v310h100v-700h-100v320h-250v-320h-100z" />
    <glyph glyph-name="uni041E" unicode="&#x41e;" horiz-adv-x="600" 
d="M120 76.5c-43.333 57.667 -65 148.834 -65 273.501s21.667 215.834 65 273.501s103.333 86.5 180 86.5s136.667 -28.833 180 -86.5s65 -148.834 65 -273.501s-21.667 -215.834 -65 -273.501s-103.333 -86.5 -180 -86.5s-136.667 28.833 -180 86.5zM404 128.5
c27.333 45.667 41 119.5 41 221.5s-13.667 175.833 -41 221.5s-62 68.5 -104 68.5s-76.667 -22.833 -104 -68.5s-41 -119.5 -41 -221.5s13.667 -175.833 41 -221.5s62 -68.5 104 -68.5s76.667 22.833 104 68.5z" />
    <glyph glyph-name="uni041F" unicode="&#x41f;" horiz-adv-x="630" 
d="M90 0v700h450v-700h-100v630h-250v-630h-100z" />
    <glyph glyph-name="uni0420" unicode="&#x420;" horiz-adv-x="565" 
d="M90 700h180c84.667 0 147.5 -19.333 188.5 -58s61.5 -96 61.5 -172s-20.5 -133.333 -61.5 -172s-103.833 -58 -188.5 -58h-80v-240h-100v700zM270 310c50.667 0 88.334 13 113.001 39s37 66.333 37 121s-12.333 95 -37 121s-62.334 39 -113.001 39h-80v-320h80z" />
    <glyph glyph-name="uni0421" unicode="&#x421;" horiz-adv-x="515" 
d="M122.5 76c-45 57.333 -67.501 148.666 -67.501 273.999c0 124.667 22 215.834 66 273.501s105.333 86.5 184 86.5c47.333 0 90.333 -9.33301 129 -28c18.667 -8.66699 34 -17.667 46 -27l-35 -60h-10c-10 7.33301 -21.333 14.666 -34 21.999
c-29.333 15.333 -58 23 -86 23c-106.667 0 -160 -96.667 -160 -290c0 -104 14.833 -178.333 44.5 -223s71.5 -67 125.5 -67c29.333 0 58 7.33301 86 22c14 8 25.333 15.667 34 23h10l35 -60c-11.333 -9.33301 -26.666 -18.666 -45.999 -27.999
c-37.333 -18 -80.333 -27 -129 -27c-83.333 0 -147.5 28.667 -192.5 86z" />
    <glyph glyph-name="uni0422" unicode="&#x422;" horiz-adv-x="480" 
d="M190 0v630h-180v70h460v-70h-180v-630h-100z" />
    <glyph glyph-name="uni0423" unicode="&#x423;" horiz-adv-x="536" 
d="M89 0c-10.667 4 -19.998 9 -27.998 15l25 65h10c6.66699 -6.66699 12.334 -11 17.001 -13c12.667 -8 27 -12 43 -12c19.333 0 36.666 6.5 51.999 19.5s26.333 29.833 33 50.5l20 60h-45l-206 515h105l146 -365c6 -16 11 -31.667 15 -47l7 -28h4
c1.33301 10 3.33301 19.333 6 28l13 47l120 365h100l-185 -575c-12.667 -39.333 -34.834 -72.5 -66.501 -99.5s-67.834 -40.5 -108.501 -40.5c-27.333 0 -53 5 -77 15z" />
    <glyph glyph-name="uni0424" unicode="&#x424;" horiz-adv-x="770" 
d="M335 40c-94.667 5.33301 -166.667 34 -216 86s-74 126.667 -74 224s24.667 172 74 224s121.333 80.667 216 86v70h100v-70c94.667 -5.33301 166.667 -34 216 -86s74 -126.667 74 -224s-24.667 -172 -74 -224s-121.333 -80.667 -216 -86v-70h-100v70zM335 590
c-60 -6 -106.667 -28.668 -140 -68.001s-50 -96.666 -50 -171.999s16.833 -133 50.5 -173s80.167 -62.333 139.5 -67v480zM574.5 176.999c33.667 40 50.5 97.668 50.5 173.001s-16.667 132.666 -50 171.999s-80 62 -140 68v-480c59.333 4.66699 105.833 27 139.5 67z" />
    <glyph glyph-name="uni0425" unicode="&#x425;" horiz-adv-x="530" 
d="M200 355l-180 345h110l115 -225c6 -14 10 -23.667 12 -29l6 -16h4l6 16c4 12.667 8 22.334 12 29.001l115 225h110l-180 -345l185 -355h-110l-120 235c-3.33301 5.33301 -7.33301 15 -12 29l-6 16h-4l-6 -16c-3.33301 -10.667 -7.33301 -20.334 -12 -29.001l-120 -235
h-110z" />
    <glyph glyph-name="uni0426" unicode="&#x426;" horiz-adv-x="635" 
d="M515 -150l-15 150h-410v700h100v-630h240v630h100v-630h65v-220h-80z" />
    <glyph glyph-name="uni0427" unicode="&#x427;" horiz-adv-x="600" 
d="M410 275l-40 -8.00098c-29.333 -4.66699 -62.666 -7 -99.999 -7c-64.667 0 -115.834 18 -153.501 54s-56.5 83 -56.5 141v245h100v-245c0 -38 12 -68.333 36 -91s57 -34 99 -34c30 0 57.333 2.33301 82 7c25.333 6.66699 36.333 9.33398 33 8.00098v355h100v-700h-100
v275z" />
    <glyph glyph-name="uni0428" unicode="&#x428;" horiz-adv-x="920" 
d="M90 0v700h100v-630h220v630h100v-630h220v630h100v-700h-740z" />
    <glyph glyph-name="uni0429" unicode="&#x429;" horiz-adv-x="935" 
d="M815 -150l-15 150h-710v700h100v-630h220v630h100v-630h220v630h100v-630h65v-220h-80z" />
    <glyph glyph-name="uni042A" unicode="&#x42a;" horiz-adv-x="620" 
d="M150 630h-140v70h240v-260h90c82 0 143.333 -18.833 184 -56.5s61 -92.167 61 -163.5s-20.333 -125.833 -61 -163.5s-102 -56.5 -184 -56.5h-190v630zM340 70c96.667 0 145 50 145 150s-48.333 150 -145 150h-90v-300h90z" />
    <glyph glyph-name="uni042B" unicode="&#x42b;" horiz-adv-x="800" 
d="M90 700h100v-260h80c82 0 143.333 -18.833 184 -56.5s61 -92.167 61 -163.5s-20.333 -125.833 -61 -163.5s-102 -56.5 -184 -56.5h-180v700zM610 0v700h100v-700h-100zM270 70c96.667 0 145 50 145 150s-48.333 150 -145 150h-80v-300h80z" />
    <glyph glyph-name="uni042C" unicode="&#x42c;" horiz-adv-x="560" 
d="M90 700h100v-260h90c82 0 143.333 -18.833 184 -56.5s61 -92.167 61 -163.5s-20.333 -125.833 -61 -163.5s-102 -56.5 -184 -56.5h-190v700zM280 70c96.667 0 145 50 145 150s-48.333 150 -145 150h-90v-300h90z" />
    <glyph glyph-name="uni042D" unicode="&#x42d;" horiz-adv-x="515" 
d="M71 17c-19.333 9.33301 -34.668 18.666 -46.001 27.999l35 60h10c8.66699 -7.33301 20 -15 34 -23c28 -14.667 56.667 -22 86 -22c51.333 0 91.833 20.167 121.5 60.5s45.834 106.833 48.501 199.5h-235v70h234c-7.33301 166.667 -60.333 250 -159 250
c-28 0 -56.667 -7.66699 -86 -23c-12.667 -7.33301 -24 -14.666 -34 -21.999h-10l-35 60c12 9.33301 27.333 18.333 46 27c38.667 18.667 81.667 28 129 28c78.667 0 140 -28.833 184 -86.5s66 -148.834 66 -273.501c0 -125.333 -22.5 -216.666 -67.5 -273.999
s-109.167 -86 -192.5 -86c-48.667 0 -91.667 9 -129 27z" />
    <glyph glyph-name="uni042E" unicode="&#x42e;" horiz-adv-x="810" 
d="M354.5 69c-41 52.667 -64.166 136.333 -69.499 251h-95v-320h-100v700h100v-310h95c5.33301 110.667 28.666 191.667 69.999 243s96.333 77 165 77c72.667 0 130 -29 172 -87s63 -149 63 -273s-21 -215 -63 -273s-99.333 -87 -172 -87c-69.333 0 -124.5 26.333 -165.5 79
zM585.501 87.999c20.333 18.667 37 49.667 50 93s19.5 99.666 19.5 168.999s-6.5 125.666 -19.5 168.999s-29.667 74.333 -50 93s-42.166 28 -65.499 28s-45.166 -9.33301 -65.499 -28s-37 -49.667 -50 -93s-19.5 -99.666 -19.5 -168.999s6.5 -125.666 19.5 -168.999
s29.667 -74.333 50 -93s42.166 -28 65.499 -28s45.166 9.33301 65.499 28z" />
    <glyph glyph-name="uni042F" unicode="&#x42f;" horiz-adv-x="570" 
d="M35 -5c-4.66699 0.666992 -9.66797 2.33105 -15.001 4.99805l10 65h5l6 -3c6.66699 -1.33301 11.334 -2 14.001 -2c8 0 15.667 3.83301 23 11.5s13 18.834 17 33.501l30 105c10 31.333 25.667 54.333 47 69c11.333 8 22.333 13.333 33 16
c-25.333 4 -49.5 14.5 -72.5 31.5s-41.667 39.333 -56 67s-21.5 58.167 -21.5 91.5c0 69.333 20.667 122.5 62 159.5s104 55.5 188 55.5h175v-700h-100v270h-65c-22 0 -40.833 -6.66699 -56.5 -20s-26.834 -31.666 -33.501 -54.999l-30 -105
c-19.333 -66.667 -57.666 -100 -114.999 -100c-18 0 -33 1.66699 -45 5zM379.999 339.997v290h-75c-100 0 -150 -48.333 -150 -145s50 -145 150 -145h75z" />
    <glyph glyph-name="uni0430" unicode="&#x430;" 
d="M88.5 31.5c-29 27.667 -43.501 65.502 -43.501 113.502c0 47.333 17.167 84.166 51.5 110.499s88.833 39.5 163.5 39.5h80v25c0 39.333 -9.16699 69.166 -27.5 89.499s-44.166 30.5 -77.499 30.5c-24 0 -50 -7.66699 -78 -23c-14 -8 -24.667 -15.333 -32 -22h-10l-35 60
c13.333 10 28.333 19 45 27c36 18.667 76 28 120 28c38 0 71.667 -8.16699 101 -24.5s52.333 -39 69 -68s25 -61.5 25 -97.5v-320h-70l-10 60h-5c-9.33301 -13.333 -21 -25 -35 -35c-29.333 -23.333 -66 -35 -110 -35c-52 0 -92.5 13.833 -121.5 41.5zM309.999 95.002
c11.333 9.33301 21.333 19.333 30 30v100h-80c-38 0 -66.667 -7.33301 -86 -22s-29 -34 -29 -58c0 -26 7.5 -45.833 22.5 -59.5s37.5 -20.5 67.5 -20.5c24.667 0 49.667 10 75 30z" />
    <glyph glyph-name="uni0431" unicode="&#x431;" horiz-adv-x="525" 
d="M112 52.5c-38 41.667 -57 100.834 -57 177.501v95c0 84.667 9 151.5 27 200.5s45.5 85.833 82.5 110.5s87.167 42.667 150.5 54l140 25l15 -85l-140 -25c-66.667 -12 -114.167 -34.167 -142.5 -66.5s-42.5 -81.833 -42.5 -148.5c16 26 36.167 45.833 60.5 59.5
s52.5 20.5 84.5 20.5c34 0 65 -9.33301 93 -28s50.333 -46.167 67 -82.5s25 -79.5 25 -129.5c0 -76.667 -19 -135.834 -57 -177.501s-89 -62.5 -153 -62.5s-115 20.833 -153 62.5zM344 102.5c20.667 28.333 31 70.833 31 127.5c0 54.667 -10.333 95.834 -31 123.501
s-47 41.5 -79 41.5s-58.333 -13.833 -79 -41.5s-31 -68.834 -31 -123.501c0 -56.667 10.333 -99.167 31 -127.5s47 -42.5 79 -42.5s58.333 14.167 79 42.5z" />
    <glyph glyph-name="uni0432" unicode="&#x432;" 
d="M75 500l190 -0.00195312c38 0 70.667 -5.83301 98 -17.5s47.833 -27.5 61.5 -47.5s20.5 -41.667 20.5 -65c0 -38 -16 -67.667 -48 -89c-14 -8.66699 -29.667 -15.667 -47 -21c21.333 -4 40.333 -11 57 -21c17.333 -11.333 31.333 -25.166 42 -41.499
s16 -37.166 16 -62.499c0 -40 -16.667 -72.5 -50 -97.5s-83.333 -37.5 -150 -37.5h-190v500zM265 289.998c24.667 0 44.167 6.5 58.5 19.5s21.5 29.833 21.5 50.5s-7.16699 37.5 -21.5 50.5s-33.833 19.5 -58.5 19.5h-90v-140h90zM265 69.998
c34 0 59.167 6.66895 75.5 20.002s24.5 31.666 24.5 54.999s-8.16699 41.666 -24.5 54.999s-41.5 20 -75.5 20h-90v-150h90z" />
    <glyph glyph-name="uni0433" unicode="&#x433;" horiz-adv-x="415" 
d="M75 0v500h330v-70h-230v-430h-100z" />
    <glyph glyph-name="uni0434" unicode="&#x434;" horiz-adv-x="560" 
d="M5 70h49.998c10.667 12 19.334 25 26.001 39c16.667 35.333 26.334 72.333 29.001 111l15 280h335v-430h65v-210h-80l-15 140h-325l-15 -140h-85v210zM359.998 70l0.00195312 360h-140l-10 -210c-2.66699 -38.667 -12.334 -75.667 -29.001 -111
c-6.66699 -14 -15.334 -27 -26.001 -39h205z" />
    <glyph glyph-name="uni0435" unicode="&#x435;" horiz-adv-x="505" 
d="M108 56c-38.667 44 -58.001 108.667 -58.001 194c0 84.667 18.667 149.167 56 193.5s87 66.5 149 66.5s111.667 -22.167 149 -66.5s56 -108.833 56 -193.5v-15l-20 -20h-290c0 -51.333 11.333 -90 34 -116s54.667 -39 96 -39c24.667 0 50.334 7.33301 77.001 22
c14 8 25 15.667 33 23h10l35 -60c-12 -10 -27 -19.333 -45 -28c-34.667 -18 -74.667 -27 -120 -27c-69.333 0 -123.333 22 -162 66zM359.999 285c0 52.667 -9.5 91.667 -28.5 117s-44.5 38 -76.5 38s-57.5 -12.667 -76.5 -38s-28.5 -64.333 -28.5 -117h210z" />
    <glyph glyph-name="uni0436" unicode="&#x436;" horiz-adv-x="740" 
d="M42 -5c-4.66699 0.666992 -10.335 2.33594 -17.002 5.00293l10 65h5l6 -3c6.66699 -1.33301 11.334 -2 14.001 -2c15.333 0 25.333 10 30 30l25 95c4.66699 18 13.167 32.333 25.5 43s20.666 16.834 24.999 18.501s17.5 6.16699 39.5 13.5
c-4.66699 0 -12.5 1.83301 -23.5 5.5s-22.167 10.167 -33.5 19.5s-19 22.666 -23 39.999l-20 85c-4.66699 20 -14.667 30 -30 30c-1.33301 0 -6 -1 -14 -3l-6 -2h-5l-10 65l17 5c12 3.33301 26.333 5 43 5c28 0 50 -7 66 -21s27.333 -35.333 34 -64l20 -85
c7.33301 -33.333 29 -50 65 -50h35v210h100v-210h35c36 0 57.667 16.667 65 50l20 85c6.66699 28.667 18 50 34 64s38 21 66 21c16.667 0 31 -1.66699 43 -5l17 -5l-10 -65h-5l-6 2c-8 2 -12.667 3 -14 3c-14.667 0 -24.667 -10 -30 -30l-20 -85
c-4 -16.667 -11.5 -29.834 -22.5 -39.501s-22 -16.334 -33 -20.001s-19.167 -5.5 -24.5 -5.5c4 0 12.333 -2.5 25 -7.5s25.5 -13 38.5 -24s21.833 -25.5 26.5 -43.5l25 -95c5.33301 -20 15.333 -30 30 -30c2.66699 0 7.33398 0.666992 14.001 2l6 3h5l10 -65
c-6.66699 -2.66699 -12.334 -4.33398 -17.001 -5.00098c-13.333 -3.33301 -27.666 -5 -42.999 -5c-27.333 0 -48.833 7 -64.5 21s-27.5 35.333 -35.5 64l-25 95c-4 16 -11.5 28.333 -22.5 37s-25.167 13 -42.5 13h-45v-220h-100v220h-45c-17.333 0 -31.5 -4.33301 -42.5 -13
s-18.5 -21 -22.5 -37l-25 -95c-8 -28.667 -19.833 -50 -35.5 -64s-37.167 -21 -64.5 -21c-15.333 0 -29.666 1.66699 -42.999 5z" />
    <glyph glyph-name="uni0437" unicode="&#x437;" horiz-adv-x="450" 
d="M62 17c-19.333 8.66699 -35.001 18.001 -47.001 28.001l35 60h10c7.33301 -6.66699 19 -14.334 35 -23.001c30.667 -14.667 62.334 -22 95.001 -22c41.333 0 70.833 6.66699 88.5 20s26.5 33.333 26.5 60c0 53.333 -33.333 80 -100 80h-85v70h85
c29.333 0 51.666 6.66699 66.999 20s23 31.666 23 54.999c0 50 -35 75 -105 75c-28 0 -56 -7.66699 -84 -23c-12 -7.33301 -22.333 -14.666 -31 -21.999h-10l-35 60c11.333 9.33301 26 18.333 44 27c36 18.667 78 28 126 28c64.667 0 113.334 -12.5 146.001 -37.5
s49 -57.5 49 -97.5c0 -38.667 -17.667 -69 -53 -91c-14.667 -10.667 -32 -18.667 -52 -24c22 -4 41 -11.333 57 -22c38.667 -25.333 58 -61.333 58 -108c0 -42.667 -16.833 -76.667 -50.5 -102s-85.167 -38 -154.5 -38c-54.667 0 -100.667 9 -138 27z" />
    <glyph glyph-name="uni0438" unicode="&#x438;" horiz-adv-x="550" 
d="M75 500h100v-285c0 -10.667 -0.666992 -26 -2 -46l-2 -24h4l8 24c4.66699 14 12 29.333 22 46l170 285h100v-500h-100v285c0 10.667 0.666992 26 2 46l2 24h-4l-8 -24c-4.66699 -14 -12 -29.333 -22 -46l-170 -285h-100v500z" />
    <glyph glyph-name="uni0439" unicode="&#x439;" horiz-adv-x="550" 
d="M75 500h100v-285c0 -10.667 -0.666992 -26 -2 -46l-2 -24h4l8 24c4.66699 14 12 29.333 22 46l170 285h100v-500h-100v285c0 10.667 0.666992 26 2 46l2 24h-4l-8 -24c-4.66699 -14 -12 -29.333 -22 -46l-170 -285h-100v500zM163 584.5
c-25.333 23 -38.0039 54.833 -38.0039 95.5h90c0 -24.667 4.83301 -42.5 14.5 -53.5s24.834 -16.5 45.501 -16.5s35.834 5.5 45.501 16.5s14.5 28.833 14.5 53.5h90c0 -40.667 -12.667 -72.5 -38 -95.5s-62.666 -34.5 -111.999 -34.5s-86.666 11.5 -111.999 34.5z" />
    <glyph glyph-name="uni043A" unicode="&#x43a;" 
d="M360.5 11c-15.667 14 -27.5 35.334 -35.5 64.001l-25 95c-4 16 -11.5 28.333 -22.5 37s-25.167 13 -42.5 13h-60v-220h-100v500h100v-210h50c36 0 57.667 16.667 65 50l20 85c6.66699 28.667 18 50 34 64s38 21 66 21c16.667 0 31 -1.66699 43 -5l17 -5l-10 -65h-5l-6 2
c-8 2 -12.667 3 -14 3c-14.667 0 -24.667 -10 -30 -30l-20 -85c-6 -25.333 -21 -43.666 -45 -54.999c-12.667 -6 -24.334 -9.33301 -35.001 -10c14.667 -2 27.667 -6.33301 39 -13c26.667 -14.667 43.667 -35.334 51 -62.001l25 -95c5.33301 -20 15.333 -30 30 -30
c2.66699 0 7.33398 0.666992 14.001 2l6 3h5l10 -65c-6.66699 -2.66699 -12.334 -4.33398 -17.001 -5.00098c-13.333 -3.33301 -27.666 -5 -42.999 -5c-27.333 0 -48.833 7 -64.5 21z" />
    <glyph glyph-name="uni043B" unicode="&#x43b;" horiz-adv-x="540" 
d="M26 -5c-4 0.666992 -9.33398 2.33301 -16.001 5l5 65h10l6 -3c6.66699 -1.33301 11.334 -2 14.001 -2c14 0 25.167 7.33301 33.5 22s13.833 40.667 16.5 78l20 340h350v-500h-100v430h-155l-15 -270c-6.66699 -113.333 -50 -170 -130 -170c-14 0 -27 1.66699 -39 5z" />
    <glyph glyph-name="uni043C" unicode="&#x43c;" horiz-adv-x="700" 
d="M75 500l104.999 -0.000976562l150 -280c7.33301 -13.333 11.666 -22 12.999 -26c2.66699 -7.33301 4.33398 -12 5.00098 -14h4c0.666992 2 2.33398 6.66699 5.00098 14c1.33301 4.66699 5.66602 13.334 12.999 26.001l150 280h105v-500h-100v265
c0 10.667 0.666992 26 2 46l2 24h-4l-9 -23l-8 -18c-5.33301 -13.333 -9.66602 -23 -12.999 -29l-95 -180h-100l-95 180c-8.66699 15.333 -15.667 31 -21 47l-9 23h-4l2 -24c1.33301 -20 2 -35.333 2 -46v-265h-100v500z" />
    <glyph glyph-name="uni043D" unicode="&#x43d;" horiz-adv-x="550" 
d="M75 0v500h100v-210h200v210h100v-500h-100v220h-200v-220h-100z" />
    <glyph glyph-name="uni043E" unicode="&#x43e;" horiz-adv-x="530" 
d="M107 56c-38 44 -57 108.667 -57 194s19 150 57 194s90.667 66 158 66c66.667 0 119.167 -22 157.5 -66s57.5 -108.667 57.5 -194s-19.167 -150 -57.5 -194s-90.833 -66 -157.5 -66c-67.333 0 -120 22 -158 66zM348.5 105.5c21 30.333 31.5 78.5 31.5 144.5
s-10.5 114.167 -31.5 144.5s-48.833 45.5 -83.5 45.5s-62.5 -15.167 -83.5 -45.5s-31.5 -78.5 -31.5 -144.5s10.5 -114.167 31.5 -144.5s48.833 -45.5 83.5 -45.5s62.5 15.167 83.5 45.5z" />
    <glyph glyph-name="uni043F" unicode="&#x43f;" horiz-adv-x="550" 
d="M75 0v500h400v-500h-100v430h-200v-430h-100z" />
    <glyph glyph-name="uni0440" unicode="&#x440;" horiz-adv-x="535" 
d="M75 500l70.001 -0.000976562l10 -60h5c7.33301 10.667 19 22.334 35 35.001c32.667 23.333 69.334 35 110.001 35c32.667 0 62.667 -9.83301 90 -29.5s49.166 -49 65.499 -88s24.5 -86.5 24.5 -142.5c0 -84.667 -18.333 -149.167 -55 -193.5s-85 -66.5 -145 -66.5
c-26.667 0 -52.667 5 -78 15c-12.667 4 -23.334 9 -32.001 15v-190l-30 -30h-70v700zM353.501 105.499c21 30.333 31.5 78.499 31.5 144.499c0 63.333 -9.83301 110 -29.5 140s-44.834 45 -75.501 45c-24.667 0 -49.667 -10 -75 -30
c-10.667 -9.33301 -20.667 -19.333 -30 -30v-295c6.66699 -3.33301 15.667 -6.66602 27 -9.99902c22.667 -6.66699 45.334 -10 68.001 -10c34.667 0 62.5 15.167 83.5 45.5z" />
    <glyph glyph-name="uni0441" unicode="&#x441;" horiz-adv-x="455" 
d="M108 56c-38.667 44 -58.0029 108.667 -58.0029 194s18.833 150 56.5 194s88.834 66 153.501 66c44 0 84 -9.33301 120 -28c17.333 -8 32.333 -17 45 -27l-35 -60h-10c-8.66699 6.66699 -19.667 14 -33 22c-28 15.333 -53.667 23 -77 23
c-37.333 0 -66.666 -15 -87.999 -45s-32 -78.333 -32 -145c0 -67.333 11.167 -115.833 33.5 -145.5s54.5 -44.5 96.5 -44.5c24.667 0 50.334 7.33301 77.001 22c14 8 25 15.667 33 23h10l35 -60c-12 -10 -27 -19.333 -45 -28c-34.667 -18 -74.667 -27 -120 -27
c-69.333 0 -123.333 22 -162 66z" />
    <glyph glyph-name="uni0442" unicode="&#x442;" horiz-adv-x="420" 
d="M160 0v430h-150v70h400v-70h-150v-430h-100z" />
    <glyph glyph-name="uni0443" unicode="&#x443;" horiz-adv-x="475" 
d="M62 -195c-11.333 4 -20.333 8.99902 -27 14.999l25 65h10c6.66699 -6.66699 12 -11 16 -13c12.667 -8 25.667 -12 39 -12c17.333 0 32.833 6.5 46.5 19.5s23.167 29.833 28.5 50.5l20 70h-30l-171 500h96l110 -330c3.33301 -10 8 -27 14 -51c2 -6 4.33301 -15.667 7 -29
h4c1.33301 10.667 3.33301 20.334 6 29.001l13 51l91 330h100l-160 -570c-12 -42 -32.333 -75.833 -61 -101.5s-63.334 -38.5 -104.001 -38.5c-27.333 0 -51.666 5 -72.999 15z" />
    <glyph glyph-name="uni0444" unicode="&#x444;" horiz-adv-x="680" 
d="M290 -10c-78.667 2.66699 -139.167 26 -181.5 70s-63.5 107.333 -63.5 190s21.167 146 63.5 190s102.833 67.333 181.5 70v160l30 30h70v-190c78.667 -2.66699 139.167 -26 181.5 -70s63.5 -107.333 63.5 -190s-21.167 -146 -63.5 -190s-102.833 -67.333 -181.5 -70v-190
h-100v190zM290 440c-47.333 -2.66699 -83.333 -19.1689 -108 -49.502s-37 -77.166 -37 -140.499s12.333 -110.166 37 -140.499s60.667 -46.833 108 -49.5v380zM498 109.498c24.667 30.333 37 77.168 37 140.501s-12.333 110.166 -37 140.499s-60.667 46.833 -108 49.5v-380
c47.333 2.66699 83.333 19.167 108 49.5z" />
    <glyph glyph-name="uni0445" unicode="&#x445;" horiz-adv-x="460" 
d="M170 255l-150 244.999h110l80 -140c6 -12 10 -20.667 12 -26l6 -14h4l6 14c4 11.333 8 20 12 26l80 140h110l-150 -245l155 -255h-110l-85 145c-7.33301 12.667 -11.666 21.334 -12.999 26.001c-2.66699 7.33301 -4.33398 12 -5.00098 14h-4
c-0.666992 -2 -2.33398 -6.66699 -5.00098 -14c-1.33301 -4 -5.66602 -12.667 -12.999 -26l-85 -145h-110z" />
    <glyph glyph-name="uni0446" unicode="&#x446;" horiz-adv-x="565" 
d="M450 -140l-15 140h-360v500h100v-430h190v430h100v-430h65v-210h-80z" />
    <glyph glyph-name="uni0447" unicode="&#x447;" horiz-adv-x="520" 
d="M345 185c3.33301 1.33301 -7.66699 -1.33301 -33 -8c-24.667 -4.66699 -52 -7 -82 -7c-34.667 0 -65.167 7.16699 -91.5 21.5s-46.833 34 -61.5 59s-22 53.167 -22 84.5v165h100v-165c0 -28 9.16699 -50.833 27.5 -68.5s42.5 -26.5 72.5 -26.5c24 0 45.333 2.33301 64 7
l12.5 4l13.5 4v245h100v-500h-100v185z" />
    <glyph glyph-name="uni0448" unicode="&#x448;" horiz-adv-x="790" 
d="M75 0v500h100v-430h170v430h100v-430h170v430h100v-500h-640z" />
    <glyph glyph-name="uni0449" unicode="&#x449;" horiz-adv-x="815" 
d="M700 -140l-15 140h-610v500h100v-430h170v430h100v-430h170v430h100v-430h65v-210h-80z" />
    <glyph glyph-name="uni044A" unicode="&#x44a;" horiz-adv-x="555" 
d="M140 430h-130v70h230v-170h90c133.333 0 200 -55 200 -165s-66.667 -165 -200 -165h-190v430zM330 70c35.333 0 60.833 7.66699 76.5 23s23.5 39.333 23.5 72s-7.83301 56.667 -23.5 72s-41.167 23 -76.5 23h-90v-190h90z" />
    <glyph glyph-name="uni044B" unicode="&#x44b;" horiz-adv-x="710" 
d="M75 500h100v-170h80c133.333 0 200 -55 200 -165s-66.667 -165 -200 -165h-180v500zM535 0v500h100v-500h-100zM255 70c35.333 0 60.833 7.66699 76.5 23s23.5 39.333 23.5 72s-7.83301 56.667 -23.5 72s-41.167 23 -76.5 23h-80v-190h80z" />
    <glyph glyph-name="uni044C" unicode="&#x44c;" horiz-adv-x="490" 
d="M75 500h100v-170h90c133.333 0 200 -55 200 -165s-66.667 -165 -200 -165h-190v500zM265 70c35.333 0 60.833 7.66699 76.5 23s23.5 39.333 23.5 72s-7.83301 56.667 -23.5 72s-41.167 23 -76.5 23h-90v-190h90z" />
    <glyph glyph-name="uni044D" unicode="&#x44d;" horiz-adv-x="455" 
d="M65 17c-18 8.66699 -33.002 18.002 -45.002 28.002l35 60h10c6.66699 -6.66699 17.334 -14.334 32.001 -23.001c26.667 -14.667 52.667 -22 78 -22c38.667 0 69.167 12.833 91.5 38.5s34.833 66.167 37.5 121.5h-180v70h180c-5.33301 53.333 -18 91.666 -38 114.999
s-47 35 -81 35c-24 0 -50 -7.66699 -78 -23c-14 -8 -24.667 -15.333 -32 -22h-10l-35 60c12.667 10 27.667 19 45 27c36 18.667 76 28 120 28c64.667 0 115.834 -22 153.501 -66s56.5 -108.667 56.5 -194s-19.333 -150 -58 -194s-92.667 -66 -162 -66
c-45.333 0 -85.333 9 -120 27z" />
    <glyph glyph-name="uni044E" unicode="&#x44e;" horiz-adv-x="715" 
d="M317 48c-36 38.667 -56.667 96 -62 172h-80v-220h-100v500h100v-210h80c5.33301 72 26.5 126.667 63.5 164s84.167 56 141.5 56c62 0 111.667 -22.167 149 -66.5s56 -108.833 56 -193.5s-18.667 -149.167 -56 -193.5s-87 -66.5 -149 -66.5c-59.333 0 -107 19.333 -143 58
zM535.5 106c19.667 30.667 29.5 78.667 29.5 144s-9.83301 113.333 -29.5 144s-44.834 46 -75.501 46s-55.834 -15.333 -75.501 -46s-29.5 -78.667 -29.5 -144s9.83301 -113.333 29.5 -144s44.834 -46 75.501 -46s55.834 15.333 75.501 46z" />
    <glyph glyph-name="uni044F" unicode="&#x44f;" 
d="M42 -5c-4.66699 0.666992 -10.3359 2.33301 -17.0029 5l10 65h5l6 -3c6.66699 -1.33301 11.334 -2 14.001 -2c14 0 24 10 30 30l20 65c6 19.333 17.667 35 35 47c8 6 16.333 10.333 25 13c-24 4 -44 11.333 -60 22c-18 11.333 -32.5 25.333 -43.5 42
s-16.5 38.667 -16.5 66c0 49.333 16.333 87.5 49 114.5s83 40.5 151 40.5h185v-500h-100v190h-70c-30 0 -50 -16.667 -60 -50l-20 -65c-8.66699 -29.333 -20.667 -50.833 -36 -64.5s-36.666 -20.5 -63.999 -20.5c-15.333 0 -29.666 1.66699 -42.999 5zM334.998 259.999v170
h-85c-34.667 0 -60 -7 -76 -21s-24 -35.333 -24 -64s8 -50 24 -64s41.333 -21 76 -21h85z" />
    <glyph glyph-name="uni0450" unicode="&#x450;" horiz-adv-x="505" 
d="M108 56c-38.667 44 -58.001 108.667 -58.001 194c0 84.667 18.667 149.167 56 193.5s87 66.5 149 66.5s111.667 -22.167 149 -66.5s56 -108.833 56 -193.5v-15l-20 -20h-290c0 -51.333 11.333 -90 34 -116s54.667 -39 96 -39c24.667 0 50.334 7.33301 77.001 22
c14 8 25 15.667 33 23h10l35 -60c-12 -10 -27 -19.333 -45 -28c-34.667 -18 -74.667 -27 -120 -27c-69.333 0 -123.333 22 -162 66zM359.999 285c0 52.667 -9.5 91.667 -28.5 117s-44.5 38 -76.5 38s-57.5 -12.667 -76.5 -38s-28.5 -64.333 -28.5 -117h210zM214.999 550
l-90 150h110l45 -150h-65z" />
    <glyph glyph-name="uni0451" unicode="&#x451;" horiz-adv-x="505" 
d="M108 56c-38.667 44 -58.001 108.667 -58.001 194c0 84.667 18.667 149.167 56 193.5s87 66.5 149 66.5s111.667 -22.167 149 -66.5s56 -108.833 56 -193.5v-15l-20 -20h-290c0 -51.333 11.333 -90 34 -116s54.667 -39 96 -39c24.667 0 50.334 7.33301 77.001 22
c14 8 25 15.667 33 23h10l35 -60c-12 -10 -27 -19.333 -45 -28c-34.667 -18 -74.667 -27 -120 -27c-69.333 0 -123.333 22 -162 66zM359.999 285c0 52.667 -9.5 91.667 -28.5 117s-44.5 38 -76.5 38s-57.5 -12.667 -76.5 -38s-28.5 -64.333 -28.5 -117h210zM125.499 580.5
c-10.333 10.333 -15.5 23.5 -15.5 39.5s5.16699 29.167 15.5 39.5s23.5 15.5 39.5 15.5s29.167 -5.16699 39.5 -15.5s15.5 -23.5 15.5 -39.5s-5.16699 -29.167 -15.5 -39.5s-23.5 -15.5 -39.5 -15.5s-29.167 5.16699 -39.5 15.5zM300.499 580.5
c-10.333 10.333 -15.5 23.5 -15.5 39.5s5.16699 29.167 15.5 39.5s23.5 15.5 39.5 15.5s29.167 -5.16699 39.5 -15.5s15.5 -23.5 15.5 -39.5s-5.16699 -29.167 -15.5 -39.5s-23.5 -15.5 -39.5 -15.5s-29.167 5.16699 -39.5 15.5z" />
    <glyph glyph-name="uni0452" unicode="&#x452;" horiz-adv-x="555" 
d="M278 -133c-3.33301 1.33301 -6.99902 2.50195 -10.999 3.50195s-8 2.5 -12 4.5l10 65h10c4 -2.66699 8 -4.33398 12 -5.00098c8.66699 -3.33301 18 -5 28 -5c23.333 0 41.666 7.66699 54.999 23s20 37.666 20 66.999v260c0 28 -8.83301 50.833 -26.5 68.5
s-40.5 26.5 -68.5 26.5c-24.667 0 -49.667 -10 -75 -30c-10.667 -8.66699 -20.667 -18.667 -30 -30v-315h-100v520h-65v70h65v80l30 30h70v-110h135v-70h-135v-120c10.667 10.667 21.667 19 33 25c32 16.667 64.333 25 97 25c50 0 90.833 -15.833 122.5 -47.5
s47.5 -72.5 47.5 -122.5v-260c0 -48 -14.333 -86.667 -43 -116s-66 -44 -112 -44c-20.667 0 -39.667 2.33301 -57 7z" />
    <glyph glyph-name="uni0453" unicode="&#x453;" horiz-adv-x="415" 
d="M75 0v500h330v-70h-230v-430h-100zM230 550l45 150h110l-90 -150h-65z" />
    <glyph glyph-name="uni0454" unicode="&#x454;" horiz-adv-x="455" 
d="M108 56c-38.667 44 -58.002 108.666 -58.002 193.999s18.833 150 56.5 194s88.834 66 153.501 66c44 0 84 -9.33301 120 -28c17.333 -8 32.333 -17 45 -27l-35 -60h-10c-8.66699 6.66699 -19.667 14 -33 22c-28 15.333 -53.667 23 -77 23c-34 0 -61 -11.667 -81 -35
s-32.667 -61.666 -38 -114.999h180v-70h-180c4.66699 -106.667 47.667 -160 129 -160c24.667 0 50.334 7.33301 77.001 22c14 8 25 15.667 33 23h10l35 -60c-12 -10 -27 -19.333 -45 -28c-34.667 -18 -74.667 -27 -120 -27c-69.333 0 -123.333 22 -162 66z" />
    <glyph glyph-name="uni0455" unicode="&#x455;" horiz-adv-x="460" 
d="M82 17c-19.333 8.66699 -35.001 18.001 -47.001 28.001l35 60h10c7.33301 -6.66699 19 -14.334 35 -23.001c30.667 -14.667 62.334 -22 95.001 -22c40 0 69.167 6.33301 87.5 19s27.5 29.667 27.5 51c0 22 -9.5 38.667 -28.5 50s-48.5 23.666 -88.5 36.999
c-35.333 12 -63.666 23 -84.999 33s-39.666 24.333 -54.999 43s-23 42.667 -23 72c0 44.667 15.833 80 47.5 106s79.167 39 142.5 39c47.333 0 90.333 -9.33301 129 -28c18.667 -8.66699 34 -17.667 46 -27l-35 -60h-10c-10 7.33301 -21.333 14.666 -34 21.999
c-29.333 15.333 -58 23 -86 23c-33.333 0 -58.333 -6.16699 -75 -18.5s-25 -27.833 -25 -46.5c0 -22 9.5 -38.667 28.5 -50s48.5 -23.666 88.5 -36.999c35.333 -12 63.666 -23 84.999 -33s39.666 -24.333 54.999 -43s23 -42.667 23 -72
c0 -47.333 -16.667 -84.166 -50 -110.499s-85 -39.5 -155 -39.5c-54.667 0 -100.667 9 -138 27z" />
    <glyph glyph-name="uni0456" unicode="&#x456;" horiz-adv-x="250" 
d="M82 597c-11.333 11.333 -17 25.666 -17 42.999s5.66699 31.666 17 42.999s25.666 17 42.999 17s31.666 -5.66699 42.999 -17s17 -25.666 17 -42.999s-5.66699 -31.666 -17 -42.999s-25.666 -17 -42.999 -17s-31.666 5.66699 -42.999 17zM75 0v500h100v-500h-100z" />
    <glyph glyph-name="uni0457" unicode="&#x457;" horiz-adv-x="250" 
d="M75 0v500h100v-500h-100zM25.5 580.5c-10.333 10.333 -15.5 23.5 -15.5 39.5s5.16699 29.167 15.5 39.5s23.5 15.5 39.5 15.5s29.167 -5.16699 39.5 -15.5s15.5 -23.5 15.5 -39.5s-5.16699 -29.167 -15.5 -39.5s-23.5 -15.5 -39.5 -15.5s-29.167 5.16699 -39.5 15.5z
M200.5 580.5c-10.333 10.333 -15.5 23.5 -15.5 39.5s5.16699 29.167 15.5 39.5s23.5 15.5 39.5 15.5s29.167 -5.16699 39.5 -15.5s15.5 -23.5 15.5 -39.5s-5.16699 -29.167 -15.5 -39.5s-23.5 -15.5 -39.5 -15.5s-29.167 5.16699 -39.5 15.5z" />
    <glyph glyph-name="uni0458" unicode="&#x458;" horiz-adv-x="250" 
d="M82 597c-11.333 11.333 -17 25.666 -17 42.999s5.66699 31.666 17 42.999s25.666 17 42.999 17s31.666 -5.66699 42.999 -17s17 -25.666 17 -42.999s-5.66699 -31.666 -17 -42.999s-25.666 -17 -42.999 -17s-31.666 5.66699 -42.999 17zM-63 -185
c-11.333 4 -20.333 9.00098 -27 15.001l25 65h10c6.66699 -6.66699 12 -11 16 -13c12.667 -8 25.667 -12 39 -12c23.333 0 41.666 7.66699 54.999 23s20 37.666 20 66.999v540h100v-540c0 -48 -15 -86.667 -45 -116s-70 -44 -120 -44c-27.333 0 -51.666 5 -72.999 15z" />
    <glyph glyph-name="uni0459" unicode="&#x459;" horiz-adv-x="760" 
d="M26 -5c-4 0.666992 -9.33398 2.33301 -16.001 5l5 65h10l6 -3c6.66699 -1.33301 11.334 -2 14.001 -2c14 0 25.167 7.33301 33.5 22s13.833 40.667 16.5 78l20 340h330v-170h90c133.333 0 200 -55 200 -165s-66.667 -165 -200 -165h-190v430h-135l-15 -270
c-6.66699 -113.333 -50 -170 -130 -170c-14 0 -27 1.66699 -39 5zM534.999 69.999c35.333 0 60.833 7.66699 76.5 23s23.5 39.333 23.5 72s-7.83301 56.667 -23.5 72s-41.167 23 -76.5 23h-90v-190h90z" />
    <glyph glyph-name="uni045A" unicode="&#x45a;" horiz-adv-x="770" 
d="M75 500h100v-190h180v190h100v-190h90c68 0 118.333 -13.5 151 -40.5s49 -65.167 49 -114.5s-16.333 -87.5 -49 -114.5s-83 -40.5 -151 -40.5h-190v240h-180v-240h-100v500zM545 70c34.667 0 60 7 76 21s24 35.333 24 64s-8 50 -24 64s-41.333 21 -76 21h-90v-170h90z
" />
    <glyph glyph-name="uni045B" unicode="&#x45b;" horiz-adv-x="560" 
d="M90 520h-65v70h65v80l30 30h70v-110h135v-70h-135v-120c10.667 10.667 21.667 19 33 25c32 16.667 64.333 25 97 25c50 0 90.833 -15.833 122.5 -47.5s47.5 -72.5 47.5 -122.5v-280h-100v280c0 28 -8.83301 50.833 -26.5 68.5s-40.5 26.5 -68.5 26.5
c-24.667 0 -49.667 -10 -75 -30c-10.667 -8.66699 -20.667 -18.667 -30 -30v-315h-100v520z" />
    <glyph glyph-name="uni045C" unicode="&#x45c;" 
d="M360.5 11c-15.667 14 -27.5 35.334 -35.5 64.001l-25 95c-4 16 -11.5 28.333 -22.5 37s-25.167 13 -42.5 13h-60v-220h-100v500h100v-210h50c36 0 57.667 16.667 65 50l20 85c6.66699 28.667 18 50 34 64s38 21 66 21c16.667 0 31 -1.66699 43 -5l17 -5l-10 -65h-5l-6 2
c-8 2 -12.667 3 -14 3c-14.667 0 -24.667 -10 -30 -30l-20 -85c-6 -25.333 -21 -43.666 -45 -54.999c-12.667 -6 -24.334 -9.33301 -35.001 -10c14.667 -2 27.667 -6.33301 39 -13c26.667 -14.667 43.667 -35.334 51 -62.001l25 -95c5.33301 -20 15.333 -30 30 -30
c2.66699 0 7.33398 0.666992 14.001 2l6 3h5l10 -65c-6.66699 -2.66699 -12.334 -4.33398 -17.001 -5.00098c-13.333 -3.33301 -27.666 -5 -42.999 -5c-27.333 0 -48.833 7 -64.5 21zM225 550.001l45 150h110l-90 -150h-65z" />
    <glyph glyph-name="uni045D" unicode="&#x45d;" horiz-adv-x="550" 
d="M75 500h100v-285c0 -10.667 -0.666992 -26 -2 -46l-2 -24h4l8 24c4.66699 14 12 29.333 22 46l170 285h100v-500h-100v285c0 10.667 0.666992 26 2 46l2 24h-4l-8 -24c-4.66699 -14 -12 -29.333 -22 -46l-170 -285h-100v500zM237 550l-90 150h110l45 -150h-65z" />
    <glyph glyph-name="uni045E" unicode="&#x45e;" horiz-adv-x="475" 
d="M62 -195c-11.333 4 -20.333 8.99902 -27 14.999l25 65h10c6.66699 -6.66699 12 -11 16 -13c12.667 -8 25.667 -12 39 -12c17.333 0 32.833 6.5 46.5 19.5s23.167 29.833 28.5 50.5l20 70h-30l-171 500h96l110 -330c3.33301 -10 8 -27 14 -51c2 -6 4.33301 -15.667 7 -29
h4c1.33301 10.667 3.33301 20.334 6 29.001l13 51l91 330h100l-160 -570c-12 -42 -32.333 -75.833 -61 -101.5s-63.334 -38.5 -104.001 -38.5c-27.333 0 -51.666 5 -72.999 15zM126 584.499c-25.333 23 -38.0039 54.833 -38.0039 95.5h90
c0 -24.667 4.83301 -42.5 14.5 -53.5s24.834 -16.5 45.501 -16.5s35.834 5.5 45.501 16.5s14.5 28.833 14.5 53.5h90c0 -40.667 -12.667 -72.5 -38 -95.5s-62.666 -34.5 -111.999 -34.5s-86.666 11.5 -111.999 34.5z" />
    <glyph glyph-name="uni045F" unicode="&#x45f;" horiz-adv-x="550" 
d="M235 -140l-10 140h-150v500h100v-430h200v430h100v-500h-150l-10 -140h-80z" />
    <glyph glyph-name="uni0462" unicode="&#x462;" horiz-adv-x="634" 
d="M538 383.5c40.667 -37.667 61 -92.167 61 -163.5s-20.333 -125.833 -61 -163.5s-102 -56.5 -184 -56.5h-190v530h-149v70h149v130h100v-130h201v-70h-201v-90h90c82 0 143.333 -18.833 184 -56.5zM499 220c0 100 -48.333 150 -145 150h-90v-300h90
c96.667 0 145 50 145 150z" />
    <glyph glyph-name="uni0463" unicode="&#x463;" horiz-adv-x="515" 
d="M490 165c0 -110 -66.667 -165 -200 -165h-190v430h-85v70h85v200h100v-200h145v-70h-145v-100h90c133.333 0 200 -55 200 -165zM366.5 93c15.667 15.333 23.5 39.333 23.5 72s-7.83301 56.667 -23.5 72s-41.167 23 -76.5 23h-90v-190h90c35.333 0 60.833 7.66699 76.5 23
z" />
    <glyph glyph-name="uni046A" unicode="&#x46a;" horiz-adv-x="860" 
d="M25 0l9.99609 64.999h5c6 -3.33301 12.667 -5 20 -5c20 0 33.333 15 40 45l35 160c6 27.333 14.5 49.5 25.5 66.5s29.167 30.833 54.5 41.5s61.333 17.334 108 20.001l-202 307h618l-202 -306c46.667 -2.66699 82.334 -8.66699 107.001 -18s42.334 -22.333 53.001 -39
s20 -40.667 28 -72l35 -160c7.33301 -30 20.666 -45 39.999 -45c6.66699 0 13.334 1.66699 20.001 5h5l10 -65c-18 -6.66699 -38 -10 -60 -10c-31.333 0 -56.666 8.83301 -75.999 26.5s-32.333 42.167 -39 73.5l-35 160c-12 50 -42 75 -90 75h-55v-325h-100v325h-55
c-48 0 -78 -25 -90 -75l-35 -160c-6.66699 -31.333 -19.667 -55.833 -39 -73.5s-44.666 -26.5 -75.999 -26.5c-23.333 0 -43.333 3.33301 -60 10zM427.996 374.999h4l159 255h-322z" />
    <glyph glyph-name="uni046B" unicode="&#x46b;" horiz-adv-x="740" 
d="M42 -5c-4.66699 0.666992 -10.3311 2.33594 -16.998 5.00293l10 65h5l6 -3c6.66699 -1.33301 11.334 -2 14.001 -2c15.333 0 25.333 10 30 30l25 95c5.33301 21.333 13.166 37.666 23.499 48.999s26.166 19.666 47.499 24.999s51.666 8.66602 90.999 9.99902l-158 231
h495l-158 -230c40 -1.33301 71.167 -4.66602 93.5 -9.99902s39.166 -13.833 50.499 -25.5s19.666 -28.167 24.999 -49.5l25 -95c5.33301 -20 15.333 -30 30 -30c2.66699 0 7.33398 0.666992 14.001 2l6 3h5l10 -65c-6.66699 -2.66699 -12.334 -4.33398 -17.001 -5.00098
c-13.333 -3.33301 -27.666 -5 -42.999 -5c-27.333 0 -48.833 7 -64.5 21s-27.5 35.333 -35.5 64l-25 95c-4 16 -11.5 28.333 -22.5 37s-25.167 13 -42.5 13h-45v-220h-100v220h-45c-17.333 0 -31.5 -4.33301 -42.5 -13s-18.5 -21 -22.5 -37l-25 -95
c-8 -28.667 -19.833 -50 -35.5 -64s-37.167 -21 -64.5 -21c-15.333 0 -29.666 1.66699 -42.999 5zM366.003 260.002h6l103 170h-212z" />
    <glyph glyph-name="uni0472" unicode="&#x472;" horiz-adv-x="600" 
d="M120 76.5c-43.333 57.667 -65 148.834 -65 273.501s21.667 215.834 65 273.501s103.333 86.5 180 86.5s136.667 -28.833 180 -86.5s65 -148.834 65 -273.501s-21.667 -215.834 -65 -273.501s-103.333 -86.5 -180 -86.5s-136.667 28.833 -180 86.5zM404 128.5
c27.333 45.667 41 119.5 41 221.5s-13.667 175.833 -41 221.5s-62 68.5 -104 68.5s-76.667 -22.833 -104 -68.5s-41 -119.5 -41 -221.5s13.667 -175.833 41 -221.5s62 -68.5 104 -68.5s76.667 22.833 104 68.5zM160 315v70h280v-70h-280z" />
    </font>
</defs>
</svg>
