<svg width="871" height="106" viewBox="0 0 871 106" fill="none" xmlns="http://www.w3.org/2000/svg">
<mask id="path-1-outside-1_161_406" maskUnits="userSpaceOnUse" x="0" y="0" width="871" height="106" fill="black">
<rect fill="white" width="871" height="106"/>
<path d="M38.4 52.1L36 61.1H56.85L54.6 52.1C53.2 47.2 51.85 42 50.55 36.5C49.25 31 47.95 25.7 46.65 20.6H46.05C44.85 25.8 43.6 31.15 42.3 36.65C41.1 42.05 39.8 47.2 38.4 52.1ZM3 101.6L33.6 3.8H60.15L90.75 101.6H67.35L61.35 78.35H31.5L25.5 101.6H3ZM101.436 101.6V3.8H129.036C136.536 3.8 143.286 4.75 149.286 6.65C155.286 8.55 160.436 11.5 164.736 15.5C169.036 19.4 172.336 24.4 174.636 30.5C176.936 36.6 178.086 43.85 178.086 52.25C178.086 60.65 176.936 67.95 174.636 74.15C172.336 80.35 169.086 85.5 164.886 89.6C160.686 93.6 155.636 96.6 149.736 98.6C143.936 100.6 137.436 101.6 130.236 101.6H101.436ZM123.486 83.75H127.686C131.886 83.75 135.686 83.2 139.086 82.1C142.486 81 145.386 79.25 147.786 76.85C150.186 74.35 152.036 71.1 153.336 67.1C154.736 63.1 155.436 58.15 155.436 52.25C155.436 46.45 154.736 41.6 153.336 37.7C152.036 33.7 150.186 30.55 147.786 28.25C145.386 25.85 142.486 24.15 139.086 23.15C135.686 22.15 131.886 21.65 127.686 21.65H123.486V83.75ZM212.136 101.6L182.586 3.8H205.986L217.686 49.4C219.186 54.8 220.486 60.05 221.586 65.15C222.786 70.15 224.136 75.35 225.636 80.75H226.236C227.636 75.35 228.936 70.15 230.136 65.15C231.336 60.05 232.636 54.8 234.036 49.4L245.586 3.8H268.086L238.686 101.6H212.136ZM298.849 52.1L296.449 61.1H317.299L315.049 52.1C313.649 47.2 312.299 42 310.999 36.5C309.699 31 308.399 25.7 307.099 20.6H306.499C305.299 25.8 304.049 31.15 302.749 36.65C301.549 42.05 300.249 47.2 298.849 52.1ZM263.449 101.6L294.049 3.8H320.599L351.199 101.6H327.799L321.799 78.35H291.949L285.949 101.6H263.449ZM361.886 101.6V3.8H384.536L410.036 52.4L419.636 74H420.236C419.736 68.8 419.136 63 418.436 56.6C417.836 50.2 417.536 44.1 417.536 38.3V3.8H438.536V101.6H415.886L390.386 52.85L380.786 31.55H380.186C380.686 36.95 381.236 42.75 381.836 48.95C382.536 55.15 382.886 61.15 382.886 66.95V101.6H361.886ZM480.691 101.6V22.4H453.841V3.8H529.741V22.4H502.891V101.6H480.691ZM561.935 52.1L559.535 61.1H580.385L578.135 52.1C576.735 47.2 575.385 42 574.085 36.5C572.785 31 571.485 25.7 570.185 20.6H569.585C568.385 25.8 567.135 31.15 565.835 36.65C564.635 42.05 563.335 47.2 561.935 52.1ZM526.535 101.6L557.135 3.8H583.685L614.285 101.6H590.885L584.885 78.35H555.035L549.035 101.6H526.535ZM666.707 103.4C660.007 103.4 653.707 102.35 647.807 100.25C642.007 98.05 636.957 94.85 632.657 90.65C628.357 86.45 624.957 81.25 622.457 75.05C620.057 68.75 618.857 61.5 618.857 53.3C618.857 45.2 620.107 38 622.607 31.7C625.107 25.3 628.507 19.9 632.807 15.5C637.207 11.1 642.307 7.75 648.107 5.45C653.907 3.15 660.057 2 666.557 2C673.657 2 679.757 3.3 684.857 5.9C689.957 8.5 694.107 11.45 697.307 14.75L685.757 28.85C683.257 26.65 680.607 24.8 677.807 23.3C675.007 21.8 671.507 21.05 667.307 21.05C663.507 21.05 660.007 21.8 656.807 23.3C653.707 24.7 651.007 26.75 648.707 29.45C646.407 32.15 644.607 35.45 643.307 39.35C642.107 43.25 641.507 47.65 641.507 52.55C641.507 62.65 643.757 70.5 648.257 76.1C652.857 81.6 659.757 84.35 668.957 84.35C670.957 84.35 672.907 84.1 674.807 83.6C676.707 83.1 678.257 82.35 679.457 81.35V64.55H663.257V46.55H698.957V91.55C695.557 94.85 691.057 97.65 685.457 99.95C679.857 102.25 673.607 103.4 666.707 103.4ZM719.161 101.6V3.8H780.361V22.4H741.211V42.05H774.511V60.5H741.211V83H781.861V101.6H719.161ZM831.189 103.4C824.789 103.4 818.389 102.25 811.989 99.95C805.689 97.55 800.039 94 795.039 89.3L807.639 74.15C811.139 77.15 814.989 79.6 819.189 81.5C823.489 83.4 827.689 84.35 831.789 84.35C836.389 84.35 839.789 83.5 841.989 81.8C844.289 80.1 845.439 77.8 845.439 74.9C845.439 73.4 845.089 72.1 844.389 71C843.789 69.9 842.839 68.95 841.539 68.15C840.339 67.25 838.839 66.45 837.039 65.75C835.339 64.95 833.439 64.1 831.339 63.2L818.589 57.8C816.089 56.8 813.639 55.5 811.239 53.9C808.939 52.3 806.839 50.45 804.939 48.35C803.139 46.15 801.689 43.65 800.589 40.85C799.489 37.95 798.939 34.7 798.939 31.1C798.939 27.1 799.789 23.35 801.489 19.85C803.189 16.25 805.589 13.15 808.689 10.55C811.789 7.85 815.439 5.75 819.639 4.25C823.939 2.75 828.639 2 833.739 2C839.439 2 845.039 3.1 850.539 5.3C856.139 7.5 861.039 10.7 865.239 14.9L853.989 28.85C850.789 26.35 847.589 24.45 844.389 23.15C841.189 21.75 837.639 21.05 833.739 21.05C829.939 21.05 826.889 21.85 824.589 23.45C822.389 24.95 821.289 27.1 821.289 29.9C821.289 31.4 821.639 32.7 822.339 33.8C823.139 34.8 824.189 35.75 825.489 36.65C826.889 37.45 828.489 38.25 830.289 39.05C832.089 39.75 834.039 40.55 836.139 41.45L848.739 46.55C854.739 48.95 859.439 52.25 862.839 56.45C866.339 60.65 868.089 66.2 868.089 73.1C868.089 77.2 867.239 81.1 865.539 84.8C863.939 88.4 861.539 91.6 858.339 94.4C855.239 97.1 851.389 99.3 846.789 101C842.189 102.6 836.989 103.4 831.189 103.4Z"/>
</mask>
<path d="M38.4 52.1L36 61.1H56.85L54.6 52.1C53.2 47.2 51.85 42 50.55 36.5C49.25 31 47.95 25.7 46.65 20.6H46.05C44.85 25.8 43.6 31.15 42.3 36.65C41.1 42.05 39.8 47.2 38.4 52.1ZM3 101.6L33.6 3.8H60.15L90.75 101.6H67.35L61.35 78.35H31.5L25.5 101.6H3ZM101.436 101.6V3.8H129.036C136.536 3.8 143.286 4.75 149.286 6.65C155.286 8.55 160.436 11.5 164.736 15.5C169.036 19.4 172.336 24.4 174.636 30.5C176.936 36.6 178.086 43.85 178.086 52.25C178.086 60.65 176.936 67.95 174.636 74.15C172.336 80.35 169.086 85.5 164.886 89.6C160.686 93.6 155.636 96.6 149.736 98.6C143.936 100.6 137.436 101.6 130.236 101.6H101.436ZM123.486 83.75H127.686C131.886 83.75 135.686 83.2 139.086 82.1C142.486 81 145.386 79.25 147.786 76.85C150.186 74.35 152.036 71.1 153.336 67.1C154.736 63.1 155.436 58.15 155.436 52.25C155.436 46.45 154.736 41.6 153.336 37.7C152.036 33.7 150.186 30.55 147.786 28.25C145.386 25.85 142.486 24.15 139.086 23.15C135.686 22.15 131.886 21.65 127.686 21.65H123.486V83.75ZM212.136 101.6L182.586 3.8H205.986L217.686 49.4C219.186 54.8 220.486 60.05 221.586 65.15C222.786 70.15 224.136 75.35 225.636 80.75H226.236C227.636 75.35 228.936 70.15 230.136 65.15C231.336 60.05 232.636 54.8 234.036 49.4L245.586 3.8H268.086L238.686 101.6H212.136ZM298.849 52.1L296.449 61.1H317.299L315.049 52.1C313.649 47.2 312.299 42 310.999 36.5C309.699 31 308.399 25.7 307.099 20.6H306.499C305.299 25.8 304.049 31.15 302.749 36.65C301.549 42.05 300.249 47.2 298.849 52.1ZM263.449 101.6L294.049 3.8H320.599L351.199 101.6H327.799L321.799 78.35H291.949L285.949 101.6H263.449ZM361.886 101.6V3.8H384.536L410.036 52.4L419.636 74H420.236C419.736 68.8 419.136 63 418.436 56.6C417.836 50.2 417.536 44.1 417.536 38.3V3.8H438.536V101.6H415.886L390.386 52.85L380.786 31.55H380.186C380.686 36.95 381.236 42.75 381.836 48.95C382.536 55.15 382.886 61.15 382.886 66.95V101.6H361.886ZM480.691 101.6V22.4H453.841V3.8H529.741V22.4H502.891V101.6H480.691ZM561.935 52.1L559.535 61.1H580.385L578.135 52.1C576.735 47.2 575.385 42 574.085 36.5C572.785 31 571.485 25.7 570.185 20.6H569.585C568.385 25.8 567.135 31.15 565.835 36.65C564.635 42.05 563.335 47.2 561.935 52.1ZM526.535 101.6L557.135 3.8H583.685L614.285 101.6H590.885L584.885 78.35H555.035L549.035 101.6H526.535ZM666.707 103.4C660.007 103.4 653.707 102.35 647.807 100.25C642.007 98.05 636.957 94.85 632.657 90.65C628.357 86.45 624.957 81.25 622.457 75.05C620.057 68.75 618.857 61.5 618.857 53.3C618.857 45.2 620.107 38 622.607 31.7C625.107 25.3 628.507 19.9 632.807 15.5C637.207 11.1 642.307 7.75 648.107 5.45C653.907 3.15 660.057 2 666.557 2C673.657 2 679.757 3.3 684.857 5.9C689.957 8.5 694.107 11.45 697.307 14.75L685.757 28.85C683.257 26.65 680.607 24.8 677.807 23.3C675.007 21.8 671.507 21.05 667.307 21.05C663.507 21.05 660.007 21.8 656.807 23.3C653.707 24.7 651.007 26.75 648.707 29.45C646.407 32.15 644.607 35.45 643.307 39.35C642.107 43.25 641.507 47.65 641.507 52.55C641.507 62.65 643.757 70.5 648.257 76.1C652.857 81.6 659.757 84.35 668.957 84.35C670.957 84.35 672.907 84.1 674.807 83.6C676.707 83.1 678.257 82.35 679.457 81.35V64.55H663.257V46.55H698.957V91.55C695.557 94.85 691.057 97.65 685.457 99.95C679.857 102.25 673.607 103.4 666.707 103.4ZM719.161 101.6V3.8H780.361V22.4H741.211V42.05H774.511V60.5H741.211V83H781.861V101.6H719.161ZM831.189 103.4C824.789 103.4 818.389 102.25 811.989 99.95C805.689 97.55 800.039 94 795.039 89.3L807.639 74.15C811.139 77.15 814.989 79.6 819.189 81.5C823.489 83.4 827.689 84.35 831.789 84.35C836.389 84.35 839.789 83.5 841.989 81.8C844.289 80.1 845.439 77.8 845.439 74.9C845.439 73.4 845.089 72.1 844.389 71C843.789 69.9 842.839 68.95 841.539 68.15C840.339 67.25 838.839 66.45 837.039 65.75C835.339 64.95 833.439 64.1 831.339 63.2L818.589 57.8C816.089 56.8 813.639 55.5 811.239 53.9C808.939 52.3 806.839 50.45 804.939 48.35C803.139 46.15 801.689 43.65 800.589 40.85C799.489 37.95 798.939 34.7 798.939 31.1C798.939 27.1 799.789 23.35 801.489 19.85C803.189 16.25 805.589 13.15 808.689 10.55C811.789 7.85 815.439 5.75 819.639 4.25C823.939 2.75 828.639 2 833.739 2C839.439 2 845.039 3.1 850.539 5.3C856.139 7.5 861.039 10.7 865.239 14.9L853.989 28.85C850.789 26.35 847.589 24.45 844.389 23.15C841.189 21.75 837.639 21.05 833.739 21.05C829.939 21.05 826.889 21.85 824.589 23.45C822.389 24.95 821.289 27.1 821.289 29.9C821.289 31.4 821.639 32.7 822.339 33.8C823.139 34.8 824.189 35.75 825.489 36.65C826.889 37.45 828.489 38.25 830.289 39.05C832.089 39.75 834.039 40.55 836.139 41.45L848.739 46.55C854.739 48.95 859.439 52.25 862.839 56.45C866.339 60.65 868.089 66.2 868.089 73.1C868.089 77.2 867.239 81.1 865.539 84.8C863.939 88.4 861.539 91.6 858.339 94.4C855.239 97.1 851.389 99.3 846.789 101C842.189 102.6 836.989 103.4 831.189 103.4Z" stroke="#503B5C" stroke-opacity="0.04" stroke-width="4" mask="url(#path-1-outside-1_161_406)"/>
</svg>
