<svg width="25" height="19" viewBox="0 0 25 19" fill="none" xmlns="http://www.w3.org/2000/svg">
<path d="M0 0H25V18.75H0V0Z" fill="#41479B"/>
<path d="M25 16.3086L15.7552 9.37502L25 2.44141V0H21.7448L12.5 6.93361L3.25521 0H0V2.44141L9.2448 9.37502L0 16.3086V18.75H3.25525L12.5 11.8164L21.7448 18.75H25V16.3086Z" fill="white"/>
<path fill-rule="evenodd" clip-rule="evenodd" d="M2.77013e-05 0L0 3.69349e-05V0.976557L11.1979 9.37503L0 17.7735V18.75H1.30216L12.5 10.3516L23.6979 18.75H25V17.7735L13.8021 9.37503L25 0.976589V0H23.698L12.5 8.39846L1.30209 0H2.77013e-05Z" fill="#DC251C"/>
<path fill-rule="evenodd" clip-rule="evenodd" d="M9.375 6.25V0H15.625V6.25H25V12.5H15.625V18.75H9.375V12.5H0V6.25H9.375Z" fill="white"/>
<path fill-rule="evenodd" clip-rule="evenodd" d="M10.9375 7.8125V0H14.0625V7.8125H25V10.9375H14.0625V18.75H10.9375V10.9375H0V7.8125H10.9375Z" fill="#DC251C"/>
</svg>
