<svg width="26" height="26" viewBox="0 0 26 26" fill="none" xmlns="http://www.w3.org/2000/svg">
<path d="M25.9999 12.9999C25.9999 5.82027 20.1796 0 12.9999 0C5.82027 0 0 5.82027 0 12.9999C0 19.4886 4.75388 24.8667 10.9687 25.8419V16.7577H7.66794V12.9999H10.9687V10.1359C10.9687 6.87777 12.9095 5.07811 15.879 5.07811C17.3013 5.07811 18.789 5.33201 18.789 5.33201V8.53121H17.1497C15.5348 8.53121 15.0312 9.5333 15.0312 10.5614V12.9999H18.6366L18.0603 16.7577H15.0312V25.8419C21.246 24.8667 25.9999 19.4886 25.9999 12.9999Z" fill="#395693"/>
<path d="M18.0603 16.7578L18.6367 13H15.0312V10.5614C15.0312 9.53332 15.5348 8.53123 17.1497 8.53123H18.789V5.33202C18.789 5.33202 17.3013 5.07812 15.879 5.07812C12.9095 5.07812 10.9687 6.87779 10.9687 10.1359V13H7.66797V16.7578H10.9687V25.842C11.6407 25.9473 12.3198 26.0001 13 25.9999C13.691 25.9999 14.3693 25.9458 15.0312 25.842V16.7578H18.0603Z" fill="white"/>
</svg>
