<svg width="295" height="154" viewBox="0 0 295 154" fill="none" xmlns="http://www.w3.org/2000/svg">
<path d="M251.572 119.654C254.062 122.999 257.276 125.373 261.23 126.792L261.241 126.796L261.251 126.8C265.721 128.519 270.361 129.379 275.176 129.379C277.598 129.379 279.835 129.205 281.889 128.863L281.898 128.862C284.087 128.516 285.963 128.059 287.537 127.497L288.582 127.123L288.845 128.203L293.43 147.071L293.618 147.846L292.905 148.202C290.684 149.313 287.774 150.215 284.209 150.929C280.71 151.772 276.696 152.187 272.178 152.187C265.979 152.187 260.235 151.353 254.956 149.674C249.698 148.12 244.907 145.905 240.59 143.028M251.572 119.654L240.587 143.026C240.588 143.026 240.589 143.027 240.59 143.028M251.572 119.654C262.351 116.276 270.976 109.676 277.422 99.8921C284.141 89.6939 287.462 76.7318 287.462 61.0753C287.462 51.6999 286.157 43.2987 283.528 35.8855C281.022 28.3702 277.432 22.0162 272.743 16.8465C268.056 11.6791 262.407 7.77315 255.807 5.13162C249.323 2.37157 242.137 1 234.264 1C226.389 1 219.145 2.37243 212.546 5.1314C206.062 7.77332 200.474 11.6789 195.79 16.8425C191.099 21.8957 187.449 28.1916 184.826 35.7047L184.823 35.7136C182.312 43.1259 181.066 51.5845 181.066 61.0753C181.066 69.2638 182.016 76.7627 183.925 83.5649L183.926 83.5694C185.834 90.2475 188.583 96.1696 192.18 101.325C195.775 106.478 200.096 110.741 205.142 114.105L205.153 114.113L205.165 114.12C210.187 117.273 215.716 119.514 221.746 120.845C223.752 125.218 226.317 129.256 229.439 132.957M240.59 143.028C236.392 140.269 232.675 136.911 229.439 132.957M240.59 143.028C240.591 143.028 240.592 143.029 240.593 143.029L229.439 132.957M1.57849 119.092V120.092H2.57849H28.5011H29.5011V119.092V75.4774H68.3548H69.3548V74.4774V52.6108V51.6108H68.3548H29.5011V26.9828H75.0559H76.0559V25.9828V4.11613V3.11613H75.0559H2.57849H1.57849V4.11613V119.092ZM72.5764 118.794L72.1701 120.092H73.5308H99.9824H100.757L100.951 119.342L107.811 92.7592H141.354L148.214 119.342L148.408 120.092H149.182H176.692H178.053L177.646 118.794L141.672 3.81753L141.453 3.11613H140.718H109.505H108.77L108.551 3.81753L72.5764 118.794Z" stroke="#503B5C" stroke-opacity="0.04" stroke-width="2"/>
</svg>
