<svg width="824" height="120" viewBox="0 0 824 120" fill="none" xmlns="http://www.w3.org/2000/svg">
<mask id="path-1-outside-1_484_1060" maskUnits="userSpaceOnUse" x="0" y="0" width="824" height="120" fill="black">
<rect fill="white" width="824" height="120"/>
<path d="M2 116.361V2.64068H79.2015V25.705H28.2677V50.2109H70.232V71.5134H28.2677V116.361H2ZM173.114 93.2964V116.361H93.19V2.64068H171.673V25.705H119.458V47.8084H164.305V69.1109H119.458V93.2964H173.114ZM268.997 93.2964V116.361H189.073V2.64068H267.555V25.705H215.34V47.8084H260.188V69.1109H215.34V93.2964H268.997ZM284.955 116.361V2.64068H327.4C339.893 2.64068 350.304 5.20338 358.633 10.3288C367.068 15.3474 373.422 22.1813 377.693 30.8304C381.964 39.3728 384.1 48.8762 384.1 59.3405C384.1 70.8727 381.751 80.91 377.052 89.4523C372.354 97.9947 365.734 104.615 357.191 109.313C348.756 114.012 338.825 116.361 327.4 116.361H284.955ZM357.351 59.3405C357.351 49.3033 354.735 41.188 349.503 34.9948C344.271 28.8016 336.903 25.705 327.4 25.705H311.223V93.2964H327.4C333.807 93.2964 339.252 91.8549 343.737 88.9718C348.222 85.982 351.585 81.9244 353.828 76.799C356.177 71.6736 357.351 65.8541 357.351 59.3405ZM493.627 87.21C493.627 93.7235 491.865 99.1693 488.341 103.547C484.817 107.818 480.119 111.022 474.246 113.157C468.48 115.293 462.073 116.361 455.026 116.361H399.607V2.64068H462.874C468.213 2.64068 472.805 4.0822 476.649 6.96524C480.493 9.74151 483.482 13.372 485.618 17.8567C487.754 22.3415 488.821 26.9864 488.821 31.7915C488.821 37.1304 487.433 42.2558 484.657 47.1677C481.881 52.0795 477.823 55.71 472.484 58.0592C478.891 59.9812 484.016 63.3982 487.86 68.31C491.704 73.2219 493.627 79.5219 493.627 87.21ZM425.875 25.0643V48.6092H451.662C454.545 48.6092 457.108 47.6482 459.35 45.7262C461.593 43.8041 462.714 40.8143 462.714 36.7567C462.714 33.0194 461.699 30.1364 459.671 28.1076C457.749 26.0788 455.4 25.0643 452.623 25.0643H425.875ZM466.878 81.9244C466.878 78.4007 465.864 75.4108 463.835 72.9549C461.806 70.499 459.244 69.271 456.147 69.271H425.875V94.0972H455.026C458.336 94.0972 461.112 92.9761 463.355 90.7337C465.704 88.3845 466.878 85.4481 466.878 81.9244ZM535.266 2.64068H563.615L602.697 116.361H575.788L566.979 90.8939H531.582L522.932 116.361H496.024L535.266 2.64068ZM562.654 72.7947L549.36 29.0686L535.746 72.7947H562.654ZM602.793 58.5397C602.793 51.7058 604.074 44.9253 606.637 38.1982C609.2 31.4711 612.937 25.3847 617.849 19.9389C622.761 14.4932 628.74 10.1686 635.788 6.96524C642.835 3.65508 650.844 2 659.813 2C670.384 2 679.621 4.29576 687.523 8.88728C695.424 13.4788 701.297 19.4584 705.141 26.8262L684.96 40.9211C683.251 36.9703 680.956 33.8737 678.073 31.6313C675.189 29.2821 672.093 27.6805 668.783 26.8262C665.473 25.8652 662.269 25.3847 659.173 25.3847C652.445 25.3847 646.893 27.0932 642.515 30.5101C638.137 33.927 634.88 38.2516 632.745 43.4838C630.609 48.716 629.541 54.055 629.541 59.5007C629.541 65.4804 630.769 71.1397 633.225 76.4786C635.681 81.7108 639.151 85.9286 643.636 89.132C648.121 92.3354 653.406 93.9371 659.493 93.9371C662.696 93.9371 665.953 93.4566 669.263 92.4955C672.573 91.4277 675.617 89.7193 678.393 87.3701C681.276 85.021 683.465 81.9778 684.96 78.2405L706.422 90.8939C704.18 96.5532 700.496 101.358 695.371 105.309C690.245 109.153 684.426 112.143 677.912 114.279C671.506 116.307 665.152 117.322 658.852 117.322C650.63 117.322 643.102 115.667 636.268 112.357C629.435 108.94 623.508 104.455 618.49 98.9023C613.471 93.243 609.574 86.943 606.797 80.0024C604.128 72.9549 602.793 65.8007 602.793 58.5397ZM719.633 116.361V2.64068H745.9V51.6524L787.544 2.64068H817.015L774.41 53.4143L819.898 116.361H789.787L757.753 70.7125L745.9 82.8854V116.361H719.633Z"/>
</mask>
<path d="M2 116.361V2.64068H79.2015V25.705H28.2677V50.2109H70.232V71.5134H28.2677V116.361H2ZM173.114 93.2964V116.361H93.19V2.64068H171.673V25.705H119.458V47.8084H164.305V69.1109H119.458V93.2964H173.114ZM268.997 93.2964V116.361H189.073V2.64068H267.555V25.705H215.34V47.8084H260.188V69.1109H215.34V93.2964H268.997ZM284.955 116.361V2.64068H327.4C339.893 2.64068 350.304 5.20338 358.633 10.3288C367.068 15.3474 373.422 22.1813 377.693 30.8304C381.964 39.3728 384.1 48.8762 384.1 59.3405C384.1 70.8727 381.751 80.91 377.052 89.4523C372.354 97.9947 365.734 104.615 357.191 109.313C348.756 114.012 338.825 116.361 327.4 116.361H284.955ZM357.351 59.3405C357.351 49.3033 354.735 41.188 349.503 34.9948C344.271 28.8016 336.903 25.705 327.4 25.705H311.223V93.2964H327.4C333.807 93.2964 339.252 91.8549 343.737 88.9718C348.222 85.982 351.585 81.9244 353.828 76.799C356.177 71.6736 357.351 65.8541 357.351 59.3405ZM493.627 87.21C493.627 93.7235 491.865 99.1693 488.341 103.547C484.817 107.818 480.119 111.022 474.246 113.157C468.48 115.293 462.073 116.361 455.026 116.361H399.607V2.64068H462.874C468.213 2.64068 472.805 4.0822 476.649 6.96524C480.493 9.74151 483.482 13.372 485.618 17.8567C487.754 22.3415 488.821 26.9864 488.821 31.7915C488.821 37.1304 487.433 42.2558 484.657 47.1677C481.881 52.0795 477.823 55.71 472.484 58.0592C478.891 59.9812 484.016 63.3982 487.86 68.31C491.704 73.2219 493.627 79.5219 493.627 87.21ZM425.875 25.0643V48.6092H451.662C454.545 48.6092 457.108 47.6482 459.35 45.7262C461.593 43.8041 462.714 40.8143 462.714 36.7567C462.714 33.0194 461.699 30.1364 459.671 28.1076C457.749 26.0788 455.4 25.0643 452.623 25.0643H425.875ZM466.878 81.9244C466.878 78.4007 465.864 75.4108 463.835 72.9549C461.806 70.499 459.244 69.271 456.147 69.271H425.875V94.0972H455.026C458.336 94.0972 461.112 92.9761 463.355 90.7337C465.704 88.3845 466.878 85.4481 466.878 81.9244ZM535.266 2.64068H563.615L602.697 116.361H575.788L566.979 90.8939H531.582L522.932 116.361H496.024L535.266 2.64068ZM562.654 72.7947L549.36 29.0686L535.746 72.7947H562.654ZM602.793 58.5397C602.793 51.7058 604.074 44.9253 606.637 38.1982C609.2 31.4711 612.937 25.3847 617.849 19.9389C622.761 14.4932 628.74 10.1686 635.788 6.96524C642.835 3.65508 650.844 2 659.813 2C670.384 2 679.621 4.29576 687.523 8.88728C695.424 13.4788 701.297 19.4584 705.141 26.8262L684.96 40.9211C683.251 36.9703 680.956 33.8737 678.073 31.6313C675.189 29.2821 672.093 27.6805 668.783 26.8262C665.473 25.8652 662.269 25.3847 659.173 25.3847C652.445 25.3847 646.893 27.0932 642.515 30.5101C638.137 33.927 634.88 38.2516 632.745 43.4838C630.609 48.716 629.541 54.055 629.541 59.5007C629.541 65.4804 630.769 71.1397 633.225 76.4786C635.681 81.7108 639.151 85.9286 643.636 89.132C648.121 92.3354 653.406 93.9371 659.493 93.9371C662.696 93.9371 665.953 93.4566 669.263 92.4955C672.573 91.4277 675.617 89.7193 678.393 87.3701C681.276 85.021 683.465 81.9778 684.96 78.2405L706.422 90.8939C704.18 96.5532 700.496 101.358 695.371 105.309C690.245 109.153 684.426 112.143 677.912 114.279C671.506 116.307 665.152 117.322 658.852 117.322C650.63 117.322 643.102 115.667 636.268 112.357C629.435 108.94 623.508 104.455 618.49 98.9023C613.471 93.243 609.574 86.943 606.797 80.0024C604.128 72.9549 602.793 65.8007 602.793 58.5397ZM719.633 116.361V2.64068H745.9V51.6524L787.544 2.64068H817.015L774.41 53.4143L819.898 116.361H789.787L757.753 70.7125L745.9 82.8854V116.361H719.633Z" stroke="black" stroke-opacity="0.04" stroke-width="3.824" mask="url(#path-1-outside-1_484_1060)"/>
</svg>
