<svg width="93" height="53" viewBox="0 0 93 53" fill="none" xmlns="http://www.w3.org/2000/svg">
<path d="M1.00677 1.00677H91.9932V20.6747L74.3499 51.2989H1.00677V1.00677Z" stroke="white" stroke-width="2.01354"/>
<path d="M8.19318 15.9522C8.19318 15.3011 8.51873 14.9756 9.16984 14.9756H19.3705C20.0216 14.9756 20.3472 15.3011 20.3472 15.9522V16.7661C20.3472 17.4172 20.0216 17.7428 19.3705 17.7428H11.0689V24.5794H17.58C18.2311 24.5794 18.5567 24.905 18.5567 25.5561V26.37C18.5567 27.0211 18.2311 27.3466 17.58 27.3466H11.0689V34.5631H19.3163C19.9674 34.5631 20.2929 34.8887 20.2929 35.5398V36.3537C20.2929 37.0048 19.9674 37.3303 19.3163 37.3303H9.11558C8.51873 37.3303 8.13892 37.0048 8.13892 36.3537V15.9522H8.19318Z" fill="white"/>
<path d="M26.2071 15.0298H27.1837C27.8349 15.0298 28.1604 15.3553 28.1604 16.0064V25.8273L35.5939 15.6809C35.8652 15.2468 36.1907 15.0298 36.8419 15.0298H38.1983C38.7952 15.0298 39.0122 15.7352 38.6867 16.1692L32.3926 24.3081L38.8494 36.1366C39.1207 36.6249 38.9037 37.2217 38.2526 37.2217H37.0046C36.3535 37.2217 36.028 37.0047 35.7567 36.4621L30.6021 26.6955L28.2147 29.7882V36.2451C28.2147 36.8962 27.8891 37.2217 27.238 37.2217H26.2613C25.6645 37.2217 25.2847 36.8962 25.2847 36.2451V15.9522C25.2304 15.3011 25.6102 15.0298 26.2071 15.0298Z" fill="white"/>
<path d="M46.5542 17.7428H42.4305C41.7794 17.7428 41.4539 17.4172 41.4539 16.7661V15.9522C41.4539 15.3011 41.7794 14.9756 42.4305 14.9756H53.6079C54.259 14.9756 54.5845 15.3011 54.5845 15.9522V16.7661C54.5845 17.4172 54.259 17.7428 53.6079 17.7428H49.4299V36.2994C49.4299 36.9505 49.1044 37.2761 48.4533 37.2761H47.4766C46.8255 37.2761 46.4999 36.9505 46.4999 36.2994V17.7428H46.5542Z" fill="white"/>
<path d="M58.1658 21.4865C58.1658 16.9288 61.15 14.6499 64.9482 14.6499C68.7463 14.6499 71.622 16.9288 71.622 21.4865V36.2993C71.622 36.9504 71.2965 37.2759 70.6454 37.2759H69.6687C69.0176 37.2759 68.692 36.9504 68.692 36.2993V29.7339H61.0958V36.2993C61.0958 36.9504 60.7702 37.2759 60.1191 37.2759H59.1424C58.4913 37.2759 58.1658 36.9504 58.1658 36.2993V21.4865ZM61.15 27.021H68.7463V21.7578C68.7463 18.5023 67.01 17.3629 64.9482 17.3629C62.832 17.3629 61.15 18.448 61.15 21.7578V27.021Z" fill="white"/>
<path d="M76.885 8.41016C74.6604 8.41016 72.8699 10.2007 72.8699 12.4253C72.8699 14.6499 74.6604 16.4405 76.885 16.4405C79.1097 16.4405 80.9002 14.6499 80.9002 12.4253C80.9545 10.2007 79.1097 8.41016 76.885 8.41016ZM76.885 14.867C75.5828 14.867 74.4976 13.7818 74.4976 12.4796C74.4976 11.1774 75.5828 10.0922 76.885 10.0922C78.1873 10.0922 79.2724 11.1774 79.2724 12.4796C79.3267 13.7818 78.2415 14.867 76.885 14.867Z" fill="white"/>
</svg>
