<svg width="48" height="48" viewBox="0 0 48 48" fill="none" xmlns="http://www.w3.org/2000/svg">
<circle cx="23.8904" cy="23.8904" r="23.3904" stroke="#503B5C"/>
<path d="M24.4391 12C25.4133 12.0108 26.3836 12.1188 27.3344 12.3225C27.7495 12.4113 28.0599 12.7436 28.107 13.1494L28.3329 15.0952C28.4351 15.9886 29.2207 16.6652 30.1573 16.6662C30.409 16.6666 30.658 16.6162 30.8906 16.5174L32.7495 15.7333C33.1361 15.5702 33.5878 15.6592 33.8765 15.9551C35.2198 17.3327 36.2203 18.985 36.8026 20.7875C36.9282 21.1761 36.7836 21.5985 36.4425 21.84L34.7948 23.0061C34.3248 23.3377 34.0472 23.8643 34.0472 24.4243C34.0472 24.9844 34.3248 25.5109 34.7958 25.8433L36.4449 27.0098C36.7862 27.2512 36.9308 27.6737 36.8053 28.0624C36.2232 29.8646 35.2233 31.5167 33.8807 32.8946C33.5923 33.1905 33.141 33.2796 32.7544 33.117L30.8879 32.3318C30.354 32.1075 29.7407 32.1403 29.2361 32.4203C28.7314 32.7004 28.3956 33.1942 28.3315 33.7505L28.1071 35.696C28.0608 36.0972 27.7571 36.4272 27.3481 36.5206C25.4258 36.9598 23.4229 36.9598 21.5005 36.5206C21.0916 36.4272 20.7879 36.0972 20.7416 35.696L20.5175 33.7533C20.4517 33.1981 20.1154 32.7058 19.6111 32.4267C19.1069 32.1477 18.4947 32.1149 17.9625 32.338L16.0956 33.1234C15.7089 33.2861 15.2574 33.1968 14.9691 32.9007C13.6258 31.5213 12.6258 29.8672 12.0445 28.0631C11.9193 27.6745 12.064 27.2524 12.4051 27.0111L14.0552 25.8438C14.5252 25.5122 14.8028 24.9856 14.8028 24.4256C14.8028 23.8656 14.5252 23.339 14.0546 23.007L12.4055 21.8417C12.0639 21.6003 11.9191 21.1777 12.0448 20.7887C12.6271 18.9862 13.6275 17.334 14.9709 15.9564C15.2595 15.6604 15.7112 15.5715 16.0978 15.7346L17.9564 16.5185C18.4912 16.7439 19.106 16.7098 19.6129 16.4255C20.1177 16.1443 20.4537 15.6501 20.5186 15.0937L20.7443 13.1494C20.7915 12.7434 21.1022 12.411 21.5175 12.3223C22.4694 12.1191 23.4408 12.011 24.4391 12ZM24.4394 13.9114C23.8368 13.9182 23.2359 13.9682 22.6416 14.0607L22.4971 15.3059C22.3619 16.465 21.6625 17.4938 20.6145 18.0775C19.5601 18.669 18.2746 18.7401 17.156 18.2688L15.9638 17.7659C15.2048 18.6505 14.6006 19.6479 14.1751 20.7188L15.2339 21.467C16.2145 22.1587 16.7936 23.2573 16.7936 24.4256C16.7936 25.5939 16.2145 26.6925 15.235 27.3835L14.1745 28.1337C14.5996 29.2065 15.2039 30.2057 15.9635 31.092L17.1647 30.5867C18.2771 30.1204 19.5538 30.1886 20.6053 30.7706C21.6569 31.3526 22.3583 32.3793 22.4959 33.5401L22.6405 34.7939C23.8212 34.9867 25.0275 34.9867 26.2082 34.7939L26.3528 33.5401C26.4866 32.3797 27.1872 31.3495 28.2399 30.7653C29.2927 30.1811 30.5721 30.1125 31.6864 30.5808L32.8868 31.0857C33.6457 30.2008 34.2497 29.2032 34.6751 28.1321L33.6161 27.383C32.6355 26.6912 32.0564 25.5927 32.0564 24.4243C32.0564 23.256 32.6355 22.1575 33.6148 21.4666L34.6725 20.718C34.2469 19.6469 33.6427 18.6494 32.8835 17.7647L31.6937 18.2665C31.2088 18.4725 30.6844 18.5785 30.1547 18.5777C28.2041 18.5758 26.5671 17.1657 26.3542 15.3055L26.2096 14.0603C25.6183 13.9679 25.0237 13.9181 24.4394 13.9114ZM24.4226 19.6461C27.1713 19.6461 29.3995 21.7857 29.3995 24.425C29.3995 27.0643 27.1713 29.2038 24.4226 29.2038C21.6739 29.2038 19.4456 27.0643 19.4456 24.425C19.4456 21.7857 21.6739 19.6461 24.4226 19.6461ZM24.4226 21.5577C22.7733 21.5577 21.4364 22.8414 21.4364 24.425C21.4364 26.0085 22.7733 27.2923 24.4226 27.2923C26.0718 27.2923 27.4087 26.0085 27.4087 24.425C27.4087 22.8414 26.0718 21.5577 24.4226 21.5577Z" fill="#4AC6E1"/>
</svg>
