<svg width="48" height="48" viewBox="0 0 48 48" fill="none" xmlns="http://www.w3.org/2000/svg">
<circle cx="23.8904" cy="23.8904" r="23.3904" stroke="#503B5C"/>
<path d="M23.8903 11.4674C30.7515 11.4674 36.3133 17.0304 36.3133 23.8904C36.3133 30.7504 30.7515 36.3135 23.8903 36.3135C17.0291 36.3135 11.4673 30.7504 11.4673 23.8904C11.4673 17.0304 17.0291 11.4674 23.8903 11.4674ZM23.8903 13.5383C18.1819 13.5383 13.5382 18.1821 13.5382 23.8904C13.5382 29.5988 18.1819 34.2425 23.8903 34.2425C29.5987 34.2425 34.2424 29.5988 34.2424 23.8904C34.2424 18.1821 29.5987 13.5383 23.8903 13.5383ZM22.9586 16.4366C23.43 16.4366 23.8201 16.7874 23.8818 17.242L23.8903 17.3683V23.8904H27.9278C28.4421 23.8904 28.8595 24.3078 28.8595 24.8222C28.8595 25.2936 28.5088 25.6836 28.0542 25.7454L27.9278 25.7539H22.9586C22.4871 25.7539 22.0971 25.4031 22.0354 24.9485L22.0269 24.8222V17.3683C22.0269 16.854 22.4443 16.4366 22.9586 16.4366Z" fill="#4AC6E1"/>
</svg>
