<svg width="48" height="48" viewBox="0 0 48 48" fill="none" xmlns="http://www.w3.org/2000/svg">
<circle cx="23.8904" cy="23.8904" r="23.3904" stroke="#503B5C"/>
<path d="M23.8904 11.4674C30.7515 11.4674 36.3135 17.0294 36.3135 23.8904C36.3135 30.7515 30.7515 36.3135 23.8904 36.3135C17.0294 36.3135 11.4674 30.7515 11.4674 23.8904C11.4674 17.0294 17.0294 11.4674 23.8904 11.4674ZM23.8904 13.3309C18.0585 13.3309 13.3309 18.0585 13.3309 23.8904C13.3309 29.7223 18.0585 34.45 23.8904 34.45C29.7223 34.45 34.45 29.7223 34.45 23.8904C34.45 18.0585 29.7223 13.3309 23.8904 13.3309ZM22.3376 25.6785L27.8902 20.1258C28.2541 19.762 28.844 19.762 29.2079 20.1258C29.5387 20.4566 29.5688 20.9742 29.2981 21.339L29.2079 21.4435L22.9964 27.655C22.6656 27.9858 22.148 28.0159 21.7832 27.7452L21.6787 27.655L18.573 24.5493C18.2091 24.1854 18.2091 23.5955 18.573 23.2316C18.9037 22.9008 19.4214 22.8707 19.7861 23.1414L19.8906 23.2316L22.3376 25.6785L27.8902 20.1258L22.3376 25.6785Z" fill="#4AC6E1"/>
</svg>
