<svg width="24" height="24" viewBox="0 0 24 24" fill="none" xmlns="http://www.w3.org/2000/svg">
<path fill-rule="evenodd" clip-rule="evenodd" d="M12 0C5.37258 0 0 5.37258 0 12C0 18.6274 5.37258 24 12 24C18.6274 24 24 18.6274 24 12C24 5.37258 18.6274 0 12 0ZM9.36166 5.63735C10.0443 5.60628 10.2625 5.59868 12.0006 5.59868H11.9986C13.7373 5.59868 13.9546 5.60628 14.6373 5.63735C15.3187 5.66855 15.784 5.77642 16.192 5.93468C16.6133 6.09802 16.9693 6.31669 17.3253 6.67269C17.6813 7.02843 17.9 7.3855 18.064 7.80644C18.2214 8.21338 18.3294 8.67845 18.3614 9.35979C18.392 10.0425 18.4 10.2606 18.4 11.9987C18.4 13.7369 18.392 13.9545 18.3614 14.6372C18.3294 15.3182 18.2214 15.7835 18.064 16.1905C17.9 16.6113 17.6813 16.9684 17.3253 17.3241C16.9697 17.6801 16.6132 17.8993 16.1924 18.0628C15.7852 18.2211 15.3196 18.3289 14.6383 18.3601C13.9556 18.3912 13.7381 18.3988 11.9998 18.3988C10.2618 18.3988 10.0438 18.3912 9.36113 18.3601C8.67992 18.3289 8.21472 18.2211 7.80751 18.0628C7.38684 17.8993 7.02977 17.6801 6.67417 17.3241C6.3183 16.9684 6.09963 16.6113 5.93603 16.1904C5.77789 15.7835 5.67002 15.3184 5.63869 14.637C5.60776 13.9544 5.60002 13.7369 5.60002 11.9987C5.60002 10.2606 5.60802 10.0423 5.63856 9.35965C5.66922 8.67858 5.77723 8.21338 5.93589 7.8063C6.0999 7.3855 6.31856 7.02843 6.67457 6.67269C7.03031 6.31682 7.38738 6.09815 7.80831 5.93468C8.21525 5.77642 8.68032 5.66855 9.36166 5.63735Z" fill="white"/>
<path fill-rule="evenodd" clip-rule="evenodd" d="M11.4265 6.75453C11.538 6.75436 11.6579 6.75441 11.7873 6.75447L12.0006 6.75453C13.7094 6.75453 13.912 6.76066 14.5868 6.79133C15.2108 6.81986 15.5495 6.92413 15.7751 7.01173C16.0737 7.12773 16.2867 7.2664 16.5105 7.4904C16.7345 7.71441 16.8732 7.92774 16.9895 8.22641C17.0771 8.45175 17.1815 8.79042 17.2099 9.41442C17.2405 10.0891 17.2472 10.2918 17.2472 11.9998C17.2472 13.7078 17.2405 13.9105 17.2099 14.5851C17.1813 15.2091 17.0771 15.5478 16.9895 15.7732C16.8735 16.0718 16.7345 16.2845 16.5105 16.5084C16.2865 16.7324 16.0739 16.871 15.7751 16.987C15.5497 17.075 15.2108 17.179 14.5868 17.2076C13.9121 17.2382 13.7094 17.2449 12.0006 17.2449C10.2917 17.2449 10.0891 17.2382 9.41447 17.2076C8.79046 17.1788 8.45179 17.0745 8.22605 16.9869C7.92739 16.8709 7.71405 16.7322 7.49005 16.5082C7.26604 16.2842 7.12738 16.0714 7.01111 15.7726C6.92351 15.5473 6.81911 15.2086 6.79071 14.5846C6.76004 13.9099 6.75391 13.7073 6.75391 11.9982C6.75391 10.2891 6.76004 10.0875 6.79071 9.41282C6.81924 8.78882 6.92351 8.45015 7.01111 8.22454C7.12711 7.92587 7.26604 7.71254 7.49005 7.48854C7.71405 7.26453 7.92739 7.12587 8.22605 7.0096C8.45166 6.9216 8.79046 6.8176 9.41447 6.78893C10.0049 6.76226 10.2337 6.75426 11.4265 6.75293V6.75453ZM15.4169 7.81685C14.9929 7.81685 14.6489 8.16045 14.6489 8.58459C14.6489 9.00859 14.9929 9.35259 15.4169 9.35259C15.8409 9.35259 16.1849 9.00859 16.1849 8.58459C16.1849 8.16058 15.8409 7.81658 15.4169 7.81658V7.81685ZM8.71399 11.9998C8.71399 10.1847 10.1855 8.71315 12.0006 8.71308C13.8156 8.71308 15.2869 10.1847 15.2869 11.9998C15.2869 13.8149 13.8158 15.2858 12.0007 15.2858C10.1856 15.2858 8.71399 13.8149 8.71399 11.9998Z" fill="white"/>
<path d="M12.0005 9.86719C13.1787 9.86719 14.1339 10.8223 14.1339 12.0005C14.1339 13.1787 13.1787 14.1339 12.0005 14.1339C10.8223 14.1339 9.86719 13.1787 9.86719 12.0005C9.86719 10.8223 10.8223 9.86719 12.0005 9.86719Z" fill="white"/>
</svg>
