<svg width="486" height="822" viewBox="0 0 486 822" fill="none" xmlns="http://www.w3.org/2000/svg">
<g filter="url(#filter0_d_60_869)">
<rect x="82.7453" y="79.7255" width="321.373" height="662.588" rx="50.0392" fill="url(#paint0_linear_60_869)" stroke="#232A38" stroke-width="3.45098"/>
<path d="M78 184.549C78 184.073 78.3863 183.686 78.8627 183.686H81.0196V208.706H78.8627C78.3863 208.706 78 208.32 78 207.843V184.549Z" fill="#232A38"/>
<path d="M78.8625 232.431C78.8625 231.955 79.2488 231.569 79.7253 231.569H81.0194V281.608H79.7253C79.2488 281.608 78.8625 281.222 78.8625 280.745V232.431Z" fill="#232A38"/>
<path d="M78.8628 295.843C78.8628 295.367 79.2491 294.98 79.7255 294.98H81.0197V345.02H79.7255C79.2491 345.02 78.8628 344.633 78.8628 344.157V295.843Z" fill="#232A38"/>
<path d="M408 326.902C408 327.379 407.614 327.765 407.137 327.765L405.843 327.765L405.843 248.392L407.137 248.392C407.614 248.392 408 248.778 408 249.255L408 326.902Z" fill="#232A38"/>
<path fill-rule="evenodd" clip-rule="evenodd" d="M86.196 130.627C86.196 104.659 107.247 83.6078 133.216 83.6078H353.216C379.184 83.6078 400.235 104.659 400.235 130.627L400.235 691.843C400.235 717.811 379.184 738.863 353.216 738.863H133.216C107.247 738.863 86.196 717.811 86.196 691.843L86.196 130.627ZM96.549 130.196C96.549 110.184 112.772 93.9608 132.784 93.9608H159.994C162.361 93.9787 164.275 95.9031 164.275 98.2744V98.2745H164.275V93.9608L164.275 93.9608V102.157C164.275 110.733 171.228 117.686 179.804 117.686H306.196C314.773 117.686 321.726 110.733 321.726 102.157V98.2114C321.759 95.8661 323.665 93.9737 326.015 93.9608H353.647C373.659 93.9608 389.882 110.184 389.882 130.196L389.882 691.843C389.882 711.855 373.659 728.078 353.647 728.078H132.784C112.772 728.078 96.549 711.855 96.549 691.843L96.549 130.196Z" fill="#232A38"/>
<rect x="225.098" y="99.5686" width="36.6667" height="6.03922" rx="3.01961" fill="#4F5560"/>
<circle cx="276" cy="102.588" r="3.01961" fill="#4F5560"/>
</g>
<path d="M137.096 415.061L135.827 415.296L136.023 416.351H137.096V415.061ZM124.606 347.758V346.468H123.054L123.337 347.994L124.606 347.758ZM140.193 347.758L141.469 347.57L141.307 346.468H140.193V347.758ZM144.838 379.242L146.119 379.091L146.117 379.072L146.114 379.053L144.838 379.242ZM146.18 389.874L144.901 390.046L144.901 390.049L146.18 389.874ZM147.522 400.506L146.24 400.654L146.372 401.796H147.522V400.506ZM147.934 400.506V401.796H149L149.202 400.75L147.934 400.506ZM149.896 389.874L148.629 389.63L148.627 389.64L148.625 389.65L149.896 389.874ZM151.96 379.242L150.703 378.953L150.698 378.973L150.694 378.993L151.96 379.242ZM159.186 347.758V346.468H158.158L157.928 347.47L159.186 347.758ZM172.089 347.758L173.347 347.47L173.117 346.468H172.089V347.758ZM179.315 379.242L180.58 378.989L180.576 378.971L180.572 378.953L179.315 379.242ZM181.276 389.771L180.004 389.991L180.007 390.005L180.01 390.019L181.276 389.771ZM183.34 400.506L182.072 400.745L182.271 401.796H183.34V400.506ZM183.753 400.506V401.796H184.884L185.032 400.675L183.753 400.506ZM185.095 389.771L183.817 389.595L183.815 389.607L183.814 389.62L185.095 389.771ZM186.54 379.242L185.264 379.053L185.262 379.066L186.54 379.242ZM191.185 347.758V346.468H190.072L189.909 347.57L191.185 347.758ZM205.74 347.758L207.01 347.984L207.28 346.468H205.74V347.758ZM193.766 415.061V416.351H194.847L195.036 415.287L193.766 415.061ZM174.67 415.061L173.408 415.333L173.628 416.351H174.67V415.061ZM168.063 384.506L166.801 384.772L166.802 384.779L168.063 384.506ZM166.515 376.661L165.24 376.857L165.242 376.876L165.246 376.895L166.515 376.661ZM165.379 368.919L166.657 368.742L166.503 367.629H165.379V368.919ZM164.966 368.919V367.629H163.873L163.694 368.707L164.966 368.919ZM163.625 376.661L162.355 376.433L162.352 376.447L162.35 376.46L163.625 376.661ZM162.179 384.506L160.917 384.24L160.916 384.246L162.179 384.506ZM155.883 415.061V416.351H156.934L157.146 415.321L155.883 415.061ZM138.365 414.825L125.874 347.523L123.337 347.994L135.827 415.296L138.365 414.825ZM124.606 349.049H140.193V346.468H124.606V349.049ZM138.916 347.947L143.561 379.43L146.114 379.053L141.469 347.57L138.916 347.947ZM143.556 379.393C143.97 382.909 144.418 386.461 144.901 390.046L147.458 389.702C146.978 386.13 146.531 382.593 146.119 379.091L143.556 379.393ZM144.901 390.049C145.382 393.55 145.828 397.084 146.24 400.654L148.803 400.358C148.389 396.771 147.941 393.217 147.458 389.698L144.901 390.049ZM147.522 401.796H147.934V399.216H147.522V401.796ZM149.202 400.75C149.891 397.165 150.546 393.614 151.166 390.098L148.625 389.65C148.007 393.153 147.354 396.69 146.667 400.262L149.202 400.75ZM151.163 390.118C151.851 386.541 152.539 382.998 153.226 379.49L150.694 378.993C150.006 382.505 149.317 386.05 148.629 389.63L151.163 390.118ZM153.218 379.53L160.444 348.047L157.928 347.47L150.703 378.953L153.218 379.53ZM159.186 349.049H172.089V346.468H159.186V349.049ZM170.831 348.047L178.057 379.53L180.572 378.953L173.347 347.47L170.831 348.047ZM178.049 379.495C178.735 382.924 179.387 386.423 180.004 389.991L182.547 389.551C181.926 385.961 181.27 382.441 180.58 378.989L178.049 379.495ZM180.01 390.019C180.697 393.525 181.385 397.101 182.072 400.745L184.608 400.267C183.92 396.617 183.231 393.035 182.542 389.522L180.01 390.019ZM183.34 401.796H183.753V399.216H183.34V401.796ZM185.032 400.675C185.515 397.022 185.963 393.437 186.377 389.921L183.814 389.62C183.402 393.123 182.955 396.696 182.474 400.337L185.032 400.675ZM186.374 389.946C186.855 386.436 187.337 382.927 187.819 379.417L185.262 379.066C184.78 382.576 184.299 386.086 183.817 389.595L186.374 389.946ZM187.817 379.43L192.462 347.947L189.909 347.57L185.264 379.053L187.817 379.43ZM191.185 349.049H205.74V346.468H191.185V349.049ZM204.47 347.532L192.496 414.835L195.036 415.287L207.01 347.984L204.47 347.532ZM193.766 413.77H174.67V416.351H193.766V413.77ZM175.931 414.788L169.324 384.233L166.802 384.779L173.408 415.333L175.931 414.788ZM169.326 384.24C168.778 381.636 168.264 379.032 167.784 376.427L165.246 376.895C165.73 379.521 166.248 382.146 166.801 384.772L169.326 384.24ZM167.79 376.465C167.378 373.787 167.001 371.212 166.657 368.742L164.101 369.097C164.446 371.581 164.826 374.168 165.24 376.857L167.79 376.465ZM165.379 367.629H164.966V370.21H165.379V367.629ZM163.694 368.707C163.282 371.179 162.835 373.754 162.355 376.433L164.895 376.889C165.377 374.2 165.825 371.615 166.239 369.131L163.694 368.707ZM162.35 376.46C161.941 379.053 161.463 381.647 160.917 384.24L163.442 384.772C163.997 382.136 164.483 379.499 164.899 376.862L162.35 376.46ZM160.916 384.246L154.619 414.8L157.146 415.321L163.443 384.767L160.916 384.246ZM155.883 413.77H137.096V416.351H155.883V413.77ZM229.944 413.925L229.42 415.104L229.433 415.11L229.446 415.115L229.944 413.925ZM220.344 406.906L221.309 406.05L220.344 406.906ZM214.047 395.861L212.823 396.269L212.826 396.278L212.829 396.286L214.047 395.861ZM214.047 366.442L212.829 366.017L212.825 366.028L214.047 366.442ZM220.344 355.603L221.289 356.481L221.295 356.476L221.3 356.47L220.344 355.603ZM229.944 348.894L230.431 350.089L230.442 350.084L229.944 348.894ZM254.821 348.894L254.315 350.081L254.328 350.087L254.342 350.092L254.821 348.894ZM264.524 355.603L265.48 354.737L264.524 355.603ZM270.717 366.545L269.493 366.953L269.497 366.965L269.501 366.977L270.717 366.545ZM270.717 395.861L269.499 395.435L269.496 395.444L269.493 395.453L270.717 395.861ZM264.524 406.906L265.489 407.762L264.524 406.906ZM254.821 413.925L255.326 415.112L255.337 415.108L254.821 413.925ZM253.376 397.306L254.441 398.035L254.446 398.026L253.376 397.306ZM253.376 365.306L254.428 364.56L253.376 365.306ZM231.492 365.306L230.44 364.56L231.492 365.306ZM231.492 397.306L230.421 398.026L230.427 398.035L231.492 397.306ZM242.434 415.009C238.045 415.009 234.053 414.245 230.442 412.735L229.446 415.115C233.405 416.771 237.739 417.59 242.434 417.59V415.009ZM230.468 412.746C226.919 411.169 223.87 408.939 221.309 406.05L219.378 407.762C222.185 410.928 225.536 413.378 229.42 415.104L230.468 412.746ZM221.309 406.05C218.751 403.164 216.731 399.634 215.265 395.435L212.829 396.286C214.391 400.759 216.569 404.592 219.378 407.762L221.309 406.05ZM215.271 395.453C213.878 391.273 213.17 386.494 213.17 381.1H210.589C210.589 386.716 211.326 391.778 212.823 396.269L215.271 395.453ZM213.17 381.1C213.17 375.705 213.878 370.963 215.269 366.856L212.825 366.028C211.326 370.454 210.589 375.484 210.589 381.1H213.17ZM215.265 366.867C216.73 362.673 218.745 359.222 221.289 356.481L219.398 354.725C216.575 357.766 214.392 361.54 212.829 366.017L215.265 366.867ZM221.3 356.47C223.853 353.655 226.893 351.53 230.431 350.089L229.457 347.699C225.563 349.285 222.202 351.634 219.388 354.737L221.3 356.47ZM230.442 350.084C234.053 348.574 238.045 347.81 242.434 347.81V345.229C237.739 345.229 233.405 346.048 229.446 347.703L230.442 350.084ZM242.434 347.81C246.824 347.81 250.778 348.574 254.315 350.081L255.326 347.707C251.432 346.048 247.128 345.229 242.434 345.229V347.81ZM254.342 350.092C257.948 351.535 261.019 353.659 263.568 356.47L265.48 354.737C262.661 351.629 259.263 349.281 255.3 347.696L254.342 350.092ZM263.568 356.47C266.115 359.279 268.097 362.763 269.493 366.953L271.941 366.137C270.448 361.656 268.3 357.846 265.48 354.737L263.568 356.47ZM269.501 366.977C270.957 371.08 271.698 375.782 271.698 381.1H274.279C274.279 375.545 273.505 370.543 271.933 366.114L269.501 366.977ZM271.698 381.1C271.698 386.488 270.957 391.261 269.499 395.435L271.935 396.286C273.506 391.79 274.279 386.722 274.279 381.1H271.698ZM269.493 395.453C268.096 399.644 266.113 403.168 263.558 406.05L265.489 407.762C268.303 404.588 270.448 400.748 271.941 396.269L269.493 395.453ZM263.558 406.05C261.001 408.935 257.921 411.164 254.305 412.742L255.337 415.108C259.29 413.383 262.679 410.933 265.489 407.762L263.558 406.05ZM254.315 412.738C250.778 414.245 246.824 415.009 242.434 415.009V417.59C247.128 417.59 251.432 416.771 255.326 415.112L254.315 412.738ZM242.434 404.48C247.486 404.48 251.525 402.296 254.44 398.035L252.311 396.577C249.859 400.161 246.603 401.899 242.434 401.899V404.48ZM254.446 398.026C257.321 393.75 258.692 388.067 258.692 381.1H256.111C256.111 387.759 254.797 392.879 252.305 396.586L254.446 398.026ZM258.692 381.1C258.692 374.204 257.322 368.642 254.428 364.56L252.323 366.053C254.796 369.541 256.111 374.507 256.111 381.1H258.692ZM254.428 364.56C251.504 360.437 247.466 358.339 242.434 358.339V360.919C246.623 360.919 249.879 362.607 252.323 366.053L254.428 364.56ZM242.434 358.339C237.402 358.339 233.363 360.437 230.44 364.56L232.545 366.053C234.988 362.607 238.245 360.919 242.434 360.919V358.339ZM230.44 364.56C227.545 368.642 226.176 374.204 226.176 381.1H228.757C228.757 374.507 230.071 369.541 232.545 366.053L230.44 364.56ZM226.176 381.1C226.176 388.067 227.546 393.75 230.421 398.026L232.563 396.586C230.07 392.879 228.757 387.759 228.757 381.1H226.176ZM230.427 398.035C233.343 402.296 237.382 404.48 242.434 404.48V401.899C238.265 401.899 235.009 400.161 232.557 396.577L230.427 398.035ZM291.63 415.061L290.361 415.296L290.557 416.351H291.63V415.061ZM279.14 347.758V346.468H277.588L277.871 347.994L279.14 347.758ZM294.727 347.758L296.003 347.57L295.84 346.468H294.727V347.758ZM299.372 379.242L300.653 379.091L300.651 379.072L300.648 379.053L299.372 379.242ZM300.714 389.874L299.435 390.046L299.435 390.049L300.714 389.874ZM302.055 400.506L300.774 400.654L300.906 401.796H302.055V400.506ZM302.468 400.506V401.796H303.534L303.735 400.75L302.468 400.506ZM304.43 389.874L303.163 389.63L303.161 389.64L303.159 389.65L304.43 389.874ZM306.494 379.242L305.237 378.953L305.232 378.973L305.228 378.993L306.494 379.242ZM313.72 347.758V346.468H312.692L312.462 347.47L313.72 347.758ZM326.623 347.758L327.88 347.47L327.651 346.468H326.623V347.758ZM333.849 379.242L335.114 378.989L335.11 378.971L335.106 378.953L333.849 379.242ZM335.81 389.771L334.538 389.991L334.541 390.005L334.544 390.019L335.81 389.771ZM337.874 400.506L336.606 400.745L336.805 401.796H337.874V400.506ZM338.287 400.506V401.796H339.418L339.566 400.675L338.287 400.506ZM339.629 389.771L338.351 389.595L338.349 389.607L338.348 389.62L339.629 389.771ZM341.074 379.242L339.798 379.053L339.796 379.066L341.074 379.242ZM345.719 347.758V346.468H344.605L344.443 347.57L345.719 347.758ZM360.274 347.758L361.544 347.984L361.814 346.468H360.274V347.758ZM348.3 415.061V416.351H349.381L349.57 415.287L348.3 415.061ZM329.203 415.061L327.942 415.333L328.162 416.351H329.203V415.061ZM322.597 384.506L321.334 384.772L321.336 384.779L322.597 384.506ZM321.049 376.661L319.773 376.857L319.776 376.876L319.78 376.895L321.049 376.661ZM319.913 368.919L321.191 368.742L321.037 367.629H319.913V368.919ZM319.5 368.919V367.629H318.407L318.228 368.707L319.5 368.919ZM318.158 376.661L316.888 376.433L316.886 376.447L316.884 376.46L318.158 376.661ZM316.713 384.506L315.451 384.24L315.45 384.246L316.713 384.506ZM310.417 415.061V416.351H311.468L311.68 415.321L310.417 415.061ZM292.898 414.825L280.408 347.523L277.871 347.994L290.361 415.296L292.898 414.825ZM279.14 349.049H294.727V346.468H279.14V349.049ZM293.45 347.947L298.095 379.43L300.648 379.053L296.003 347.57L293.45 347.947ZM298.09 379.393C298.504 382.909 298.952 386.461 299.435 390.046L301.992 389.702C301.512 386.13 301.065 382.593 300.653 379.091L298.09 379.393ZM299.435 390.049C299.916 393.55 300.362 397.084 300.774 400.654L303.337 400.358C302.923 396.771 302.475 393.217 301.992 389.698L299.435 390.049ZM302.055 401.796H302.468V399.216H302.055V401.796ZM303.735 400.75C304.425 397.165 305.08 393.614 305.7 390.098L303.159 389.65C302.541 393.153 301.888 396.69 301.201 400.262L303.735 400.75ZM305.697 390.118C306.385 386.541 307.072 382.998 307.76 379.49L305.228 378.993C304.539 382.505 303.851 386.05 303.163 389.63L305.697 390.118ZM307.752 379.53L314.977 348.047L312.462 347.47L305.237 378.953L307.752 379.53ZM313.72 349.049H326.623V346.468H313.72V349.049ZM325.365 348.047L332.591 379.53L335.106 378.953L327.88 347.47L325.365 348.047ZM332.583 379.495C333.269 382.924 333.921 386.423 334.538 389.991L337.081 389.551C336.46 385.961 335.804 382.441 335.114 378.989L332.583 379.495ZM334.544 390.019C335.231 393.525 335.919 397.101 336.606 400.745L339.142 400.267C338.454 396.617 337.765 393.035 337.076 389.522L334.544 390.019ZM337.874 401.796H338.287V399.216H337.874V401.796ZM339.566 400.675C340.049 397.022 340.497 393.437 340.911 389.921L338.348 389.62C337.935 393.123 337.489 396.696 337.008 400.337L339.566 400.675ZM340.907 389.946C341.389 386.436 341.871 382.927 342.353 379.417L339.796 379.066C339.314 382.576 338.832 386.086 338.351 389.595L340.907 389.946ZM342.351 379.43L346.996 347.947L344.443 347.57L339.798 379.053L342.351 379.43ZM345.719 349.049H360.274V346.468H345.719V349.049ZM359.004 347.532L347.03 414.835L349.57 415.287L361.544 347.984L359.004 347.532ZM348.3 413.77H329.203V416.351H348.3V413.77ZM330.465 414.788L323.858 384.233L321.336 384.779L327.942 415.333L330.465 414.788ZM323.86 384.24C323.311 381.636 322.797 379.032 322.318 376.427L319.78 376.895C320.263 379.521 320.782 382.146 321.334 384.772L323.86 384.24ZM322.324 376.465C321.912 373.787 321.534 371.212 321.191 368.742L318.635 369.097C318.98 371.581 319.36 374.168 319.773 376.857L322.324 376.465ZM319.913 367.629H319.5V370.21H319.913V367.629ZM318.228 368.707C317.816 371.179 317.369 373.754 316.888 376.433L319.428 376.889C319.911 374.2 320.359 371.615 320.773 369.131L318.228 368.707ZM316.884 376.46C316.475 379.053 315.997 381.647 315.451 384.24L317.976 384.772C318.531 382.136 319.017 379.499 319.433 376.862L316.884 376.46ZM315.45 384.246L309.153 414.8L311.68 415.321L317.977 384.767L315.45 384.246ZM310.417 413.77H291.63V416.351H310.417V413.77Z" fill="#4AC6E1"/>
<path d="M140.453 482.017L140.224 482.62L140.235 482.624L140.453 482.017ZM131.983 476.695L131.487 476.282L131.099 476.749L131.541 477.165L131.983 476.695ZM138.28 469.124L138.7 468.634L138.202 468.208L137.784 468.712L138.28 469.124ZM144.051 472.797L143.785 473.385L143.791 473.387L144.051 472.797ZM155.445 472.947L155.061 472.428L155.05 472.437L155.445 472.947ZM156.644 467.55L156.078 467.859L156.088 467.878L156.1 467.897L156.644 467.55ZM155.22 466.126L154.833 466.642L154.856 466.66L154.882 466.675L155.22 466.126ZM152.971 464.927L152.696 465.51L152.717 465.52L152.737 465.528L152.971 464.927ZM150.123 463.652L150.377 463.059L150.374 463.058L150.123 463.652ZM143.752 460.954L144.003 460.36L143.991 460.355L143.752 460.954ZM140.079 459.005L139.71 459.535L139.721 459.542L140.079 459.005ZM136.93 456.232L136.431 456.64L136.441 456.653L136.452 456.665L136.93 456.232ZM134.757 452.484L134.153 452.713L134.156 452.72L134.757 452.484ZM135.206 441.99L135.787 442.272L135.79 442.265L135.206 441.99ZM138.804 437.343L139.219 437.837L139.228 437.829L138.804 437.343ZM144.276 434.195L144.064 433.585L144.059 433.587L144.276 434.195ZM159.717 434.719L159.478 435.318L159.481 435.32L159.717 434.719ZM167.063 439.516L167.565 439.921L167.929 439.47L167.519 439.06L167.063 439.516ZM161.441 446.487L161.044 446.996L161.545 447.387L161.943 446.892L161.441 446.487ZM156.644 443.639L156.385 444.23L156.393 444.234L156.401 444.237L156.644 443.639ZM146.75 443.789L147.113 444.322L147.118 444.319L146.75 443.789ZM145.625 448.961L145.081 449.307L145.1 449.337L145.122 449.364L145.625 448.961ZM147.2 450.385L146.832 450.916L146.855 450.931L146.879 450.945L147.2 450.385ZM149.598 451.584L149.336 452.174L149.35 452.18L149.364 452.186L149.598 451.584ZM152.521 452.784L152.267 453.377L152.279 453.382L152.521 452.784ZM158.818 455.332L158.576 455.93L158.578 455.931L158.818 455.332ZM165.864 460.279L165.362 460.685L165.368 460.692L165.864 460.279ZM167.213 474.446L166.627 474.177L166.623 474.184L167.213 474.446ZM163.615 479.243L164.039 479.73L164.04 479.729L163.615 479.243ZM157.843 482.541L158.055 483.151L158.067 483.147L157.843 482.541ZM150.048 483.096C146.929 483.096 143.804 482.535 140.672 481.41L140.235 482.624C143.499 483.797 146.771 484.386 150.048 484.386V483.096ZM140.683 481.414C137.615 480.245 134.864 478.517 132.425 476.225L131.541 477.165C134.1 479.57 136.995 481.39 140.224 482.62L140.683 481.414ZM132.479 477.107L138.776 469.537L137.784 468.712L131.487 476.282L132.479 477.107ZM137.86 469.614C139.655 471.153 141.631 472.41 143.785 473.385L144.317 472.209C142.274 471.285 140.402 470.094 138.7 468.634L137.86 469.614ZM143.791 473.387C146.009 474.368 148.197 474.866 150.348 474.866V473.576C148.401 473.576 146.391 473.125 144.312 472.207L143.791 473.387ZM150.348 474.866C152.704 474.866 154.574 474.435 155.839 473.458L155.05 472.437C154.117 473.158 152.589 473.576 150.348 473.576V474.866ZM155.828 473.466C157.145 472.493 157.814 471.149 157.814 469.499H156.524C156.524 470.747 156.043 471.702 155.061 472.428L155.828 473.466ZM157.814 469.499C157.814 468.646 157.613 467.872 157.188 467.204L156.1 467.897C156.374 468.328 156.524 468.853 156.524 469.499H157.814ZM157.21 467.241C156.846 466.573 156.283 466.022 155.558 465.577L154.882 466.675C155.456 467.029 155.842 467.428 156.078 467.859L157.21 467.241ZM155.607 465.61C154.949 465.116 154.144 464.691 153.205 464.325L152.737 465.528C153.597 465.862 154.291 466.236 154.833 466.642L155.607 465.61ZM153.246 464.343C152.388 463.939 151.432 463.512 150.377 463.059L149.869 464.245C150.913 464.693 151.855 465.114 152.696 465.51L153.246 464.343ZM150.374 463.058L144.003 460.36L143.5 461.548L149.871 464.247L150.374 463.058ZM143.991 460.355C142.786 459.873 141.601 459.245 140.437 458.468L139.721 459.542C140.955 460.364 142.218 461.036 143.512 461.553L143.991 460.355ZM140.447 458.476C139.338 457.704 138.326 456.812 137.409 455.799L136.452 456.665C137.434 457.75 138.52 458.707 139.71 459.535L140.447 458.476ZM137.43 455.823C136.575 454.779 135.884 453.588 135.357 452.248L134.156 452.72C134.729 454.178 135.487 455.486 136.431 456.64L137.43 455.823ZM135.36 452.255C134.842 450.89 134.577 449.345 134.577 447.612H133.287C133.287 449.477 133.572 451.18 134.154 452.713L135.36 452.255ZM134.577 447.612C134.577 445.708 134.981 443.931 135.787 442.272L134.626 441.708C133.733 443.547 133.287 445.518 133.287 447.612H134.577ZM135.79 442.265C136.599 440.552 137.74 439.077 139.219 437.837L138.39 436.848C136.77 438.207 135.513 439.83 134.623 441.715L135.79 442.265ZM139.228 437.829C140.711 436.537 142.464 435.527 144.493 434.802L144.059 433.587C141.891 434.361 139.995 435.45 138.381 436.856L139.228 437.829ZM144.489 434.804C146.561 434.081 148.837 433.715 151.322 433.715V432.425C148.71 432.425 146.288 432.809 144.064 433.585L144.489 434.804ZM151.322 433.715C154.085 433.715 156.802 434.248 159.478 435.318L159.957 434.12C157.135 432.992 154.256 432.425 151.322 432.425V433.715ZM159.481 435.32C162.198 436.387 164.572 437.937 166.607 439.973L167.519 439.06C165.357 436.898 162.833 435.25 159.953 434.119L159.481 435.32ZM166.561 439.111L160.939 446.082L161.943 446.892L167.565 439.921L166.561 439.111ZM161.838 445.979C160.2 444.699 158.55 443.717 156.887 443.041L156.401 444.237C157.936 444.86 159.484 445.777 161.044 446.996L161.838 445.979ZM156.903 443.048C155.213 442.309 153.35 441.945 151.322 441.945V443.235C153.192 443.235 154.877 443.57 156.385 444.23L156.903 443.048ZM151.322 441.945C149.337 441.945 147.671 442.362 146.381 443.259L147.118 444.319C148.127 443.617 149.509 443.235 151.322 443.235V441.945ZM146.386 443.256C145.1 444.133 144.456 445.413 144.456 447.012H145.746C145.746 445.813 146.201 444.944 147.113 444.322L146.386 443.256ZM144.456 447.012C144.456 447.865 144.656 448.639 145.081 449.307L146.17 448.615C145.895 448.183 145.746 447.658 145.746 447.012H144.456ZM145.122 449.364C145.568 449.922 146.143 450.438 146.832 450.916L147.567 449.855C146.957 449.433 146.482 448.999 146.129 448.558L145.122 449.364ZM146.879 450.945C147.601 451.358 148.421 451.767 149.336 452.174L149.86 450.995C148.976 450.602 148.197 450.212 147.52 449.825L146.879 450.945ZM149.364 452.186C150.256 452.532 151.223 452.929 152.267 453.377L152.776 452.191C151.721 451.739 150.739 451.336 149.832 450.983L149.364 452.186ZM152.279 453.382L158.576 455.93L159.06 454.734L152.763 452.186L152.279 453.382ZM158.578 455.931C161.494 457.098 163.745 458.688 165.362 460.685L166.365 459.873C164.584 457.674 162.138 455.965 159.057 454.733L158.578 455.931ZM165.368 460.692C166.997 462.648 167.842 465.262 167.842 468.6H169.132C169.132 465.041 168.228 462.109 166.359 459.866L165.368 460.692ZM167.842 468.6C167.842 470.556 167.437 472.413 166.627 474.177L167.799 474.716C168.688 472.782 169.132 470.741 169.132 468.6H167.842ZM166.623 474.184C165.865 475.891 164.724 477.415 163.19 478.758L164.04 479.729C165.704 478.273 166.962 476.599 167.802 474.708L166.623 474.184ZM163.191 478.757C161.711 480.046 159.859 481.109 157.62 481.936L158.067 483.147C160.425 482.275 162.42 481.139 164.039 479.73L163.191 478.757ZM157.631 481.932C155.412 482.704 152.887 483.096 150.048 483.096V484.386C153.005 484.386 155.677 483.978 158.055 483.151L157.631 481.932ZM176.782 482.841H176.137V483.486H176.782V482.841ZM176.782 433.97V433.325H176.137V433.97H176.782ZM188.85 433.97L189.457 433.75L189.303 433.325H188.85V433.97ZM196.721 455.707L197.331 455.497L197.327 455.487L196.721 455.707ZM198.145 460.204L197.525 460.384L197.527 460.39L198.145 460.204ZM199.569 464.702L198.957 464.906L199.104 465.347H199.569V464.702ZM199.869 464.702V465.347H200.334L200.481 464.906L199.869 464.702ZM201.218 460.204L200.598 460.025L200.596 460.031L200.595 460.038L201.218 460.204ZM202.642 455.707L202.034 455.491L202.032 455.497L202.642 455.707ZM210.363 433.97V433.325H209.907L209.755 433.754L210.363 433.97ZM222.356 433.97H223.001V433.325H222.356V433.97ZM222.356 482.841V483.486H223.001V482.841H222.356ZM212.312 482.841H211.666V483.486H212.312V482.841ZM212.461 460.954L213.105 460.998L212.461 460.954ZM212.836 456.607L213.478 456.673L213.478 456.671L212.836 456.607ZM213.286 452.259L213.927 452.328L213.928 452.325L213.286 452.259ZM213.736 448.286L214.376 448.366L214.467 447.641H213.736V448.286ZM213.436 448.286V447.641H212.975L212.825 448.078L213.436 448.286ZM209.463 459.905L210.068 460.13L210.071 460.122L210.074 460.113L209.463 459.905ZM202.492 478.569V479.214H202.94L203.097 478.795L202.492 478.569ZM196.421 478.569L195.816 478.795L195.973 479.214H196.421V478.569ZM189.45 459.905L188.838 460.11L188.842 460.12L188.845 460.13L189.45 459.905ZM185.552 448.286L186.164 448.081L186.016 447.641H185.552V448.286ZM185.252 448.286V447.641H184.521L184.612 448.366L185.252 448.286ZM185.702 452.259L185.06 452.325L185.061 452.328L185.702 452.259ZM186.152 456.607L185.51 456.671L185.51 456.673L186.152 456.607ZM186.527 460.954L187.17 460.91L186.527 460.954ZM186.676 482.841V483.486H187.322V482.841H186.676ZM177.427 482.841V433.97H176.137V482.841H177.427ZM176.782 434.615H188.85V433.325H176.782V434.615ZM188.244 434.189L196.114 455.927L197.327 455.487L189.457 433.75L188.244 434.189ZM196.111 455.917C196.607 457.356 197.078 458.845 197.525 460.384L198.764 460.025C198.312 458.466 197.834 456.956 197.331 455.497L196.111 455.917ZM197.527 460.39C197.978 461.895 198.455 463.401 198.957 464.906L200.181 464.498C199.683 463.005 199.211 461.512 198.763 460.019L197.527 460.39ZM199.569 465.347H199.869V464.057H199.569V465.347ZM200.481 464.906C200.985 463.394 201.438 461.883 201.841 460.371L200.595 460.038C200.198 461.524 199.752 463.011 199.257 464.498L200.481 464.906ZM201.838 460.384C202.284 458.845 202.756 457.356 203.252 455.917L202.032 455.497C201.529 456.956 201.051 458.466 200.598 460.025L201.838 460.384ZM203.25 455.923L210.971 434.186L209.755 433.754L202.034 455.491L203.25 455.923ZM210.363 434.615H222.356V433.325H210.363V434.615ZM221.711 433.97V482.841H223.001V433.97H221.711ZM222.356 482.196H212.312V483.486H222.356V482.196ZM212.957 482.841V464.927H211.666V482.841H212.957ZM212.957 464.927C212.957 463.745 213.006 462.436 213.105 460.998L211.818 460.91C211.717 462.371 211.666 463.71 211.666 464.927H212.957ZM213.105 460.998C213.205 459.557 213.329 458.115 213.478 456.673L212.195 456.54C212.044 457.997 211.918 459.453 211.818 460.91L213.105 460.998ZM213.478 456.671C213.628 455.173 213.778 453.725 213.927 452.328L212.645 452.19C212.494 453.591 212.344 455.042 212.194 456.542L213.478 456.671ZM213.928 452.325C214.077 450.88 214.227 449.56 214.376 448.366L213.096 448.206C212.945 449.411 212.795 450.74 212.644 452.193L213.928 452.325ZM213.736 447.641H213.436V448.932H213.736V447.641ZM212.825 448.078L208.853 459.696L210.074 460.113L214.046 448.495L212.825 448.078ZM208.859 459.679L201.888 478.343L203.097 478.795L210.068 460.13L208.859 459.679ZM202.492 477.924H196.421V479.214H202.492V477.924ZM197.025 478.343L190.054 459.679L188.845 460.13L195.816 478.795L197.025 478.343ZM190.061 459.699L186.164 448.081L184.94 448.492L188.838 460.11L190.061 459.699ZM185.552 447.641H185.252V448.932H185.552V447.641ZM184.612 448.366C184.761 449.56 184.911 450.88 185.06 452.325L186.344 452.193C186.193 450.74 186.043 449.411 185.892 448.206L184.612 448.366ZM185.061 452.328C185.21 453.725 185.36 455.173 185.51 456.671L186.794 456.542C186.644 455.042 186.494 453.591 186.343 452.19L185.061 452.328ZM185.51 456.673C185.659 458.115 185.783 459.557 185.883 460.998L187.17 460.91C187.07 459.453 186.944 457.997 186.793 456.54L185.51 456.673ZM185.883 460.998C185.982 462.436 186.031 463.745 186.031 464.927H187.322C187.322 463.71 187.271 462.371 187.17 460.91L185.883 460.998ZM186.031 464.927V482.841H187.322V464.927H186.031ZM186.676 482.196H176.782V483.486H186.676V482.196ZM245.346 458.106L244.726 457.928L244.723 457.939L245.346 458.106ZM244.147 462.603L243.524 462.437L243.307 463.248H244.147V462.603ZM254.566 462.603V463.248H255.392L255.192 462.447L254.566 462.603ZM253.442 458.106L254.067 457.949L254.065 457.939L254.062 457.928L253.442 458.106ZM251.418 450.31L252.046 450.162V450.162L251.418 450.31ZM249.469 442.365L250.094 442.205L249.97 441.72H249.469V442.365ZM249.169 442.365V441.72H248.656L248.54 442.22L249.169 442.365ZM247.295 450.385L246.667 450.237L246.665 450.245L247.295 450.385ZM227.657 482.841L227.041 482.649L226.779 483.486H227.657V482.841ZM242.948 433.97V433.325H242.474L242.332 433.777L242.948 433.97ZM256.215 433.97L256.831 433.777L256.689 433.325H256.215V433.97ZM271.506 482.841V483.486H272.384L272.122 482.649L271.506 482.841ZM259.813 482.841L259.188 483.003L259.313 483.486H259.813V482.841ZM256.815 471.223L257.439 471.062L257.314 470.578H256.815V471.223ZM241.898 471.223V470.578H241.398L241.274 471.062L241.898 471.223ZM238.9 482.841V483.486H239.4L239.525 483.003L238.9 482.841ZM244.723 457.939L243.524 462.437L244.77 462.769L245.97 458.272L244.723 457.939ZM244.147 463.248H254.566V461.958H244.147V463.248ZM255.192 462.447L254.067 457.949L252.816 458.262L253.94 462.76L255.192 462.447ZM254.062 457.928C253.365 455.49 252.693 452.902 252.046 450.162L250.79 450.459C251.442 453.216 252.119 455.824 252.821 458.283L254.062 457.928ZM252.046 450.162C251.395 447.41 250.745 444.758 250.094 442.205L248.844 442.524C249.492 445.069 250.141 447.714 250.79 450.459L252.046 450.162ZM249.469 441.72H249.169V443.01H249.469V441.72ZM248.54 442.22C247.941 444.817 247.317 447.489 246.667 450.237L247.923 450.534C248.573 447.784 249.198 445.11 249.798 442.51L248.54 442.22ZM246.665 450.245C246.068 452.932 245.422 455.493 244.726 457.928L245.967 458.283C246.67 455.821 247.323 453.235 247.925 450.525L246.665 450.245ZM228.272 483.034L243.563 434.162L242.332 433.777L227.041 482.649L228.272 483.034ZM242.948 434.615H256.215V433.325H242.948V434.615ZM255.599 434.162L270.89 483.034L272.122 482.649L256.831 433.777L255.599 434.162ZM271.506 482.196H259.813V483.486H271.506V482.196ZM260.438 482.68L257.439 471.062L256.19 471.384L259.188 483.003L260.438 482.68ZM256.815 470.578H241.898V471.868H256.815V470.578ZM241.274 471.062L238.275 482.68L239.525 483.003L242.523 471.384L241.274 471.062ZM238.9 482.196H227.657V483.486H238.9V482.196ZM276.846 482.841H276.201V483.486H276.846V482.841ZM276.846 433.97V433.325H276.201V433.97H276.846ZM301.732 434.719L301.592 435.349L301.595 435.35L301.732 434.719ZM307.728 437.268L307.356 437.795L307.367 437.802L307.728 437.268ZM311.776 441.915L312.35 441.621L311.776 441.915ZM310.876 458.106L310.343 457.743L310.341 457.745L310.876 458.106ZM304.58 463.278L304.323 462.686L303.665 462.972L304.019 463.596L304.58 463.278ZM315.674 482.841V483.486H316.781L316.235 482.523L315.674 482.841ZM303.306 482.841L302.736 483.144L302.918 483.486H303.306V482.841ZM293.936 465.227L294.506 464.924L294.324 464.581H293.936V465.227ZM287.865 465.227V464.581H287.22V465.227H287.865ZM287.865 482.841V483.486H288.51V482.841H287.865ZM287.865 456.457H287.22V457.102H287.865V456.457ZM300.158 454.658L300.561 455.161L300.563 455.16L300.158 454.658ZM300.158 444.164L299.812 444.709L299.821 444.714L300.158 444.164ZM287.865 442.74V442.094H287.22V442.74H287.865ZM277.491 482.841V433.97H276.201V482.841H277.491ZM276.846 434.615H294.461V433.325H276.846V434.615ZM294.461 434.615C297.018 434.615 299.394 434.861 301.592 435.349L301.872 434.089C299.572 433.578 297.101 433.325 294.461 433.325V434.615ZM301.595 435.35C303.82 435.833 305.737 436.651 307.356 437.795L308.1 436.741C306.322 435.485 304.241 434.604 301.869 434.089L301.595 435.35ZM307.367 437.802C308.97 438.886 310.249 440.35 311.202 442.209L312.35 441.621C311.305 439.582 309.885 437.948 308.09 436.733L307.367 437.802ZM311.202 442.209C312.142 444.043 312.63 446.358 312.63 449.186H313.92C313.92 446.217 313.409 443.685 312.35 441.621L311.202 442.209ZM312.63 449.186C312.63 452.689 311.852 455.526 310.343 457.743L311.41 458.469C313.099 455.988 313.92 452.879 313.92 449.186H312.63ZM310.341 457.745C308.864 459.937 306.864 461.583 304.323 462.686L304.837 463.869C307.593 462.673 309.791 460.871 311.411 458.466L310.341 457.745ZM304.019 463.596L315.112 483.16L316.235 482.523L305.141 462.959L304.019 463.596ZM315.674 482.196H303.306V483.486H315.674V482.196ZM303.875 482.538L294.506 464.924L293.367 465.529L302.736 483.144L303.875 482.538ZM293.936 464.581H287.865V465.872H293.936V464.581ZM287.22 465.227V482.841H288.51V465.227H287.22ZM287.865 482.196H276.846V483.486H287.865V482.196ZM287.865 457.102H293.561V455.811H287.865V457.102ZM293.561 457.102C296.535 457.102 298.902 456.489 300.561 455.161L299.755 454.154C298.415 455.225 296.385 455.811 293.561 455.811V457.102ZM300.563 455.16C302.295 453.763 303.126 451.735 303.126 449.186H301.836C301.836 451.434 301.118 453.054 299.753 454.155L300.563 455.16ZM303.126 449.186C303.126 446.644 302.296 444.717 300.495 443.614L299.821 444.714C301.118 445.509 301.836 446.93 301.836 449.186H303.126ZM300.503 443.619C298.854 442.575 296.512 442.094 293.561 442.094V443.385C296.407 443.385 298.463 443.854 299.812 444.709L300.503 443.619ZM293.561 442.094H287.865V443.385H293.561V442.094ZM287.22 442.74V456.457H288.51V442.74H287.22ZM331.018 482.841H330.372V483.486H331.018V482.841ZM331.018 443.264H331.663V442.619H331.018V443.264ZM317.6 443.264H316.955V443.909H317.6V443.264ZM317.6 433.97V433.325H316.955V433.97H317.6ZM355.528 433.97H356.173V433.325H355.528V433.97ZM355.528 443.264V443.909H356.173V443.264H355.528ZM342.111 443.264V442.619H341.466V443.264H342.111ZM342.111 482.841V483.486H342.756V482.841H342.111ZM331.663 482.841V443.264H330.372V482.841H331.663ZM331.018 442.619H317.6V443.909H331.018V442.619ZM318.245 443.264V433.97H316.955V443.264H318.245ZM317.6 434.615H355.528V433.325H317.6V434.615ZM354.883 433.97V443.264H356.173V433.97H354.883ZM355.528 442.619H342.111V443.909H355.528V442.619ZM341.466 443.264V482.841H342.756V443.264H341.466ZM342.111 482.196H331.018V483.486H342.111V482.196Z" fill="white"/>
<defs>
<filter id="filter0_d_60_869" x="0.660469" y="0.660469" width="484.679" height="820.718" filterUnits="userSpaceOnUse" color-interpolation-filters="sRGB">
<feFlood flood-opacity="0" result="BackgroundImageFix"/>
<feColorMatrix in="SourceAlpha" type="matrix" values="0 0 0 0 0 0 0 0 0 0 0 0 0 0 0 0 0 0 127 0" result="hardAlpha"/>
<feOffset/>
<feGaussianBlur stdDeviation="38.6698"/>
<feColorMatrix type="matrix" values="0 0 0 0 0.290196 0 0 0 0 0.776471 0 0 0 0 0.882353 0 0 0 0.2 0"/>
<feBlend mode="normal" in2="BackgroundImageFix" result="effect1_dropShadow_60_869"/>
<feBlend mode="normal" in="SourceGraphic" in2="effect1_dropShadow_60_869" result="shape"/>
</filter>
<linearGradient id="paint0_linear_60_869" x1="251.175" y1="85.2914" x2="237.003" y2="1000.09" gradientUnits="userSpaceOnUse">
<stop stop-color="#64367E"/>
<stop offset="1" stop-color="#4AC6E1"/>
</linearGradient>
</defs>
</svg>
