<svg width="24" height="24" viewBox="0 0 24 24" fill="none" xmlns="http://www.w3.org/2000/svg">
<path fill-rule="evenodd" clip-rule="evenodd" d="M0 12C0 18.6274 5.37258 24 12 24C18.6274 24 24 18.6274 24 12C24 5.37258 18.6274 0 12 0C5.37258 0 0 5.37258 0 12ZM7.42865 19.1821V16.6207C5.82445 15.3999 4.80001 13.5406 4.80001 11.4584C4.80001 7.78101 7.99503 4.79995 11.9363 4.79995C15.8778 4.79995 19.0726 7.78101 19.0726 11.4584C19.0726 15.1355 15.8778 18.1168 11.9363 18.1168C11.201 18.1168 10.4913 18.0129 9.8237 17.8205L7.42865 19.1821Z" fill="white"/>
<path d="M11.1742 9.63477L7.32568 13.7096L10.8282 11.7879L12.6582 13.7096L16.485 9.63477L13.0214 11.5228L11.1742 9.63477Z" fill="white"/>
</svg>
