<svg width="804" height="124" viewBox="0 0 804 124" fill="none" xmlns="http://www.w3.org/2000/svg">
<mask id="path-1-outside-1_161_409" maskUnits="userSpaceOnUse" x="0.578491" y="0" width="803" height="124" fill="black">
<rect fill="white" x="0.578491" width="803" height="124"/>
<path d="M2.57849 119.092V4.11613H42.0796C48.428 4.11613 54.3649 4.76273 59.8903 6.05591C65.4158 7.23154 70.2358 9.28889 74.3505 12.228C78.4652 15.0495 81.6982 18.8703 84.0495 23.6903C86.5183 28.3928 87.7527 34.2122 87.7527 41.1484C87.7527 47.8495 86.5183 53.6688 84.0495 58.6065C81.6982 63.5441 78.4652 67.6 74.3505 70.7742C70.2358 73.9484 65.4746 76.2997 60.0667 77.828C54.6588 79.3563 48.8982 80.1204 42.7849 80.1204H28.5011V119.092H2.57849ZM28.5011 59.4882H41.1978C55.3054 59.4882 62.3591 53.3749 62.3591 41.1484C62.3591 35.1527 60.4781 30.9204 56.7161 28.4516C52.9541 25.9828 47.5462 24.7484 40.4925 24.7484H28.5011V59.4882ZM125.825 60.8989L123.004 71.4796H147.515L144.87 60.8989C143.224 55.1384 141.637 49.0251 140.109 42.5591C138.581 36.0932 137.052 29.8624 135.524 23.8667H134.819C133.408 29.9799 131.938 36.2695 130.41 42.7355C128.999 49.0839 127.471 55.1384 125.825 60.8989ZM84.2079 119.092L120.182 4.11613H151.395L187.369 119.092H159.86L152.806 91.7592H117.713L110.66 119.092H84.2079ZM199.932 119.092V4.11613H241.373C247.486 4.11613 253.188 4.70395 258.479 5.87957C263.886 7.0552 268.589 9.05376 272.586 11.8753C276.583 14.5792 279.757 18.2237 282.109 22.8086C284.46 27.3936 285.636 33.0953 285.636 39.914C285.636 48.3785 283.755 55.3735 279.993 60.8989C276.348 66.3068 271.41 70.3627 265.18 73.0667L291.279 119.092H262.182L240.139 77.6516H225.855V119.092H199.932ZM225.855 57.0194H239.257C246.076 57.0194 251.248 55.6086 254.775 52.7871C258.42 49.848 260.242 45.557 260.242 39.914C260.242 34.271 258.42 30.3326 254.775 28.0989C251.248 25.8652 246.076 24.7484 239.257 24.7484H225.855V57.0194ZM327.377 119.092V25.9828H295.811V4.11613H385.041V25.9828H353.476V119.092H327.377ZM402.969 119.092V4.11613H429.597L459.576 61.2516L470.862 86.6452H471.567C470.979 80.5319 470.274 73.7133 469.451 66.1893C468.745 58.6652 468.393 51.4939 468.393 44.6753V4.11613H493.081V119.092H466.453L436.475 61.7807L425.189 36.7398H424.483C425.071 43.0882 425.718 49.9068 426.423 57.1957C427.246 64.4846 427.657 71.5384 427.657 78.357V119.092H402.969ZM520.245 119.092V4.11613H592.193V25.9828H546.167V49.0839H585.316V70.7742H546.167V97.2258H593.957V119.092H520.245ZM616.855 119.092V4.11613H658.296C664.409 4.11613 670.111 4.70395 675.401 5.87957C680.809 7.0552 685.512 9.05376 689.509 11.8753C693.506 14.5792 696.68 18.2237 699.032 22.8086C701.383 27.3936 702.558 33.0953 702.558 39.914C702.558 48.3785 700.677 55.3735 696.915 60.8989C693.271 66.3068 688.333 70.3627 682.103 73.0667L708.201 119.092H679.105L657.062 77.6516H642.778V119.092H616.855ZM642.778 57.0194H656.18C662.999 57.0194 668.171 55.6086 671.698 52.7871C675.343 49.848 677.165 45.557 677.165 39.914C677.165 34.271 675.343 30.3326 671.698 28.0989C668.171 25.8652 662.999 24.7484 656.18 24.7484H642.778V57.0194ZM757.685 121.209C750.161 121.209 742.637 119.857 735.113 117.153C727.707 114.331 721.065 110.158 715.186 104.632L729.999 86.8215C734.114 90.3484 738.64 93.2287 743.578 95.4624C748.633 97.6961 753.571 98.8129 758.391 98.8129C763.799 98.8129 767.796 97.8136 770.382 95.8151C773.086 93.8165 774.438 91.1126 774.438 87.7032C774.438 85.9398 774.027 84.4115 773.204 83.1183C772.498 81.8251 771.381 80.7083 769.853 79.7678C768.442 78.7097 766.679 77.7692 764.563 76.9463C762.564 76.0058 760.33 75.0065 757.862 73.9484L742.872 67.6C739.933 66.4244 737.053 64.8961 734.232 63.0151C731.528 61.1341 729.059 58.9591 726.825 56.4903C724.709 53.9039 723.004 50.9649 721.711 47.6731C720.418 44.2638 719.771 40.443 719.771 36.2108C719.771 31.5082 720.771 27.0996 722.769 22.985C724.768 18.7527 727.589 15.1082 731.234 12.0516C734.878 8.87742 739.169 6.40861 744.107 4.64516C749.162 2.88172 754.687 2 760.683 2C767.384 2 773.968 3.29319 780.434 5.87957C787.017 8.46595 792.778 12.228 797.715 17.1656L784.49 33.5656C780.728 30.6265 776.966 28.3928 773.204 26.8645C769.442 25.2186 765.268 24.3957 760.683 24.3957C756.216 24.3957 752.63 25.3362 749.926 27.2172C747.34 28.9806 746.047 31.5082 746.047 34.8C746.047 36.5634 746.458 38.0918 747.281 39.385C748.221 40.5606 749.456 41.6774 750.984 42.7355C752.63 43.676 754.511 44.6165 756.627 45.557C758.743 46.3799 761.036 47.3204 763.505 48.3785L778.318 54.3742C785.371 57.1957 790.897 61.0753 794.894 66.0129C799.009 70.9505 801.066 77.4753 801.066 85.5871C801.066 90.4072 800.067 94.9921 798.068 99.3419C796.187 103.574 793.366 107.336 789.604 110.628C785.959 113.802 781.433 116.389 776.025 118.387C770.617 120.268 764.504 121.209 757.685 121.209Z"/>
</mask>
<path d="M2.57849 119.092V4.11613H42.0796C48.428 4.11613 54.3649 4.76273 59.8903 6.05591C65.4158 7.23154 70.2358 9.28889 74.3505 12.228C78.4652 15.0495 81.6982 18.8703 84.0495 23.6903C86.5183 28.3928 87.7527 34.2122 87.7527 41.1484C87.7527 47.8495 86.5183 53.6688 84.0495 58.6065C81.6982 63.5441 78.4652 67.6 74.3505 70.7742C70.2358 73.9484 65.4746 76.2997 60.0667 77.828C54.6588 79.3563 48.8982 80.1204 42.7849 80.1204H28.5011V119.092H2.57849ZM28.5011 59.4882H41.1978C55.3054 59.4882 62.3591 53.3749 62.3591 41.1484C62.3591 35.1527 60.4781 30.9204 56.7161 28.4516C52.9541 25.9828 47.5462 24.7484 40.4925 24.7484H28.5011V59.4882ZM125.825 60.8989L123.004 71.4796H147.515L144.87 60.8989C143.224 55.1384 141.637 49.0251 140.109 42.5591C138.581 36.0932 137.052 29.8624 135.524 23.8667H134.819C133.408 29.9799 131.938 36.2695 130.41 42.7355C128.999 49.0839 127.471 55.1384 125.825 60.8989ZM84.2079 119.092L120.182 4.11613H151.395L187.369 119.092H159.86L152.806 91.7592H117.713L110.66 119.092H84.2079ZM199.932 119.092V4.11613H241.373C247.486 4.11613 253.188 4.70395 258.479 5.87957C263.886 7.0552 268.589 9.05376 272.586 11.8753C276.583 14.5792 279.757 18.2237 282.109 22.8086C284.46 27.3936 285.636 33.0953 285.636 39.914C285.636 48.3785 283.755 55.3735 279.993 60.8989C276.348 66.3068 271.41 70.3627 265.18 73.0667L291.279 119.092H262.182L240.139 77.6516H225.855V119.092H199.932ZM225.855 57.0194H239.257C246.076 57.0194 251.248 55.6086 254.775 52.7871C258.42 49.848 260.242 45.557 260.242 39.914C260.242 34.271 258.42 30.3326 254.775 28.0989C251.248 25.8652 246.076 24.7484 239.257 24.7484H225.855V57.0194ZM327.377 119.092V25.9828H295.811V4.11613H385.041V25.9828H353.476V119.092H327.377ZM402.969 119.092V4.11613H429.597L459.576 61.2516L470.862 86.6452H471.567C470.979 80.5319 470.274 73.7133 469.451 66.1893C468.745 58.6652 468.393 51.4939 468.393 44.6753V4.11613H493.081V119.092H466.453L436.475 61.7807L425.189 36.7398H424.483C425.071 43.0882 425.718 49.9068 426.423 57.1957C427.246 64.4846 427.657 71.5384 427.657 78.357V119.092H402.969ZM520.245 119.092V4.11613H592.193V25.9828H546.167V49.0839H585.316V70.7742H546.167V97.2258H593.957V119.092H520.245ZM616.855 119.092V4.11613H658.296C664.409 4.11613 670.111 4.70395 675.401 5.87957C680.809 7.0552 685.512 9.05376 689.509 11.8753C693.506 14.5792 696.68 18.2237 699.032 22.8086C701.383 27.3936 702.558 33.0953 702.558 39.914C702.558 48.3785 700.677 55.3735 696.915 60.8989C693.271 66.3068 688.333 70.3627 682.103 73.0667L708.201 119.092H679.105L657.062 77.6516H642.778V119.092H616.855ZM642.778 57.0194H656.18C662.999 57.0194 668.171 55.6086 671.698 52.7871C675.343 49.848 677.165 45.557 677.165 39.914C677.165 34.271 675.343 30.3326 671.698 28.0989C668.171 25.8652 662.999 24.7484 656.18 24.7484H642.778V57.0194ZM757.685 121.209C750.161 121.209 742.637 119.857 735.113 117.153C727.707 114.331 721.065 110.158 715.186 104.632L729.999 86.8215C734.114 90.3484 738.64 93.2287 743.578 95.4624C748.633 97.6961 753.571 98.8129 758.391 98.8129C763.799 98.8129 767.796 97.8136 770.382 95.8151C773.086 93.8165 774.438 91.1126 774.438 87.7032C774.438 85.9398 774.027 84.4115 773.204 83.1183C772.498 81.8251 771.381 80.7083 769.853 79.7678C768.442 78.7097 766.679 77.7692 764.563 76.9463C762.564 76.0058 760.33 75.0065 757.862 73.9484L742.872 67.6C739.933 66.4244 737.053 64.8961 734.232 63.0151C731.528 61.1341 729.059 58.9591 726.825 56.4903C724.709 53.9039 723.004 50.9649 721.711 47.6731C720.418 44.2638 719.771 40.443 719.771 36.2108C719.771 31.5082 720.771 27.0996 722.769 22.985C724.768 18.7527 727.589 15.1082 731.234 12.0516C734.878 8.87742 739.169 6.40861 744.107 4.64516C749.162 2.88172 754.687 2 760.683 2C767.384 2 773.968 3.29319 780.434 5.87957C787.017 8.46595 792.778 12.228 797.715 17.1656L784.49 33.5656C780.728 30.6265 776.966 28.3928 773.204 26.8645C769.442 25.2186 765.268 24.3957 760.683 24.3957C756.216 24.3957 752.63 25.3362 749.926 27.2172C747.34 28.9806 746.047 31.5082 746.047 34.8C746.047 36.5634 746.458 38.0918 747.281 39.385C748.221 40.5606 749.456 41.6774 750.984 42.7355C752.63 43.676 754.511 44.6165 756.627 45.557C758.743 46.3799 761.036 47.3204 763.505 48.3785L778.318 54.3742C785.371 57.1957 790.897 61.0753 794.894 66.0129C799.009 70.9505 801.066 77.4753 801.066 85.5871C801.066 90.4072 800.067 94.9921 798.068 99.3419C796.187 103.574 793.366 107.336 789.604 110.628C785.959 113.802 781.433 116.389 776.025 118.387C770.617 120.268 764.504 121.209 757.685 121.209Z" stroke="#503B5C" stroke-opacity="0.05" stroke-width="4" mask="url(#path-1-outside-1_161_409)"/>
</svg>
