<svg width="217" height="78" viewBox="0 0 217 78" fill="none" xmlns="http://www.w3.org/2000/svg">
<path fill-rule="evenodd" clip-rule="evenodd" d="M95.1405 13.2996C95.1405 13.2996 95.1405 13.2996 99.6881 13.2996C101.345 13.2996 102.18 14.1171 102.18 15.9626C102.18 15.9626 102.18 15.9626 102.18 22.5025C102.18 22.5025 102.18 22.5025 111.088 22.5025C111.088 22.5025 111.088 22.5025 111.088 15.9626C111.088 14.1171 111.91 13.2996 113.779 13.2996C113.779 13.2996 113.779 13.2996 118.128 13.2996C118.128 13.2996 118.128 13.2996 118.128 17.5976C118.128 17.5976 118.128 17.5976 116.271 17.5976L116.059 17.8081C116.059 17.8081 116.059 17.8081 116.059 36.2141C116.059 36.2141 116.059 36.2141 111.088 36.2141C111.088 36.2141 111.088 36.2141 111.088 27.0111C111.088 27.0111 111.088 27.0111 102.18 27.0111C102.18 27.0111 102.18 27.0111 102.18 36.2141C102.18 36.2141 102.18 36.2141 97.2087 36.2141C97.2087 36.2141 97.2087 36.2141 97.2087 17.8081C97.2087 17.8081 97.2087 17.5976 96.9969 17.5976C96.9969 17.5976 96.9969 17.5976 95.1405 17.5976C95.1405 17.5976 95.1405 17.5976 95.1405 13.2996Z" fill="#ED1C24"/>
<path fill-rule="evenodd" clip-rule="evenodd" d="M131.172 12.8906L131.285 12.903V17.6222L131.172 17.5974C127.447 17.5974 124.544 20.6692 124.544 24.5584C124.544 28.6459 127.447 31.9158 131.172 31.9158L131.285 31.8911V36.6102L131.172 36.6226C124.544 36.6226 119.162 31.3089 119.162 24.5584C119.162 18.0061 124.544 12.8906 131.172 12.8906Z" fill="#ED1C24"/>
<path fill-rule="evenodd" clip-rule="evenodd" d="M131.284 12.9031L133.589 13.126C139.059 14.1912 143.183 18.8237 143.183 24.5585C143.183 30.4543 139.059 35.2726 133.589 36.3749L131.284 36.6103V31.8911L133.814 31.3461C136.256 30.2314 138.012 27.6179 138.012 24.5585C138.012 21.6354 136.256 19.1829 133.814 18.1425L131.284 17.6222V12.9031Z" fill="#ED1C24"/>
<path fill-rule="evenodd" clip-rule="evenodd" d="M144.217 13.2996C144.217 13.2996 144.217 13.2996 151.157 13.2996H154.471V17.5976H154.159C153.748 17.5976 152.914 17.5976 151.256 17.5976C151.256 17.5976 151.256 17.5976 151.256 22.3043C151.256 22.3043 151.256 22.3043 152.664 22.3043H154.471V26.3918H153.412C152.889 26.3918 152.191 26.3918 151.256 26.3918C151.256 26.3918 151.256 26.3918 151.256 31.5073C151.256 31.7179 151.256 31.7179 151.468 31.7179C151.468 31.7179 151.468 31.7179 152.951 31.7179H154.471V36.2141H154.035C153.287 36.2141 151.78 36.2141 148.777 36.2141C147.12 36.2141 146.298 35.3966 146.298 33.551V17.5976C146.298 17.5976 146.298 17.5976 144.217 17.5976C144.217 17.5976 144.217 17.5976 144.217 13.2996Z" fill="#ED1C24"/>
<path fill-rule="evenodd" clip-rule="evenodd" d="M154.471 13.2996H154.571C159.131 13.2996 161.822 15.752 161.822 19.4431C161.822 21.685 160.788 23.1218 159.754 24.1499C161.622 24.9674 162.856 27.0111 162.856 29.253C162.856 33.551 159.542 36.2141 154.782 36.2141C154.782 36.2141 154.782 36.2141 154.695 36.2141H154.471V31.7179H154.982C156.639 31.7179 157.685 30.6898 157.685 29.0548C157.685 27.4198 156.639 26.3918 154.982 26.3918C154.982 26.3918 154.982 26.3918 154.521 26.3918H154.471V22.3043H154.571C156.028 22.3043 156.851 21.2763 156.851 19.8519C156.851 18.4151 156.028 17.5976 154.571 17.5976C154.571 17.5976 154.571 17.5976 154.521 17.5976H154.471V13.2996Z" fill="#ED1C24"/>
<path fill-rule="evenodd" clip-rule="evenodd" d="M172.387 13.2996C172.387 13.2996 172.387 13.2996 174.48 13.2996H174.867V19.8519C174.667 20.2606 174.455 20.8675 174.455 21.4869C174.455 21.4869 174.455 21.4869 172.798 26.1936C172.798 26.1936 172.798 26.1936 174.555 26.1936H174.867V30.4792H173.745C173.11 30.4792 172.387 30.4792 171.565 30.4792C171.565 30.4792 171.565 30.4792 170.107 34.1703C169.696 35.5947 168.874 36.2141 167.217 36.2141C167.217 36.2141 167.217 36.2141 164.102 36.2141C164.102 36.2141 164.102 36.2141 164.102 31.7179C164.102 31.7179 164.102 31.7179 165.136 31.7179C165.56 31.7179 165.56 31.7179 165.759 31.5073C165.759 31.5073 165.759 31.5073 172.387 13.2996Z" fill="#ED1C24"/>
<path fill-rule="evenodd" clip-rule="evenodd" d="M174.866 13.2996H177.358C177.358 13.2996 177.358 13.2996 183.987 31.5073C184.186 31.7179 184.186 31.7179 184.597 31.7179C184.597 31.7179 184.597 31.7179 185.432 31.7179C185.432 31.7179 185.432 31.7179 185.432 36.2141C185.432 36.2141 185.432 36.2141 182.529 36.2141C180.872 36.2141 180.049 35.5947 179.626 33.9598C179.626 33.9598 179.626 33.9598 178.181 30.4792C178.181 30.4792 178.181 30.4792 175.39 30.4792H174.866V26.1936H176.935C176.935 26.1936 176.935 26.1936 175.29 21.4869C175.29 20.8675 175.078 20.2606 174.866 19.8519V13.2996Z" fill="#ED1C24"/>
<path fill-rule="evenodd" clip-rule="evenodd" d="M95.1405 42.7537C95.1405 42.7537 95.1405 42.7537 113.156 42.7537C114.813 42.7537 115.848 43.5712 115.848 45.4167C115.848 45.4167 115.848 45.4167 115.848 60.9614C115.848 61.1596 115.848 61.1596 116.059 61.1596C116.059 61.1596 116.059 61.1596 117.716 61.1596C117.716 61.1596 117.716 61.1596 117.716 65.6682C117.716 65.6682 117.716 65.6682 113.368 65.6682C111.499 65.6682 110.677 64.8507 110.677 63.0051C110.677 63.0051 110.677 63.0051 110.677 47.2622C110.677 47.2622 110.677 47.0517 110.465 47.0517C110.465 47.0517 110.465 47.0517 102.18 47.0517C102.18 47.0517 102.18 47.0517 102.18 65.6682C102.18 65.6682 102.18 65.6682 97.2087 65.6682C97.2087 65.6682 97.2087 65.6682 97.2087 47.0517C97.2087 47.0517 97.2087 47.0517 95.1405 47.0517C95.1405 47.0517 95.1405 47.0517 95.1405 42.7537Z" fill="#ED1C24"/>
<path fill-rule="evenodd" clip-rule="evenodd" d="M130.761 42.345L130.861 42.3574V47.0765L130.761 47.0517C127.023 47.0517 124.133 50.1235 124.133 54.0128C124.133 58.1002 127.023 61.3702 130.761 61.3702L130.861 61.3454V66.0646L130.761 66.077C124.133 66.077 118.95 60.7509 118.95 54.0128C118.95 47.4605 124.133 42.345 130.761 42.345Z" fill="#ED1C24"/>
<path fill-rule="evenodd" clip-rule="evenodd" d="M130.861 42.3577L133.24 42.5806C138.81 43.6458 142.772 48.2783 142.772 54.0131C142.772 59.9089 138.81 64.7272 133.24 65.8295L130.861 66.0649V61.3457L133.49 60.8007C135.969 59.686 137.601 57.0725 137.601 54.0131C137.601 51.0899 135.969 48.6375 133.49 47.597L130.861 47.0768V42.3577Z" fill="#ED1C24"/>
<path fill-rule="evenodd" clip-rule="evenodd" d="M143.806 42.7537C143.806 42.7537 143.806 42.7537 148.366 42.7537C150.023 42.7537 150.845 43.5712 150.845 45.4167C150.845 45.4167 150.845 45.4167 150.845 60.9614C150.845 61.1596 150.845 61.1596 151.057 61.1596C151.057 61.1596 151.057 61.1596 157.062 61.1596C157.062 61.1596 157.062 61.1596 157.062 42.7537C157.062 42.7537 157.062 42.7537 162.034 42.7537C162.034 42.7537 162.034 42.7537 162.034 61.1596C162.034 61.1596 162.034 61.1596 168.039 61.1596C168.251 61.1596 168.251 61.1596 168.251 60.9614C168.251 60.9614 168.251 60.9614 168.251 45.4167C168.251 43.5712 169.073 42.7537 170.73 42.7537C170.73 42.7537 170.73 42.7537 175.29 42.7537C175.29 42.7537 175.29 42.7537 175.29 47.0517C175.29 47.0517 175.29 47.0517 173.421 47.0517C173.209 47.0517 173.209 47.2622 173.209 47.2622C173.209 47.2622 173.209 47.2622 173.209 63.0051C173.209 64.8507 172.387 65.6682 170.73 65.6682C170.73 65.6682 170.73 65.6682 148.565 65.6682C146.709 65.6682 145.874 64.8507 145.874 63.0051C145.874 63.0051 145.874 63.0051 145.874 47.2622C145.874 47.2622 145.874 47.0517 145.675 47.0517C145.675 47.0517 145.675 47.0517 143.806 47.0517C143.806 47.0517 143.806 47.0517 143.806 42.7537Z" fill="#ED1C24"/>
<path fill-rule="evenodd" clip-rule="evenodd" d="M179.215 42.7537C179.215 42.7537 179.215 42.7537 194.751 42.7537C196.62 42.7537 197.243 43.5712 197.243 45.2061C197.243 45.2061 197.243 45.2061 197.243 49.0954H192.683C192.683 49.0954 192.683 49.0954 192.683 47.2622C192.683 47.0517 192.683 47.0517 192.471 47.0517C192.471 47.0517 192.471 47.0517 189.581 47.0517C189.581 47.0517 189.581 47.0517 189.581 65.6682C189.581 65.6682 189.581 65.6682 184.597 65.6682C184.597 65.6682 184.597 65.6682 184.597 47.0517C184.597 47.0517 184.597 47.0517 181.707 47.0517C181.495 47.0517 181.495 47.0517 181.495 47.2622C181.495 47.2622 181.495 47.2622 181.495 49.0954C181.495 49.0954 181.495 49.0954 176.935 49.0954C176.935 49.0954 176.935 49.0954 176.935 45.2061C176.935 43.5712 177.558 42.7537 179.215 42.7537Z" fill="#ED1C24"/>
<path fill-rule="evenodd" clip-rule="evenodd" d="M203.66 42.7537C203.66 42.7537 203.66 42.7537 205.753 42.7537H206.139V49.306C205.927 49.7147 205.728 50.3216 205.728 50.9409C205.728 50.9409 205.728 50.9409 204.071 55.6477C204.071 55.6477 204.071 55.6477 205.815 55.6477H206.139V59.9333H205.018C204.382 59.9333 203.66 59.9333 202.825 59.9333C202.825 59.9333 202.825 59.9333 201.38 63.4139C200.968 65.0488 200.134 65.6682 198.477 65.6682C198.477 65.6682 198.477 65.6682 195.374 65.6682C195.374 65.6682 195.374 65.6682 195.374 61.1596C195.374 61.1596 195.374 61.1596 196.408 61.1596C196.832 61.1596 196.832 61.1596 197.031 60.9614C197.031 60.9614 197.031 60.9614 203.66 42.7537Z" fill="#ED1C24"/>
<path fill-rule="evenodd" clip-rule="evenodd" d="M206.139 42.7537H208.618C208.618 42.7537 208.618 42.7537 215.259 60.9614C215.458 61.1596 215.458 61.1596 215.882 61.1596H216.704C216.704 61.1596 216.704 61.1596 216.704 65.6682C216.704 65.6682 216.704 65.6682 213.801 65.6682C212.144 65.6682 211.322 65.0488 210.898 63.4139C210.898 63.4139 210.898 63.4139 209.453 59.9333C209.453 59.9333 209.453 59.9333 206.662 59.9333H206.139V55.6477H208.207C208.207 55.6477 208.207 55.6477 206.55 50.9409C206.55 50.3216 206.351 49.7147 206.139 49.306V42.7537Z" fill="#ED1C24"/>
<path fill-rule="evenodd" clip-rule="evenodd" d="M63.2201 23.0475C63.4568 22.9731 63.7683 23.1218 64.0798 23.5305C64.0798 23.5305 64.0798 23.5305 78.1586 37.2297C78.9809 38.0472 78.9809 39.2858 78.1586 39.8927C78.1586 39.8927 78.1586 39.8927 64.0798 53.8024C63.7683 54.2112 63.4568 54.3103 63.2201 54.1864C62.9834 54.0625 62.8339 53.7033 62.8339 53.1831V23.9393C62.8339 23.4314 62.9834 23.1218 63.2201 23.0475Z" fill="#ED1C24"/>
<path fill-rule="evenodd" clip-rule="evenodd" d="M39.1367 0.219727H40.1334L41.0927 0.616087C41.0927 0.616087 41.0927 0.616086 55.5827 14.9345C56.2057 15.752 55.9939 16.3713 54.9598 16.3713C54.9598 16.3713 54.9598 16.3713 48.9545 16.3713C47.9204 16.3713 47.0981 17.1888 47.0981 18.2169C47.0981 18.2169 47.0981 18.2169 47.0981 28.8443C47.0981 29.8723 46.2633 30.6898 45.0174 30.6898C45.0174 30.6898 45.0174 30.6898 34.4645 30.6898C33.4304 30.6898 32.5956 29.8723 32.5956 28.8443C32.5956 28.8443 32.5956 28.8443 32.5956 18.2169C32.5956 17.1888 31.7733 16.3713 30.7267 16.3713H24.3103C23.2762 16.3713 23.0644 15.752 23.6873 14.9345C23.6873 14.9345 23.6873 14.9345 38.1898 0.616087L39.1367 0.219727Z" fill="#ED1C24"/>
<path fill-rule="evenodd" clip-rule="evenodd" d="M16.4361 22.7376C16.6977 22.8615 16.8597 23.2207 16.8597 23.7409V53.5917C16.8597 54.1119 16.6977 54.4216 16.4361 54.5207C16.1869 54.6197 15.8256 54.5207 15.402 54.211C15.402 54.211 15.402 54.211 1.11136 39.8925C0.289053 39.2856 0.289053 38.047 1.11136 37.2295C1.11136 37.2295 1.11136 37.2295 15.402 23.1216C15.8256 22.7129 16.1869 22.6138 16.4361 22.7376Z" fill="#ED1C24"/>
<path fill-rule="evenodd" clip-rule="evenodd" d="M34.4645 46.2344C34.4645 46.2344 34.4645 46.2344 45.0174 46.2344C46.2633 46.2344 47.0981 47.0519 47.0981 48.0799C47.0981 48.0799 47.0981 48.0799 47.0981 59.3266C47.0981 60.5528 47.9204 61.3703 48.9545 61.3703H54.5487C55.5828 61.3703 55.9939 61.9773 55.1716 62.5966C55.1716 62.5966 55.1716 62.5966 41.0928 76.7045C40.6692 77.1132 40.1584 77.3238 39.6351 77.3238C39.1243 77.3238 38.601 77.1132 38.1898 76.7045C38.1898 76.7045 38.1898 76.7045 24.111 62.5966C23.2762 61.9773 23.6874 61.3703 24.7215 61.3703C24.7215 61.3703 24.7215 61.3703 30.7268 61.3703C31.7734 61.3703 32.5957 60.5528 32.5957 59.3266C32.5957 59.3266 32.5957 59.3266 32.5957 48.0799C32.5957 47.0519 33.4304 46.2344 34.4645 46.2344Z" fill="#ED1C24"/>
</svg>
