<svg width="230" height="53" viewBox="0 0 230 53" fill="none" xmlns="http://www.w3.org/2000/svg">
<path d="M28.4644 0.219727H202.853C208.921 0.219727 214.797 2.26174 219.567 6.00544C225.749 10.8458 229.565 18.5222 229.527 26.3499C229.641 32.8163 227.199 39.2449 222.887 44.0474C217.926 49.6819 210.447 52.9718 202.93 52.9718H33.9975C29.2657 52.934 24.3813 53.2743 19.8022 51.8751C11.1781 49.455 4.08044 42.3835 1.67639 33.7995C-0.193428 27.6357 0.493444 20.8289 3.31725 15.0432C6.98056 7.51804 14.4217 1.95922 22.7404 0.560066C24.6103 0.29536 26.5564 0.219727 28.4644 0.219727Z" fill="#43B02A"/>
<mask id="mask0_86_449" style="mask-type:alpha" maskUnits="userSpaceOnUse" x="0" y="0" width="230" height="53">
<path d="M28.4644 0.219727H202.853C208.921 0.219727 214.797 2.26174 219.567 6.00544C225.749 10.8458 229.565 18.5222 229.527 26.3499C229.641 32.8163 227.199 39.2449 222.887 44.0474C217.926 49.6819 210.447 52.9718 202.93 52.9718H33.9975C29.2657 52.934 24.3813 53.2743 19.8022 51.8751C11.1781 49.455 4.08044 42.3835 1.67639 33.7995C-0.193428 27.6357 0.493444 20.8289 3.31725 15.0432C6.98056 7.51804 14.4217 1.95922 22.7404 0.560066C24.6103 0.29536 26.5564 0.219727 28.4644 0.219727Z" fill="white"/>
</mask>
<g mask="url(#mask0_86_449)">
<path d="M198.16 12.6986C204.914 10.7322 212.699 14.4002 215.522 20.791C217.583 25.1019 217.278 30.396 214.721 34.48C212.012 39.0556 206.631 41.9296 201.251 41.5514C194.306 41.4002 188.124 35.6523 187.284 28.8456C186.178 21.7742 191.138 14.438 198.16 12.6986Z" fill="#FF671F"/>
<path d="M27.5485 10.2408C34.0357 9.10635 41.0189 12.2828 44.4914 17.8416C46.1704 20.5643 43.7282 24.5727 40.4846 24.1189C38.653 24.3458 37.3937 22.9467 36.4016 21.6231C34.0357 18.7114 29.4947 17.9173 26.2511 19.808C22.9694 21.5475 21.0996 25.8584 22.4352 29.3752C23.4655 32.7786 27.0525 35.3122 30.6395 34.9719C33.5396 35.0853 35.7528 33.0055 37.5845 31.0391C39.9886 28.7324 44.4151 30.6988 44.6059 33.913C44.9493 36.7492 42.3926 38.7534 40.4465 40.3794C34.0357 45.371 24.076 44.7282 18.3521 38.9803C12.5137 33.5349 11.5216 23.8542 16.2152 17.3879C18.81 13.5685 23.0076 10.9593 27.5485 10.2408ZM60.2513 10.3164C68.9516 8.53912 78.2625 14.8164 79.8652 23.4761C82.0785 32.4383 75.2861 42.1946 66.166 43.5181C57.6182 45.2198 48.5363 39.2072 46.7046 30.7744C44.1861 21.7366 50.9403 11.7156 60.2513 10.3164ZM61.854 18.9005C57.8472 19.4677 54.68 23.3626 55.0234 27.4089C55.176 31.5307 59.0301 35.1988 63.2277 34.9719C67.845 35.1988 71.8517 30.6988 71.3175 26.1988C71.0886 21.661 66.3568 17.9929 61.854 18.9005ZM82.918 14.287C82.7654 10.9593 87.23 8.7282 89.7867 10.8837L100.242 21.1315L110.24 11.224C111.461 10.0139 113.484 9.59795 115.086 10.3921C116.765 11.1484 117.834 13.0013 117.719 14.7786V39.3962C117.758 41.9298 115.239 44.1231 112.682 43.7072C110.545 43.4803 108.828 41.5139 108.866 39.3962V24.9509L103.219 30.5475C101.769 31.9467 99.3648 32.1357 97.7239 30.8878C95.5488 29.1105 93.7553 26.9172 91.6565 25.0265L91.6184 39.6609C91.6184 42.1945 88.9472 44.2744 86.4668 43.7072C84.4444 43.3668 82.7272 41.4382 82.918 39.3962V14.287ZM121.383 14.4383C121.306 11.9803 123.596 9.86265 126.038 10.0139H143.668C145.271 10.0139 146.835 10.9971 147.56 12.4341C148.972 14.8921 147.102 18.5601 144.164 18.6357L130.198 18.6736V24.0055H141.989C144.775 23.892 147.255 26.7282 146.454 29.4509C146.034 31.4551 144.011 32.892 141.951 32.8164C138.02 32.8542 134.09 32.8164 130.198 32.8164L130.159 39.7366C130.007 42.3836 127.03 44.3878 124.512 43.5181C123.253 43.2156 122.451 42.1567 121.688 41.2114C121.154 38.7912 121.421 36.2954 121.383 33.8374V14.4383ZM149.888 14.8542C149.43 11.9803 152.521 9.33324 155.307 10.1652C157.253 10.7324 158.359 12.5097 159.771 13.7576L166.144 19.9971L175.226 11.0727C176.943 9.52231 179.767 9.7492 181.293 11.4509C182.858 13.0769 182.82 15.8753 181.179 17.4257L170.532 28.0517V39.3962C170.647 41.4382 169.006 43.2912 167.022 43.6693C164.427 44.2744 161.641 42.0055 161.832 39.3584V28.0517L153.132 19.3542C151.758 18.0307 149.964 16.8206 149.888 14.8542Z" fill="white"/>
</g>
</svg>
