<svg width="134" height="134" viewBox="0 0 134 134" fill="none" xmlns="http://www.w3.org/2000/svg">
<path d="M78.9043 120.47H74.2427V114.828H78.211V109.909H74.2427V105.046H78.4634V99.8849H67.9456V125.633H78.9043V120.47Z" fill="#4ac6e1"/>
<path d="M29.8678 104.986H31.8216V125.633H38.1184V99.8242H23.5706V125.633H29.8678V104.986Z" fill="#4ac6e1"/>
<path d="M21.4194 119.991H16.3173V113.749H20.6635V108.348H16.3173V102.946H20.9782V97.3035H9.38965V125.633H21.4194V119.991Z" fill="#4ac6e1"/>
<path d="M87.3526 114.828H89.3046V125.633H95.6035V99.8849H89.3046V109.128H87.3526V99.8849H81.0554V125.633H87.3526V114.828Z" fill="#4ac6e1"/>
<path d="M101.103 125.633H107.402V105.046H111.179V99.8849H97.3862V105.046H101.103V125.633Z" fill="#4ac6e1"/>
<path d="M46.5666 99.8849H40.2688V125.633H46.5666V99.8849Z" fill="#4ac6e1"/>
<path d="M66.1623 119.991H64.7134V97.3035H57.7862V119.991H55.6445V97.3035H48.7175V125.633H61.3754V128.435H66.1623V119.991Z" fill="#4ac6e1"/>
<path d="M119.876 110.365C118.038 110.365 116.541 108.867 116.541 107.026C116.541 105.188 118.038 103.691 119.876 103.691C121.716 103.691 123.214 105.188 123.214 107.026C123.214 108.867 121.716 110.365 119.876 110.365ZM126.323 103.516C126.162 102.748 125.848 102.093 125.382 101.553C124.915 101.013 124.217 100.6 123.291 100.315C122.36 100.028 121.042 99.8849 119.33 99.8849H112.962V125.633H119.259V115.249H120.966C122.348 115.249 123.467 115.048 124.326 114.646C125.182 114.244 125.772 113.666 126.09 112.914C126.406 112.162 126.566 110.964 126.566 109.323V107.082C126.566 105.473 126.485 104.284 126.323 103.516Z" fill="#4ac6e1"/>
<path d="M120.346 108.691L119.627 107.304V108.691H118.568V105.365H119.627V106.792L120.303 105.365H121.521L120.616 107.007L121.648 108.691H120.346ZM119.876 104.491C118.478 104.491 117.34 105.631 117.34 107.026C117.34 108.426 118.478 109.562 119.876 109.562C121.276 109.562 122.413 108.426 122.413 107.026C122.413 105.631 121.276 104.491 119.876 104.491Z" fill="#4ac6e1"/>
<path d="M129.013 101.393C128.991 101.426 128.96 101.449 128.917 101.465C128.863 101.485 128.784 101.495 128.681 101.495H128.239V101.078H128.743C128.855 101.078 128.939 101.098 128.985 101.138C129.027 101.175 129.047 101.221 129.047 101.28C129.047 101.321 129.036 101.358 129.013 101.393L129.013 101.393ZM129.678 102.633L129.341 102.105C129.277 102.007 129.209 101.926 129.141 101.857C129.234 101.82 129.313 101.771 129.374 101.707C129.482 101.592 129.537 101.448 129.537 101.28C129.537 101.152 129.505 101.033 129.441 100.928C129.374 100.817 129.282 100.739 129.169 100.695C129.064 100.655 128.921 100.636 128.732 100.636H127.755V102.808H128.239V101.944H128.425C128.502 101.944 128.532 101.949 128.545 101.951C128.569 101.958 128.597 101.97 128.625 101.988C128.643 102 128.677 102.027 128.728 102.092C128.773 102.15 128.834 102.238 128.908 102.352C128.907 102.351 129.165 102.755 129.165 102.755L129.197 102.808H129.788L129.678 102.633" fill="#4ac6e1"/>
<path d="M128.649 99.7219C127.542 99.7219 126.641 100.623 126.641 101.731C126.641 102.838 127.542 103.739 128.649 103.739C129.757 103.739 130.658 102.838 130.658 101.731C130.658 100.623 129.757 99.7219 128.649 99.7219ZM130.249 101.731C130.249 102.612 129.531 103.33 128.649 103.33C127.767 103.33 127.05 102.612 127.05 101.731C127.05 100.848 127.767 100.131 128.649 100.131C129.531 100.131 130.249 100.848 130.249 101.731Z" fill="#4ac6e1"/>
<path d="M66.9129 87.2277C49.8293 87.2277 35.9308 73.3295 35.9308 56.246C35.9308 41.0271 46.9637 28.3455 61.4492 25.7561V32.5382C61.4492 34.3589 62.3066 36.0336 63.7354 37.0944V42.7898H50.9707C49.4959 42.7898 48.1611 43.5354 47.3864 44.805C46.6357 46.0682 46.5916 47.6433 47.2681 48.91L63.395 79.6955C64.1192 81.0774 65.5429 81.9373 67.1081 81.9373C68.6809 81.9373 70.1031 81.0756 70.8164 79.6955L86.9525 48.9152C87.6323 47.629 87.5852 46.0516 86.8226 44.7861C86.0654 43.5557 84.6972 42.7898 83.2511 42.7898H70.4815V37.0976C71.9191 36.0336 72.7808 34.3571 72.7808 32.5382V25.8285C87.0673 28.5787 97.8954 41.1686 97.8954 56.246C97.8954 73.3295 83.9968 87.2277 66.9129 87.2277H66.9129ZM72.7808 18.8073V12.5473C72.7808 9.42661 70.2362 6.88973 67.1081 6.88973C63.988 6.88973 61.4492 9.42661 61.4492 12.5473V18.7501C43.1343 21.4073 29.0183 37.2059 29.0183 56.246C29.0183 77.1405 46.0177 94.1401 66.9129 94.1401C87.8083 94.1401 104.808 77.1405 104.808 56.246C104.808 37.346 90.8995 21.6359 72.7808 18.8073Z" fill="#4ac6e1"/>
</svg>
