<svg width="14" height="20" viewBox="0 0 14 20" fill="none" xmlns="http://www.w3.org/2000/svg">
<path d="M2.36291 0.438987L3.4395 0.09498C4.44832 -0.227371 5.52617 0.293579 5.95819 1.31232L6.81793 3.33967C7.19258 4.22312 6.98468 5.26203 6.30395 5.90815L4.40963 7.70616C4.52651 8.78164 4.88802 9.84064 5.49416 10.8832C6.1003 11.9257 6.85732 12.7905 7.76522 13.4776L10.0404 12.7189C10.9028 12.4313 11.842 12.7618 12.371 13.539L13.6034 15.3495C14.2183 16.2529 14.1077 17.4993 13.3447 18.2653L12.527 19.0862C11.713 19.9033 10.5505 20.1997 9.47508 19.8643C6.93623 19.0723 4.60191 16.7211 2.47214 12.8107C0.339269 8.89448 -0.41348 5.57189 0.213892 2.84289C0.477888 1.69457 1.2954 0.780091 2.36291 0.438987Z" fill="#503B5C"/>
</svg>
