<svg width="637" height="124" viewBox="0 0 637 124" fill="none" xmlns="http://www.w3.org/2000/svg">
<mask id="path-1-outside-1_161_410" maskUnits="userSpaceOnUse" x="0" y="0" width="637" height="124" fill="black">
<rect fill="white" width="637" height="124"/>
<path d="M45.4989 121.209C37.9749 121.209 30.4509 119.857 22.9269 117.153C15.5204 114.331 8.87814 110.158 3 104.632L17.8129 86.8215C21.9276 90.3484 26.4538 93.2287 31.3914 95.4624C36.4466 97.6961 41.3842 98.8129 46.2043 98.8129C51.6122 98.8129 55.6093 97.8136 58.1957 95.8151C60.8996 93.8165 62.2516 91.1126 62.2516 87.7032C62.2516 85.9398 61.8402 84.4115 61.0172 83.1183C60.3118 81.8251 59.195 80.7083 57.6667 79.7678C56.2559 78.7097 54.4925 77.7692 52.3764 76.9463C50.3778 76.0058 48.1441 75.0065 45.6753 73.9484L30.686 67.6C27.747 66.4244 24.8667 64.8961 22.0452 63.0151C19.3412 61.1341 16.8724 58.9591 14.6387 56.4903C12.5226 53.9039 10.8179 50.9649 9.52473 47.6731C8.23154 44.2638 7.58495 40.443 7.58495 36.2108C7.58495 31.5082 8.58423 27.0996 10.5828 22.985C12.5814 18.7527 15.4029 15.1082 19.0473 12.0516C22.6918 8.87742 26.9828 6.40861 31.9204 4.64516C36.9756 2.88172 42.5011 2 48.4968 2C55.1979 2 61.7814 3.29319 68.2473 5.87957C74.8308 8.46595 80.5914 12.228 85.529 17.1656L72.3032 33.5656C68.5412 30.6265 64.7792 28.3928 61.0172 26.8645C57.2552 25.2186 53.0817 24.3957 48.4968 24.3957C44.0294 24.3957 40.4437 25.3362 37.7398 27.2172C35.1534 28.9806 33.8602 31.5082 33.8602 34.8C33.8602 36.5634 34.2717 38.0918 35.0946 39.385C36.0351 40.5606 37.2695 41.6774 38.7979 42.7355C40.4437 43.676 42.3247 44.6165 44.4409 45.557C46.557 46.3799 48.8495 47.3204 51.3183 48.3785L66.1312 54.3742C73.185 57.1957 78.7104 61.0753 82.7075 66.0129C86.8222 70.9505 88.8796 77.4753 88.8796 85.5871C88.8796 90.4072 87.8803 94.9921 85.8817 99.3419C84.0007 103.574 81.1792 107.336 77.4172 110.628C73.7728 113.802 69.2466 116.389 63.8387 118.387C58.4308 120.268 52.3176 121.209 45.4989 121.209ZM156.36 121.209C149.071 121.209 142.194 119.974 135.728 117.505C129.262 114.919 123.56 111.157 118.622 106.219C113.802 101.282 109.982 95.1685 107.16 87.8796C104.339 80.4731 102.928 71.9498 102.928 62.3097C102.928 52.7871 104.397 44.3226 107.336 36.9161C110.276 29.3921 114.214 23.0437 119.152 17.871C124.089 12.6982 129.85 8.75986 136.433 6.05591C143.017 3.35197 149.953 2 157.242 2C164.648 2 171.291 3.52832 177.169 6.58495C183.047 9.52402 187.926 12.9921 191.805 16.9892L178.05 33.5656C175.111 30.8617 171.996 28.6867 168.704 27.0409C165.53 25.2774 161.886 24.3957 157.771 24.3957C153.891 24.3957 150.188 25.2774 146.661 27.0409C143.252 28.6867 140.254 31.0968 137.668 34.271C135.199 37.4452 133.2 41.3247 131.672 45.9097C130.261 50.4946 129.556 55.6674 129.556 61.428C129.556 73.3018 132.083 82.5305 137.139 89.114C142.194 95.5799 148.954 98.8129 157.418 98.8129C162.121 98.8129 166.294 97.8136 169.939 95.8151C173.701 93.6989 176.992 91.1126 179.814 88.0559L193.569 104.28C183.929 115.566 171.526 121.209 156.36 121.209ZM211.032 119.092V4.11613H236.955V48.3785H276.632V4.11613H302.731V119.092H276.632V71.1269H236.955V119.092H211.032ZM329.858 119.092V4.11613H401.806V25.9828H355.781V49.0839H394.929V70.7742H355.781V97.2258H403.57V119.092H329.858ZM426.468 119.092V4.11613H454.86L473.376 55.2559C474.551 58.6652 475.668 62.1921 476.726 65.8366C477.784 69.3634 478.901 72.8903 480.077 76.4172H480.782C481.958 72.8903 483.016 69.3634 483.956 65.8366C485.015 62.1921 486.131 58.6652 487.307 55.2559L505.47 4.11613H533.686V119.092H510.055V76.9463C510.055 74.1247 510.173 71.0093 510.408 67.6C510.643 64.1907 510.937 60.7814 511.29 57.3721C511.643 53.8452 511.995 50.4358 512.348 47.1441C512.701 43.7348 513.053 40.6194 513.406 37.7979H512.701L503.354 65.1312L486.954 109.041H472.67L456.27 65.1312L447.101 37.7979H446.395C446.748 40.6194 447.101 43.7348 447.453 47.1441C447.806 50.4358 448.159 53.8452 448.511 57.3721C448.864 60.7814 449.158 64.1907 449.393 67.6C449.628 71.0093 449.746 74.1247 449.746 76.9463V119.092H426.468ZM560.793 119.092V4.11613H632.741V25.9828H586.716V49.0839H625.864V70.7742H586.716V97.2258H634.505V119.092H560.793Z"/>
</mask>
<path d="M45.4989 121.209C37.9749 121.209 30.4509 119.857 22.9269 117.153C15.5204 114.331 8.87814 110.158 3 104.632L17.8129 86.8215C21.9276 90.3484 26.4538 93.2287 31.3914 95.4624C36.4466 97.6961 41.3842 98.8129 46.2043 98.8129C51.6122 98.8129 55.6093 97.8136 58.1957 95.8151C60.8996 93.8165 62.2516 91.1126 62.2516 87.7032C62.2516 85.9398 61.8402 84.4115 61.0172 83.1183C60.3118 81.8251 59.195 80.7083 57.6667 79.7678C56.2559 78.7097 54.4925 77.7692 52.3764 76.9463C50.3778 76.0058 48.1441 75.0065 45.6753 73.9484L30.686 67.6C27.747 66.4244 24.8667 64.8961 22.0452 63.0151C19.3412 61.1341 16.8724 58.9591 14.6387 56.4903C12.5226 53.9039 10.8179 50.9649 9.52473 47.6731C8.23154 44.2638 7.58495 40.443 7.58495 36.2108C7.58495 31.5082 8.58423 27.0996 10.5828 22.985C12.5814 18.7527 15.4029 15.1082 19.0473 12.0516C22.6918 8.87742 26.9828 6.40861 31.9204 4.64516C36.9756 2.88172 42.5011 2 48.4968 2C55.1979 2 61.7814 3.29319 68.2473 5.87957C74.8308 8.46595 80.5914 12.228 85.529 17.1656L72.3032 33.5656C68.5412 30.6265 64.7792 28.3928 61.0172 26.8645C57.2552 25.2186 53.0817 24.3957 48.4968 24.3957C44.0294 24.3957 40.4437 25.3362 37.7398 27.2172C35.1534 28.9806 33.8602 31.5082 33.8602 34.8C33.8602 36.5634 34.2717 38.0918 35.0946 39.385C36.0351 40.5606 37.2695 41.6774 38.7979 42.7355C40.4437 43.676 42.3247 44.6165 44.4409 45.557C46.557 46.3799 48.8495 47.3204 51.3183 48.3785L66.1312 54.3742C73.185 57.1957 78.7104 61.0753 82.7075 66.0129C86.8222 70.9505 88.8796 77.4753 88.8796 85.5871C88.8796 90.4072 87.8803 94.9921 85.8817 99.3419C84.0007 103.574 81.1792 107.336 77.4172 110.628C73.7728 113.802 69.2466 116.389 63.8387 118.387C58.4308 120.268 52.3176 121.209 45.4989 121.209ZM156.36 121.209C149.071 121.209 142.194 119.974 135.728 117.505C129.262 114.919 123.56 111.157 118.622 106.219C113.802 101.282 109.982 95.1685 107.16 87.8796C104.339 80.4731 102.928 71.9498 102.928 62.3097C102.928 52.7871 104.397 44.3226 107.336 36.9161C110.276 29.3921 114.214 23.0437 119.152 17.871C124.089 12.6982 129.85 8.75986 136.433 6.05591C143.017 3.35197 149.953 2 157.242 2C164.648 2 171.291 3.52832 177.169 6.58495C183.047 9.52402 187.926 12.9921 191.805 16.9892L178.05 33.5656C175.111 30.8617 171.996 28.6867 168.704 27.0409C165.53 25.2774 161.886 24.3957 157.771 24.3957C153.891 24.3957 150.188 25.2774 146.661 27.0409C143.252 28.6867 140.254 31.0968 137.668 34.271C135.199 37.4452 133.2 41.3247 131.672 45.9097C130.261 50.4946 129.556 55.6674 129.556 61.428C129.556 73.3018 132.083 82.5305 137.139 89.114C142.194 95.5799 148.954 98.8129 157.418 98.8129C162.121 98.8129 166.294 97.8136 169.939 95.8151C173.701 93.6989 176.992 91.1126 179.814 88.0559L193.569 104.28C183.929 115.566 171.526 121.209 156.36 121.209ZM211.032 119.092V4.11613H236.955V48.3785H276.632V4.11613H302.731V119.092H276.632V71.1269H236.955V119.092H211.032ZM329.858 119.092V4.11613H401.806V25.9828H355.781V49.0839H394.929V70.7742H355.781V97.2258H403.57V119.092H329.858ZM426.468 119.092V4.11613H454.86L473.376 55.2559C474.551 58.6652 475.668 62.1921 476.726 65.8366C477.784 69.3634 478.901 72.8903 480.077 76.4172H480.782C481.958 72.8903 483.016 69.3634 483.956 65.8366C485.015 62.1921 486.131 58.6652 487.307 55.2559L505.47 4.11613H533.686V119.092H510.055V76.9463C510.055 74.1247 510.173 71.0093 510.408 67.6C510.643 64.1907 510.937 60.7814 511.29 57.3721C511.643 53.8452 511.995 50.4358 512.348 47.1441C512.701 43.7348 513.053 40.6194 513.406 37.7979H512.701L503.354 65.1312L486.954 109.041H472.67L456.27 65.1312L447.101 37.7979H446.395C446.748 40.6194 447.101 43.7348 447.453 47.1441C447.806 50.4358 448.159 53.8452 448.511 57.3721C448.864 60.7814 449.158 64.1907 449.393 67.6C449.628 71.0093 449.746 74.1247 449.746 76.9463V119.092H426.468ZM560.793 119.092V4.11613H632.741V25.9828H586.716V49.0839H625.864V70.7742H586.716V97.2258H634.505V119.092H560.793Z" stroke="#503B5C" stroke-opacity="0.04" stroke-width="4" mask="url(#path-1-outside-1_161_410)"/>
</svg>
