<svg width="103" height="103" viewBox="0 0 103 103" fill="none" xmlns="http://www.w3.org/2000/svg">
<circle cx="51.759" cy="51.7344" r="50.3976" stroke="#4AC6E1" stroke-width="1.13253"/>
<path d="M51.6491 34.2925C52.1482 33.9025 52.8518 33.9025 53.351 34.2925L66.3797 44.4728C68.0343 45.7656 69 47.7394 69 49.8284V66.7273C69 67.9825 67.974 69 66.7083 69H57.5417C56.276 69 55.25 67.9825 55.25 66.7273V57.6364C55.25 57.3853 55.0448 57.1818 54.7917 57.1818H50.2083C49.9552 57.1818 49.75 57.3853 49.75 57.6364V66.7273C49.75 67.9825 48.724 69 47.4583 69H38.2917C37.026 69 36 67.9825 36 66.7273V49.8284C36 47.7394 36.9657 45.7656 38.6203 44.4728L51.6491 34.2925ZM52.5 37.0997L40.3222 46.615C39.3294 47.3907 38.75 48.575 38.75 49.8284V66.2727H47V57.6364C47 55.8791 48.4364 54.4545 50.2083 54.4545H54.7917C56.5636 54.4545 58 55.8791 58 57.6364V66.2727H66.25V49.8284C66.25 48.575 65.6706 47.3907 64.6778 46.615L52.5 37.0997Z" fill="#202223"/>
</svg>
