<svg width="103" height="103" viewBox="0 0 103 103" fill="none" xmlns="http://www.w3.org/2000/svg">
<circle cx="51.759" cy="51.7353" r="50.3976" stroke="#4AC6E1" stroke-width="1.13253"/>
<path d="M43.7695 35.7973L45.7524 35.1996C47.9995 34.5222 50.4004 35.6169 51.3628 37.7575L52.8948 41.1656C53.7151 42.9902 53.2828 45.1345 51.8198 46.4989L49.2807 48.8666C49.2065 48.9358 49.1595 49.0293 49.1482 49.1301C49.0729 49.8049 49.5303 51.1191 50.5843 52.9445C51.3507 54.272 52.0443 55.2029 52.6348 55.7265C53.0462 56.0913 53.2726 56.1702 53.369 56.1415L56.7849 55.0971C58.6974 54.5124 60.7701 55.2097 61.9403 56.8315L64.1165 59.8475C65.4862 61.7458 65.2399 64.3647 63.5402 65.9744L62.0342 67.4007C60.4091 68.9397 58.0956 69.5132 55.9397 68.9115C51.2601 67.6053 47.0644 63.6562 43.306 57.1466C39.5425 50.6279 38.2219 45.0132 39.4393 40.3034C39.9964 38.1481 41.638 36.4398 43.7695 35.7973ZM44.505 38.2376C43.2261 38.6231 42.2412 39.6481 41.9069 40.9413C40.8829 44.9029 42.0534 49.8795 45.5133 55.8722C48.9686 61.857 52.688 65.3577 56.625 66.4566C57.9185 66.8176 59.3066 66.4735 60.2816 65.5501L61.7877 64.1238C62.5603 63.3921 62.6722 62.2017 62.0496 61.3389L59.8734 58.3229C59.3415 57.5857 58.3994 57.2687 57.5301 57.5345L54.1057 58.5814C52.1181 59.1739 50.3142 57.5742 48.377 54.2189C47.0715 51.9578 46.4631 50.2099 46.6152 48.8472C46.6941 48.1413 47.023 47.487 47.5425 47.0026L50.0815 44.6349C50.7466 44.0147 50.943 43.04 50.5702 42.2106L49.0381 38.8026C48.6007 37.8296 47.5094 37.332 46.4879 37.6399L44.505 38.2376Z" fill="black"/>
</svg>
