<svg width="102" height="103" viewBox="0 0 102 103" fill="none" xmlns="http://www.w3.org/2000/svg">
<circle cx="50.9639" cy="51.1328" r="50.3976" fill="#4AC6E1" stroke="#4AC6E1" stroke-width="1.13253"/>
<path d="M51 34C60.3888 34 68 41.6112 68 51C68 60.3888 60.3888 68 51 68C41.6112 68 34 60.3888 34 51C34 41.6112 41.6112 34 51 34ZM51 36.5496C43.0193 36.5496 36.5496 43.0193 36.5496 51C36.5496 58.9807 43.0193 65.4504 51 65.4504C58.9807 65.4504 65.4504 58.9807 65.4504 51C65.4504 43.0193 58.9807 36.5496 51 36.5496ZM50.9938 48.4488C51.6392 48.4483 52.1729 48.9276 52.2577 49.5497L52.2694 49.7227L52.2756 59.074C52.276 59.778 51.7056 60.3492 51.0016 60.3496C50.3562 60.35 49.8225 59.8708 49.7377 59.2486L49.726 59.0756L49.7198 49.7244C49.7194 49.0203 50.2898 48.4492 50.9938 48.4488ZM51.0008 42.5035C51.9382 42.5035 52.6982 43.2635 52.6982 44.2009C52.6982 45.1384 51.9382 45.8984 51.0008 45.8984C50.0633 45.8984 49.3033 45.1384 49.3033 44.2009C49.3033 43.2635 50.0633 42.5035 51.0008 42.5035Z" fill="white"/>
</svg>
