<svg width="103" height="103" viewBox="0 0 103 103" fill="none" xmlns="http://www.w3.org/2000/svg">
<circle cx="51.5301" cy="51.8672" r="50.3976" stroke="#4AC6E1" stroke-width="1.13253"/>
<path d="M55.75 35C56.3828 35 56.9058 35.4656 56.9886 36.0696L57 36.2375V39.95H65.75C66.4404 39.95 67 40.504 67 41.1875V66.7625C67 67.446 66.4404 68 65.75 68H60.75C60.0596 68 59.5 67.446 59.5 66.7625V62.225H56.1667V66.7625C56.1667 67.446 55.607 68 54.9167 68H49.9167C49.2263 68 48.6667 67.446 48.6667 66.7625V41.1875C48.6667 40.504 49.2263 39.95 49.9167 39.95H54.5V37.475H39.5V66.7625C39.5 67.446 38.9404 68 38.25 68C37.6172 68 37.0942 67.5344 37.0114 66.9304L37 66.7625V36.2375C37 35.611 37.4703 35.0932 38.0804 35.0113L38.25 35H55.75ZM64.5 42.425H51.1667V65.525H53.6667V60.9875C53.6667 60.304 54.2263 59.75 54.9167 59.75H60.75C61.4404 59.75 62 60.304 62 60.9875V65.525H64.5V42.425ZM45.3333 59.75V63.05H42V59.75H45.3333ZM57 54.8V58.1H53.6667V54.8H57ZM62 54.8V58.1H58.6667V54.8H62ZM45.3333 54.8V58.1H42V54.8H45.3333ZM57 49.85V53.15H53.6667V49.85H57ZM62 49.85V53.15H58.6667V49.85H62ZM45.3333 49.85V53.15H42V49.85H45.3333ZM45.3333 44.9V48.2H42V44.9H45.3333ZM57 44.9V48.2H53.6667V44.9H57ZM62 44.9V48.2H58.6667V44.9H62ZM45.3333 39.95V43.25H42V39.95H45.3333Z" fill="#202223"/>
</svg>
