<svg width="742" height="124" viewBox="0 0 742 124" fill="none" xmlns="http://www.w3.org/2000/svg">
<mask id="path-1-outside-1_161_407" maskUnits="userSpaceOnUse" x="0" y="0" width="742" height="124" fill="black">
<rect fill="white" width="742" height="124"/>
<path d="M45.4989 121.209C37.9749 121.209 30.4509 119.857 22.9269 117.153C15.5204 114.331 8.87814 110.158 3 104.632L17.8129 86.8215C21.9276 90.3484 26.4538 93.2287 31.3914 95.4624C36.4466 97.6961 41.3842 98.8129 46.2043 98.8129C51.6122 98.8129 55.6093 97.8136 58.1957 95.8151C60.8996 93.8165 62.2516 91.1126 62.2516 87.7032C62.2516 85.9398 61.8402 84.4115 61.0172 83.1183C60.3118 81.8251 59.195 80.7083 57.6667 79.7678C56.2559 78.7097 54.4925 77.7692 52.3764 76.9463C50.3778 76.0058 48.1441 75.0065 45.6753 73.9484L30.686 67.6C27.747 66.4244 24.8667 64.8961 22.0452 63.0151C19.3412 61.1341 16.8724 58.9591 14.6387 56.4903C12.5226 53.9039 10.8179 50.9649 9.52473 47.6731C8.23154 44.2638 7.58495 40.443 7.58495 36.2108C7.58495 31.5082 8.58423 27.0996 10.5828 22.985C12.5814 18.7527 15.4029 15.1082 19.0473 12.0516C22.6918 8.87742 26.9828 6.40861 31.9204 4.64516C36.9756 2.88172 42.5011 2 48.4968 2C55.1979 2 61.7814 3.29319 68.2473 5.87957C74.8308 8.46595 80.5914 12.228 85.529 17.1656L72.3032 33.5656C68.5412 30.6265 64.7792 28.3928 61.0172 26.8645C57.2552 25.2186 53.0817 24.3957 48.4968 24.3957C44.0294 24.3957 40.4437 25.3362 37.7398 27.2172C35.1534 28.9806 33.8602 31.5082 33.8602 34.8C33.8602 36.5634 34.2717 38.0918 35.0946 39.385C36.0351 40.5606 37.2695 41.6774 38.7979 42.7355C40.4437 43.676 42.3247 44.6165 44.4409 45.557C46.557 46.3799 48.8495 47.3204 51.3183 48.3785L66.1312 54.3742C73.185 57.1957 78.7104 61.0753 82.7075 66.0129C86.8222 70.9505 88.8796 77.4753 88.8796 85.5871C88.8796 90.4072 87.8803 94.9921 85.8817 99.3419C84.0007 103.574 81.1792 107.336 77.4172 110.628C73.7728 113.802 69.2466 116.389 63.8387 118.387C58.4308 120.268 52.3176 121.209 45.4989 121.209ZM108.395 119.092V4.11613H180.343V25.9828H134.317V49.0839H173.466V70.7742H134.317V97.2258H182.106V119.092H108.395ZM205.005 119.092V4.11613H246.446C252.559 4.11613 258.261 4.70395 263.551 5.87957C268.959 7.0552 273.662 9.05376 277.659 11.8753C281.656 14.5792 284.83 18.2237 287.181 22.8086C289.533 27.3936 290.708 33.0953 290.708 39.914C290.708 48.3785 288.827 55.3735 285.065 60.8989C281.421 66.3068 276.483 70.3627 270.252 73.0667L296.351 119.092H267.254L245.211 77.6516H230.928V119.092H205.005ZM230.928 57.0194H244.33C251.148 57.0194 256.321 55.6086 259.848 52.7871C263.492 49.848 265.315 45.557 265.315 39.914C265.315 34.271 263.492 30.3326 259.848 28.0989C256.321 25.8652 251.148 24.7484 244.33 24.7484H230.928V57.0194ZM330.842 119.092L296.102 4.11613H323.612L337.366 57.7247C339.13 64.0731 340.658 70.2452 341.951 76.2409C343.362 82.119 344.949 88.2323 346.713 94.5807H347.418C349.064 88.2323 350.592 82.119 352.003 76.2409C353.414 70.2452 354.942 64.0731 356.588 57.7247L370.166 4.11613H396.618L362.055 119.092H330.842ZM408.903 119.092V4.11613H434.825V119.092H408.903ZM509.909 121.209C502.621 121.209 495.743 119.974 489.277 117.505C482.811 114.919 477.109 111.157 472.172 106.219C467.352 101.282 463.531 95.1685 460.709 87.8796C457.888 80.4731 456.477 71.9498 456.477 62.3097C456.477 52.7871 457.947 44.3226 460.886 36.9161C463.825 29.3921 467.763 23.0437 472.701 17.871C477.638 12.6982 483.399 8.75986 489.983 6.05591C496.566 3.35197 503.502 2 510.791 2C518.198 2 524.84 3.52832 530.718 6.58495C536.596 9.52402 541.475 12.9921 545.355 16.9892L531.6 33.5656C528.661 30.8617 525.545 28.6867 522.253 27.0409C519.079 25.2774 515.435 24.3957 511.32 24.3957C507.441 24.3957 503.737 25.2774 500.21 27.0409C496.801 28.6867 493.803 31.0968 491.217 34.271C488.748 37.4452 486.75 41.3247 485.221 45.9097C483.81 50.4946 483.105 55.6674 483.105 61.428C483.105 73.3018 485.633 82.5305 490.688 89.114C495.743 95.5799 502.503 98.8129 510.967 98.8129C515.67 98.8129 519.843 97.8136 523.488 95.8151C527.25 93.6989 530.542 91.1126 533.363 88.0559L547.118 104.28C537.478 115.566 525.075 121.209 509.909 121.209ZM564.582 119.092V4.11613H636.53V25.9828H590.504V49.0839H629.653V70.7742H590.504V97.2258H638.293V119.092H564.582ZM696.284 121.209C688.76 121.209 681.236 119.857 673.712 117.153C666.306 114.331 659.664 110.158 653.786 104.632L668.598 86.8215C672.713 90.3484 677.239 93.2287 682.177 95.4624C687.232 97.6961 692.17 98.8129 696.99 98.8129C702.398 98.8129 706.395 97.8136 708.981 95.8151C711.685 93.8165 713.037 91.1126 713.037 87.7032C713.037 85.9398 712.626 84.4115 711.803 83.1183C711.097 81.8251 709.981 80.7083 708.452 79.7678C707.041 78.7097 705.278 77.7692 703.162 76.9463C701.163 76.0058 698.93 75.0065 696.461 73.9484L681.472 67.6C678.532 66.4244 675.652 64.8961 672.831 63.0151C670.127 61.1341 667.658 58.9591 665.424 56.4903C663.308 53.9039 661.603 50.9649 660.31 47.6731C659.017 44.2638 658.37 40.443 658.37 36.2108C658.37 31.5082 659.37 27.0996 661.368 22.985C663.367 18.7527 666.188 15.1082 669.833 12.0516C673.477 8.87742 677.768 6.40861 682.706 4.64516C687.761 2.88172 693.287 2 699.282 2C705.983 2 712.567 3.29319 719.033 5.87957C725.616 8.46595 731.377 12.228 736.315 17.1656L723.089 33.5656C719.327 30.6265 715.565 28.3928 711.803 26.8645C708.041 25.2186 703.867 24.3957 699.282 24.3957C694.815 24.3957 691.229 25.3362 688.525 27.2172C685.939 28.9806 684.646 31.5082 684.646 34.8C684.646 36.5634 685.057 38.0918 685.88 39.385C686.821 40.5606 688.055 41.6774 689.583 42.7355C691.229 43.676 693.11 44.6165 695.226 45.557C697.343 46.3799 699.635 47.3204 702.104 48.3785L716.917 54.3742C723.97 57.1957 729.496 61.0753 733.493 66.0129C737.608 70.9505 739.665 77.4753 739.665 85.5871C739.665 90.4072 738.666 94.9921 736.667 99.3419C734.786 103.574 731.965 107.336 728.203 110.628C724.558 113.802 720.032 116.389 714.624 118.387C709.216 120.268 703.103 121.209 696.284 121.209Z"/>
</mask>
<path d="M45.4989 121.209C37.9749 121.209 30.4509 119.857 22.9269 117.153C15.5204 114.331 8.87814 110.158 3 104.632L17.8129 86.8215C21.9276 90.3484 26.4538 93.2287 31.3914 95.4624C36.4466 97.6961 41.3842 98.8129 46.2043 98.8129C51.6122 98.8129 55.6093 97.8136 58.1957 95.8151C60.8996 93.8165 62.2516 91.1126 62.2516 87.7032C62.2516 85.9398 61.8402 84.4115 61.0172 83.1183C60.3118 81.8251 59.195 80.7083 57.6667 79.7678C56.2559 78.7097 54.4925 77.7692 52.3764 76.9463C50.3778 76.0058 48.1441 75.0065 45.6753 73.9484L30.686 67.6C27.747 66.4244 24.8667 64.8961 22.0452 63.0151C19.3412 61.1341 16.8724 58.9591 14.6387 56.4903C12.5226 53.9039 10.8179 50.9649 9.52473 47.6731C8.23154 44.2638 7.58495 40.443 7.58495 36.2108C7.58495 31.5082 8.58423 27.0996 10.5828 22.985C12.5814 18.7527 15.4029 15.1082 19.0473 12.0516C22.6918 8.87742 26.9828 6.40861 31.9204 4.64516C36.9756 2.88172 42.5011 2 48.4968 2C55.1979 2 61.7814 3.29319 68.2473 5.87957C74.8308 8.46595 80.5914 12.228 85.529 17.1656L72.3032 33.5656C68.5412 30.6265 64.7792 28.3928 61.0172 26.8645C57.2552 25.2186 53.0817 24.3957 48.4968 24.3957C44.0294 24.3957 40.4437 25.3362 37.7398 27.2172C35.1534 28.9806 33.8602 31.5082 33.8602 34.8C33.8602 36.5634 34.2717 38.0918 35.0946 39.385C36.0351 40.5606 37.2695 41.6774 38.7979 42.7355C40.4437 43.676 42.3247 44.6165 44.4409 45.557C46.557 46.3799 48.8495 47.3204 51.3183 48.3785L66.1312 54.3742C73.185 57.1957 78.7104 61.0753 82.7075 66.0129C86.8222 70.9505 88.8796 77.4753 88.8796 85.5871C88.8796 90.4072 87.8803 94.9921 85.8817 99.3419C84.0007 103.574 81.1792 107.336 77.4172 110.628C73.7728 113.802 69.2466 116.389 63.8387 118.387C58.4308 120.268 52.3176 121.209 45.4989 121.209ZM108.395 119.092V4.11613H180.343V25.9828H134.317V49.0839H173.466V70.7742H134.317V97.2258H182.106V119.092H108.395ZM205.005 119.092V4.11613H246.446C252.559 4.11613 258.261 4.70395 263.551 5.87957C268.959 7.0552 273.662 9.05376 277.659 11.8753C281.656 14.5792 284.83 18.2237 287.181 22.8086C289.533 27.3936 290.708 33.0953 290.708 39.914C290.708 48.3785 288.827 55.3735 285.065 60.8989C281.421 66.3068 276.483 70.3627 270.252 73.0667L296.351 119.092H267.254L245.211 77.6516H230.928V119.092H205.005ZM230.928 57.0194H244.33C251.148 57.0194 256.321 55.6086 259.848 52.7871C263.492 49.848 265.315 45.557 265.315 39.914C265.315 34.271 263.492 30.3326 259.848 28.0989C256.321 25.8652 251.148 24.7484 244.33 24.7484H230.928V57.0194ZM330.842 119.092L296.102 4.11613H323.612L337.366 57.7247C339.13 64.0731 340.658 70.2452 341.951 76.2409C343.362 82.119 344.949 88.2323 346.713 94.5807H347.418C349.064 88.2323 350.592 82.119 352.003 76.2409C353.414 70.2452 354.942 64.0731 356.588 57.7247L370.166 4.11613H396.618L362.055 119.092H330.842ZM408.903 119.092V4.11613H434.825V119.092H408.903ZM509.909 121.209C502.621 121.209 495.743 119.974 489.277 117.505C482.811 114.919 477.109 111.157 472.172 106.219C467.352 101.282 463.531 95.1685 460.709 87.8796C457.888 80.4731 456.477 71.9498 456.477 62.3097C456.477 52.7871 457.947 44.3226 460.886 36.9161C463.825 29.3921 467.763 23.0437 472.701 17.871C477.638 12.6982 483.399 8.75986 489.983 6.05591C496.566 3.35197 503.502 2 510.791 2C518.198 2 524.84 3.52832 530.718 6.58495C536.596 9.52402 541.475 12.9921 545.355 16.9892L531.6 33.5656C528.661 30.8617 525.545 28.6867 522.253 27.0409C519.079 25.2774 515.435 24.3957 511.32 24.3957C507.441 24.3957 503.737 25.2774 500.21 27.0409C496.801 28.6867 493.803 31.0968 491.217 34.271C488.748 37.4452 486.75 41.3247 485.221 45.9097C483.81 50.4946 483.105 55.6674 483.105 61.428C483.105 73.3018 485.633 82.5305 490.688 89.114C495.743 95.5799 502.503 98.8129 510.967 98.8129C515.67 98.8129 519.843 97.8136 523.488 95.8151C527.25 93.6989 530.542 91.1126 533.363 88.0559L547.118 104.28C537.478 115.566 525.075 121.209 509.909 121.209ZM564.582 119.092V4.11613H636.53V25.9828H590.504V49.0839H629.653V70.7742H590.504V97.2258H638.293V119.092H564.582ZM696.284 121.209C688.76 121.209 681.236 119.857 673.712 117.153C666.306 114.331 659.664 110.158 653.786 104.632L668.598 86.8215C672.713 90.3484 677.239 93.2287 682.177 95.4624C687.232 97.6961 692.17 98.8129 696.99 98.8129C702.398 98.8129 706.395 97.8136 708.981 95.8151C711.685 93.8165 713.037 91.1126 713.037 87.7032C713.037 85.9398 712.626 84.4115 711.803 83.1183C711.097 81.8251 709.981 80.7083 708.452 79.7678C707.041 78.7097 705.278 77.7692 703.162 76.9463C701.163 76.0058 698.93 75.0065 696.461 73.9484L681.472 67.6C678.532 66.4244 675.652 64.8961 672.831 63.0151C670.127 61.1341 667.658 58.9591 665.424 56.4903C663.308 53.9039 661.603 50.9649 660.31 47.6731C659.017 44.2638 658.37 40.443 658.37 36.2108C658.37 31.5082 659.37 27.0996 661.368 22.985C663.367 18.7527 666.188 15.1082 669.833 12.0516C673.477 8.87742 677.768 6.40861 682.706 4.64516C687.761 2.88172 693.287 2 699.282 2C705.983 2 712.567 3.29319 719.033 5.87957C725.616 8.46595 731.377 12.228 736.315 17.1656L723.089 33.5656C719.327 30.6265 715.565 28.3928 711.803 26.8645C708.041 25.2186 703.867 24.3957 699.282 24.3957C694.815 24.3957 691.229 25.3362 688.525 27.2172C685.939 28.9806 684.646 31.5082 684.646 34.8C684.646 36.5634 685.057 38.0918 685.88 39.385C686.821 40.5606 688.055 41.6774 689.583 42.7355C691.229 43.676 693.11 44.6165 695.226 45.557C697.343 46.3799 699.635 47.3204 702.104 48.3785L716.917 54.3742C723.97 57.1957 729.496 61.0753 733.493 66.0129C737.608 70.9505 739.665 77.4753 739.665 85.5871C739.665 90.4072 738.666 94.9921 736.667 99.3419C734.786 103.574 731.965 107.336 728.203 110.628C724.558 113.802 720.032 116.389 714.624 118.387C709.216 120.268 703.103 121.209 696.284 121.209Z" stroke="#503B5C" stroke-opacity="0.04" stroke-width="4" mask="url(#path-1-outside-1_161_407)"/>
</svg>
