<svg width="24" height="24" viewBox="0 0 24 24" fill="none" xmlns="http://www.w3.org/2000/svg">
<path fill-rule="evenodd" clip-rule="evenodd" d="M0 12C0 18.6274 5.37258 24 12 24C18.6274 24 24 18.6274 24 12C24 5.37258 18.6274 0 12 0C5.37258 0 0 5.37258 0 12ZM9.80003 17.5006L10.0042 14.4417L10.004 14.4416L15.5685 9.42012C15.8127 9.20338 15.5152 9.09769 15.191 9.29428L8.32367 13.6268L5.35737 12.7009C4.71678 12.5048 4.71218 12.0646 5.50119 11.7481L17.0602 7.29105C17.5881 7.05137 18.0977 7.41785 17.8961 8.22587L15.9276 17.5022C15.7902 18.1614 15.3919 18.319 14.84 18.0145L11.8414 15.7991L10.4 17.2006C10.3955 17.205 10.391 17.2094 10.3865 17.2138C10.2253 17.3708 10.0919 17.5006 9.80003 17.5006Z" fill="white"/>
</svg>
