<svg width="24" height="24" viewBox="0 0 24 24" fill="none" xmlns="http://www.w3.org/2000/svg">
<path fill-rule="evenodd" clip-rule="evenodd" d="M12 0C18.6274 0 24 5.37258 24 12C24 18.6274 18.6274 24 12 24C5.37258 24 0 18.6274 0 12C0 5.37258 5.37258 0 12 0ZM15.197 10.4792C15.1387 10.005 14.9929 9.63274 14.7341 9.30297C14.398 8.87833 13.9686 8.62405 13.3327 8.47321C12.9184 8.37267 12.7509 8.38421 12.6011 8.52111C12.4615 8.64936 12.4342 8.90649 12.5409 9.07299C12.6159 9.19384 12.7025 9.23713 12.9432 9.28438C13.2637 9.34336 13.4853 9.4199 13.6868 9.53512C14.1145 9.78209 14.3137 10.1686 14.335 10.7942C14.345 11.088 14.3704 11.1783 14.473 11.2825C14.6631 11.473 15.0016 11.4359 15.1452 11.208C15.1979 11.1221 15.2059 11.0847 15.2114 10.8852C15.2151 10.7617 15.2098 10.5779 15.197 10.4792ZM15.2028 7.57005C16.2197 8.39236 16.7879 9.56111 16.8724 11.0138C16.9079 11.586 16.8607 11.7723 16.6588 11.8785C16.4767 11.9768 16.2703 11.9444 16.1287 11.7964C16.0349 11.7001 15.9989 11.5683 16.0003 11.3351C16.0044 10.6902 15.8558 9.97006 15.6143 9.47034C15.3347 8.88873 14.9025 8.39378 14.3588 8.03191C13.8826 7.71409 13.2524 7.49941 12.6413 7.44595C12.245 7.41127 12.1034 7.34414 12.0273 7.15413C11.9802 7.04046 11.9927 6.84396 12.0479 6.75595C12.1002 6.67479 12.2174 6.58504 12.3003 6.56132C12.3881 6.5357 12.9001 6.58049 13.1782 6.63575C13.9373 6.79027 14.6299 7.10799 15.2028 7.57005ZM18.7261 16.6082C18.6977 16.5251 18.6314 16.397 18.584 16.3235C18.2856 15.8729 16.6822 14.6181 15.8817 14.2077C15.4246 13.9729 15.0859 13.8947 14.8349 13.9682C14.5649 14.0441 14.4228 14.1698 13.9704 14.7319C13.7881 14.9573 13.601 15.1684 13.5513 15.2016C13.4281 15.287 13.1865 15.3558 13.016 15.3558C12.6205 15.3534 11.9029 15.0972 11.3511 14.7604C10.9224 14.4995 10.373 14.0323 9.95137 13.5697C9.454 13.0265 9.11537 12.5474 8.84771 12.0066C8.50195 11.3116 8.41432 10.887 8.55877 10.5763C8.59431 10.4981 8.64168 10.4151 8.66297 10.3889C8.6843 10.3652 8.90694 10.1826 9.15321 9.98334C9.63638 9.5991 9.71453 9.51134 9.80452 9.24805C9.9182 8.91359 9.88743 8.57204 9.71217 8.22812C9.57716 7.9672 9.22428 7.39794 8.96851 7.0303C8.62983 6.54644 7.7867 5.51228 7.61852 5.3723C7.31538 5.12564 6.92701 5.08292 6.4983 5.24899C6.04598 5.42452 5.19809 6.10763 4.83573 6.58439C4.50889 7.01607 4.38341 7.32204 4.36445 7.72527C4.34788 8.05732 4.37629 8.1949 4.55155 8.61949C5.92282 11.9497 7.96904 14.6086 10.7803 16.7196C12.2487 17.8226 13.7715 18.6622 15.3512 19.2363C16.2725 19.5707 16.6727 19.5873 17.144 19.3122C17.3429 19.1936 17.8356 18.6883 18.1103 18.3207C18.565 17.7087 18.7332 17.4265 18.7805 17.2011C18.8137 17.047 18.7876 16.779 18.7261 16.6082ZM18.1206 9.10024C18.4091 9.8517 18.5474 10.5257 18.5778 11.3474C18.5826 11.5098 18.5803 11.8072 18.5698 12.0086C18.5479 12.3948 18.527 12.4716 18.4158 12.5738C18.2371 12.7414 17.8887 12.7015 17.7566 12.4994C17.6876 12.391 17.678 12.3116 17.6913 11.8603C17.7296 10.5256 17.4597 9.48054 16.8094 8.43554C16.0323 7.18181 14.8699 6.33724 13.3584 5.92405C12.973 5.81888 12.6481 5.75478 12.1429 5.68677C11.8138 5.64369 11.7418 5.62548 11.6605 5.57549C11.4152 5.41834 11.4119 5.0204 11.6565 4.86086C11.7827 4.77664 11.8758 4.77288 12.2872 4.82557C13.4936 4.97633 14.5701 5.3348 15.4547 5.8765C16.0887 6.26529 16.4885 6.61456 17.0031 7.22628C17.5475 7.87869 17.8358 8.36105 18.1206 9.10024Z" fill="white"/>
</svg>
