<svg width="408" height="124" viewBox="0 0 408 124" fill="none" xmlns="http://www.w3.org/2000/svg">
<path d="M23.5061 120.092L23.3544 119.275L2.01679 4.2986L1.79734 3.11613H3H29.628H30.4912L30.6173 3.97017L38.5527 57.7551L38.5549 57.7697L38.5566 57.7842C39.2613 63.7742 40.0247 69.823 40.8469 75.9308C40.847 75.9309 40.847 75.931 40.847 75.9311L39.8559 76.0645C40.6332 81.7279 41.3581 87.4437 42.0305 93.2119L23.5061 120.092ZM23.5061 120.092H24.3376H56.4323H57.2472L57.4117 119.294L68.1678 67.1006C68.168 67.0998 68.1682 67.099 68.1683 67.0981C69.1114 62.6185 69.9367 58.1388 70.6442 53.6587C71.2058 50.5295 71.7401 47.4822 72.2471 44.5168M23.5061 120.092L72.2471 44.5168M72.2471 44.5168C72.6733 47.4778 73.1267 50.5204 73.6073 53.6445L73.6096 53.6591L73.6123 53.6736C74.4367 58.1494 75.3201 62.625 76.2623 67.1007L76.2635 67.106L87.5495 119.304L87.72 120.092H88.5269H121.151H121.988L122.135 119.268L142.591 4.2913L142.8 3.11613H141.606H116.742H115.879L115.753 3.97017L107.817 57.7551L107.816 57.7651L105.347 75.7522L105.346 75.7618L105.344 75.7713C104.791 80.4751 104.202 85.2514 103.576 90.1004C102.649 85.2296 101.723 80.4317 100.796 75.7066C99.7374 69.5889 98.6196 63.5884 97.443 57.705L97.4402 57.6911L97.437 57.6774L85.093 3.89244L84.9148 3.11613H84.1183H62.0753H61.2788L61.1006 3.89244L48.7565 57.6774L48.753 57.693L48.7499 57.7087C47.574 63.7056 46.3982 69.7612 45.2223 75.8757L45.2209 75.8832L45.2195 75.8907C44.3988 80.5414 43.5427 85.2276 42.6512 89.9493L72.2471 44.5168ZM287.506 120.092L287.354 119.275L266.016 4.2986L265.797 3.11613H267H293.627H294.491L294.617 3.97017L302.552 57.7551L302.554 57.7697L302.556 57.7842C303.261 63.7735 304.024 69.8216 304.846 75.9285C305.483 80.5671 306.084 85.2406 306.651 89.9492C307.542 85.2276 308.398 80.5414 309.219 75.8907L309.22 75.8832L309.222 75.8757C310.398 69.7612 311.574 63.7056 312.749 57.7087L312.752 57.693L312.756 57.6774L325.1 3.89244L325.278 3.11613H326.075H348.118H348.914L349.092 3.89244L361.437 57.6774L361.44 57.6911L361.442 57.705C362.619 63.5883 363.737 69.5887 364.796 75.7063C365.722 80.4314 366.649 85.2294 367.575 90.1004C368.201 85.2514 368.791 80.4751 369.344 75.7713L369.345 75.7618L369.346 75.7522L371.815 57.7651L371.817 57.7551L379.752 3.97017L379.878 3.11613H380.741H405.606H406.8L406.591 4.2913L386.135 119.268L385.988 120.092H385.15H352.526H351.72L351.549 119.304L340.263 67.106L340.262 67.1006C339.32 62.625 338.436 58.1494 337.612 53.6736L337.609 53.6591L337.607 53.6445C337.126 50.5204 336.673 47.4778 336.247 44.5168C335.74 47.4825 335.205 50.53 334.644 53.6594C333.936 58.1387 333.111 62.6177 332.168 67.0965L287.506 120.092ZM287.506 120.092H288.337H320.432H321.247L321.411 119.294L332.167 67.1006L287.506 120.092ZM182.549 118.067L182.559 118.071L182.569 118.075C189.17 120.836 196.415 122.209 204.293 122.209C212.17 122.209 219.359 120.836 225.846 118.073L225.854 118.069C232.45 115.191 238.095 111.108 242.779 105.825C247.463 100.54 251.052 94.1304 253.557 86.6153C256.186 79.0858 257.491 70.568 257.491 61.0753C257.491 51.6999 256.186 43.2986 253.557 35.8855C251.05 28.3702 247.46 22.0162 242.771 16.8465C238.084 11.6791 232.435 7.77314 225.836 5.13161C219.352 2.37157 212.166 1 204.293 1C196.417 1 189.173 2.37243 182.574 5.1314C176.091 7.77332 170.502 11.6789 165.818 16.8425C161.127 21.8957 157.478 28.1916 154.854 35.7047L154.851 35.7136C152.34 43.1259 151.095 51.5845 151.095 61.0753C151.095 70.5665 152.34 79.0819 154.849 86.6087L154.852 86.6155L154.854 86.6222C157.477 94.135 161.125 100.542 165.807 105.825C170.487 111.105 176.071 115.187 182.549 118.067ZM228.863 61.0753C228.863 72.5934 226.593 81.6031 222.157 88.2011C217.752 94.6368 211.826 97.8129 204.293 97.8129C196.76 97.8129 190.834 94.6368 186.429 88.2011C181.993 81.6031 179.723 72.5934 179.723 61.0753C179.723 49.6715 181.994 40.909 186.416 34.6731C190.815 28.4695 196.743 25.3957 204.293 25.3957C211.843 25.3957 217.771 28.4695 222.169 34.6731C226.591 40.909 228.863 49.6715 228.863 61.0753Z" stroke="#503B5C" stroke-opacity="0.04" stroke-width="2"/>
</svg>
