<svg width="130" height="44" viewBox="0 0 130 44" fill="none" xmlns="http://www.w3.org/2000/svg">
<path d="M44.1094 28.2969L42.3672 23.2266L40.5156 28.2969H44.1094ZM41.5547 21.5234H43.3125L47.4766 33H45.7734L44.6094 29.5625H40.0703L38.8281 33H37.2344L41.5547 21.5234ZM52.3344 32.0547C52.9906 32.0547 53.5349 31.7812 53.9672 31.2344C54.4047 30.6823 54.6234 29.8594 54.6234 28.7656C54.6234 28.099 54.5271 27.526 54.3344 27.0469C53.9698 26.125 53.3031 25.6641 52.3344 25.6641C51.3604 25.6641 50.6938 26.151 50.3344 27.125C50.1417 27.6458 50.0453 28.3073 50.0453 29.1094C50.0453 29.7552 50.1417 30.3047 50.3344 30.7578C50.699 31.6224 51.3656 32.0547 52.3344 32.0547ZM48.6938 24.6719H50.0609V25.7812C50.3422 25.401 50.6495 25.1068 50.9828 24.8984C51.4568 24.5859 52.0141 24.4297 52.6547 24.4297C53.6026 24.4297 54.4073 24.7943 55.0688 25.5234C55.7302 26.2474 56.0609 27.2839 56.0609 28.6328C56.0609 30.4557 55.5844 31.7578 54.6313 32.5391C54.0271 33.0339 53.324 33.2812 52.5219 33.2812C51.8917 33.2812 51.363 33.1432 50.9359 32.8672C50.6859 32.7109 50.4073 32.4427 50.1 32.0625V36.3359H48.6938V24.6719ZM61.3406 32.0547C61.9969 32.0547 62.5411 31.7812 62.9734 31.2344C63.4109 30.6823 63.6297 29.8594 63.6297 28.7656C63.6297 28.099 63.5333 27.526 63.3406 27.0469C62.976 26.125 62.3094 25.6641 61.3406 25.6641C60.3667 25.6641 59.7 26.151 59.3406 27.125C59.1479 27.6458 59.0516 28.3073 59.0516 29.1094C59.0516 29.7552 59.1479 30.3047 59.3406 30.7578C59.7052 31.6224 60.3719 32.0547 61.3406 32.0547ZM57.7 24.6719H59.0672V25.7812C59.3484 25.401 59.6557 25.1068 59.9891 24.8984C60.463 24.5859 61.0203 24.4297 61.6609 24.4297C62.6089 24.4297 63.4135 24.7943 64.075 25.5234C64.7365 26.2474 65.0672 27.2839 65.0672 28.6328C65.0672 30.4557 64.5906 31.7578 63.6375 32.5391C63.0333 33.0339 62.3302 33.2812 61.5281 33.2812C60.8979 33.2812 60.3693 33.1432 59.9422 32.8672C59.6922 32.7109 59.4135 32.4427 59.1063 32.0625V36.3359H57.7V24.6719ZM72.5719 29.2969C72.6083 29.9479 72.762 30.4766 73.0328 30.8828C73.5484 31.6432 74.4573 32.0234 75.7594 32.0234C76.3427 32.0234 76.874 31.9401 77.3531 31.7734C78.2802 31.4505 78.7438 30.8724 78.7438 30.0391C78.7438 29.4141 78.5484 28.9688 78.1578 28.7031C77.762 28.4427 77.1422 28.2161 76.2984 28.0234L74.7438 27.6719C73.7281 27.4427 73.0094 27.1901 72.5875 26.9141C71.8583 26.4349 71.4938 25.7188 71.4938 24.7656C71.4938 23.7344 71.8505 22.888 72.5641 22.2266C73.2776 21.5651 74.288 21.2344 75.5953 21.2344C76.7984 21.2344 77.8193 21.526 78.6578 22.1094C79.5016 22.6875 79.9234 23.6146 79.9234 24.8906H78.4625C78.3844 24.276 78.2177 23.8047 77.9625 23.4766C77.4885 22.8776 76.6839 22.5781 75.5484 22.5781C74.6318 22.5781 73.9729 22.7708 73.5719 23.1562C73.1708 23.5417 72.9703 23.9896 72.9703 24.5C72.9703 25.0625 73.2047 25.474 73.6734 25.7344C73.9807 25.901 74.676 26.1094 75.7594 26.3594L77.3688 26.7266C78.1448 26.9036 78.7438 27.1458 79.1656 27.4531C79.8948 27.9896 80.2594 28.7682 80.2594 29.7891C80.2594 31.0599 79.7958 31.9688 78.8688 32.5156C77.9469 33.0625 76.874 33.3359 75.65 33.3359C74.2229 33.3359 73.1057 32.9714 72.2984 32.2422C71.4911 31.5182 71.0953 30.5365 71.1109 29.2969H72.5719ZM82.4219 22.2969H83.8438V24.6328H85.1797V25.7812H83.8438V31.2422C83.8438 31.5339 83.9427 31.7292 84.1406 31.8281C84.25 31.8854 84.4323 31.9141 84.6875 31.9141C84.7552 31.9141 84.8281 31.9141 84.9062 31.9141C84.9844 31.9089 85.0755 31.901 85.1797 31.8906V33C85.0182 33.0469 84.849 33.0807 84.6719 33.1016C84.5 33.1224 84.3125 33.1328 84.1094 33.1328C83.4531 33.1328 83.0078 32.9661 82.7734 32.6328C82.5391 32.2943 82.4219 31.8568 82.4219 31.3203V25.7812H81.2891V24.6328H82.4219V22.2969ZM90.0141 32.0938C90.9464 32.0938 91.5844 31.7422 91.9281 31.0391C92.2771 30.3307 92.4516 29.5443 92.4516 28.6797C92.4516 27.8984 92.3266 27.263 92.0766 26.7734C91.6807 26.0026 90.9984 25.6172 90.0297 25.6172C89.1703 25.6172 88.5453 25.9453 88.1547 26.6016C87.7641 27.2578 87.5687 28.0495 87.5687 28.9766C87.5687 29.8672 87.7641 30.6094 88.1547 31.2031C88.5453 31.7969 89.1651 32.0938 90.0141 32.0938ZM90.0687 24.3906C91.1469 24.3906 92.0583 24.75 92.8031 25.4688C93.5479 26.1875 93.9203 27.2448 93.9203 28.6406C93.9203 29.9896 93.5922 31.1042 92.9359 31.9844C92.2797 32.8646 91.2615 33.3047 89.8812 33.3047C88.7302 33.3047 87.8161 32.9167 87.1391 32.1406C86.462 31.3594 86.1234 30.3125 86.1234 29C86.1234 27.5938 86.4802 26.474 87.1937 25.6406C87.9073 24.8073 88.8656 24.3906 90.0687 24.3906ZM95.7391 24.6328H97.075V26.0781C97.1844 25.7969 97.4526 25.4557 97.8797 25.0547C98.3068 24.6484 98.799 24.4453 99.3563 24.4453C99.3823 24.4453 99.4266 24.4479 99.4891 24.4531C99.5516 24.4583 99.6583 24.4688 99.8094 24.4844V25.9688C99.726 25.9531 99.6479 25.9427 99.575 25.9375C99.5073 25.9323 99.4318 25.9297 99.3484 25.9297C98.6401 25.9297 98.0958 26.1589 97.7156 26.6172C97.3354 27.0703 97.1453 27.5938 97.1453 28.1875V33H95.7391V24.6328ZM104.612 24.4453C105.206 24.4453 105.782 24.5859 106.339 24.8672C106.896 25.1432 107.321 25.5026 107.612 25.9453C107.894 26.3672 108.081 26.8594 108.175 27.4219C108.258 27.8073 108.3 28.4219 108.3 29.2656H102.167C102.193 30.1146 102.394 30.7969 102.769 31.3125C103.144 31.8229 103.724 32.0781 104.511 32.0781C105.245 32.0781 105.831 31.8359 106.269 31.3516C106.519 31.0703 106.696 30.7448 106.8 30.375H108.183C108.146 30.6823 108.024 31.026 107.816 31.4062C107.612 31.7812 107.383 32.0885 107.128 32.3281C106.701 32.7448 106.172 33.026 105.542 33.1719C105.204 33.2552 104.821 33.2969 104.394 33.2969C103.352 33.2969 102.469 32.9193 101.745 32.1641C101.021 31.4036 100.659 30.3411 100.659 28.9766C100.659 27.6328 101.024 26.5417 101.753 25.7031C102.482 24.8646 103.435 24.4453 104.612 24.4453ZM106.855 28.1484C106.797 27.5391 106.665 27.0521 106.456 26.6875C106.071 26.0104 105.428 25.6719 104.527 25.6719C103.881 25.6719 103.339 25.9062 102.902 26.375C102.464 26.8385 102.232 27.4297 102.206 28.1484H106.855Z" fill="black"/>
<path d="M40.1641 15.2529C40.46 15.2529 40.7031 15.2222 40.8936 15.1606C41.2334 15.0464 41.5117 14.8267 41.7285 14.5015C41.9014 14.2407 42.0259 13.9067 42.1021 13.4995C42.146 13.2563 42.168 13.0308 42.168 12.8228C42.168 12.0229 42.0083 11.4019 41.689 10.9595C41.3726 10.5171 40.8613 10.2959 40.1553 10.2959H38.604V15.2529H40.1641ZM37.7251 9.54443H40.3398C41.2275 9.54443 41.916 9.85938 42.4053 10.4893C42.8418 11.0576 43.0601 11.7856 43.0601 12.6733C43.0601 13.3589 42.9312 13.9785 42.6733 14.5322C42.2192 15.5107 41.4385 16 40.3311 16H37.7251V9.54443ZM46.0517 15.4902C46.5761 15.4902 46.935 15.2925 47.1283 14.897C47.3246 14.4985 47.4228 14.0562 47.4228 13.5698C47.4228 13.1304 47.3524 12.7729 47.2118 12.4976C46.9892 12.064 46.6054 11.8472 46.0604 11.8472C45.5771 11.8472 45.2255 12.0317 45.0058 12.4009C44.786 12.77 44.6762 13.2153 44.6762 13.7368C44.6762 14.2378 44.786 14.6553 45.0058 14.9893C45.2255 15.3232 45.5741 15.4902 46.0517 15.4902ZM46.0824 11.1572C46.6889 11.1572 47.2016 11.3594 47.6205 11.7637C48.0395 12.168 48.2489 12.7627 48.2489 13.5479C48.2489 14.3066 48.0644 14.9336 47.6952 15.4287C47.3261 15.9238 46.7533 16.1714 45.977 16.1714C45.3295 16.1714 44.8153 15.9531 44.4345 15.5166C44.0536 15.0771 43.8632 14.4883 43.8632 13.75C43.8632 12.959 44.0639 12.3291 44.4652 11.8604C44.8666 11.3916 45.4057 11.1572 46.0824 11.1572ZM49.6585 11.2935L50.5638 15.0024L51.4822 11.2935H52.3699L53.2928 14.9805L54.2552 11.2935H55.0462L53.6795 16H52.8577L51.8997 12.3569L50.9725 16H50.1507L48.7928 11.2935H49.6585ZM55.8977 11.2935H56.6491V11.9614C56.8718 11.686 57.1076 11.4883 57.3566 11.3682C57.6057 11.248 57.8825 11.188 58.1872 11.188C58.8552 11.188 59.3063 11.4209 59.5407 11.8867C59.6696 12.1416 59.7341 12.5063 59.7341 12.981V16H58.9299V13.0337C58.9299 12.7466 58.8874 12.5151 58.8024 12.3394C58.6618 12.0464 58.4069 11.8999 58.0378 11.8999C57.8503 11.8999 57.6965 11.9189 57.5764 11.957C57.3596 12.0215 57.1691 12.1504 57.0051 12.3438C56.8732 12.499 56.7868 12.6602 56.7458 12.8271C56.7077 12.9912 56.6887 13.2271 56.6887 13.5347V16H55.8977V11.2935ZM61.0294 9.54443H61.8204V16H61.0294V9.54443ZM64.979 15.4902C65.5034 15.4902 65.8623 15.2925 66.0557 14.897C66.252 14.4985 66.3501 14.0562 66.3501 13.5698C66.3501 13.1304 66.2798 12.7729 66.1392 12.4976C65.9165 12.064 65.5327 11.8472 64.9878 11.8472C64.5044 11.8472 64.1528 12.0317 63.9331 12.4009C63.7134 12.77 63.6035 13.2153 63.6035 13.7368C63.6035 14.2378 63.7134 14.6553 63.9331 14.9893C64.1528 15.3232 64.5015 15.4902 64.979 15.4902ZM65.0098 11.1572C65.6162 11.1572 66.1289 11.3594 66.5479 11.7637C66.9668 12.168 67.1763 12.7627 67.1763 13.5479C67.1763 14.3066 66.9917 14.9336 66.6226 15.4287C66.2534 15.9238 65.6807 16.1714 64.9043 16.1714C64.2568 16.1714 63.7427 15.9531 63.3618 15.5166C62.981 15.0771 62.7905 14.4883 62.7905 13.75C62.7905 12.959 62.9912 12.3291 63.3926 11.8604C63.7939 11.3916 64.333 11.1572 65.0098 11.1572ZM68.8275 14.7476C68.8275 14.9761 68.911 15.1562 69.078 15.2881C69.245 15.4199 69.4428 15.4858 69.6713 15.4858C69.9496 15.4858 70.2191 15.4214 70.4799 15.2925C70.9193 15.0786 71.1391 14.7285 71.1391 14.2422V13.605C71.0424 13.6665 70.9179 13.7178 70.7655 13.7588C70.6132 13.7998 70.4638 13.8291 70.3173 13.8467L69.8383 13.9082C69.5512 13.9463 69.3358 14.0063 69.1923 14.0884C68.9491 14.2261 68.8275 14.4458 68.8275 14.7476ZM70.7436 13.1479C70.9252 13.1245 71.0468 13.0483 71.1083 12.9194C71.1435 12.8491 71.161 12.748 71.161 12.6162C71.161 12.3467 71.0644 12.1519 70.871 12.0317C70.6806 11.9087 70.4066 11.8472 70.0492 11.8472C69.6361 11.8472 69.3432 11.9585 69.1703 12.1812C69.0736 12.3042 69.0106 12.4873 68.9813 12.7305H68.2431C68.2577 12.1504 68.4452 11.7476 68.8056 11.522C69.1688 11.2935 69.5893 11.1792 70.0668 11.1792C70.6205 11.1792 71.0702 11.2847 71.4159 11.4956C71.7587 11.7065 71.9301 12.0347 71.9301 12.48V15.1914C71.9301 15.2734 71.9462 15.3394 71.9784 15.3892C72.0136 15.439 72.0854 15.4639 72.1938 15.4639C72.2289 15.4639 72.2685 15.4624 72.3124 15.4595C72.3563 15.4536 72.4032 15.4463 72.453 15.4375V16.022C72.33 16.0571 72.2362 16.0791 72.1718 16.0879C72.1073 16.0967 72.0194 16.1011 71.9081 16.1011C71.6356 16.1011 71.4379 16.0044 71.3148 15.811C71.2504 15.7085 71.205 15.5635 71.1786 15.376C71.0175 15.5869 70.786 15.77 70.4843 15.9253C70.1825 16.0806 69.85 16.1582 69.4867 16.1582C69.0502 16.1582 68.6928 16.0264 68.4145 15.7627C68.1391 15.4961 68.0014 15.1636 68.0014 14.7651C68.0014 14.3286 68.1376 13.9902 68.4101 13.75C68.6825 13.5098 69.0399 13.3618 69.4823 13.3062L70.7436 13.1479ZM73.8318 13.7017C73.8318 14.2056 73.9388 14.6274 74.1526 14.9673C74.3665 15.3071 74.7093 15.4771 75.181 15.4771C75.5472 15.4771 75.8475 15.3203 76.0818 15.0068C76.3191 14.6904 76.4378 14.2378 76.4378 13.6489C76.4378 13.0542 76.3162 12.6147 76.073 12.3306C75.8299 12.0435 75.5296 11.8999 75.1722 11.8999C74.7737 11.8999 74.45 12.0522 74.201 12.3569C73.9549 12.6616 73.8318 13.1099 73.8318 13.7017ZM75.0228 11.21C75.3831 11.21 75.6849 11.2861 75.928 11.4385C76.0687 11.5264 76.2283 11.6802 76.407 11.8999V9.52246H77.1673V16H76.4554V15.3452C76.2708 15.6353 76.0525 15.8447 75.8006 15.9736C75.5486 16.1025 75.2601 16.167 74.9349 16.167C74.4104 16.167 73.9563 15.9473 73.5726 15.5078C73.1888 15.0654 72.9969 14.478 72.9969 13.7456C72.9969 13.0601 73.1712 12.4668 73.5198 11.9658C73.8714 11.4619 74.3724 11.21 75.0228 11.21ZM82.9132 15.4902C83.4376 15.4902 83.7965 15.2925 83.9898 14.897C84.1861 14.4985 84.2843 14.0562 84.2843 13.5698C84.2843 13.1304 84.214 12.7729 84.0733 12.4976C83.8507 12.064 83.4669 11.8472 82.922 11.8472C82.4386 11.8472 82.087 12.0317 81.8673 12.4009C81.6476 12.77 81.5377 13.2153 81.5377 13.7368C81.5377 14.2378 81.6476 14.6553 81.8673 14.9893C82.087 15.3232 82.4356 15.4902 82.9132 15.4902ZM82.9439 11.1572C83.5504 11.1572 84.0631 11.3594 84.482 11.7637C84.901 12.168 85.1105 12.7627 85.1105 13.5479C85.1105 14.3066 84.9259 14.9336 84.5567 15.4287C84.1876 15.9238 83.6148 16.1714 82.8385 16.1714C82.191 16.1714 81.6769 15.9531 81.296 15.5166C80.9151 15.0771 80.7247 14.4883 80.7247 13.75C80.7247 12.959 80.9254 12.3291 81.3268 11.8604C81.7281 11.3916 82.2672 11.1572 82.9439 11.1572ZM86.1553 11.2935H86.9067V11.9614C87.1294 11.686 87.3652 11.4883 87.6143 11.3682C87.8633 11.248 88.1401 11.188 88.4448 11.188C89.1128 11.188 89.564 11.4209 89.7983 11.8867C89.9272 12.1416 89.9917 12.5063 89.9917 12.981V16H89.1875V13.0337C89.1875 12.7466 89.145 12.5151 89.0601 12.3394C88.9194 12.0464 88.6646 11.8999 88.2954 11.8999C88.1079 11.8999 87.9541 11.9189 87.834 11.957C87.6172 12.0215 87.4268 12.1504 87.2627 12.3438C87.1309 12.499 87.0444 12.6602 87.0034 12.8271C86.9653 12.9912 86.9463 13.2271 86.9463 13.5347V16H86.1553V11.2935ZM94.0281 9.97949H94.8279V11.2935H95.5794V11.9395H94.8279V15.0112C94.8279 15.1753 94.8836 15.2852 94.9949 15.3408C95.0564 15.373 95.159 15.3892 95.3025 15.3892C95.3406 15.3892 95.3816 15.3892 95.4256 15.3892C95.4695 15.3862 95.5208 15.3818 95.5794 15.376V16C95.4886 16.0264 95.3934 16.0454 95.2938 16.0571C95.1971 16.0688 95.0916 16.0747 94.9773 16.0747C94.6082 16.0747 94.3577 15.981 94.2259 15.7935C94.094 15.603 94.0281 15.3569 94.0281 15.0552V11.9395H93.3909V11.2935H94.0281V9.97949ZM96.4748 9.52246H97.2658V11.9307C97.4533 11.6934 97.6218 11.5264 97.7712 11.4297C98.0261 11.2627 98.3439 11.1792 98.7248 11.1792C99.4074 11.1792 99.8703 11.418 100.113 11.8955C100.245 12.1562 100.311 12.5181 100.311 12.981V16H99.4982V13.0337C99.4982 12.688 99.4543 12.4346 99.3664 12.2734C99.2229 12.0156 98.9533 11.8867 98.5578 11.8867C98.2297 11.8867 97.9323 11.9995 97.6657 12.2251C97.3991 12.4507 97.2658 12.877 97.2658 13.5039V16H96.4748V9.52246ZM103.545 11.188C103.879 11.188 104.202 11.2671 104.516 11.4253C104.829 11.5806 105.068 11.7827 105.232 12.0317C105.39 12.269 105.496 12.5459 105.548 12.8623C105.595 13.0791 105.619 13.4248 105.619 13.8994H102.169C102.184 14.377 102.296 14.7607 102.507 15.0508C102.718 15.3379 103.045 15.4814 103.487 15.4814C103.9 15.4814 104.23 15.3452 104.476 15.0728C104.617 14.9146 104.716 14.7314 104.775 14.5234H105.553C105.532 14.6963 105.463 14.8896 105.346 15.1035C105.232 15.3145 105.103 15.4873 104.96 15.6221C104.719 15.8564 104.422 16.0146 104.067 16.0967C103.877 16.1436 103.662 16.167 103.421 16.167C102.836 16.167 102.339 15.9546 101.932 15.5298C101.525 15.1021 101.321 14.5044 101.321 13.7368C101.321 12.981 101.526 12.3672 101.936 11.8955C102.346 11.4238 102.882 11.188 103.545 11.188ZM104.806 13.271C104.774 12.9282 104.699 12.6543 104.582 12.4492C104.365 12.0684 104.003 11.8779 103.496 11.8779C103.133 11.8779 102.828 12.0098 102.582 12.2734C102.336 12.5342 102.206 12.8667 102.191 13.271H104.806Z" fill="black"/>
<rect x="0.5" y="0.5" width="129" height="43" rx="6.5" stroke="#3F4042"/>
<path d="M16.3675 33.2575C15.5815 33.2149 14.8418 32.8722 14.3012 32.3C13.6545 31.6778 13.0773 30.9871 12.58 30.24C11.8031 29.1275 11.189 27.9098 10.7562 26.6238C10.2665 25.2402 10.0088 23.7852 9.99372 22.3175C9.95568 20.8775 10.3123 19.4544 11.025 18.2025C11.5469 17.3001 12.2915 16.5466 13.1875 16.0138C14.0736 15.4832 15.0847 15.1977 16.1175 15.1863C16.896 15.2323 17.661 15.4103 18.38 15.7125C18.9537 15.965 19.5562 16.1425 20.175 16.24C20.8575 16.097 21.5244 15.8877 22.1662 15.615C22.9258 15.3184 23.73 15.1524 24.545 15.1238C24.6537 15.1238 24.7612 15.1238 24.865 15.1363C26.6525 15.1875 28.315 16.065 29.365 17.5113C28.5455 17.9496 27.8636 18.6065 27.3951 19.4091C26.9267 20.2117 26.6899 21.1285 26.7112 22.0575C26.703 22.7679 26.8455 23.472 27.1293 24.1234C27.4131 24.7747 27.8317 25.3585 28.3575 25.8363C28.8362 26.2925 29.3937 26.6575 30.0025 26.915C29.8775 27.29 29.7337 27.6525 29.5812 28.0175C29.235 28.8241 28.8078 29.5935 28.3062 30.3138C27.832 31.0354 27.2799 31.7027 26.66 32.3038C26.0945 32.8649 25.3407 33.1959 24.545 33.2325C23.8704 33.2026 23.2078 33.0444 22.5925 32.7663C21.929 32.4772 21.2159 32.3189 20.4925 32.3C19.7486 32.3147 19.0145 32.4721 18.33 32.7638C17.7388 33.0305 17.1072 33.1965 16.4612 33.255L16.3675 33.2575V33.2575ZM20.305 15.1238C20.2112 15.1238 20.1175 15.1238 20.0237 15.1125C20.004 14.9637 19.9936 14.8139 19.9925 14.6638C20.0334 13.4152 20.5213 12.2228 21.3675 11.3038C21.8407 10.7756 22.4144 10.3469 23.055 10.0425C23.6519 9.73522 24.3043 9.55035 24.9737 9.49878C24.9925 9.66253 24.9925 9.82253 24.9925 9.97503C24.9749 11.204 24.5131 12.3851 23.6925 13.3C23.2951 13.8328 22.786 14.2721 22.2008 14.5872C21.6156 14.9023 20.9685 15.0854 20.305 15.1238V15.1238Z" fill="black"/>
</svg>
