<svg width="15" height="12" viewBox="0 0 15 12" fill="none" xmlns="http://www.w3.org/2000/svg">
<path d="M1.32828 3.48622C1.19845 3.57975 1.12061 3.73046 1.12061 3.89186V8.65921C1.12061 9.20557 1.36223 9.7174 1.77171 10.0859C2.17946 10.4529 2.7222 10.6513 3.2785 10.6513H11.9627C13.1038 10.6513 14.1206 9.80781 14.1206 8.65921V3.89186V3.89158C14.1206 3.73034 14.0429 3.57977 13.9133 3.48621C14.0455 3.39049 14.1242 3.23462 14.1198 3.06796C14.1055 2.53059 13.8582 2.03185 13.4508 1.6739C13.0451 1.31735 12.5104 1.12505 11.9628 1.125H11.9627H3.27854C3.27853 1.125 3.27851 1.125 3.2785 1.125C2.73705 1.12496 2.20809 1.31287 1.80381 1.66195C1.39799 2.01235 1.14679 2.50172 1.1224 3.03247L1.12228 3.03247L1.12202 3.04309L1.12139 3.06867C1.11728 3.23514 1.19614 3.39072 1.32828 3.48622Z" stroke="#32AC8C" stroke-linejoin="round"/>
</svg>
