<svg width="138" height="44" viewBox="0 0 138 44" fill="none" xmlns="http://www.w3.org/2000/svg">
<rect x="0.5" y="0.5" width="137" height="43" rx="4.5" stroke="#3F4042"/>
<g clip-path="url(#clip0_1:1313)">
<path d="M28.9008 27.0161C32.15 25.2209 34.6135 23.8531 34.8258 23.7469C35.5048 23.3833 36.2064 22.4215 34.8258 21.6745C34.38 21.4396 31.98 20.1142 28.9008 18.4053L24.6323 22.7425L28.9005 27.0161H28.9008Z" fill="#FFD900"/>
<path d="M24.6323 22.7424L11.0405 36.5251C11.3593 36.5677 11.7195 36.4825 12.1444 36.2476C13.0359 35.7567 22.4867 30.5636 28.901 27.017L24.6323 22.7424V22.7424Z" fill="#F43249"/>
<path d="M24.6322 22.7425L28.9004 18.4263C28.9004 18.4263 13.1003 9.75066 12.1441 9.23874C11.7843 9.0235 11.3807 8.95986 11.0195 9.0235L24.6322 22.7423V22.7425Z" fill="#00EE76"/>
<path d="M24.6324 22.7422L11.0194 9.02344C10.4669 9.15188 10 9.64298 10 10.6469V34.9006C10 35.8201 10.3614 36.4822 11.0404 36.5459L24.6321 22.742L24.6324 22.7422Z" fill="#00D3FF"/>
<path d="M69.9555 26.0067C67.5134 26.0067 65.4957 27.9081 65.4957 30.5152C65.4957 33.101 67.4923 35.0237 69.9558 35.0237C72.419 35.0237 74.4154 33.1223 74.4154 30.5152C74.4154 27.9081 72.419 26.0067 69.9555 26.0067ZM69.9555 33.2296C68.6173 33.2296 67.45 32.0968 67.45 30.4951C67.45 28.8711 68.6182 27.7605 69.9555 27.7605C71.2929 27.7605 72.4611 28.8711 72.4611 30.4951C72.4611 32.0968 71.2929 33.2296 69.9555 33.2296ZM60.2502 26.0067C57.7867 26.0067 55.7901 27.9081 55.7901 30.5152C55.7901 33.101 57.7867 35.0237 60.2502 35.0237C62.7134 35.0237 64.71 33.1223 64.71 30.5152C64.71 27.9081 62.7134 26.0067 60.2499 26.0067H60.2502ZM60.2502 33.2296C58.9117 33.2296 57.7446 32.0968 57.7446 30.4951C57.7446 28.8711 58.9128 27.7605 60.2502 27.7605C61.5884 27.7605 62.7557 28.8711 62.7557 30.4951C62.7557 32.0968 61.6084 33.2296 60.2502 33.2296ZM48.7182 27.3957V29.2972H53.2201C53.0922 30.3654 52.7322 31.156 52.2009 31.6906C51.5428 32.3527 50.5234 33.0797 48.7182 33.0797C45.9357 33.0797 43.7914 30.8149 43.7914 28.0155C43.7914 25.2161 45.9368 22.9085 48.7182 22.9085C50.2255 22.9085 51.3094 23.507 52.1163 24.2765L53.4536 22.9298C52.3276 21.8405 50.8203 21.0073 48.7182 21.0073C44.9162 21.0073 41.7305 24.1478 41.7305 27.9729C41.7305 31.7982 44.9162 34.9388 48.7182 34.9388C50.778 34.9388 52.3076 34.2553 53.5391 32.9725C54.7921 31.7119 55.1743 29.938 55.1743 28.5066C55.1743 28.0581 55.1323 27.6519 55.0678 27.3099L48.7182 27.3957V27.3957ZM95.9076 28.8699C95.5462 27.8655 94.4 26.0067 92.1056 26.0067C89.8114 26.0067 87.9216 27.8232 87.9216 30.5152C87.9216 33.0362 89.8114 35.0237 92.3181 35.0237C94.3568 35.0237 95.5251 33.7631 96.0131 33.0362L94.5058 32.0107C93.9957 32.7589 93.3164 33.2498 92.3181 33.2498C91.3199 33.2498 90.6195 32.8013 90.1728 31.882L96.0978 29.3823L95.9076 28.8699V28.8699ZM89.8758 30.3877C89.8337 28.6563 91.2143 27.7593 92.1902 27.7593C92.9762 27.7593 93.6134 28.144 93.8466 28.7211L89.8758 30.3877V30.3877ZM85.0549 34.7249H87.0091V21.5195H85.0549V34.7249V34.7249ZM81.87 27.0111H81.8066C81.3608 26.4765 80.5327 26.0067 79.47 26.0067C77.24 26.0067 75.2225 27.9942 75.2225 30.5152C75.2225 33.0362 77.2612 35.0026 79.47 35.0026C80.5316 35.0026 81.3598 34.5326 81.8066 33.9767H81.87V34.6178C81.87 36.3491 80.9562 37.2672 79.4912 37.2672C78.3018 37.2672 77.5581 36.3914 77.2612 35.6645L75.5627 36.3914C76.0506 37.5882 77.3467 39.0624 79.4912 39.0624C81.7845 39.0624 83.7175 37.6946 83.7175 34.3829V26.2842H81.87V27.0111V27.0111ZM79.64 33.2296C78.3018 33.2296 77.1767 32.0968 77.1767 30.5164C77.1767 28.9359 78.3027 27.7815 79.64 27.7815C80.9573 27.7815 82.0189 28.9359 82.0189 30.5164C82.0179 32.0755 80.9562 33.2296 79.64 33.2296ZM105.018 21.5197H100.346V34.7249H102.3V29.7244H105.018C107.185 29.7244 109.308 28.1428 109.308 25.622C109.308 23.1011 107.185 21.5195 105.018 21.5195V21.5197ZM105.082 27.888H102.32V23.357H105.082C106.526 23.357 107.375 24.5751 107.375 25.6218C107.355 26.6475 106.527 27.888 105.082 27.888ZM117.103 25.9854C115.701 25.9854 114.236 26.6052 113.641 28.0155L115.362 28.7424C115.744 28.0155 116.424 27.7806 117.146 27.7806C118.166 27.7806 119.185 28.4001 119.206 29.4895V29.6182C118.845 29.4046 118.102 29.1048 117.167 29.1048C115.299 29.1048 113.408 30.1518 113.408 32.0755C113.408 33.8492 114.937 34.9813 116.636 34.9813C117.953 34.9813 118.675 34.3829 119.12 33.6782H119.184V34.7039H121.073V29.6392C121.052 27.3106 119.333 25.9852 117.103 25.9852V25.9854ZM116.869 33.2084C116.232 33.2084 115.34 32.8874 115.34 32.0977C115.34 31.072 116.444 30.6874 117.4 30.6874C118.249 30.6874 118.652 30.8797 119.184 31.1359C119.035 32.3539 117.994 33.2084 116.869 33.2084V33.2084ZM127.891 26.2853L125.661 31.9903H125.598L123.283 26.2851H121.181L124.664 34.2764L122.688 38.7426H124.727L130.057 26.2851H127.891L127.891 26.2853ZM110.392 34.7249H112.346V21.5195H110.392V34.7249Z" fill="#151516"/>
<path d="M45.9858 10.75C46.5923 10.75 47.1167 10.8672 47.5591 11.1016C48.2007 11.4385 48.5933 12.0288 48.7368 12.8726H47.8711C47.7656 12.4009 47.5474 12.0581 47.2163 11.8442C46.8853 11.6274 46.4678 11.519 45.9639 11.519C45.3662 11.519 44.8623 11.7432 44.4521 12.1914C44.0449 12.6396 43.8413 13.3076 43.8413 14.1953C43.8413 14.9629 44.0098 15.5884 44.3467 16.0718C44.6836 16.5522 45.2329 16.7925 45.9946 16.7925C46.5776 16.7925 47.0596 16.624 47.4404 16.2871C47.8242 15.9473 48.0205 15.3994 48.0293 14.6436H46.0078V13.9185H48.8423V17.3726H48.2798L48.0688 16.542C47.7729 16.8672 47.5107 17.0928 47.2822 17.2188C46.8984 17.4355 46.4106 17.5439 45.8188 17.5439C45.0542 17.5439 44.3965 17.2964 43.8457 16.8013C43.2451 16.1802 42.9448 15.3276 42.9448 14.2437C42.9448 13.1626 43.2378 12.3027 43.8237 11.6641C44.3804 11.0547 45.1011 10.75 45.9858 10.75ZM50.2837 10.917H54.9902V11.708H51.1362V13.668H54.7002V14.415H51.1362V16.6035H55.0562V17.3726H50.2837V10.917ZM60.9009 10.917V11.686H58.7256V17.3726H57.8379V11.686H55.6626V10.917H60.9009ZM64.2495 10.917H65.1328V17.3726H64.2495V10.917ZM71.2544 10.917V11.686H69.0791V17.3726H68.1914V11.686H66.0161V10.917H71.2544ZM77.1914 10.7412C78.3311 10.7412 79.1748 11.1074 79.7227 11.8398C80.1504 12.4111 80.3643 13.1421 80.3643 14.0327C80.3643 14.9966 80.1196 15.7979 79.6304 16.4365C79.0562 17.1865 78.2373 17.5615 77.1738 17.5615C76.1807 17.5615 75.3999 17.2334 74.8315 16.5771C74.3247 15.9443 74.0713 15.1445 74.0713 14.1777C74.0713 13.3047 74.2881 12.5576 74.7217 11.9365C75.2783 11.1396 76.1016 10.7412 77.1914 10.7412ZM77.2793 16.7793C78.0498 16.7793 78.6064 16.5039 78.9492 15.9531C79.2949 15.3994 79.4678 14.7637 79.4678 14.0459C79.4678 13.2871 79.2686 12.6763 78.8701 12.2134C78.4746 11.7505 77.9326 11.519 77.2441 11.519C76.5762 11.519 76.0312 11.749 75.6094 12.209C75.1875 12.666 74.9766 13.3413 74.9766 14.2349C74.9766 14.9497 75.1567 15.5532 75.5171 16.0454C75.8804 16.5347 76.4678 16.7793 77.2793 16.7793ZM81.4102 10.917H82.4429L85.7036 16.1465V10.917H86.5342V17.3726H85.5542L82.2451 12.1475V17.3726H81.4102V10.917Z" fill="black"/>
</g>
<defs>
<clipPath id="clip0_1:1313">
<rect width="120" height="31" fill="white" transform="translate(10 9)"/>
</clipPath>
</defs>
</svg>
