<svg width="28" height="24" viewBox="0 0 28 24" fill="none" xmlns="http://www.w3.org/2000/svg">
<path fill-rule="evenodd" clip-rule="evenodd" d="M18.165 15.8315C17.1185 15.8315 16.24 14.9822 16.24 13.9357C16.24 12.8892 17.1185 12.013 18.165 12.013C19.2115 12.013 20.0608 12.8903 20.0608 13.9368C20.0608 14.9822 19.2115 15.8315 18.165 15.8315ZM18.6095 19.51C17.6353 20.4842 16.1315 20.9567 14.014 20.9567H13.9837C11.8662 20.9567 10.3647 20.4842 9.3905 19.51C9.31949 19.439 9.26316 19.3547 9.22473 19.2619C9.18629 19.1691 9.16651 19.0697 9.16651 18.9692C9.16651 18.8688 9.18629 18.7694 9.22473 18.6766C9.26316 18.5838 9.31949 18.4995 9.3905 18.4285C9.46151 18.3575 9.54582 18.3012 9.6386 18.2627C9.73138 18.2243 9.83082 18.2045 9.93125 18.2045C10.0317 18.2045 10.1311 18.2243 10.2239 18.2627C10.3167 18.3012 10.401 18.3575 10.472 18.4285C11.144 19.1005 12.292 19.4272 13.9837 19.4272L13.9988 19.4283H14.014C15.7057 19.4283 16.8548 19.1005 17.528 18.4285C17.599 18.3575 17.6833 18.3012 17.7761 18.2627C17.8689 18.2243 17.9683 18.2045 18.0687 18.2045C18.1692 18.2045 18.2686 18.2243 18.3614 18.2627C18.4542 18.3012 18.5385 18.3575 18.6095 18.4285C18.6805 18.4995 18.7368 18.5838 18.7753 18.6766C18.8137 18.7694 18.8335 18.8688 18.8335 18.9692C18.8335 19.0697 18.8137 19.1691 18.7753 19.2619C18.7368 19.3547 18.6805 19.439 18.6095 19.51V19.51ZM7.93917 13.9357C7.93917 12.8903 8.81767 12.013 9.863 12.013C10.9095 12.013 11.7577 12.8903 11.7577 13.9368C11.7577 14.9822 10.9095 15.8315 9.863 15.8315C8.81767 15.8315 7.93917 14.9822 7.93917 13.9357V13.9357ZM23.331 1.863C24.0392 1.863 24.6167 2.43933 24.6167 3.1475C24.6167 3.85566 24.0392 4.43316 23.331 4.43316C22.9901 4.43285 22.6633 4.2973 22.4222 4.05626C22.1812 3.81522 22.0456 3.48838 22.0453 3.1475C22.0453 2.43933 22.6217 1.863 23.331 1.863ZM28 11.8543C27.9991 10.9622 27.6443 10.107 27.0135 9.47617C26.3827 8.84538 25.5274 8.49059 24.6353 8.48966C23.8315 8.48966 23.0942 8.77316 22.5143 9.2445C20.4633 7.95533 17.8593 7.17833 15.0675 7.01383L16.5235 2.41016L20.5252 3.35283C20.5775 4.0615 20.8958 4.72422 21.4161 5.20819C21.9364 5.69216 22.6204 5.96165 23.331 5.96266C24.0772 5.96174 24.7926 5.6648 25.3202 5.13703C25.8477 4.60925 26.1444 3.89373 26.145 3.1475C26.1441 2.40146 25.8473 1.68625 25.3198 1.15872C24.7922 0.631194 24.077 0.334422 23.331 0.333496C22.246 0.333496 21.3022 0.951829 20.8332 1.85366L16.1828 0.759329C15.9953 0.715357 15.7981 0.743807 15.6307 0.838986C15.4633 0.934165 15.338 1.08905 15.2798 1.27266L13.4715 6.98583C10.4638 7.05933 7.637 7.83983 5.43433 9.20483C4.8441 8.74122 4.11521 8.48935 3.36467 8.48966C2.47259 8.49059 1.61731 8.84538 0.986511 9.47617C0.355715 10.107 0.000926517 10.9622 0 11.8543C0.000124007 12.3994 0.132841 12.9362 0.386702 13.4185C0.640563 13.9008 1.00795 14.3142 1.45717 14.6228C1.42001 14.8907 1.4013 15.1609 1.40117 15.4313C1.40117 17.7507 2.74867 19.9078 5.1975 21.5062C7.54367 23.038 10.6505 23.8815 13.9428 23.8815C17.2352 23.8815 20.342 23.038 22.6893 21.5062C25.137 19.9078 26.4857 17.7495 26.4857 15.4313C26.4857 15.1828 26.4682 14.9367 26.439 14.6928C26.917 14.3893 27.3107 13.97 27.5836 13.4738C27.8565 12.9776 27.9997 12.4206 28 11.8543" fill="#69696E"/>
</svg>
