<svg width="88" height="88" viewBox="0 0 88 88" fill="none" xmlns="http://www.w3.org/2000/svg">
<g filter="url(#filter0_dii_6798_58397)">
<path fill-rule="evenodd" clip-rule="evenodd" d="M13.377 76.8334C10.5384 76.8334 8.23828 74.5322 8.23828 71.6946V10.5435C8.23828 7.70592 10.5384 5.40479 13.377 5.40479H74.5281C77.3667 5.40479 79.6669 7.70592 79.6669 10.5435V71.6946C79.6669 74.5322 77.3667 76.8334 74.5281 76.8334H13.377Z" fill="white"/>
</g>
<mask id="path-2-outside-1_6798_58397" maskUnits="userSpaceOnUse" x="27.7319" y="28.8665" width="33" height="24" fill="black">
<rect fill="white" x="27.7319" y="28.8665" width="33" height="24"/>
<path fill-rule="evenodd" clip-rule="evenodd" d="M28.7319 32.5675C28.7319 31.0758 29.9412 29.8665 31.433 29.8665H57.0958C58.5876 29.8665 59.7969 31.0758 59.7969 32.5675V45.399V49.3529C59.7969 50.8446 58.5876 52.0539 57.0958 52.0539H31.433C29.9412 52.0539 28.7319 50.8446 28.7319 49.3529V45.399V32.5675ZM58.3236 32.5675V44.6624H30.2052V32.5675C30.2052 31.8895 30.7549 31.3398 31.433 31.3398H57.0958C57.7739 31.3398 58.3236 31.8895 58.3236 32.5675ZM58.3236 46.1357H30.2052V49.3529C30.2052 50.0309 30.7549 50.5806 31.433 50.5806H57.0958C57.7739 50.5806 58.3236 50.0309 58.3236 49.3529V46.1357ZM42.0482 38.7409C42.0482 38.3341 42.378 38.0042 42.7848 38.0042H53.1419C53.5487 38.0042 53.8785 38.3341 53.8785 38.7409C53.8785 39.1477 53.5487 39.4775 53.1419 39.4775H42.7848C42.378 39.4775 42.0482 39.1477 42.0482 38.7409ZM34.8895 36.5215C34.347 36.5215 33.9073 36.9612 33.9073 37.5037V39.978C33.9073 40.5205 34.347 40.9602 34.8895 40.9602H37.3638C37.9063 40.9602 38.346 40.5205 38.346 39.978V37.5037C38.346 36.9612 37.9063 36.5215 37.3638 36.5215H34.8895Z"/>
</mask>
<path fill-rule="evenodd" clip-rule="evenodd" d="M28.7319 32.5675C28.7319 31.0758 29.9412 29.8665 31.433 29.8665H57.0958C58.5876 29.8665 59.7969 31.0758 59.7969 32.5675V45.399V49.3529C59.7969 50.8446 58.5876 52.0539 57.0958 52.0539H31.433C29.9412 52.0539 28.7319 50.8446 28.7319 49.3529V45.399V32.5675ZM58.3236 32.5675V44.6624H30.2052V32.5675C30.2052 31.8895 30.7549 31.3398 31.433 31.3398H57.0958C57.7739 31.3398 58.3236 31.8895 58.3236 32.5675ZM58.3236 46.1357H30.2052V49.3529C30.2052 50.0309 30.7549 50.5806 31.433 50.5806H57.0958C57.7739 50.5806 58.3236 50.0309 58.3236 49.3529V46.1357ZM42.0482 38.7409C42.0482 38.3341 42.378 38.0042 42.7848 38.0042H53.1419C53.5487 38.0042 53.8785 38.3341 53.8785 38.7409C53.8785 39.1477 53.5487 39.4775 53.1419 39.4775H42.7848C42.378 39.4775 42.0482 39.1477 42.0482 38.7409ZM34.8895 36.5215C34.347 36.5215 33.9073 36.9612 33.9073 37.5037V39.978C33.9073 40.5205 34.347 40.9602 34.8895 40.9602H37.3638C37.9063 40.9602 38.346 40.5205 38.346 39.978V37.5037C38.346 36.9612 37.9063 36.5215 37.3638 36.5215H34.8895Z" fill="#32AC8C"/>
<path d="M58.3236 44.6624V45.1535H58.8147V44.6624H58.3236ZM30.2052 44.6624H29.7141V45.1535H30.2052V44.6624ZM30.2052 46.1357V45.6446H29.7141V46.1357H30.2052ZM58.3236 46.1357H58.8147V45.6446H58.3236V46.1357ZM31.433 29.3754C29.67 29.3754 28.2408 30.8045 28.2408 32.5675H29.223C29.223 31.347 30.2125 30.3576 31.433 30.3576V29.3754ZM57.0958 29.3754H31.433V30.3576H57.0958V29.3754ZM60.288 32.5675C60.288 30.8045 58.8588 29.3754 57.0958 29.3754V30.3576C58.3163 30.3576 59.3058 31.347 59.3058 32.5675H60.288ZM60.288 45.399V32.5675H59.3058V45.399H60.288ZM60.288 49.3529V45.399H59.3058V49.3529H60.288ZM57.0958 52.545C58.8588 52.545 60.288 51.1159 60.288 49.3529H59.3058C59.3058 50.5734 58.3163 51.5628 57.0958 51.5628V52.545ZM31.433 52.545H57.0958V51.5628H31.433V52.545ZM28.2408 49.3529C28.2408 51.1159 29.67 52.545 31.433 52.545V51.5628C30.2125 51.5628 29.223 50.5734 29.223 49.3529H28.2408ZM28.2408 45.399V49.3529H29.223V45.399H28.2408ZM28.2408 32.5675V45.399H29.223V32.5675H28.2408ZM58.8147 44.6624V32.5675H57.8325V44.6624H58.8147ZM30.2052 45.1535H58.3236V44.1713H30.2052V45.1535ZM29.7141 32.5675V44.6624H30.6963V32.5675H29.7141ZM31.433 30.8487C30.4837 30.8487 29.7141 31.6182 29.7141 32.5675H30.6963C30.6963 32.1607 31.0261 31.8309 31.433 31.8309V30.8487ZM57.0958 30.8487H31.433V31.8309H57.0958V30.8487ZM58.8147 32.5675C58.8147 31.6182 58.0451 30.8487 57.0958 30.8487V31.8309C57.5027 31.8309 57.8325 32.1607 57.8325 32.5675H58.8147ZM30.2052 46.6268H58.3236V45.6446H30.2052V46.6268ZM30.6963 49.3529V46.1357H29.7141V49.3529H30.6963ZM31.433 50.0895C31.0261 50.0895 30.6963 49.7597 30.6963 49.3529H29.7141C29.7141 50.3022 30.4837 51.0717 31.433 51.0717V50.0895ZM57.0958 50.0895H31.433V51.0717H57.0958V50.0895ZM57.8325 49.3529C57.8325 49.7597 57.5027 50.0895 57.0958 50.0895V51.0717C58.0451 51.0717 58.8147 50.3022 58.8147 49.3529H57.8325ZM57.8325 46.1357V49.3529H58.8147V46.1357H57.8325ZM42.7848 37.5131C42.1068 37.5131 41.5571 38.0628 41.5571 38.7409H42.5393C42.5393 38.6053 42.6492 38.4953 42.7848 38.4953V37.5131ZM53.1419 37.5131H42.7848V38.4953H53.1419V37.5131ZM54.3696 38.7409C54.3696 38.0628 53.82 37.5131 53.1419 37.5131V38.4953C53.2775 38.4953 53.3874 38.6053 53.3874 38.7409H54.3696ZM53.1419 39.9686C53.82 39.9686 54.3696 39.419 54.3696 38.7409H53.3874C53.3874 38.8765 53.2775 38.9864 53.1419 38.9864V39.9686ZM42.7848 39.9686H53.1419V38.9864H42.7848V39.9686ZM41.5571 38.7409C41.5571 39.419 42.1068 39.9686 42.7848 39.9686V38.9864C42.6492 38.9864 42.5393 38.8765 42.5393 38.7409H41.5571ZM34.3984 37.5037C34.3984 37.2324 34.6182 37.0126 34.8895 37.0126V36.0304C34.0758 36.0304 33.4162 36.69 33.4162 37.5037H34.3984ZM34.3984 39.978V37.5037H33.4162V39.978H34.3984ZM34.8895 40.4691C34.6182 40.4691 34.3984 40.2492 34.3984 39.978H33.4162C33.4162 40.7917 34.0758 41.4513 34.8895 41.4513V40.4691ZM37.3638 40.4691H34.8895V41.4513H37.3638V40.4691ZM37.8549 39.978C37.8549 40.2492 37.635 40.4691 37.3638 40.4691V41.4513C38.1775 41.4513 38.8371 40.7917 38.8371 39.978H37.8549ZM37.8549 37.5037V39.978H38.8371V37.5037H37.8549ZM37.3638 37.0126C37.635 37.0126 37.8549 37.2324 37.8549 37.5037H38.8371C38.8371 36.69 38.1775 36.0304 37.3638 36.0304V37.0126ZM34.8895 37.0126H37.3638V36.0304H34.8895V37.0126Z" fill="#32AC8C" mask="url(#path-2-outside-1_6798_58397)"/>
<defs>
<filter id="filter0_dii_6798_58397" x="0.238281" y="0.404785" width="87.4287" height="87.4286" filterUnits="userSpaceOnUse" color-interpolation-filters="sRGB">
<feFlood flood-opacity="0" result="BackgroundImageFix"/>
<feColorMatrix in="SourceAlpha" type="matrix" values="0 0 0 0 0 0 0 0 0 0 0 0 0 0 0 0 0 0 127 0" result="hardAlpha"/>
<feOffset dy="3"/>
<feGaussianBlur stdDeviation="4"/>
<feColorMatrix type="matrix" values="0 0 0 0 0.4875 0 0 0 0 0.4875 0 0 0 0 0.4875 0 0 0 0.201841 0"/>
<feBlend mode="normal" in2="BackgroundImageFix" result="effect1_dropShadow_6798_58397"/>
<feBlend mode="normal" in="SourceGraphic" in2="effect1_dropShadow_6798_58397" result="shape"/>
<feColorMatrix in="SourceAlpha" type="matrix" values="0 0 0 0 0 0 0 0 0 0 0 0 0 0 0 0 0 0 127 0" result="hardAlpha"/>
<feOffset dy="2"/>
<feGaussianBlur stdDeviation="1"/>
<feComposite in2="hardAlpha" operator="arithmetic" k2="-1" k3="1"/>
<feColorMatrix type="matrix" values="0 0 0 0 1 0 0 0 0 1 0 0 0 0 1 0 0 0 1 0"/>
<feBlend mode="normal" in2="shape" result="effect2_innerShadow_6798_58397"/>
<feColorMatrix in="SourceAlpha" type="matrix" values="0 0 0 0 0 0 0 0 0 0 0 0 0 0 0 0 0 0 127 0" result="hardAlpha"/>
<feOffset dy="-1"/>
<feGaussianBlur stdDeviation="1.5"/>
<feComposite in2="hardAlpha" operator="arithmetic" k2="-1" k3="1"/>
<feColorMatrix type="matrix" values="0 0 0 0 0.854025 0 0 0 0 0.854025 0 0 0 0 0.854025 0 0 0 1 0"/>
<feBlend mode="normal" in2="effect2_innerShadow_6798_58397" result="effect3_innerShadow_6798_58397"/>
</filter>
</defs>
</svg>
