<svg width="84" height="84" viewBox="0 0 84 84" fill="none" xmlns="http://www.w3.org/2000/svg">
<g filter="url(#filter0_dii_6798_58368)">
<path fill-rule="evenodd" clip-rule="evenodd" d="M11.1387 75.4286C8.3001 75.4286 6 73.1274 6 70.2898V9.13875C6 6.30113 8.3001 4 11.1387 4H72.2898C75.1285 4 77.4286 6.30113 77.4286 9.13875V70.2898C77.4286 73.1274 75.1285 75.4286 72.2898 75.4286H11.1387Z" fill="white"/>
</g>
<path d="M35.3652 44.278C35.3652 48.8609 39.0804 52.5761 43.6633 52.5761C48.2462 52.5761 51.9614 48.8609 51.9614 44.278C51.9614 39.6951 48.2462 35.9799 43.6633 35.9799" stroke="#32AC8C" stroke-width="3.1147" stroke-linejoin="round"/>
<g filter="url(#filter1_d_6798_58368)">
<path fill-rule="evenodd" clip-rule="evenodd" d="M38.0531 27.5526C38.1792 27.131 38.6255 26.8937 39.0455 27.025L42.2464 28.0253C42.6592 28.1544 42.8916 28.5913 42.7676 29.0057L39.1413 41.1306C39.0152 41.5522 38.5688 41.7895 38.1488 41.6582L34.9479 40.6578C34.5351 40.5288 34.3028 40.0918 34.4267 39.6775L38.0531 27.5526Z" fill="#32AC8C"/>
<path fill-rule="evenodd" clip-rule="evenodd" d="M38.0531 27.5526C38.1792 27.131 38.6255 26.8937 39.0455 27.025L42.2464 28.0253C42.6592 28.1544 42.8916 28.5913 42.7676 29.0057L39.1413 41.1306C39.0152 41.5522 38.5688 41.7895 38.1488 41.6582L34.9479 40.6578C34.5351 40.5288 34.3028 40.0918 34.4267 39.6775L38.0531 27.5526Z" stroke="#32AC8C" stroke-width="1.12852" stroke-linejoin="round"/>
</g>
<g filter="url(#filter2_d_6798_58368)">
<path fill-rule="evenodd" clip-rule="evenodd" d="M41.1473 25.2321C41.213 25.0127 41.4452 24.8892 41.6638 24.9575C41.8787 25.0246 41.9996 25.252 41.9351 25.4677L40.2511 31.0981C40.1855 31.3175 39.9532 31.441 39.7346 31.3727C39.5198 31.3055 39.3989 31.0781 39.4634 30.8625L41.1473 25.2321Z" fill="#32AC8C"/>
<path fill-rule="evenodd" clip-rule="evenodd" d="M41.1473 25.2321C41.213 25.0127 41.4452 24.8892 41.6638 24.9575C41.8787 25.0246 41.9996 25.252 41.9351 25.4677L40.2511 31.0981C40.1855 31.3175 39.9532 31.441 39.7346 31.3727C39.5198 31.3055 39.3989 31.0781 39.4634 30.8625L41.1473 25.2321Z" stroke="#32AC8C" stroke-width="1.12852" stroke-linejoin="round"/>
</g>
<circle cx="43.0247" cy="35.9799" r="3.8299" fill="#32AC8C"/>
<g filter="url(#filter3_d_6798_58368)">
<path d="M43.0249 39.3231C44.8714 39.3231 46.3682 37.8263 46.3682 35.9799C46.3682 34.1335 44.8714 32.6366 43.0249 32.6366C41.1785 32.6366 39.6817 34.1335 39.6817 35.9799C39.6817 37.8263 41.1785 39.3231 43.0249 39.3231Z" stroke="white" stroke-width="1.57992" stroke-linejoin="round"/>
</g>
<rect x="35.1215" y="53.3122" width="17.0829" height="0.8879" rx="0.44395" fill="#32AC8C" stroke="#32AC8C" stroke-width="0.789961"/>
<path fill-rule="evenodd" clip-rule="evenodd" d="M30.6575 43.404C30.5336 43.8184 30.7659 44.2554 31.1787 44.3844L39.8734 47.1017C40.2935 47.233 40.7398 46.9957 40.8659 46.5741L40.893 46.4833C41.017 46.0689 40.7847 45.632 40.3718 45.5029L31.6771 42.7856C31.2571 42.6544 30.8108 42.8916 30.6847 43.3133L30.6575 43.404Z" fill="#32AC8C" stroke="#32AC8C" stroke-width="0.789961"/>
<path fill-rule="evenodd" clip-rule="evenodd" d="M38.0531 27.5528C38.1792 27.1312 38.6255 26.8939 39.0455 27.0252L42.2464 28.0256C42.6592 28.1546 42.8916 28.5916 42.7676 29.0059L39.1413 41.1308C39.0152 41.5524 38.5688 41.7897 38.1488 41.6584L34.9479 40.6581C34.5351 40.529 34.3028 40.0921 34.4267 39.6777L38.0531 27.5528Z" fill="#32AC8C" stroke="#32AC8C" stroke-width="1.12852" stroke-linejoin="round"/>
<g filter="url(#filter4_d_6798_58368)">
<path fill-rule="evenodd" clip-rule="evenodd" d="M41.1473 25.2323C41.213 25.0129 41.4452 24.8894 41.6638 24.9577C41.8787 25.0248 41.9996 25.2523 41.9351 25.4679L40.2511 31.0983C40.1855 31.3177 39.9532 31.4412 39.7346 31.3729C39.5198 31.3057 39.3989 31.0783 39.4634 30.8627L41.1473 25.2323Z" fill="#32AC8C"/>
<path fill-rule="evenodd" clip-rule="evenodd" d="M41.1473 25.2323C41.213 25.0129 41.4452 24.8894 41.6638 24.9577C41.8787 25.0248 41.9996 25.2523 41.9351 25.4679L40.2511 31.0983C40.1855 31.3177 39.9532 31.4412 39.7346 31.3729C39.5198 31.3057 39.3989 31.0783 39.4634 30.8627L41.1473 25.2323Z" stroke="#32AC8C" stroke-width="1.12852" stroke-linejoin="round"/>
</g>
<ellipse cx="43.0247" cy="35.9801" rx="3.8299" ry="3.8299" fill="#32AC8C" stroke="#32AC8C" stroke-width="2.07647"/>
<path d="M43.0249 39.3233C44.8714 39.3233 46.3682 37.8265 46.3682 35.9801C46.3682 34.1337 44.8714 32.6369 43.0249 32.6369C41.1785 32.6369 39.6817 34.1337 39.6817 35.9801C39.6817 37.8265 41.1785 39.3233 43.0249 39.3233Z" fill="#32AC8C" stroke="white" stroke-width="1.57992" stroke-linejoin="round"/>
<rect x="35.1215" y="53.3124" width="17.0829" height="0.887896" rx="0.443948" fill="#32AC8C" stroke="#32AC8C" stroke-width="0.789961"/>
<path fill-rule="evenodd" clip-rule="evenodd" d="M30.6575 43.4042C30.5336 43.8186 30.7659 44.2556 31.1787 44.3846L39.8734 47.1019C40.2935 47.2332 40.7398 46.9959 40.8659 46.5743L40.893 46.4835C41.017 46.0692 40.7847 45.6322 40.3718 45.5032L31.6771 42.7858C31.2571 42.6546 30.8108 42.8919 30.6847 43.3135L30.6575 43.4042Z" fill="#32AC8C" stroke="#32AC8C" stroke-width="0.789961"/>
<defs>
<filter id="filter0_dii_6798_58368" x="0.106814" y="0.316759" width="83.2151" height="83.215" filterUnits="userSpaceOnUse" color-interpolation-filters="sRGB">
<feFlood flood-opacity="0" result="BackgroundImageFix"/>
<feColorMatrix in="SourceAlpha" type="matrix" values="0 0 0 0 0 0 0 0 0 0 0 0 0 0 0 0 0 0 127 0" result="hardAlpha"/>
<feOffset dy="2.20994"/>
<feGaussianBlur stdDeviation="2.94659"/>
<feColorMatrix type="matrix" values="0 0 0 0 0.4875 0 0 0 0 0.4875 0 0 0 0 0.4875 0 0 0 0.201841 0"/>
<feBlend mode="normal" in2="BackgroundImageFix" result="effect1_dropShadow_6798_58368"/>
<feBlend mode="normal" in="SourceGraphic" in2="effect1_dropShadow_6798_58368" result="shape"/>
<feColorMatrix in="SourceAlpha" type="matrix" values="0 0 0 0 0 0 0 0 0 0 0 0 0 0 0 0 0 0 127 0" result="hardAlpha"/>
<feOffset dy="1.4733"/>
<feGaussianBlur stdDeviation="0.736648"/>
<feComposite in2="hardAlpha" operator="arithmetic" k2="-1" k3="1"/>
<feColorMatrix type="matrix" values="0 0 0 0 1 0 0 0 0 1 0 0 0 0 1 0 0 0 1 0"/>
<feBlend mode="normal" in2="shape" result="effect2_innerShadow_6798_58368"/>
<feColorMatrix in="SourceAlpha" type="matrix" values="0 0 0 0 0 0 0 0 0 0 0 0 0 0 0 0 0 0 127 0" result="hardAlpha"/>
<feOffset dy="-0.736648"/>
<feGaussianBlur stdDeviation="0.736648"/>
<feComposite in2="hardAlpha" operator="arithmetic" k2="-1" k3="1"/>
<feColorMatrix type="matrix" values="0 0 0 0 0.854025 0 0 0 0 0.854025 0 0 0 0 0.854025 0 0 0 1 0"/>
<feBlend mode="normal" in2="effect2_innerShadow_6798_58368" result="effect3_innerShadow_6798_58368"/>
</filter>
<filter id="filter1_d_6798_58368" x="31.7526" y="24.3479" width="15.7655" height="22.0638" filterUnits="userSpaceOnUse" color-interpolation-filters="sRGB">
<feFlood flood-opacity="0" result="BackgroundImageFix"/>
<feColorMatrix in="SourceAlpha" type="matrix" values="0 0 0 0 0 0 0 0 0 0 0 0 0 0 0 0 0 0 127 0" result="hardAlpha"/>
<feOffset dx="1.03823" dy="1.03823"/>
<feGaussianBlur stdDeviation="1.55735"/>
<feColorMatrix type="matrix" values="0 0 0 0 0.86314 0 0 0 0 0.86314 0 0 0 0 0.86314 0 0 0 0.530813 0"/>
<feBlend mode="normal" in2="BackgroundImageFix" result="effect1_dropShadow_6798_58368"/>
<feBlend mode="normal" in="SourceGraphic" in2="effect1_dropShadow_6798_58368" result="shape"/>
</filter>
<filter id="filter2_d_6798_58368" x="36.8054" y="22.2978" width="9.86417" height="13.8111" filterUnits="userSpaceOnUse" color-interpolation-filters="sRGB">
<feFlood flood-opacity="0" result="BackgroundImageFix"/>
<feColorMatrix in="SourceAlpha" type="matrix" values="0 0 0 0 0 0 0 0 0 0 0 0 0 0 0 0 0 0 127 0" result="hardAlpha"/>
<feOffset dx="1.03823" dy="1.03823"/>
<feGaussianBlur stdDeviation="1.55735"/>
<feColorMatrix type="matrix" values="0 0 0 0 0 0 0 0 0 0 0 0 0 0 0 0 0 0 0.201841 0"/>
<feBlend mode="normal" in2="BackgroundImageFix" result="effect1_dropShadow_6798_58368"/>
<feBlend mode="normal" in="SourceGraphic" in2="effect1_dropShadow_6798_58368" result="shape"/>
</filter>
<filter id="filter3_d_6798_58368" x="36.8151" y="29.7702" width="14.496" height="14.4958" filterUnits="userSpaceOnUse" color-interpolation-filters="sRGB">
<feFlood flood-opacity="0" result="BackgroundImageFix"/>
<feColorMatrix in="SourceAlpha" type="matrix" values="0 0 0 0 0 0 0 0 0 0 0 0 0 0 0 0 0 0 127 0" result="hardAlpha"/>
<feOffset dx="1.03823" dy="1.03823"/>
<feGaussianBlur stdDeviation="1.55735"/>
<feColorMatrix type="matrix" values="0 0 0 0 0 0 0 0 0 0 0 0 0 0 0 0 0 0 0.201841 0"/>
<feBlend mode="normal" in2="BackgroundImageFix" result="effect1_dropShadow_6798_58368"/>
<feBlend mode="normal" in="SourceGraphic" in2="effect1_dropShadow_6798_58368" result="shape"/>
</filter>
<filter id="filter4_d_6798_58368" x="36.8054" y="22.298" width="9.86417" height="13.8111" filterUnits="userSpaceOnUse" color-interpolation-filters="sRGB">
<feFlood flood-opacity="0" result="BackgroundImageFix"/>
<feColorMatrix in="SourceAlpha" type="matrix" values="0 0 0 0 0 0 0 0 0 0 0 0 0 0 0 0 0 0 127 0" result="hardAlpha"/>
<feOffset dx="1.03823" dy="1.03823"/>
<feGaussianBlur stdDeviation="1.55735"/>
<feColorMatrix type="matrix" values="0 0 0 0 0 0 0 0 0 0 0 0 0 0 0 0 0 0 0.201841 0"/>
<feBlend mode="normal" in2="BackgroundImageFix" result="effect1_dropShadow_6798_58368"/>
<feBlend mode="normal" in="SourceGraphic" in2="effect1_dropShadow_6798_58368" result="shape"/>
</filter>
</defs>
</svg>
