<svg width="88" height="88" viewBox="0 0 88 88" fill="none" xmlns="http://www.w3.org/2000/svg">
<g filter="url(#filter0_dii_6798_58363)">
<rect x="8" y="5" width="71.2243" height="71.2243" rx="4.61826" fill="white"/>
</g>
<g filter="url(#filter1_d_6798_58363)">
<path fill-rule="evenodd" clip-rule="evenodd" d="M47.7977 34.4324C47.1994 34.4324 46.7144 33.9474 46.7144 33.3491V30.677C46.7144 30.0787 47.1994 29.5937 47.7977 29.5937H50.7236C51.3219 29.5937 51.8069 30.0787 51.8069 30.677V33.3491C51.8069 33.9474 51.3219 34.4324 50.7236 34.4324H47.7977Z" stroke="#32AC8C" stroke-width="2.20994" stroke-linejoin="round"/>
</g>
<g filter="url(#filter2_d_6798_58363)">
<path fill-rule="evenodd" clip-rule="evenodd" d="M38.3135 29.9574C38.3135 29.7565 38.4764 29.5937 38.6773 29.5937C38.8782 29.5937 39.041 29.7565 39.041 29.9574V34.7599C39.041 34.9608 38.8782 35.1236 38.6773 35.1236C38.4764 35.1236 38.3135 34.9608 38.3135 34.7599V29.9574Z" fill="#32AC8C"/>
<path fill-rule="evenodd" clip-rule="evenodd" d="M38.3135 29.9574C38.3135 29.7565 38.4764 29.5937 38.6773 29.5937C38.8782 29.5937 39.041 29.7565 39.041 29.9574V34.7599C39.041 34.9608 38.8782 35.1236 38.6773 35.1236C38.4764 35.1236 38.3135 34.9608 38.3135 34.7599V29.9574Z" stroke="#32AC8C" stroke-width="2.20994" stroke-linejoin="round"/>
</g>
<g filter="url(#filter3_d_6798_58363)">
<path fill-rule="evenodd" clip-rule="evenodd" d="M36.1127 32.7043C35.9218 32.7043 35.7671 32.5496 35.7671 32.3587C35.7671 32.1678 35.9218 32.0131 36.1127 32.0131H41.2416C41.4325 32.0131 41.5872 32.1678 41.5872 32.3587C41.5872 32.5496 41.4325 32.7043 41.2416 32.7043H36.1127Z" fill="#32AC8C"/>
<path fill-rule="evenodd" clip-rule="evenodd" d="M36.1127 32.7043C35.9218 32.7043 35.7671 32.5496 35.7671 32.3587C35.7671 32.1678 35.9218 32.0131 36.1127 32.0131H41.2416C41.4325 32.0131 41.5872 32.1678 41.5872 32.3587C41.5872 32.5496 41.4325 32.7043 41.2416 32.7043H36.1127Z" stroke="#32AC8C" stroke-width="2.20994" stroke-linejoin="round"/>
</g>
<path fill-rule="evenodd" clip-rule="evenodd" d="M36.3287 49.5373C35.2778 49.5373 35.2778 48.1548 36.3287 48.1548H51.5411C52.592 48.1548 52.592 49.5373 51.5411 49.5373H36.3287Z" fill="#32AC8C" stroke="#32AC8C" stroke-width="2.20994"/>
<path fill-rule="evenodd" clip-rule="evenodd" d="M36.3287 44.887C35.2778 44.887 35.2778 43.5045 36.3287 43.5045H51.5411C52.592 43.5045 52.592 44.887 51.5411 44.887H36.3287Z" fill="#32AC8C" stroke="#32AC8C" stroke-width="2.20994"/>
<g filter="url(#filter4_d_6798_58363)">
<path fill-rule="evenodd" clip-rule="evenodd" d="M52.5367 25.8334C54.4823 25.8334 56.06 27.416 56.06 29.3559V52.0728C56.06 54.0126 54.4823 55.5953 52.5367 55.5953H35.3335C33.3873 55.5953 31.8096 54.0127 31.8096 52.0728V29.3559C31.8096 27.4159 33.3873 25.8334 35.3335 25.8334H52.5367Z" stroke="#32AC8C" stroke-width="2.20994" stroke-linejoin="round"/>
</g>
<defs>
<filter id="filter0_dii_6798_58363" x="0" y="0" width="87.2241" height="87.2243" filterUnits="userSpaceOnUse" color-interpolation-filters="sRGB">
<feFlood flood-opacity="0" result="BackgroundImageFix"/>
<feColorMatrix in="SourceAlpha" type="matrix" values="0 0 0 0 0 0 0 0 0 0 0 0 0 0 0 0 0 0 127 0" result="hardAlpha"/>
<feOffset dy="3"/>
<feGaussianBlur stdDeviation="4"/>
<feColorMatrix type="matrix" values="0 0 0 0 0.4875 0 0 0 0 0.4875 0 0 0 0 0.4875 0 0 0 0.201841 0"/>
<feBlend mode="normal" in2="BackgroundImageFix" result="effect1_dropShadow_6798_58363"/>
<feBlend mode="normal" in="SourceGraphic" in2="effect1_dropShadow_6798_58363" result="shape"/>
<feColorMatrix in="SourceAlpha" type="matrix" values="0 0 0 0 0 0 0 0 0 0 0 0 0 0 0 0 0 0 127 0" result="hardAlpha"/>
<feOffset dy="2"/>
<feGaussianBlur stdDeviation="1"/>
<feComposite in2="hardAlpha" operator="arithmetic" k2="-1" k3="1"/>
<feColorMatrix type="matrix" values="0 0 0 0 1 0 0 0 0 1 0 0 0 0 1 0 0 0 1 0"/>
<feBlend mode="normal" in2="shape" result="effect2_innerShadow_6798_58363"/>
<feColorMatrix in="SourceAlpha" type="matrix" values="0 0 0 0 0 0 0 0 0 0 0 0 0 0 0 0 0 0 127 0" result="hardAlpha"/>
<feOffset dy="-1"/>
<feGaussianBlur stdDeviation="1.5"/>
<feComposite in2="hardAlpha" operator="arithmetic" k2="-1" k3="1"/>
<feColorMatrix type="matrix" values="0 0 0 0 0.854025 0 0 0 0 0.854025 0 0 0 0 0.854025 0 0 0 1 0"/>
<feBlend mode="normal" in2="effect2_innerShadow_6798_58363" result="effect3_innerShadow_6798_58363"/>
</filter>
<filter id="filter1_d_6798_58363" x="44.8727" y="27.7521" width="10.2493" height="9.99527" filterUnits="userSpaceOnUse" color-interpolation-filters="sRGB">
<feFlood flood-opacity="0" result="BackgroundImageFix"/>
<feColorMatrix in="SourceAlpha" type="matrix" values="0 0 0 0 0 0 0 0 0 0 0 0 0 0 0 0 0 0 127 0" result="hardAlpha"/>
<feOffset dx="0.736648" dy="0.736648"/>
<feGaussianBlur stdDeviation="0.736648"/>
<feColorMatrix type="matrix" values="0 0 0 0 0.447832 0 0 0 0 0.447832 0 0 0 0 0.447832 0 0 0 0.201841 0"/>
<feBlend mode="normal" in2="BackgroundImageFix" result="effect1_dropShadow_6798_58363"/>
<feBlend mode="normal" in="SourceGraphic" in2="effect1_dropShadow_6798_58363" result="shape"/>
</filter>
<filter id="filter2_d_6798_58363" x="36.4718" y="27.7521" width="5.88409" height="10.6865" filterUnits="userSpaceOnUse" color-interpolation-filters="sRGB">
<feFlood flood-opacity="0" result="BackgroundImageFix"/>
<feColorMatrix in="SourceAlpha" type="matrix" values="0 0 0 0 0 0 0 0 0 0 0 0 0 0 0 0 0 0 127 0" result="hardAlpha"/>
<feOffset dx="0.736648" dy="0.736648"/>
<feGaussianBlur stdDeviation="0.736648"/>
<feColorMatrix type="matrix" values="0 0 0 0 0.447832 0 0 0 0 0.447832 0 0 0 0 0.447832 0 0 0 0.201841 0"/>
<feBlend mode="normal" in2="BackgroundImageFix" result="effect1_dropShadow_6798_58363"/>
<feBlend mode="normal" in="SourceGraphic" in2="effect1_dropShadow_6798_58363" result="shape"/>
</filter>
<filter id="filter3_d_6798_58363" x="33.9255" y="30.1715" width="10.9769" height="5.84778" filterUnits="userSpaceOnUse" color-interpolation-filters="sRGB">
<feFlood flood-opacity="0" result="BackgroundImageFix"/>
<feColorMatrix in="SourceAlpha" type="matrix" values="0 0 0 0 0 0 0 0 0 0 0 0 0 0 0 0 0 0 127 0" result="hardAlpha"/>
<feOffset dx="0.736648" dy="0.736648"/>
<feGaussianBlur stdDeviation="0.736648"/>
<feColorMatrix type="matrix" values="0 0 0 0 0.447832 0 0 0 0 0.447832 0 0 0 0 0.447832 0 0 0 0.201841 0"/>
<feBlend mode="normal" in2="BackgroundImageFix" result="effect1_dropShadow_6798_58363"/>
<feBlend mode="normal" in="SourceGraphic" in2="effect1_dropShadow_6798_58363" result="shape"/>
</filter>
<filter id="filter4_d_6798_58363" x="29.9679" y="23.9917" width="29.407" height="34.9185" filterUnits="userSpaceOnUse" color-interpolation-filters="sRGB">
<feFlood flood-opacity="0" result="BackgroundImageFix"/>
<feColorMatrix in="SourceAlpha" type="matrix" values="0 0 0 0 0 0 0 0 0 0 0 0 0 0 0 0 0 0 127 0" result="hardAlpha"/>
<feOffset dx="0.736648" dy="0.736648"/>
<feGaussianBlur stdDeviation="0.736648"/>
<feColorMatrix type="matrix" values="0 0 0 0 0.447832 0 0 0 0 0.447832 0 0 0 0 0.447832 0 0 0 0.201841 0"/>
<feBlend mode="normal" in2="BackgroundImageFix" result="effect1_dropShadow_6798_58363"/>
<feBlend mode="normal" in="SourceGraphic" in2="effect1_dropShadow_6798_58363" result="shape"/>
</filter>
</defs>
</svg>
