<svg width="12" height="13" viewBox="0 0 12 13" fill="none" xmlns="http://www.w3.org/2000/svg">
<path d="M11.1421 6.44635V12.446C11.1421 12.5596 11.097 12.6686 11.0166 12.749C10.9363 12.8294 10.8273 12.8745 10.7136 12.8745H7.28525C7.17159 12.8745 7.06259 12.8294 6.98222 12.749C6.90186 12.6686 6.85671 12.5596 6.85671 12.446V9.44616C6.85671 9.23189 6.64244 9.01762 6.42816 9.01762H4.71399C4.49971 9.01762 4.28544 9.23189 4.28544 9.44187V12.446C4.28544 12.5596 4.24029 12.6686 4.15992 12.749C4.07956 12.8294 3.97056 12.8745 3.8569 12.8745H0.428545C0.314888 12.8745 0.205886 12.8294 0.125518 12.749C0.0451507 12.6686 0 12.5596 0 12.446V6.44635C-9.98933e-05 6.39004 0.0109 6.33425 0.0323715 6.28219C0.053843 6.23013 0.0853651 6.18281 0.125136 6.14294L11.1421 6.44635ZM11.1421 6.44635C11.1422 6.39004 11.1312 6.33425 11.1098 6.28219M11.1421 6.44635L11.1098 6.28219M5.52059 1.35363L5.52086 1.3539C5.52077 1.35381 5.52068 1.35372 5.52059 1.35363ZM5.52059 1.35363L5.52048 1.35352C5.52052 1.35356 5.52056 1.35359 5.52059 1.35363ZM11.1098 6.28219C11.0883 6.23013 11.0568 6.18281 11.017 6.14294M11.1098 6.28219L11.017 6.14294M11.017 6.14294L9.85652 4.9833L11.017 6.14294ZM9.35652 4.9833V5.19052L9.50309 5.33699L10.6421 6.4752V12.3745H7.35671V9.44616C7.35671 9.17641 7.22687 8.94851 7.07634 8.79798C6.92582 8.64746 6.69791 8.51761 6.42816 8.51761H4.71399C4.44447 8.51761 4.21703 8.64723 4.06699 8.79627C3.91752 8.94474 3.78544 9.17175 3.78544 9.44187V12.3745H0.500001V6.47518L5.57106 1.40412L7.78872 3.62261L8.64234 4.47655V3.26912V2.23237H9.35652V4.9833ZM10.6421 6.44546V6.44635C10.6421 6.44605 10.6421 6.44576 10.6421 6.44546ZM5.62167 1.35352C5.62152 1.35367 5.62137 1.35382 5.62122 1.35397L5.62167 1.35352Z" stroke="#32AC8C"/>
</svg>
