<svg width="22" height="20" viewBox="0 0 22 20" fill="none" xmlns="http://www.w3.org/2000/svg">
<path d="M1.00098 19H16.001" stroke="#32AC8C" stroke-width="2" stroke-linecap="round" stroke-linejoin="round"/>
<path d="M20.001 19H21.001" stroke="#32AC8C" stroke-width="2" stroke-linecap="round" stroke-linejoin="round"/>
<path d="M1.00098 14.4V1.6C1.00098 1.44087 1.06419 1.28826 1.17671 1.17574C1.28923 1.06321 1.44185 1 1.60098 1H20.401C20.5601 1 20.7127 1.06321 20.8252 1.17574C20.9378 1.28826 21.001 1.44087 21.001 1.6V14.4C21.001 14.5591 20.9378 14.7117 20.8252 14.8243C20.7127 14.9368 20.5601 15 20.401 15H1.60098C1.44185 15 1.28923 14.9368 1.17671 14.8243C1.06419 14.7117 1.00098 14.5591 1.00098 14.4V14.4Z" stroke="#32AC8C" stroke-width="2"/>
</svg>
