<svg width="24" height="24" viewBox="0 0 24 24" fill="none" xmlns="http://www.w3.org/2000/svg">
<path fill-rule="evenodd" clip-rule="evenodd" d="M18 11C18 13.7614 15.7614 16 13 16C10.2385 16 7.99997 13.7614 7.99997 11C7.99997 8.23858 10.2385 6 13 6C15.7614 6 18 8.23858 18 11ZM20 11C20 14.866 16.866 18 13 18C11.4276 18 9.97639 17.4816 8.80782 16.6064L4.70711 20.7071C4.31658 21.0976 3.68342 21.0976 3.29289 20.7071C2.90237 20.3166 2.90237 19.6834 3.29289 19.2929L7.3936 15.1922C6.51838 14.0236 5.99997 12.5723 5.99997 11C5.99997 7.13401 9.13398 4 13 4C16.866 4 20 7.13401 20 11Z" fill="#32AC8C"/>
</svg>
