<svg width="32" height="32" viewBox="0 0 32 32" fill="none" xmlns="http://www.w3.org/2000/svg">
<path d="M8.94697 20.2618C7.38579 20.2618 5.88856 19.6686 4.78464 18.6127C3.68072 17.5568 3.06055 16.1246 3.06055 14.6313C3.06055 13.138 3.68072 11.7059 4.78464 10.65C5.88856 9.59403 7.38579 9.00082 8.94697 9.00082C9.31569 7.35819 10.3943 5.91466 11.9456 4.9878C13.4969 4.06093 15.3938 3.72665 17.2189 4.0585C19.0441 4.39034 20.648 5.36113 21.6778 6.75729C22.7077 8.15345 23.0791 9.86063 22.7104 11.5033H23.9616C25.1231 11.5033 26.237 11.9646 27.0582 12.7859C27.8795 13.6072 28.3409 14.7211 28.3409 15.8825C28.3409 17.044 27.8795 18.1579 27.0582 18.9791C26.237 19.8004 25.1231 20.2618 23.9616 20.2618H8.94697Z" stroke="#32AC8C" stroke-width="2" stroke-linecap="round" stroke-linejoin="round"/>
<path d="M6.44434 25.2666H23.9614" stroke="#32AC8C" stroke-width="2" stroke-linecap="round" stroke-linejoin="round"/>
</svg>
