<svg width="24" height="24" viewBox="0 0 24 24" fill="none" xmlns="http://www.w3.org/2000/svg">
<path d="M19 18H3V20H19V18ZM2 17V7H0V17H2ZM3 6H19V4H3V6ZM20 7V17H22V7H20ZM19 6C19.5523 6 20 6.44772 20 7H22C22 5.34315 20.6569 4 19 4V6ZM3 18C2.44772 18 2 17.5523 2 17H0C0 18.6569 1.34315 20 3 20V18ZM19 20C20.6569 20 22 18.6569 22 17H20C20 17.5523 19.5523 18 19 18V20ZM2 7C2 6.44772 2.44772 6 3 6V4C1.34315 4 0 5.34315 0 7H2Z" fill="#32AC8C"/>
<path d="M5 4H19V2H5V4ZM22 7V15H24V7H22ZM19 4C20.6569 4 22 5.34315 22 7H24C24 4.23858 21.7614 2 19 2V4ZM22 15C22 15.5523 21.5523 16 21 16V18C22.6569 18 24 16.6569 24 15H22ZM5 2C3.34315 2 2 3.34315 2 5H4C4 4.44772 4.44772 4 5 4V2Z" fill="#32AC8C"/>
<path d="M1 15H21M10 10.5H17" stroke="#32AC8C" stroke-width="2" stroke-linecap="round"/>
<rect x="4" y="9" width="3" height="3" rx="1" fill="#32AC8C"/>
</svg>
