<svg width="32" height="32" viewBox="0 0 32 32" fill="none" xmlns="http://www.w3.org/2000/svg">
<path d="M25.1667 14.1667C25.6529 14.1667 26.1192 13.9735 26.463 13.6297C26.8068 13.2859 27 12.8196 27 12.3333V6.83333C27 6.3471 26.8068 5.88079 26.463 5.53697C26.1192 5.19315 25.6529 5 25.1667 5H19.6667C19.1804 5 18.7141 5.19315 18.3703 5.53697C18.0265 5.88079 17.8333 6.3471 17.8333 6.83333V12.3333C17.8333 12.8196 18.0265 13.2859 18.3703 13.6297C18.7141 13.9735 19.1804 14.1667 19.6667 14.1667H21.5V17.925C20.6192 18.1046 19.8106 18.5393 19.175 19.175C18.5393 19.8106 18.1046 20.6192 17.925 21.5H14.1667V19.6667C14.1667 19.1804 13.9735 18.7141 13.6297 18.3703C13.2859 18.0265 12.8196 17.8333 12.3333 17.8333H10.5V14.075C11.6129 13.8478 12.6018 13.2155 13.2749 12.3007C13.9481 11.3859 14.2576 10.2537 14.1435 9.1236C14.0293 7.99353 13.4996 6.94611 12.6571 6.18439C11.8145 5.42268 10.7192 5.00094 9.58334 5.00094C8.44752 5.00094 7.35216 5.42268 6.50962 6.18439C5.66708 6.94611 5.13738 7.99353 5.02322 9.1236C4.90906 10.2537 5.21857 11.3859 5.89175 12.3007C6.56492 13.2155 7.5538 13.8478 8.66668 14.075V17.8333H6.83334C6.34711 17.8333 5.8808 18.0265 5.53698 18.3703C5.19316 18.7141 5.00001 19.1804 5.00001 19.6667V25.1667C5.00001 25.6529 5.19316 26.1192 5.53698 26.463C5.8808 26.8068 6.34711 27 6.83334 27H12.3333C12.8196 27 13.2859 26.8068 13.6297 26.463C13.9735 26.1192 14.1667 25.6529 14.1667 25.1667V23.3333H17.925C18.0908 24.1445 18.4732 24.8956 19.0317 25.5069C19.5901 26.1181 20.3037 26.5667 21.0966 26.805C21.8895 27.0432 22.7321 27.0622 23.535 26.86C24.3379 26.6578 25.071 26.2418 25.6564 25.6564C26.2418 25.071 26.6578 24.3379 26.86 23.535C27.0622 22.7321 27.0432 21.8895 26.805 21.0966C26.5667 20.3037 26.1181 19.5901 25.5069 19.0317C24.8956 18.4732 24.1445 18.0908 23.3333 17.925V14.1667H25.1667ZM6.83334 9.58333C6.83334 9.03943 6.99463 8.50775 7.2968 8.05552C7.59898 7.60328 8.02847 7.25081 8.53096 7.04266C9.03346 6.83452 9.58639 6.78006 10.1198 6.88617C10.6533 6.99228 11.1433 7.2542 11.5279 7.63879C11.9125 8.02338 12.1744 8.51339 12.2805 9.04683C12.3866 9.58028 12.3321 10.1332 12.124 10.6357C11.9159 11.1382 11.5634 11.5677 11.1112 11.8699C10.6589 12.172 10.1272 12.3333 9.58334 12.3333C8.854 12.3333 8.15452 12.0436 7.6388 11.5279C7.12307 11.0122 6.83334 10.3127 6.83334 9.58333ZM12.3333 25.1667H6.83334V19.6667H12.3333V25.1667ZM25.1667 22.4167C25.1667 22.9606 25.0054 23.4922 24.7032 23.9445C24.401 24.3967 23.9715 24.7492 23.469 24.9573C22.9666 25.1655 22.4136 25.2199 21.8802 25.1138C21.3467 25.0077 20.8567 24.7458 20.4721 24.3612C20.0875 23.9766 19.8256 23.4866 19.7195 22.9532C19.6134 22.4197 19.6679 21.8668 19.876 21.3643C20.0841 20.8618 20.4366 20.4323 20.8889 20.1301C21.3411 19.828 21.8728 19.6667 22.4167 19.6667C23.146 19.6667 23.8455 19.9564 24.3612 20.4721C24.8769 20.9878 25.1667 21.6873 25.1667 22.4167ZM19.6667 6.83333H25.1667V12.3333H19.6667V6.83333Z" fill="#32AC8C"/>
</svg>
