<svg width="36" height="36" viewBox="0 0 36 36" fill="none" xmlns="http://www.w3.org/2000/svg">
<path d="M16.4396 24.6599C16.6466 24.4418 16.8951 24.2673 17.1705 24.1468C17.446 24.0263 17.7428 23.9622 18.0434 23.9582C18.344 23.9543 18.6424 24.0106 18.9209 24.1238C19.1995 24.237 19.4525 24.4049 19.6651 24.6175C19.8777 24.8301 20.0455 25.0831 20.1588 25.3616C20.272 25.6401 20.3283 25.9385 20.3243 26.2392C20.3204 26.5398 20.2562 26.8366 20.1357 27.112C20.0152 27.3875 19.8408 27.636 19.6226 27.8429C19.1984 28.2549 18.6292 28.4834 18.0378 28.4792C17.4465 28.4749 16.8806 28.2382 16.4624 27.8202C16.0441 27.4021 15.8072 26.8363 15.8026 26.245C15.7981 25.6537 16.0264 25.0843 16.4381 24.6599H16.4396ZM12.5336 20.5469C14.0057 19.0751 16.002 18.2483 18.0836 18.2483C20.1652 18.2483 22.1616 19.0751 23.6336 20.5469C24.3236 21.2384 24.8906 22.0844 25.2851 22.9844C25.3642 23.1649 25.407 23.3591 25.411 23.5561C25.415 23.753 25.3802 23.9489 25.3086 24.1324C25.2369 24.3159 25.1298 24.4835 24.9934 24.6256C24.8569 24.7677 24.6938 24.8816 24.5134 24.9607C24.333 25.0398 24.1387 25.0825 23.9417 25.0865C23.7448 25.0906 23.5489 25.0557 23.3654 24.9841C23.1819 24.9124 23.0143 24.8053 22.8722 24.6689C22.7301 24.5324 22.6162 24.3694 22.5371 24.1889C22.2914 23.624 21.9442 23.109 21.5126 22.6694C20.6032 21.76 19.3698 21.2491 18.0836 21.2491C16.7975 21.2491 15.5641 21.76 14.6546 22.6694C14.2282 23.1023 13.8863 23.611 13.6466 24.1694C13.5692 24.3522 13.4563 24.5178 13.3144 24.6566C13.1725 24.7954 13.0045 24.9047 12.8201 24.978C12.6356 25.0514 12.4385 25.0875 12.24 25.0841C12.0416 25.0808 11.8457 25.038 11.6639 24.9584C11.4821 24.8788 11.3178 24.7639 11.1807 24.6204C11.0436 24.4769 10.9364 24.3076 10.8652 24.1223C10.794 23.937 10.7603 23.7394 10.7661 23.541C10.7718 23.3426 10.8169 23.1473 10.8986 22.9664C11.288 22.065 11.8426 21.2444 12.5336 20.5469ZM9.46464 16.0604C10.5968 14.9282 11.9408 14.0301 13.4201 13.4174C14.8993 12.8046 16.4848 12.4893 18.0859 12.4893C19.687 12.4893 21.2725 12.8046 22.7517 13.4174C24.2309 14.0301 25.575 14.9282 26.7071 16.0604C27.6155 16.9804 28.376 18.0353 28.9616 19.1879C29.1289 19.5404 29.1522 19.9442 29.0267 20.3136C28.9011 20.683 28.6366 20.9889 28.2892 21.1665C27.9419 21.3441 27.539 21.3793 27.166 21.2648C26.7931 21.1502 26.4794 20.8949 26.2916 20.5529C25.8483 19.6795 25.2731 18.8796 24.5861 18.1814C23.5593 17.1542 22.3037 16.385 20.9222 15.9367C19.5407 15.4884 18.0727 15.3739 16.6384 15.6025C15.2041 15.8311 13.8444 16.3964 12.6707 17.2519C11.497 18.1074 10.5427 19.2289 9.88614 20.5244C9.79808 20.7015 9.67586 20.8595 9.52651 20.9892C9.37716 21.1189 9.20363 21.2178 9.01592 21.2802C8.8282 21.3425 8.63 21.3672 8.43272 21.3526C8.23545 21.3381 8.043 21.2847 7.86645 21.1954C7.68991 21.1062 7.53275 20.983 7.40403 20.8328C7.2753 20.6826 7.17756 20.5084 7.11642 20.3203C7.05528 20.1322 7.03195 19.9338 7.04778 19.7366C7.06361 19.5395 7.11828 19.3474 7.20864 19.1714C7.79041 18.021 8.55198 16.9708 9.46464 16.0604Z" fill="#32AC8C"/>
</svg>
