<svg width="640" height="351" viewBox="0 0 640 351" fill="none" xmlns="http://www.w3.org/2000/svg">
<path fill-rule="evenodd" clip-rule="evenodd" d="M174.518 914.364C102.241 869.723 23.6328 826.141 -10.5834 748.384C-43.7486 673.016 -14.1054 589.261 -4.52841 507.477C5.36755 422.969 -19.5703 317.694 46.1753 263.684C112.578 209.134 212.878 273.427 297.636 259.249C381.542 245.214 454.887 151.592 534.326 182.03C612.98 212.168 618.796 320.86 655.849 396.503C691.441 469.166 762.367 535.9 746.529 615.246C730.756 694.265 628.714 717.808 579.05 781.26C519.685 857.105 521.039 990.119 429.55 1020.22C339.925 1049.71 254.793 963.944 174.518 914.364Z" fill="#81B3FF"/>
</svg>
